<svg width="20" height="20" viewBox="0 0 20 20" fill="currentColor" xmlns="http://www.w3.org/2000/svg">
<path d="M2.1875 1.25H17.8125C19.02 1.25 20 2.23 20 3.4375V14.0625C20 14.6427 19.7695 15.1991 19.3593 15.6093C18.9491 16.0195 18.3927 16.25 17.8125 16.25H10.0762L6.85875 19.4662C6.60381 19.7202 6.2794 19.893 5.9264 19.9629C5.5734 20.0328 5.20761 19.9966 4.87514 19.8589C4.54268 19.7212 4.25841 19.4882 4.05818 19.1892C3.85795 18.8902 3.75072 18.5386 3.75 18.1788V16.25H2.1875C1.60734 16.25 1.05094 16.0195 0.640704 15.6093C0.230468 15.1991 0 14.6427 0 14.0625L0 3.4375C0 2.23 0.98 1.25 2.1875 1.25ZM1.875 3.4375V14.0625C1.875 14.235 2.015 14.375 2.1875 14.375H4.6875C4.93614 14.375 5.1746 14.4738 5.35041 14.6496C5.52623 14.8254 5.625 15.0639 5.625 15.3125V18.05L9.025 14.65C9.11193 14.5629 9.21519 14.4937 9.32887 14.4465C9.44255 14.3993 9.56442 14.375 9.6875 14.375H17.8125C17.8954 14.375 17.9749 14.3421 18.0335 14.2835C18.0921 14.2249 18.125 14.1454 18.125 14.0625V3.4375C18.125 3.35462 18.0921 3.27513 18.0335 3.21653C17.9749 3.15792 17.8954 3.125 17.8125 3.125H2.1875C2.10462 3.125 2.02513 3.15792 1.96653 3.21653C1.90792 3.27513 1.875 3.35462 1.875 3.4375ZM8.475 5.5875C8.65056 5.76328 8.74918 6.00156 8.74918 6.25C8.74918 6.49844 8.65056 6.73672 8.475 6.9125L6.6375 8.75L8.475 10.5875C8.64051 10.7653 8.73064 11.0004 8.72644 11.2433C8.72225 11.4862 8.62405 11.718 8.4525 11.89C8.2805 12.0616 8.04868 12.1597 7.80579 12.1639C7.56289 12.1681 7.32783 12.078 7.15 11.9125L4.65 9.4125C4.47444 9.23672 4.37582 8.99844 4.37582 8.75C4.37582 8.50156 4.47444 8.26328 4.65 8.0875L7.15 5.5875C7.32578 5.41194 7.56406 5.31332 7.8125 5.31332C8.06094 5.31332 8.29922 5.41194 8.475 5.5875ZM11.525 5.5875C11.7008 5.41194 11.9391 5.31332 12.1875 5.31332C12.4359 5.31332 12.6742 5.41194 12.85 5.5875L15.35 8.0875C15.5256 8.26328 15.6242 8.50156 15.6242 8.75C15.6242 8.99844 15.5256 9.23672 15.35 9.4125L12.85 11.9125C12.6722 12.078 12.4371 12.1681 12.1942 12.1639C11.9513 12.1597 11.7195 12.0616 11.5475 11.89C11.3759 11.718 11.2778 11.4862 11.2736 11.2433C11.2694 11.0004 11.3595 10.7653 11.525 10.5875L13.3625 8.75L11.525 6.9125C11.3494 6.73672 11.2508 6.49844 11.2508 6.25C11.2508 6.00156 11.3494 5.76328 11.525 5.5875Z"/>
</svg>
