<svg width="20" height="20" viewBox="0 0 20 20" fill="currentColor" xmlns="http://www.w3.org/2000/svg">
<path fill-rule="evenodd" clip-rule="evenodd" d="M18 3.53363H2C1.72386 3.53363 1.5 3.75749 1.5 4.03363V16.0336C1.5 16.3098 1.72386 16.5336 2 16.5336H18C18.2761 16.5336 18.5 16.3098 18.5 16.0336V4.03363C18.5 3.75749 18.2761 3.53363 18 3.53363ZM2 2.03363C0.895431 2.03363 0 2.92906 0 4.03363V16.0336C0 17.1382 0.895431 18.0336 2 18.0336H18C19.1046 18.0336 20 17.1382 20 16.0336V4.03363C20 2.92906 19.1046 2.03363 18 2.03363H2Z"/>
<path fill-rule="evenodd" clip-rule="evenodd" d="M15 11H11C10.7239 11 10.5 11.2239 10.5 11.5V12.5C10.5 12.7761 10.7239 13 11 13H15C15.2761 13 15.5 12.7761 15.5 12.5V11.5C15.5 11.2239 15.2761 11 15 11ZM11 9.5C9.89543 9.5 9 10.3954 9 11.5V12.5C9 13.6046 9.89543 14.5 11 14.5H15C16.1046 14.5 17 13.6046 17 12.5V11.5C17 10.3954 16.1046 9.5 15 9.5H11Z"/>
<path fill-rule="evenodd" clip-rule="evenodd" d="M5.5 13C6.05228 13 6.5 12.5523 6.5 12C6.5 11.4477 6.05228 11 5.5 11C4.94772 11 4.5 11.4477 4.5 12C4.5 12.5523 4.94772 13 5.5 13ZM5.5 14.5C6.88071 14.5 8 13.3807 8 12C8 10.6193 6.88071 9.5 5.5 9.5C4.11929 9.5 3 10.6193 3 12C3 13.3807 4.11929 14.5 5.5 14.5Z"/>
<path fill-rule="evenodd" clip-rule="evenodd" d="M1.50458 6.25H18.5046V7.75H1.50458V6.25Z"/>
</svg>
