<svg width="21" height="21" viewBox="0 0 21 21" fill="none" xmlns="http://www.w3.org/2000/svg">
<path d="M5.12359 13.4038V5.31578H6.16759V9.21578H6.20359C6.41959 8.90378 6.63559 8.61578 6.83959 8.35178L9.31159 5.31578H10.6076L7.67959 8.74778L10.8356 13.4038H9.59959L6.94759 9.43178L6.16759 10.3198V13.4038H5.12359Z" fill="#4E4E4E"/>
<path d="M16.5595 9.17978V12.5518C16.5595 13.8958 16.2835 14.6998 15.7315 15.2158C15.1555 15.7318 14.3395 15.9118 13.6075 15.9118C12.9115 15.9118 12.1435 15.7438 11.6755 15.4318L11.9395 14.6158C12.3235 14.8678 12.9235 15.0838 13.6435 15.0838C14.7235 15.0838 15.5155 14.5198 15.5155 13.0438V12.4078H15.4915C15.1795 12.9478 14.5435 13.3798 13.6435 13.3798C12.2035 13.3798 11.1715 12.1558 11.1715 10.5478C11.1715 8.57978 12.4555 7.47578 13.7995 7.47578C14.8075 7.47578 15.3475 7.99178 15.6115 8.47178H15.6355L15.6715 7.59578H16.6075C16.5715 8.00378 16.5595 8.48378 16.5595 9.17978ZM15.5035 10.9318V9.88778C15.5035 9.70778 15.4915 9.55178 15.4435 9.41978C15.2515 8.79578 14.7475 8.29178 13.9675 8.29178C12.9595 8.29178 12.2395 9.14378 12.2395 10.4878C12.2395 11.6278 12.8275 12.5758 13.9555 12.5758C14.6155 12.5758 15.2035 12.1678 15.4195 11.4958C15.4795 11.3158 15.5035 11.1118 15.5035 10.9318Z" fill="#8F8F8F"/>
<path d="M10.3602 17.0183C6.29388 17.0183 2.71999 15.5589 0.87207 13.4038C1.58907 15.3426 2.88282 17.0152 4.57917 18.1965C6.27551 19.3778 8.29308 20.0111 10.3602 20.0111C12.4273 20.0111 14.4449 19.3778 16.1412 18.1965C17.8376 17.0152 19.1313 15.3426 19.8483 13.4038C18.0049 15.5589 14.4446 17.0183 10.3602 17.0183Z" fill="#F37726"/>
<path d="M10.3602 3.00387C14.4265 3.00387 18.0004 4.46323 19.8483 6.61838C19.1313 4.67958 17.8376 3.00695 16.1412 1.82565C14.4449 0.644348 12.4273 0.0110779 10.3602 0.0110779C8.29308 0.0110779 6.27551 0.644348 4.57917 1.82565C2.88282 3.00695 1.58907 4.67958 0.87207 6.61838C2.71999 4.45871 6.27581 3.00387 10.3602 3.00387Z" fill="#F37726"/>
</svg>
