<svg width="20" height="20" viewBox="0 0 20 20" fill="none" xmlns="http://www.w3.org/2000/svg">
<path d="M10.4113 17.293C6.34504 17.293 2.77116 15.8337 0.923232 13.6785C1.64023 15.6173 2.93398 17.29 4.63033 18.4713C6.32667 19.6526 8.34424 20.2858 10.4113 20.2858C12.4785 20.2858 14.496 19.6526 16.1924 18.4713C17.8887 17.29 19.1825 15.6173 19.8995 13.6785C18.0561 15.8337 14.4958 17.293 10.4113 17.293Z" fill="#F37726"/>
<path d="M10.4113 3.27862C14.4777 3.27862 18.0516 4.73798 19.8995 6.89313C19.1825 4.95433 17.8887 3.2817 16.1924 2.1004C14.496 0.919097 12.4785 0.285828 10.4113 0.285828C8.34424 0.285828 6.32667 0.919097 4.63033 2.1004C2.93398 3.2817 1.64023 4.95433 0.923232 6.89313C2.77116 4.73346 6.32697 3.27862 10.4113 3.27862Z" fill="#F37726"/>
<path d="M5.41105 6.53603C5.41105 6.41171 5.46044 6.29248 5.54834 6.20457C5.63625 6.11666 5.75548 6.06728 5.8798 6.06728H8.53792C9.3048 6.06728 9.98605 6.43603 10.4129 7.0054C10.6311 6.7137 10.9144 6.47698 11.2403 6.31411C11.5661 6.15124 11.9255 6.06672 12.2898 6.06728H14.9429C15.0672 6.06728 15.1865 6.11666 15.2744 6.20457C15.3623 6.29248 15.4117 6.41171 15.4117 6.53603V13.0985C15.4117 13.2228 15.3623 13.3421 15.2744 13.43C15.1865 13.5179 15.0672 13.5673 14.9429 13.5673H12.126C11.9414 13.5673 11.7585 13.6036 11.5879 13.6743C11.4173 13.745 11.2623 13.8486 11.1317 13.9792L10.7429 14.3673C10.655 14.4551 10.5359 14.5044 10.4117 14.5044C10.2875 14.5044 10.1683 14.4551 10.0804 14.3673L9.69167 13.9792C9.56109 13.8486 9.40606 13.745 9.23545 13.6743C9.06483 13.6036 8.88197 13.5673 8.6973 13.5673H5.8798C5.75548 13.5673 5.63625 13.5179 5.54834 13.43C5.46044 13.3421 5.41105 13.2228 5.41105 13.0985V6.53603ZM9.94292 12.9885L9.94542 9.8179L9.94417 8.40978C9.94384 8.03703 9.79554 7.67967 9.53185 7.41622C9.26816 7.15277 8.91067 7.00478 8.53792 7.00478H6.34855V12.6298H8.69667C9.13756 12.6298 9.56952 12.7541 9.94292 12.9885ZM10.8829 8.41103L10.8804 12.9873C11.2536 12.7536 11.6851 12.6297 12.1254 12.6298H14.4735V7.00478H12.2892C11.9162 7.00478 11.5585 7.15294 11.2948 7.41666C11.0311 7.68038 10.8829 8.03807 10.8829 8.41103Z" fill="#4E4E4E"/>
</svg>
