<?xml version="1.0" encoding="UTF-8" standalone="no"?>
<svg
   xmlns:dc="http://purl.org/dc/elements/1.1/"
   xmlns:cc="http://creativecommons.org/ns#"
   xmlns:rdf="http://www.w3.org/1999/02/22-rdf-syntax-ns#"
   xmlns:svg="http://www.w3.org/2000/svg"
   xmlns="http://www.w3.org/2000/svg"
   xmlns:sodipodi="http://sodipodi.sourceforge.net/DTD/sodipodi-0.dtd"
   xmlns:inkscape="http://www.inkscape.org/namespaces/inkscape"
   fill="none"
   viewBox="0 0 20 20"
   aria-hidden="true"
   version="1.1"
   id="svg858"
   sodipodi:docname="jupyter-lab.svg"
   width="20"
   height="20"
   inkscape:version="1.0.1 (c497b03c, 2020-09-10)">
  <metadata
     id="metadata862">
    <rdf:RDF>
      <cc:Work
         rdf:about="">
        <dc:format>image/svg+xml</dc:format>
        <dc:type
           rdf:resource="http://purl.org/dc/dcmitype/StillImage" />
        <dc:title></dc:title>
      </cc:Work>
    </rdf:RDF>
  </metadata>
  <sodipodi:namedview
     pagecolor="#ffffff"
     bordercolor="#666666"
     borderopacity="1"
     objecttolerance="10"
     gridtolerance="10"
     guidetolerance="10"
     inkscape:pageopacity="0"
     inkscape:pageshadow="2"
     inkscape:window-width="1332"
     inkscape:window-height="958"
     id="namedview860"
     showgrid="false"
     inkscape:zoom="35.857143"
     inkscape:cx="10"
     inkscape:cy="10.5"
     inkscape:window-x="0"
     inkscape:window-y="25"
     inkscape:window-maximized="0"
     inkscape:current-layer="svg858" />
  <g
     clip-path="url(#clip0_14_55)"
     id="g841"
     transform="translate(0,-0.93)">
    <path
       fill="url(#paint0_linear_14_55)"
       d="m 10,20.93 c 5.523,0 10,-4.477 10,-10 0,-5.523 -4.477,-10 -10,-10 -5.523,0 -10,4.477 -10,10 0,5.523 4.477,10 10,10 z"
       id="path833"
       style="fill:url(#paint0_linear_14_55)" />
    <path
       fill="url(#paint1_radial_14_55)"
       d="M 10,20.227 A 9.297,9.297 0 1 0 10,1.634 9.297,9.297 0 0 0 10,20.227 Z"
       id="path835"
       style="fill:url(#paint1_radial_14_55)" />
    <path
       fill="#ffffff"
       d="M 5.144,13.556 H 6.418 V 7.606 H 5.144 Z m 5.719,-2.422 c 0,-0.972 -0.427,-1.776 -1.793,-1.776 -0.746,0 -1.308,0.21 -1.593,0.368 l 0.235,0.822 c 0.268,-0.168 0.713,-0.31 1.132,-0.31 0.628,0 0.745,0.31 0.745,0.536 v 0.05 c -1.45,0 -2.405,0.503 -2.405,1.568 0,0.653 0.495,1.257 1.324,1.257 0.486,0 0.905,-0.176 1.174,-0.503 h 0.025 l 0.075,0.41 H 10.93 C 10.88,13.33 10.863,12.953 10.863,12.568 Z m -1.232,0.93 c 0,0.076 -0.008,0.152 -0.025,0.219 a 0.704,0.704 0 0 1 -0.662,0.469 c -0.285,0 -0.503,-0.16 -0.503,-0.486 0,-0.486 0.52,-0.646 1.19,-0.646 v 0.445 z m 2.241,0.269 c 0,0.46 -0.017,0.955 -0.034,1.223 h 1.082 l 0.05,-0.57 h 0.017 c 0.284,0.487 0.754,0.663 1.232,0.663 0.938,0 1.868,-0.738 1.868,-2.213 0.009,-1.257 -0.704,-2.07 -1.684,-2.07 -0.57,0 -0.997,0.226 -1.24,0.578 H 13.146 V 7.606 h -1.274 z m 1.274,-1.123 c 0,-0.084 0.008,-0.16 0.025,-0.235 0.084,-0.369 0.402,-0.628 0.746,-0.628 0.595,0 0.88,0.502 0.88,1.14 0,0.737 -0.335,1.156 -0.88,1.156 a 0.78,0.78 0 0 1 -0.746,-0.604 0.933,0.933 0 0 1 -0.025,-0.226 z"
       id="path837" />
    <path
       fill="#f37626"
       d="M 10,2.658 A 8.272,8.272 0 0 0 2.969,6.59 C 3.849,5.893 4.931,5.334 6.143,4.951 A 12.905,12.905 0 0 1 10,4.37 12.9,12.9 0 0 1 13.867,4.957 c 1.214,0.386 2.297,0.948 3.177,1.649 A 8.272,8.272 0 0 0 10,2.658 Z M 2.956,15.256 A 8.273,8.273 0 0 0 10,19.203 8.273,8.273 0 0 0 17.031,15.269 c -0.88,0.697 -1.962,1.256 -3.174,1.64 A 12.903,12.903 0 0 1 10,17.49 12.897,12.897 0 0 1 6.133,16.903 C 4.919,16.517 3.836,15.956 2.956,15.255 Z"
       id="path839" />
  </g>
  <defs
     id="defs856">
    <radialGradient
       id="paint1_radial_14_55"
       cx="0"
       cy="0"
       r="1"
       gradientTransform="matrix(7.20004,0,0,7.20004,10,10.93)"
       gradientUnits="userSpaceOnUse">
      <stop
         stop-color="#545454"
         id="stop843" />
      <stop
         offset="1"
         stop-color="#212121"
         id="stop845" />
    </radialGradient>
    <linearGradient
       id="paint0_linear_14_55"
       x1="9.8400002"
       x2="9.8400002"
       y1="0.93099999"
       y2="20.936001"
       gradientUnits="userSpaceOnUse">
      <stop
         stop-color="#fff"
         id="stop848" />
      <stop
         offset="1"
         stop-color="#BEBEBE"
         id="stop850" />
    </linearGradient>
    <clipPath
       id="clip0_14_55">
      <path
         fill="#ffffff"
         d="M 0,0 H 20 V 20 H 0 Z"
         transform="translate(0,0.93)"
         id="path853" />
    </clipPath>
  </defs>
</svg>
