<?xml version="1.0" encoding="UTF-8" standalone="no"?>
<svg
   xmlns:dc="http://purl.org/dc/elements/1.1/"
   xmlns:cc="http://creativecommons.org/ns#"
   xmlns:rdf="http://www.w3.org/1999/02/22-rdf-syntax-ns#"
   xmlns:svg="http://www.w3.org/2000/svg"
   xmlns="http://www.w3.org/2000/svg"
   xmlns:sodipodi="http://sodipodi.sourceforge.net/DTD/sodipodi-0.dtd"
   xmlns:inkscape="http://www.inkscape.org/namespaces/inkscape"
   id="Layer_1"
   viewBox="0 0 500 500"
   version="1.1"
   sodipodi:docname="ovh-cloud-name.svg"
   width="500"
   height="500"
   inkscape:version="1.0.1 (c497b03c, 2020-09-10)">
  <metadata
     id="metadata860">
    <rdf:RDF>
      <cc:Work
         rdf:about="">
        <dc:format>image/svg+xml</dc:format>
        <dc:type
           rdf:resource="http://purl.org/dc/dcmitype/StillImage" />
        <dc:title>OVHcloud_master_logo_fullcolor_RGB</dc:title>
      </cc:Work>
    </rdf:RDF>
  </metadata>
  <sodipodi:namedview
     pagecolor="#ffffff"
     bordercolor="#666666"
     borderopacity="1"
     objecttolerance="10"
     gridtolerance="10"
     guidetolerance="10"
     inkscape:pageopacity="0"
     inkscape:pageshadow="2"
     inkscape:window-width="1497"
     inkscape:window-height="867"
     id="namedview858"
     showgrid="false"
     units="px"
     width="500in"
     inkscape:zoom="0.28506322"
     inkscape:cx="-375.41871"
     inkscape:cy="240.60793"
     inkscape:window-x="0"
     inkscape:window-y="25"
     inkscape:window-maximized="0"
     inkscape:current-layer="Layer_1"
     inkscape:document-rotation="0" />
  <defs
     id="defs835">
    <style
       type="text/css"
       id="style833">.cls-1,.cls-2{fill:#000e9c;}.cls-1{fill-rule:evenodd;}</style>
  </defs>
  <title
     id="title837">OVHcloud_master_logo_fullcolor_RGB</title>
  <path
     class="cls-1"
     d="M 467.79621,53.20454 A 256.46916,256.46916 0 0 1 443.87614,337.751 H 306.75148 l 42.21188,-74.63827 h -55.83481 l 65.81217,-115.95477 h 56.15459 l 52.7009,-93.82551 z M 197.00059,337.751 H 57.189708 A 253.20734,253.20734 0 0 1 32.949858,52.56497 L 123.64145,210.09204 223.60686,36 H 370.70888 L 197.06455,337.62309 v 0 0 z"
     id="path839"
     style="stroke-width:6.39574" />
  <g
     id="g870"
     transform="matrix(2.4175662,0,0,2.4175662,-220.50621,361.64051)">
    <path
       class="cls-2"
       d="m 128.18,62.9 c 0,-12.59 6.27,-18.64 16.57,-18.64 10.3,0 16.56,6.05 16.56,18.64 0,12.59 -6.31,18.57 -16.56,18.57 -10.25,0 -16.57,-6.1 -16.57,-18.57 z m 3.72,0 c 0,10.35 4.72,15.28 12.85,15.28 8.13,0 12.84,-4.93 12.84,-15.28 0,-10.35 -4.72,-15.35 -12.84,-15.35 -8.12,0 -12.85,4.94 -12.85,15.35 z"
       transform="translate(-36.97,-37.62)"
       id="path841" />
    <path
       class="cls-2"
       d="m 188.38,45.75 a 1.82,1.82 0 0 1 1.7,-1.17 1.79,1.79 0 0 1 1.8,1.81 2.42,2.42 0 0 1 -0.16,0.79 L 179.3,79.93 a 1.78,1.78 0 0 1 -3.39,0 L 163.49,47.18 a 2.42,2.42 0 0 1 -0.16,-0.79 1.79,1.79 0 0 1 1.8,-1.81 1.82,1.82 0 0 1 1.7,1.17 l 10.77,28.56 z"
       transform="translate(-36.97,-37.62)"
       id="path843" />
    <path
       class="cls-2"
       d="m 199.42,64.06 v 15.29 a 1.81,1.81 0 1 1 -3.61,0 v -33 a 1.81,1.81 0 1 1 3.61,0 V 60.77 H 217.9 V 46.39 a 1.81,1.81 0 1 1 3.61,0 v 33 a 1.81,1.81 0 1 1 -3.61,0 V 64.06 Z"
       transform="translate(-36.97,-37.62)"
       id="path845" />
    <path
       class="cls-2"
       d="m 238.55,55.89 a 10,10 0 0 1 8.17,3.66 1.56,1.56 0 0 1 0.37,1 1.51,1.51 0 0 1 -1.54,1.54 1.56,1.56 0 0 1 -1.27,-0.64 6.8,6.8 0 0 0 -5.73,-2.45 c -4.89,0 -7.49,3.13 -7.49,9.66 0,6.53 2.6,9.71 7.49,9.71 a 9.68,9.68 0 0 0 6.15,-2.28 1.56,1.56 0 0 1 1,-0.37 1.54,1.54 0 0 1 1.54,1.54 1.63,1.63 0 0 1 -0.69,1.32 12.06,12.06 0 0 1 -8,2.87 c -6.85,0 -10.94,-4.09 -10.94,-12.79 0,-8.7 4.09,-12.77 10.94,-12.77 z"
       transform="translate(-36.97,-37.62)"
       id="path847" />
    <path
       class="cls-2"
       d="M 255.48,44.63 V 75 c 0,2.12 0.69,3 2.12,3 a 1.6,1.6 0 1 1 0,3.19 c -3.55,0 -5.52,-2.13 -5.52,-6.21 V 44.63 a 1.74,1.74 0 0 1 1.7,-1.69 1.7,1.7 0 0 1 1.7,1.69 z"
       transform="translate(-36.97,-37.62)"
       id="path849" />
    <path
       class="cls-2"
       d="m 284.41,68.63 c 0,8.7 -4.25,12.79 -11.15,12.79 -6.9,0 -11.14,-4.09 -11.14,-12.79 0,-8.7 4.3,-12.74 11.14,-12.74 6.84,0 11.15,4.03 11.15,12.74 z m -3.45,0 c 0,-6.69 -2.81,-9.66 -7.7,-9.66 -4.89,0 -7.69,3 -7.69,9.66 0,6.66 2.81,9.71 7.69,9.71 4.88,0 7.74,-2.92 7.74,-9.71 z"
       transform="translate(-36.97,-37.62)"
       id="path851" />
    <path
       class="cls-2"
       d="m 292.59,57.91 v 13.85 c 0,3.45 1.11,6.42 6.47,6.42 5.36,0 6.48,-3 6.48,-6.42 V 57.91 a 1.72,1.72 0 0 1 1.75,-1.7 1.67,1.67 0 0 1 1.65,1.7 v 13.85 c 0,5 -1.65,9.66 -9.88,9.66 -8.23,0 -9.87,-4.62 -9.87,-9.66 V 57.91 a 1.67,1.67 0 0 1 1.7,-1.7 1.71,1.71 0 0 1 1.7,1.7 z"
       transform="translate(-36.97,-37.62)"
       id="path853" />
    <path
       class="cls-2"
       d="M 331.6,59.34 V 44.63 a 1.7,1.7 0 0 1 3.4,0 V 71 c 0,7 -4.35,10.46 -10.4,10.46 -6.85,0 -10.89,-4.09 -10.89,-12.79 0,-8.7 3.83,-12.74 10.67,-12.74 a 9,9 0 0 1 7.22,3.41 z m 0,4.3 c 0,0 -2,-4.67 -7,-4.67 -5,0 -7.49,3.13 -7.49,9.66 0,6.53 2.6,9.71 7.49,9.71 4.08,0 7,-2.33 7,-7.38 z"
       transform="translate(-36.97,-37.62)"
       id="path855" />
  </g>
</svg>
