<?xml version="1.0" encoding="UTF-8" standalone="no"?>
<svg
   xmlns:dc="http://purl.org/dc/elements/1.1/"
   xmlns:cc="http://creativecommons.org/ns#"
   xmlns:rdf="http://www.w3.org/1999/02/22-rdf-syntax-ns#"
   xmlns:svg="http://www.w3.org/2000/svg"
   xmlns="http://www.w3.org/2000/svg"
   xmlns:sodipodi="http://sodipodi.sourceforge.net/DTD/sodipodi-0.dtd"
   xmlns:inkscape="http://www.inkscape.org/namespaces/inkscape"
   width="2500"
   height="2500"
   viewBox="0 0 256 256.05214"
   preserveAspectRatio="xMinYMin meet"
   version="1.1"
   id="svg851"
   sodipodi:docname="redis.svg"
   inkscape:version="1.0.1 (c497b03c, 2020-09-10)">
  <metadata
     id="metadata857">
    <rdf:RDF>
      <cc:Work
         rdf:about="">
        <dc:format>image/svg+xml</dc:format>
        <dc:type
           rdf:resource="http://purl.org/dc/dcmitype/StillImage" />
        <dc:title></dc:title>
      </cc:Work>
    </rdf:RDF>
  </metadata>
  <defs
     id="defs855" />
  <sodipodi:namedview
     pagecolor="#ffffff"
     bordercolor="#666666"
     borderopacity="1"
     objecttolerance="10"
     gridtolerance="10"
     guidetolerance="10"
     inkscape:pageopacity="0"
     inkscape:pageshadow="2"
     inkscape:window-width="1625"
     inkscape:window-height="913"
     id="namedview853"
     showgrid="false"
     inkscape:zoom="0.22370953"
     inkscape:cx="1697.4417"
     inkscape:cy="1087.1807"
     inkscape:window-x="0"
     inkscape:window-y="25"
     inkscape:window-maximized="0"
     inkscape:current-layer="svg851" />
  <path
     d="m 245.97,185.54647 c -13.662,7.121 -84.434,36.22 -99.501,44.075 -15.067,7.856 -23.437,7.78 -35.34,2.09 -11.902,-5.69 -87.216,-36.112 -100.783,-42.597 -6.78,-3.24 -10.346,-5.976 -10.346,-8.56 v -25.876 c 0,0 98.05,-21.345 113.879,-27.024 15.828,-5.679 21.32,-5.884 34.79,-0.95 13.472,4.936 94.018,19.468 107.331,24.344 l -0.006,25.51 c 0.002,2.558 -3.07,5.364 -10.024,8.988"
     fill="#912626"
     id="path833" />
  <path
     d="m 245.965,159.82347 c -13.661,7.118 -84.431,36.218 -99.498,44.072 -15.066,7.857 -23.436,7.78 -35.338,2.09 -11.903,-5.686 -87.214,-36.113 -100.78,-42.594 -13.566,-6.485 -13.85,-10.948 -0.524,-16.166 13.326,-5.22 88.224,-34.60496 104.055,-40.2839 15.828,-5.677 21.319,-5.884 34.789,-0.948 13.471,4.93396 83.819,32.9349 97.13,37.8099 13.316,4.881 13.827,8.9 0.166,16.02"
     fill="#c6302b"
     id="path835" />
  <path
     d="m 245.97,143.67747 c -13.662,7.122 -84.434,36.22 -99.501,44.078 -15.067,7.853 -23.437,7.777 -35.34,2.087 -11.903,-5.687 -87.216,-36.112 -100.783,-42.597 -6.78,-3.24 -10.346,-5.972 -10.346,-8.557 v -25.87896 c 0,0 98.05,-21.343941 113.879,-27.022941 15.828,-5.679 21.32,-5.885 34.79,-0.95 13.473,4.935 94.019,19.464001 107.331,24.340971 l -0.006,25.51293 c 0.002,2.557 -3.07,5.363 -10.024,8.987"
     fill="#912626"
     id="path837" />
  <path
     d="m 245.965,117.95447 c -13.661,7.12 -84.431,36.218 -99.498,44.075 -15.066,7.854 -23.436,7.777 -35.338,2.087 -11.903,-5.686 -87.214,-36.112 -100.78,-42.594 -13.566,-6.48298 -13.85,-10.94694 -0.524,-16.1669 13.326,-5.217 88.225,-34.604001 104.055,-40.282001 15.828,-5.678 21.319,-5.884 34.789,-0.949 13.471,4.934 83.819,32.933 97.13,37.810001 13.316,4.88 13.827,8.89996 0.166,16.0199"
     fill="#c6302b"
     id="path839" />
  <path
     d="m 245.97,100.25657 c -13.662,7.11999 -84.434,36.2199 -99.501,44.0779 -15.067,7.854 -23.437,7.777 -35.34,2.087 C 99.226,140.73447 23.913,110.30853 10.346,103.82657 3.566,100.58357 0,97.850569 0,95.268569 v -25.88 c 0,0 98.05,-21.343 113.879,-27.021 15.828,-5.68 21.32,-5.884 34.79,-0.95 13.473,4.935 94.019,19.464 107.331,24.341 l -0.006,25.512 c 0.002,2.555 -3.07,5.361 -10.024,8.986001"
     fill="#912626"
     id="path841" />
  <path
     d="m 245.965,74.533569 c -13.661,7.12 -84.431,36.219961 -99.498,44.073901 -15.066,7.854 -23.436,7.777 -35.338,2.09 C 99.227,115.00749 23.915,84.583569 10.35,78.100569 c -13.567,-6.482 -13.85,-10.947 -0.525,-16.166 13.326,-5.218 88.225,-34.601 104.055,-40.281007 15.828,-5.679008 21.319,-5.883008 34.789,-0.948002 13.471,4.935008 83.819,32.934009 97.13,37.811009 13.316,4.876 13.827,8.897 0.166,16.017"
     fill="#c6302b"
     id="path843" />
  <path
     d="m 159.283,49.360569 -22.01,2.285 -4.927,11.856 -7.958,-13.23 -25.415,-2.284 18.964,-6.839 -5.69,-10.498 17.755,6.944 16.738,-5.48 -4.524,10.855 17.067,6.391 m -28.251,57.518001 -41.077,-17.037001 58.86,-9.035 -17.783,26.072001 M 74.082,55.950569 c 17.375,0 31.46,5.46 31.46,12.194 0,6.736 -14.085,12.195 -31.46,12.195 -17.375,0 -31.46,-5.46 -31.46,-12.195 0,-6.734 14.085,-12.194 31.46,-12.194"
     fill="#ffffff"
     id="path845" />
  <path
     d="m 185.295,52.601569 34.836,13.766 -34.806,13.753 -0.03,-27.52"
     fill="#621b1c"
     id="path847" />
  <path
     d="m 146.755,67.846569 38.54,-15.245 0.03,27.519 -3.779,1.478 -34.791,-13.752"
     fill="#9a2928"
     id="path849" />
</svg>
