<?xml version="1.0" encoding="UTF-8" standalone="no"?>
<svg
 xmlns="http://www.w3.org/2000/svg"
 version="1.1"
   height="300"
   width="300"
   id="svg2">
  <defs
 id="defs8">
    <linearGradient
 y2="12.7559"
 x2="-5674.9575"
 y1="12.7559"
       x1="-5691.9653"
       gradientUnits="userSpaceOnUse"
       id="SVGID_1_">
      <stop
 id="stop33"
 style="stop-color:#28B899"
 offset="0"/>
      <stop
 id="stop35"
 style="stop-color:#1B937B"
 offset="1"/>
    </linearGradient>
    <linearGradient
 y2="12.7559"
 x2="-5635.2725"
 y1="12.7559"
       x1="-5674.9575"
       gradientUnits="userSpaceOnUse"
       id="SVGID_2_">
      <stop
 id="stop40"
 style="stop-color:#03594A"
 offset="0"/>
      <stop
 id="stop42"
 style="stop-color:#128570"
 offset="1"/>
    </linearGradient>
    <linearGradient
 y2="34.015099"
 x2="-5663.6196"
 y1="34.015099"
       x1="-5691.9653"
       gradientUnits="userSpaceOnUse"
       id="SVGID_3_">
      <stop
 id="stop47"
 style="stop-color:#28B899"
 offset="0"/>
      <stop
 id="stop49"
 style="stop-color:#1B937B"
 offset="1"/>
    </linearGradient>
    <linearGradient
 y2="34.014198"
 x2="-5635.2725"
 y1="34.014198"
       x1="-5663.6196"
       gradientUnits="userSpaceOnUse"
       id="SVGID_4_">
      <stop
 id="stop54"
 style="stop-color:#03594A"
 offset="0"/>
      <stop
 id="stop56"
 style="stop-color:#128570"
 offset="1"/>
    </linearGradient>
    <linearGradient
 y2="55.274899"
 x2="-5652.2808"
 y1="55.274899"
       x1="-5691.9653"
       gradientUnits="userSpaceOnUse"
       id="SVGID_5_">
      <stop
 id="stop61"
 style="stop-color:#28B899"
 offset="0"/>
      <stop
 id="stop63"
 style="stop-color:#1B937B"
 offset="1"/>
    </linearGradient>
    <linearGradient
 y2="55.274899"
 x2="-5635.2715"
 y1="55.274899"
       x1="-5652.2808"
       gradientUnits="userSpaceOnUse"
       id="SVGID_6_">
      <stop
 id="stop68"
 style="stop-color:#03594A"
 offset="0"/>
      <stop
 id="stop70"
 style="stop-color:#128570"
 offset="1"/>
    </linearGradient>
    <linearGradient
 gradientTransform="translate(-176.35175,-361.64284)"
 y2="55.274899"
 x2="-5635.2715"
       y1="55.274899"
       x1="-5652.2808"
       gradientUnits="userSpaceOnUse"
       id="SVGID_6_-5">
      <stop
 id="stop68-1"
 style="stop-color:#03594A"
 offset="0"/>
      <stop
 id="stop70-0"
 style="stop-color:#128570"
 offset="1"/>
    </linearGradient>
    <linearGradient
 gradientTransform="translate(-176.35175,-361.64284)"
 y2="55.274899"
 x2="-5652.2808"
       y1="55.274899"
       x1="-5691.9653"
       gradientUnits="userSpaceOnUse"
       id="SVGID_5_-7">
      <stop
 id="stop61-8"
 style="stop-color:#28B899"
 offset="0"/>
      <stop
 id="stop63-8"
 style="stop-color:#1B937B"
 offset="1"/>
    </linearGradient>
    <linearGradient
 gradientTransform="translate(-176.35175,-361.64284)"
 y2="34.014198"
 x2="-5635.2725"
       y1="34.014198"
       x1="-5663.6196"
       gradientUnits="userSpaceOnUse"
       id="SVGID_4_-6">
      <stop
 id="stop54-3"
 style="stop-color:#03594A"
 offset="0"/>
      <stop
 id="stop56-5"
 style="stop-color:#128570"
 offset="1"/>
    </linearGradient>
    <linearGradient
 gradientTransform="translate(-176.35175,-361.64284)"
 y2="34.015099"
 x2="-5663.6196"
       y1="34.015099"
       x1="-5691.9653"
       gradientUnits="userSpaceOnUse"
       id="SVGID_3_-7">
      <stop
 id="stop47-3"
 style="stop-color:#28B899"
 offset="0"/>
      <stop
 id="stop49-0"
 style="stop-color:#1B937B"
 offset="1"/>
    </linearGradient>
    <linearGradient
 gradientTransform="translate(-176.35175,-361.64284)"
 y2="12.7559"
 x2="-5635.2725"
       y1="12.7559"
       x1="-5674.9575"
       gradientUnits="userSpaceOnUse"
       id="SVGID_2_-3">
      <stop
 id="stop40-2"
 style="stop-color:#03594A"
 offset="0"/>
      <stop
 id="stop42-3"
 style="stop-color:#128570"
 offset="1"/>
    </linearGradient>
    <linearGradient
 gradientTransform="translate(-176.35175,-361.64284)"
 y2="12.7559"
 x2="-5674.9575"
       y1="12.7559"
       x1="-5691.9653"
       gradientUnits="userSpaceOnUse"
       id="SVGID_1_-3">
      <stop
 id="stop33-7"
 style="stop-color:#28B899"
 offset="0"/>
      <stop
 id="stop35-6"
 style="stop-color:#1B937B"
 offset="1"/>
    </linearGradient>
    <linearGradient
 id="linearGradient5866"
 gradientUnits="userSpaceOnUse"
 x1="-5691.9653"
       y1="12.7559"
       x2="-5674.9575"
       y2="12.7559">
      <stop
 offset="0"
 style="stop-color:#28B899"
 id="stop5868"/>
      <stop
 offset="1"
 style="stop-color:#1B937B"
 id="stop5870"/>
    </linearGradient>
    <linearGradient
 id="linearGradient5873"
 gradientUnits="userSpaceOnUse"
 x1="-5674.9575"
       y1="12.7559"
       x2="-5635.2725"
       y2="12.7559">
      <stop
 offset="0"
 style="stop-color:#03594A"
 id="stop5875"/>
      <stop
 offset="1"
 style="stop-color:#128570"
 id="stop5877"/>
    </linearGradient>
    <linearGradient
 id="linearGradient5880"
 gradientUnits="userSpaceOnUse"
 x1="-5691.9653"
       y1="34.015099"
       x2="-5663.6196"
       y2="34.015099">
      <stop
 offset="0"
 style="stop-color:#28B899"
 id="stop5882"/>
      <stop
 offset="1"
 style="stop-color:#1B937B"
 id="stop5884"/>
    </linearGradient>
    <linearGradient
 id="linearGradient5887"
 gradientUnits="userSpaceOnUse"
 x1="-5663.6196"
       y1="34.014198"
       x2="-5635.2725"
       y2="34.014198">
      <stop
 offset="0"
 style="stop-color:#03594A"
 id="stop5889"/>
      <stop
 offset="1"
 style="stop-color:#128570"
 id="stop5891"/>
    </linearGradient>
    <linearGradient
 id="linearGradient5894"
 gradientUnits="userSpaceOnUse"
 x1="-5691.9653"
       y1="55.274899"
       x2="-5652.2808"
       y2="55.274899">
      <stop
 offset="0"
 style="stop-color:#28B899"
 id="stop5896"/>
      <stop
 offset="1"
 style="stop-color:#1B937B"
 id="stop5898"/>
    </linearGradient>
    <linearGradient
 id="linearGradient5901"
 gradientUnits="userSpaceOnUse"
 x1="-5652.2808"
       y1="55.274899"
       x2="-5635.2715"
       y2="55.274899">
      <stop
 offset="0"
 style="stop-color:#03594A"
 id="stop5903"/>
      <stop
 offset="1"
 style="stop-color:#128570"
 id="stop5905"/>
    </linearGradient>
  </defs>
  <g
 id="g1147"
 transform="matrix(0.56948972,0,0,0.56948972,4.6651192,-2.3827214)">
    <g
 id="g1065"
 transform="translate(1,1)">
      <path
 id="path1011"
 d="m 33.56,456.682 h 443.733 v -51.2 H 33.56 Z"
 style="fill:#fcc309"/>
      <path
 id="path1013"
 d="m 7.96,456.682 h 25.6 v -51.2 H 7.96 Z"
 style="fill:#ffffff"/>
      <g
 id="g1019">
        <path
 id="path1015"
 d="m 477.293,456.682 h 25.6 v -51.2 h -25.6 z"
 style="fill:#fd9808"/>
        <path
 id="path1017"
 d="M 284.44,405.482 H 59.16 l 9.387,-16.213 c 8.533,-16.213 8.533,-36.693 0,-52.907 L 59.16,320.149 h 225.28 c 21.333,0 39.253,18.773 39.253,42.667 0,23.892 -17.066,42.666 -39.253,42.666"
 style="fill:#fd9808"/>
      </g>
      <path
 id="path1021"
 d="m 69.4,336.362 -8.533,-16.213 h -25.6 l 10.24,16.213 c 9.387,16.213 9.387,36.693 0,52.907 l -10.24,16.213 h 25.6 l 9.387,-16.213 c 8.533,-16.214 8.533,-36.694 -0.854,-52.907"
 style="fill:#ffffff"/>
      <path
 id="path1023"
 d="M 258.84,320.148 H 33.56 l 8.533,-16.213 c 8.533,-16.213 8.533,-36.693 0,-52.907 L 33.56,234.815 h 225.28 c 21.333,0 39.253,18.773 39.253,42.667 0,23.893 -17.92,42.666 -39.253,42.666"
 style="fill:#1cd759"/>
      <path
 id="path1025"
 d="m 43.8,251.028 -8.533,-16.213 h -25.6 l 10.24,16.213 c 9.387,16.213 9.387,36.693 0,52.907 l -10.24,16.213 h 25.6 l 9.387,-16.213 c 7.679,-16.213 7.679,-36.693 -0.854,-52.907"
 style="fill:#ffffff"/>
      <path
 id="path1027"
 d="M 283.587,234.815 H 57.453 l 9.387,-16.213 c 8.533,-16.213 8.533,-36.693 0,-52.907 l -9.387,-16.213 h 225.28 c 21.333,0 39.253,18.773 39.253,42.667 0,23.894 -17.066,42.666 -38.399,42.666"
 style="fill:#ffdd09"/>
      <path
 id="path1029"
 d="M 68.547,165.695 59.16,149.482 h -25.6 l 10.24,16.213 c 9.387,16.213 9.387,36.693 0,52.907 l -10.24,16.213 h 25.6 l 9.387,-16.213 c 8.533,-16.214 8.533,-36.694 0,-52.907"
 style="fill:#ffffff"/>
      <path
 id="path1031"
 d="m 357.827,58.175 88.747,330.24 -64,17.067 -88.747,-329.387 z"
 style="fill:#54c9fd"/>
      <g
 id="g1039">
        <path
 id="path1033"
 d="m 464.493,385.002 -88.746,-329.387 -17.92,5.12 88.747,329.387 -64,17.067 z"
 style="fill:#33a9f8"/>
        <path
 id="path1035"
 d="m 398.787,135.828 -82.773,22.187 -8.533,-33.28 82.773,-22.187 z"
 style="fill:#33a9f8"/>
        <path
 id="path1037"
 d="m 451.693,333.802 -82.773,22.187 -8.533,-33.28 82.773,-22.187 z"
 style="fill:#33a9f8"/>
      </g>
      <g
 id="g1063">
        <path
 id="path1041"
 d="M 502.893,465.215 H 7.96 c -5.12,0 -8.533,-3.413 -8.533,-8.533 v -51.2 c 0,-5.12 3.413,-8.533 8.533,-8.533 h 494.933 c 5.12,0 8.533,3.413 8.533,8.533 v 51.2 c 0.001,5.12 -3.413,8.533 -8.533,8.533 z M 16.493,448.148 H 494.36 V 414.015 H 16.493 Z"
 style="fill:#020101"/>
        <path
 id="path1043"
 d="M 281.027,414.015 H 33.56 c -3.413,0 -5.973,-1.707 -7.68,-4.267 -1.707,-2.56 -1.707,-5.973 0,-8.533 l 10.24,-16.213 c 7.68,-13.653 7.68,-29.867 0,-43.52 L 25.88,325.269 c -1.707,-2.56 -1.707,-5.973 0,-8.533 1.707,-3.413 4.267,-5.12 7.68,-5.12 h 247.467 c 28.16,0 51.2,23.04 51.2,51.2 0,28.159 -23.04,51.199 -51.2,51.199 z M 48.92,396.948 h 232.107 c 18.773,0 34.133,-15.36 34.133,-34.133 0,-18.773 -15.36,-34.133 -34.133,-34.133 H 48.92 l 1.707,3.413 c 11.093,18.773 11.093,42.667 0,61.44 z"
 style="fill:#020101"/>
        <path
 id="path1045"
 d="M 281.027,371.348 H 93.293 c -5.12,0 -8.533,-3.413 -8.533,-8.533 0,-5.12 3.413,-8.533 8.533,-8.533 h 187.733 c 5.12,0 8.533,3.413 8.533,8.533 10e-4,5.12 -3.412,8.533 -8.532,8.533 z"
 style="fill:#020101"/>
        <path
 id="path1047"
 d="M 255.427,328.682 H 7.96 c -3.413,0 -5.973,-1.707 -7.68,-4.267 -1.707,-2.56 -1.707,-5.973 0,-8.533 l 10.24,-16.213 c 7.68,-13.653 7.68,-29.867 0,-43.52 L 0.28,239.935 c -1.707,-2.56 -1.707,-5.973 0,-8.533 1.707,-3.413 4.267,-5.12 7.68,-5.12 h 247.467 c 28.16,0 51.2,23.04 51.2,51.2 0,28.16 -23.04,51.2 -51.2,51.2 z M 23.32,311.615 h 232.107 c 18.773,0 34.133,-15.36 34.133,-34.133 0,-18.773 -15.36,-34.133 -34.133,-34.133 H 23.32 l 1.707,3.413 c 11.093,18.773 11.093,42.667 0,61.44 z"
 style="fill:#020101"/>
        <path
 id="path1049"
 d="M 255.427,286.015 H 67.693 c -5.12,0 -8.533,-3.413 -8.533,-8.533 0,-5.12 3.413,-8.533 8.533,-8.533 h 187.733 c 5.12,0 8.533,3.413 8.533,8.533 10e-4,5.12 -3.412,8.533 -8.532,8.533 z"
 style="fill:#020101"/>
        <path
 id="path1051"
 d="M 281.027,243.348 H 33.56 c -3.413,0 -5.973,-1.707 -7.68,-4.267 -1.707,-2.56 -1.707,-5.973 0,-8.533 l 10.24,-16.213 c 7.68,-13.653 7.68,-29.867 0,-43.52 L 25.88,154.602 c -1.707,-2.56 -1.707,-5.973 0,-8.533 1.707,-3.413 4.267,-5.12 7.68,-5.12 h 247.467 c 28.16,0 51.2,23.04 51.2,51.2 0,28.16 -23.04,51.199 -51.2,51.199 z M 48.92,226.282 h 232.107 c 18.773,0 34.133,-15.36 34.133,-34.133 0,-18.773 -15.36,-34.133 -34.133,-34.133 H 48.92 l 1.707,3.413 c 11.093,18.773 11.093,42.667 0,61.44 z"
 style="fill:#020101"/>
        <path
 id="path1053"
 d="m 382.573,414.015 c -3.413,0 -6.827,-2.56 -8.533,-5.973 L 285.293,77.802 c -0.853,-4.267 1.707,-9.387 5.973,-10.24 l 82.773,-22.187 c 4.267,-0.853 9.387,1.707 10.24,5.973 l 88.747,329.387 c 0.853,2.56 0,4.267 -0.853,6.827 -0.853,2.56 -3.413,3.413 -5.12,4.267 l -82.773,22.187 c -0.853,-0.001 -1.707,-0.001 -1.707,-0.001 z M 304.067,82.068 387.694,395.241 453.401,377.321 370.627,64.148 Z"
 style="fill:#020101"/>
        <path
 id="path1055"
 d="M 281.027,200.682 H 93.293 c -5.12,0 -8.533,-3.413 -8.533,-8.533 0,-5.12 3.413,-8.533 8.533,-8.533 h 187.733 c 5.12,0 8.533,3.413 8.533,8.533 10e-4,5.119 -3.412,8.533 -8.532,8.533 z"
 style="fill:#020101"/>
        <path
 id="path1057"
 d="m 316.013,166.548 c -3.413,0 -6.827,-2.56 -8.533,-5.973 l -8.533,-33.28 c -0.853,-2.56 0,-4.267 0.853,-6.827 0.853,-1.707 3.413,-3.413 5.12,-4.267 l 82.773,-22.187 c 2.56,-0.853 4.267,0 6.827,0.853 1.707,0.853 3.413,3.413 4.267,5.12 l 8.533,33.28 c 0.853,4.267 -1.707,9.387 -5.973,10.24 l -83.627,23.04 c 0,0.001 -0.853,0.001 -1.707,0.001 z m 1.707,-34.986 4.267,16.213 65.707,-17.92 -4.267,-16.213 z"
 style="fill:#020101"/>
        <path
 id="path1059"
 d="m 368.92,364.522 c -3.413,0 -6.827,-2.56 -8.533,-5.973 l -8.533,-33.28 c -0.853,-2.56 0,-4.267 0.853,-6.827 0.853,-2.56 3.413,-3.413 5.12,-4.267 L 440.6,291.988 c 2.56,-0.853 4.267,0 6.827,0.853 1.707,0.853 3.413,3.413 4.267,5.12 l 8.533,33.28 c 0.853,4.267 -1.707,9.387 -5.973,10.24 l -82.773,22.187 c -0.854,0.854 -1.708,0.854 -2.561,0.854 z m 1.707,-35.84 4.267,17.067 65.707,-17.92 -4.267,-16.213 z"
 style="fill:#020101"/>
        <path
 id="path1061"
 d="m 392.813,287.722 c -3.413,0 -6.827,-2.56 -8.533,-5.973 l -26.453,-98.987 c -0.853,-4.267 1.707,-9.387 5.973,-10.24 4.266,-0.853 9.387,1.707 10.24,5.973 l 26.453,98.133 c 0.853,4.267 -1.707,9.387 -5.973,10.24 -0.853,0.854 -1.707,0.854 -1.707,0.854 z"
 style="fill:#020101"/>
      </g>
    </g>
    <g
 id="g1067"/>
    <g
 id="g1069"/>
    <g
 id="g1071"/>
    <g
 id="g1073"/>
    <g
 id="g1075"/>
    <g
 id="g1077"/>
    <g
 id="g1079"/>
    <g
 id="g1081"/>
    <g
 id="g1083"/>
    <g
 id="g1085"/>
    <g
 id="g1087"/>
    <g
 id="g1089"/>
    <g
 id="g1091"/>
    <g
 id="g1093"/>
    <g
 id="g1095"/>
  </g>
</svg>
