<?xml version="1.0" encoding="UTF-8" standalone="no"?>
<svg
   id="emoji"
   viewBox="0 0 72 72"
   version="1.1"
   sodipodi:docname="cloud-white.svg"
   inkscape:version="1.3 (0e150ed, 2023-07-21)"
   xmlns:inkscape="http://www.inkscape.org/namespaces/inkscape"
   xmlns:sodipodi="http://sodipodi.sourceforge.net/DTD/sodipodi-0.dtd"
   xmlns="http://www.w3.org/2000/svg"
   xmlns:svg="http://www.w3.org/2000/svg">
  <defs
     id="defs2" />
  <sodipodi:namedview
     id="namedview2"
     pagecolor="#ffffff"
     bordercolor="#666666"
     borderopacity="1.0"
     inkscape:showpageshadow="2"
     inkscape:pageopacity="0.0"
     inkscape:pagecheckerboard="0"
     inkscape:deskcolor="#d1d1d1"
     inkscape:zoom="3.2777778"
     inkscape:cx="35.847458"
     inkscape:cy="35.847458"
     inkscape:window-width="736"
     inkscape:window-height="480"
     inkscape:window-x="0"
     inkscape:window-y="25"
     inkscape:window-maximized="0"
     inkscape:current-layer="emoji" />
  <g
     id="hair" />
  <g
     id="skin" />
  <g
     id="skin-shadow" />
  <g
     id="line">
    <path
       fill="none"
       stroke="#000000"
       stroke-linecap="round"
       stroke-linejoin="round"
       stroke-miterlimit="10"
       stroke-width="2"
       d="M15.9345,30.2552c-0.0372,0.4242-0.3794,0.7675-0.8028,0.8127C9.9704,31.6186,6,36.6998,6,42.8852 c0,6.553,4.5445,11.8652,10.1505,11.8652h38.6977C61.0072,54.7504,66,49.1365,66,42.2114c0-6.6379-4.5872-12.0711-10.3916-12.5103 c-0.4421-0.0335-0.8008-0.3444-0.8855-0.7796c-1.2964-6.6564-7.2763-11.6585-14.3462-11.6585 c-4.5964,0-8.6908,2.0817-11.3486,5.3929c-0.2582,0.3217-0.6903,0.4696-1.0705,0.3097c-1.0245-0.4306-2.1065-0.639-3.3175-0.639 C20.0727,22.3266,16.3237,25.8122,15.9345,30.2552z"
       id="path2" />
  </g>
</svg>
