<?xml version="1.0" encoding="UTF-8" standalone="no"?>
<svg
 xmlns="http://www.w3.org/2000/svg"
 width="2500"
   height="2500"
   viewBox="0 0 256 255.95238"
   version="1.1"
   id="svg867">
  <path
 d="m 150.79154,243.09775 -0.0289,-18.91247 -0.0941,-33.78568 m 19.13146,14.5601 -19.03766,19.22558 19.13162,18.97509 M 42.36004,224.43578 c 0.09185,-4.05582 -1.087067,-8.2001 -3.475606,-11.55414 -3.441891,-4.83308 -9.012444,-8.13273 -15.123692,-8.20375 -0.407567,0 -0.810725,0 -1.221198,0.031 -2.415859,0.14929 -4.755552,0.48497 -6.826001,1.34639 -13.6161827,5.66534 -16.0287191,24.57343 -4.540214,33.12812 9.948899,7.40829 24.420695,4.38342 29.433303,-6.91995 1.059246,-2.38859 1.753408,-5.39979 1.753408,-7.82799 v -34.19264 m 91.87044,16.68931 c -2.81932,-1.82171 -6.10829,-2.47892 -9.36228,-2.47365 -0.35265,0 -0.71541,0.0173 -1.0333,0.031 -9.40737,0.40461 -18.12966,7.05233 -18.12966,19.94576 0,15.24393 16.34487,23.47122 28.55651,16.28226 m 54.85871,-1.65953 c 9.62134,-8.2416 28.90101,-24.76776 28.90101,-24.76776 0,0 -0.70313,-1.32988 -1.15854,-1.94137 -3.89043,-5.22096 -9.83388,-7.82799 -16.09442,-7.82802 -15.47214,0 -27.06983,20.00664 -11.64805,34.53715 1.06778,1.00609 2.5346,1.7941 4.16451,2.47363 5.65901,2.35934 13.40597,2.16584 17.59736,-0.93936 M 73.980988,204.58395 c -0.438645,0.008 -0.874618,0.0543 -1.315065,0.0628 -11.732317,0.21557 -20.191424,12.40154 -17.628727,23.70318 2.49732,11.01318 14.528958,17.53461 24.924383,13.93385 12.105133,-3.174 17.042376,-18.41733 10.395576,-28.71312 -3.635253,-5.63103 -9.796867,-9.11159 -16.376167,-8.98656 z m 178.134082,0.37577 c -4.75079,0.0134 -9.3776,1.67668 -12.8066,4.88468 -5.40753,4.46311 -6.58175,10.09889 -6.5129,17.22163 l 0.15681,16.18832"
 id="path12"
 style="fill:none;stroke:#394d54;stroke-width:7.76986;stroke-linecap:round;stroke-linejoin:round"/>
  <path
 fill="#019bc6"
 d="m 252.72203,63.204506 c -8.81061,-5.122449 -20.48979,-5.737142 -30.3249,-2.868571 -1.22858,-10.654694 -8.19591,-19.875102 -16.39183,-26.431836 l -3.27837,-2.663674 -2.86857,3.278367 c -5.53225,6.351837 -7.17143,17.006531 -6.35184,25.202449 0.6143,5.942041 2.45878,12.088979 6.14694,17.00653 -2.86857,1.639184 -5.94204,3.893062 -8.81061,4.917551 -5.73714,2.04898 -12.08898,4.097959 -18.23592,4.097959 H 158.87877 V 56.85267 H 132.24203 V 5.6281807 H 101.50734 V 30.215935 H 50.282852 V 56.85267 H 23.646122 V 85.538384 H 0.6975514 l -0.4102,3.073469 c -1.02449,13.113467 0.61429,25.817147 6.1469404,37.906127 l 2.25388,4.50775 0.20409,0.4098 c 16.1869402,27.45632 44.4628602,38.93061 75.4024502,38.93061 59.830208,0 109.210608,-26.84163 131.749388,-83.188573 15.16245,0.819592 30.73469,-3.688163 38.11102,-18.235918 L 256,65.253486 Z M 54.380812,36.362874 h 20.4898 v 22.538775 h -20.4898 z m 26.84163,90.564896 c 0,3.48327 -2.86857,6.35184 -6.35183,6.35184 -3.48327,0 -6.35184,-2.86857 -6.35184,-6.35184 0,-3.48326 2.86857,-6.35184 6.35184,-6.35184 3.48326,0.2049 6.35183,2.86858 6.35183,6.35184 z M 54.380812,62.999608 h 20.4898 v 22.538776 h -20.4898 z m -26.63673,0 h 22.53877 v 22.538776 h -22.53877 z m 56.75673,102.858772 c -32.37388,-0.20489 -49.7902,-11.06449 -64.13306,-25.40734 4.30286,0.20489 8.40082,0.40979 12.08898,0.40979 3.27837,0 6.55673,0 9.6302,-0.2049 7.99102,-0.40979 14.95755,-1.43428 20.6947,-3.07346 4.71265,10.85959 13.31836,20.89959 28.68571,28.27591 z M 101.50734,85.538384 H 78.968572 V 62.999608 h 22.538768 z m 0,-26.636735 H 78.968572 V 36.362874 h 22.538768 z m 26.63674,26.636735 H 105.6053 V 62.999608 h 22.53878 z m 0,-26.636735 H 105.6053 V 36.362874 h 22.53878 z m 0,-26.636734 H 105.6053 V 9.7261398 h 22.53878 z m 26.63673,53.273469 H 132.24203 V 62.999608 h 22.53878 z M 76.509792,122.82981 c -0.4102,-0.2049 -1.02449,-0.40979 -1.63878,-0.40979 -2.45878,0 -4.50776,2.04898 -4.50776,4.50775 0,2.45878 2.04898,4.50776 4.50776,4.50776 2.45877,0 4.50775,-2.04898 4.50775,-4.50776 0,-0.61469 -0.2041,-1.22939 -0.41019,-1.63918 -0.4102,0.61469 -0.8204,1.02449 -1.63879,1.02449 -1.02449,0 -1.84488,-0.81959 -1.84488,-1.84408 0.2041,-0.8196 0.61429,-1.43429 1.02449,-1.63919 z"
 id="path854"
     style="stroke-width:2.04898"/>
</svg>
