<?xml version="1.0" encoding="UTF-8" standalone="no"?>
<svg
 xmlns="http://www.w3.org/2000/svg"
 id="emoji"
   viewBox="0 0 72 72"
   version="1.1">
  <g
 id="color"
 transform="matrix(1.328119,0,0,1.328119,-11.82235,-14.734572)">
    <path
 fill="#d0cfce"
 stroke="none"
 d="m 60.81,45.25 c -0.06,0.01 -0.12,0.02 -0.18,0.03 -0.07,0 -0.14,0.01 -0.22,0.02 0.08,-0.01 0.16,-0.02 0.24,-0.03 0.06,0 0.11,-0.01 0.16,-0.02 z"
       id="path10"/>
    <path
 fill="#d0cfce"
 stroke="none"
 d="m 60.65,45.27 c -0.01,0 -0.01,0 -0.02,0.01 -0.07,0 -0.14,0.01 -0.22,0.02 0.08,-0.01 0.16,-0.02 0.24,-0.03 z"
       id="path12"/>
    <path
 fill="#d0cfce"
 stroke="none"
 d="m 60.81,45.25 c -0.06,0.01 -0.12,0.02 -0.18,0.03 -0.07,0 -0.14,0.01 -0.22,0.02 0.08,-0.01 0.16,-0.02 0.24,-0.03 0.06,0 0.11,-0.01 0.16,-0.02 z"
       id="path14"/>
    <path
 fill="#d0cfce"
 stroke="none"
 d="m 61.66,46.07 c -0.3,0.3 -4.65,0.55 -10.69,0.73 -1.62,0.04 -3.36,0.08 -5.17,0.12 -1.18,0.02 -2.4,0.04 -3.64,0.05 -0.42,0 -0.83,0.01 -1.25,0.01 -0.12,0.01 -0.23,0.01 -0.35,0.01 -0.65,0.01 -1.3,0.01 -1.96,0.02 -1.01,0.01 -2.02,0.02 -3.04,0.02 -3.04,0.02 -6.08,0.01 -8.92,-0.02 C 25.49,47 24.37,46.98 23.3,46.97 23.14,46.96 22.99,46.96 22.83,46.96 22.32,46.95 21.82,46.94 21.33,46.93 15.35,46.78 11.01,46.51 10.57,46.07 9.86,45.35 9.8,44.64 9.96,44.09 10.13,43.44 10.57,43 10.57,43 L 20.79,35.85 H 51.44 L 61.66,43 c 0,0 0.29,0.59 0.4,1.28 0.11,0.6 0.08,1.31 -0.4,1.79 z"
       id="path16"/>
    <polygon
 fill="#9b9b9a"
 stroke="none"
 points="61.2561,42.7175 51.4,35.85 40.56,36 40.7961,36.5366 48.75,46.5833 61.2917,45.98 62.1128,44.9583 "
       id="polygon18"/>
    <path
 fill="#d0cfce"
 stroke="none"
 d="m 40.97,45.97 c -0.21,0 -0.42,0.01 -0.63,0.01 h -0.46 c 0.21,-0.01 0.42,-0.01 0.63,-0.01 z"
       id="path20"/>
    <path
 fill="#d0cfce"
 stroke="none"
 d="m 46.22,45.89 c -0.11,0 -0.22,0 -0.32,0.01 -0.2,0 -0.4,0 -0.6,0.01 h -0.17 c 0.1,-0.01 0.2,-0.01 0.3,-0.01 0.2,0 0.4,-0.01 0.6,-0.01 z"
       id="path22"/>
    <path
 fill="#d0cfce"
 stroke="none"
 d="m 51.36,45.76 c 0,0.01 0,0.01 0,0.01 -0.23,0 -0.46,0.01 -0.7,0.02 0.24,-0.01 0.47,-0.02 0.7,-0.03 z"
       id="path24"/>
    <path
 fill="#9b9b9a"
 stroke="none"
 d="m 50.97,46.8 c -1.63,3.04 -7.43,5.3 -14.38,5.39 0.1,-0.08 0.19,-0.18 0.28,-0.27 1.29,-1.29 2.42,-2.63 3.38,-3.96 0.23,-0.33 0.45,-0.65 0.66,-0.98 1.67,-0.01 3.31,-0.03 4.89,-0.06 1.81,-0.04 3.55,-0.08 5.17,-0.12 z"
       id="path26"/>
    <path
 fill="#d0cfce"
 stroke="none"
 d="m 40.91,46.98 c -0.21,0.33 -0.43,0.65 -0.66,0.98 -0.96,1.33 -2.09,2.67 -3.38,3.96 -0.09,0.09 -0.18,0.19 -0.28,0.27 -0.15,0.01 -0.31,0.01 -0.47,0.01 -0.87,0 -1.73,-0.03 -2.56,-0.1 -0.88,-0.07 -1.73,-0.17 -2.55,-0.31 -4.63,-0.76 -8.24,-2.53 -9.61,-4.75 -0.03,-0.04 -0.05,-0.07 -0.07,-0.11 1.96,0.04 4.1,0.07 6.34,0.09 0.13,0 0.25,-0.01 0.38,0 4.02,0.03 8.35,0.02 12.51,-0.03 0.12,0 0.23,0 0.35,-0.01 z"
       id="path28"/>
    <path
 fill="#d0cfce"
 stroke="none"
 d="m 40.97,45.97 c -0.21,0 -0.42,0.01 -0.63,0.01 h -0.46 c 0.21,-0.01 0.42,-0.01 0.63,-0.01 z"
       id="path30"/>
    <path
 fill="#d0cfce"
 stroke="none"
 d="m 46.22,45.89 c -0.11,0 -0.22,0 -0.32,0.01 -0.2,0 -0.4,0 -0.6,0.01 h -0.17 c 0.1,-0.01 0.2,-0.01 0.3,-0.01 0.2,0 0.4,-0.01 0.6,-0.01 z"
       id="path32"/>
    <path
 fill="#9b9b9a"
 stroke="none"
 d="m 40.97,45.97 c -0.21,0 -0.42,0.01 -0.63,0.01 0.06,0 0.12,0 0.17,-0.01 z"
       id="path34"/>
    <path
 fill="#9b9b9a"
 stroke="none"
 d="m 45.9,45.9 c -0.2,0 -0.4,0 -0.6,0.01 0.04,0 0.09,0 0.13,-0.01 z"
       id="path36"/>
    <path
 fill="#9b9b9a"
 stroke="none"
 d="m 46.22,45.89 c -0.11,0 -0.22,0 -0.32,0.01 0.05,0 0.09,-0.01 0.13,-0.01 z"
       id="path38"/>
    <path
 fill="#9b9b9a"
 stroke="none"
 d="m 51.94,45.75 c -0.11,0 -0.22,0 -0.33,0.01 0.03,0 0.05,0 0.08,-0.01 z"
       id="path40"/>
    <path
 fill="#9b9b9a"
 stroke="none"
 d="m 53.46,45.7 c -0.11,0 -0.22,0 -0.33,0.01 0.04,0 0.07,0 0.1,-0.01 z"
       id="path42"/>
    <path
 fill="#9b9b9a"
 stroke="none"
 d="m 55.39,45.62 c -0.13,0.01 -0.26,0.01 -0.39,0.02 0.03,0 0.06,0 0.08,-0.01 0.11,0 0.21,0 0.31,-0.01 z"
       id="path44"/>
    <path
 fill="#9b9b9a"
 stroke="none"
 d="m 60.81,45.25 c -0.06,0.01 -0.12,0.02 -0.18,0.03 -0.07,0 -0.14,0.01 -0.22,0.02 0.08,-0.01 0.16,-0.02 0.24,-0.03 0.06,0 0.11,-0.01 0.16,-0.02 z"
       id="path46"/>
    <path
 fill="#d0cfce"
 stroke="none"
 d="m 15.65,45.7 h -0.08 c -0.11,-0.01 -0.22,-0.02 -0.32,-0.02 0.09,0 0.18,0.01 0.27,0.01 0.05,0 0.09,0.01 0.13,0.01 z"
       id="path48"/>
    <path
 fill="#d0cfce"
 stroke="none"
 d="m 16.25,45.73 c -0.21,-0.01 -0.41,-0.02 -0.6,-0.03 0.18,0.01 0.35,0.02 0.53,0.02 0.02,0.01 0.05,0.01 0.07,0.01 z"
       id="path50"/>
    <path
 fill="#d0cfce"
 stroke="none"
 d="m 20.9,45.9 c -0.07,-0.01 -0.13,-0.01 -0.19,-0.01 h 0.18 z"
       id="path52"/>
    <path
 fill="#d0cfce"
 stroke="none"
 d="m 40.97,45.97 c -0.21,0 -0.42,0.01 -0.63,0.01 h -0.46 c 0.21,-0.01 0.42,-0.01 0.63,-0.01 z"
       id="path54"/>
    <path
 fill="#d0cfce"
 stroke="none"
 d="m 46.22,45.89 c -0.11,0 -0.22,0 -0.32,0.01 -0.2,0 -0.4,0 -0.6,0.01 h -0.17 c 0.1,-0.01 0.2,-0.01 0.3,-0.01 0.2,0 0.4,-0.01 0.6,-0.01 z"
       id="path56"/>
    <path
 fill="#d0cfce"
 stroke="none"
 d="m 51.41,45.76 c -0.02,0.01 -0.04,0.01 -0.05,0.01 -0.23,0 -0.46,0.01 -0.7,0.02 0.24,-0.01 0.47,-0.02 0.7,-0.03 z"
       id="path58"/>
    <path
 fill="#d0cfce"
 stroke="none"
 d="m 60.65,45.27 c -0.01,0 -0.01,0 -0.02,0.01 -0.07,0 -0.14,0.01 -0.22,0.02 0.08,-0.01 0.16,-0.02 0.24,-0.03 z"
       id="path60"/>
    <path
 fill="#9b9b9a"
 stroke="none"
 d="m 52.04,45.74 c -0.03,0 -0.07,0 -0.1,0.01 -0.11,0 -0.22,0 -0.33,0.01 0.03,0 0.05,0 0.08,-0.01 0.12,0 0.24,0 0.35,-0.01 z"
       id="path62"/>
    <path
 fill="#9b9b9a"
 stroke="none"
 d="m 53.54,45.69 c -0.02,0 -0.05,0 -0.08,0.01 -0.11,0 -0.22,0 -0.33,0.01 0.04,0 0.07,0 0.1,-0.01 0.11,0 0.21,0 0.31,-0.01 z"
       id="path64"/>
    <path
 fill="#9b9b9a"
 stroke="none"
 d="m 55.39,45.62 c -0.13,0.01 -0.26,0.01 -0.39,0.02 0.03,0 0.06,0 0.08,-0.01 0.11,0 0.21,0 0.31,-0.01 z"
       id="path66"/>
    <path
 fill="#9b9b9a"
 stroke="none"
 d="m 60.81,45.25 c -0.06,0.01 -0.12,0.02 -0.18,0.03 -0.07,0 -0.14,0.01 -0.22,0.02 0.08,-0.01 0.16,-0.02 0.24,-0.03 0.06,0 0.11,-0.01 0.16,-0.02 z"
       id="path68"/>
    <path
 fill="#d0cfce"
 stroke="none"
 d="m 11.03,45.24 c -0.02,0 -0.04,-0.01 -0.06,-0.01 -0.03,-0.01 -0.06,-0.02 -0.09,-0.03 0.04,0.01 0.08,0.02 0.13,0.03 0.01,0 0.01,0.01 0.02,0.01 z"
       id="path70"/>
    <path
 fill="#d0cfce"
 stroke="none"
 d="m 15.65,45.7 h -0.08 c -0.02,-0.01 -0.03,-0.01 -0.05,-0.01 0.05,0 0.09,0.01 0.13,0.01 z"
       id="path72"/>
    <path
 fill="#d0cfce"
 stroke="none"
 d="m 11.03,45.24 c -0.02,0 -0.04,-0.01 -0.06,-0.01 -0.03,-0.01 -0.06,-0.02 -0.09,-0.03 0.04,0.01 0.08,0.02 0.13,0.03 0.01,0 0.01,0.01 0.02,0.01 z"
       id="path74"/>
    <path
 fill="#d0cfce"
 stroke="none"
 d="m 15.65,45.7 h -0.08 c -0.02,-0.01 -0.03,-0.01 -0.05,-0.01 0.05,0 0.09,0.01 0.13,0.01 z"
       id="path76"/>
    <path
 fill="#61b2e4"
 stroke="none"
 d="m 51.4,35.75 v 0.1 H 41.03 c 1.03,-4.9 -0.35,-10.21 -4.16,-14.01 -0.09,-0.1 -0.19,-0.19 -0.29,-0.28 7.87,0.23 14.25,6.4 14.82,14.19 z"
       id="path78"/>
    <path
 fill="#92d3f5"
 stroke="none"
 d="m 41.03,35.85 h -20.2 v -0.09 c 0.19,-2.67 1.07,-5.16 2.46,-7.28 2.3,-3.5 5.98,-6 10.27,-6.72 0.83,-0.14 1.69,-0.21 2.56,-0.21 0.15,0 0.31,0 0.46,0.01 0.1,0.09 0.2,0.18 0.29,0.28 3.81,3.8 5.19,9.11 4.16,14.01 z"
       id="path80"/>
    <path
 fill="#92d3f5"
 stroke="none"
 stroke-miterlimit="10"
       stroke-width="2"
       d="m 52.04,41.4402 c 0,0.31 -0.07,0.61 -0.2,0.88 -0.02,0.05 -0.04,0.09 -0.07,0.14 -0.35,0.61 -1.02,1.03 -1.77,1.03 -0.18,0 -0.35,-0.02 -0.51,-0.08 -0.53,-0.13 -0.99,-0.48 -1.25,-0.95 -0.19,-0.3 -0.29,-0.65 -0.29,-1.02 0,-0.55 0.22,-1.06 0.6,-1.42 0.24,-0.27 0.57,-0.46 0.94,-0.55 0.16,-0.05 0.33,-0.07 0.51,-0.07 1.12,0 2.04,0.92 2.04,2.04 z"
       id="path82"/>
    <path
 fill="#92d3f5"
 stroke="none"
 stroke-miterlimit="10"
       stroke-width="2"
       d="m 38.195,41.4402 c 0,0.31 -0.07,0.61 -0.2,0.88 -0.02,0.05 -0.04,0.09 -0.07,0.14 -0.35,0.61 -1.02,1.03 -1.77,1.03 -0.18,0 -0.35,-0.02 -0.51,-0.08 -0.53,-0.13 -0.99,-0.48 -1.25,-0.95 -0.19,-0.3 -0.29,-0.65 -0.29,-1.02 0,-0.55 0.22,-1.06 0.6,-1.42 0.24,-0.27 0.57,-0.46 0.94,-0.55 0.16,-0.05 0.33,-0.07 0.51,-0.07 1.12,0 2.04,0.92 2.04,2.04 z"
       id="path84"/>
    <path
 fill="#92d3f5"
 stroke="none"
 stroke-miterlimit="10"
       stroke-width="2"
       d="m 24.445,41.4402 c 0,0.31 -0.07,0.61 -0.2,0.88 -0.02,0.05 -0.04,0.09 -0.07,0.14 -0.35,0.61 -1.02,1.03 -1.77,1.03 -0.18,0 -0.35,-0.02 -0.51,-0.08 -0.53,-0.13 -0.99,-0.48 -1.25,-0.95 -0.19,-0.3 -0.29,-0.65 -0.29,-1.02 0,-0.55 0.22,-1.06 0.6,-1.42 0.24,-0.27 0.57,-0.46 0.94,-0.55 0.16,-0.05 0.33,-0.07 0.51,-0.07 1.12,0 2.04,0.92 2.04,2.04 z"
       id="path86"/>
  </g>
  <g
 id="hair"
 transform="matrix(1.328119,0,0,1.328119,-11.82235,-14.734572)"/>
  <g
 id="skin"
 transform="matrix(1.328119,0,0,1.328119,-11.82235,-14.734572)"/>
  <g
 id="skin-shadow"
 transform="matrix(1.328119,0,0,1.328119,-11.82235,-14.734572)"/>
  <g
 id="line"
 transform="matrix(1.328119,0,0,1.328119,-11.82235,-14.734572)">
    <path
 fill="none"
 stroke="#000000"
 stroke-miterlimit="10"
       stroke-width="2"
       d="m 52.04,41.4402 c 0,0.31 -0.07,0.61 -0.2,0.88 -0.02,0.05 -0.04,0.09 -0.07,0.14 -0.35,0.61 -1.02,1.03 -1.77,1.03 -0.18,0 -0.35,-0.02 -0.51,-0.08 -0.53,-0.13 -0.99,-0.48 -1.25,-0.95 -0.19,-0.3 -0.29,-0.65 -0.29,-1.02 0,-0.55 0.22,-1.06 0.6,-1.42 0.24,-0.27 0.57,-0.46 0.94,-0.55 0.16,-0.05 0.33,-0.07 0.51,-0.07 1.12,0 2.04,0.92 2.04,2.04 z"
       id="path92"/>
    <path
 fill="none"
 stroke="#000000"
 stroke-miterlimit="10"
       stroke-width="2"
       d="m 38.195,41.4402 c 0,0.31 -0.07,0.61 -0.2,0.88 -0.02,0.05 -0.04,0.09 -0.07,0.14 -0.35,0.61 -1.02,1.03 -1.77,1.03 -0.18,0 -0.35,-0.02 -0.51,-0.08 -0.53,-0.13 -0.99,-0.48 -1.25,-0.95 -0.19,-0.3 -0.29,-0.65 -0.29,-1.02 0,-0.55 0.22,-1.06 0.6,-1.42 0.24,-0.27 0.57,-0.46 0.94,-0.55 0.16,-0.05 0.33,-0.07 0.51,-0.07 1.12,0 2.04,0.92 2.04,2.04 z"
       id="path94"/>
    <path
 fill="none"
 stroke="#000000"
 stroke-miterlimit="10"
       stroke-width="2"
       d="m 24.445,41.4402 c 0,0.31 -0.07,0.61 -0.2,0.88 -0.02,0.05 -0.04,0.09 -0.07,0.14 -0.35,0.61 -1.02,1.03 -1.77,1.03 -0.18,0 -0.35,-0.02 -0.51,-0.08 -0.53,-0.13 -0.99,-0.48 -1.25,-0.95 -0.19,-0.3 -0.29,-0.65 -0.29,-1.02 0,-0.55 0.22,-1.06 0.6,-1.42 0.24,-0.27 0.57,-0.46 0.94,-0.55 0.16,-0.05 0.33,-0.07 0.51,-0.07 1.12,0 2.04,0.92 2.04,2.04 z"
       id="path96"/>
    <path
 fill="none"
 stroke="#000000"
 stroke-linecap="round"
       stroke-linejoin="round"
       stroke-miterlimit="10"
       stroke-width="2"
       d="m 61.66,46.07 c -0.3,0.3 -4.65,0.55 -10.69,0.73 -1.62,0.04 -3.36,0.08 -5.17,0.12 -1.18,0.02 -2.4,0.04 -3.64,0.05 -0.42,0 -0.83,0.01 -1.25,0.01 -0.12,0.01 -0.23,0.01 -0.35,0.01 -0.65,0.01 -1.3,0.01 -1.96,0.02 -1.01,0.01 -2.02,0.02 -3.04,0.02 -3.04,0.02 -6.08,0.01 -8.92,-0.02 C 25.49,47 24.37,46.98 23.3,46.97 23.14,46.96 22.99,46.96 22.83,46.96 22.32,46.95 21.82,46.94 21.33,46.93 15.35,46.78 11.01,46.51 10.57,46.07 9.86,45.35 9.8,44.64 9.96,44.09 10.13,43.44 10.57,43 10.57,43 L 20.79,35.85 H 51.44 L 61.66,43 c 0,0 0.29,0.59 0.4,1.28 0.11,0.6 0.08,1.31 -0.4,1.79 z"
       id="path98"/>
    <path
 fill="none"
 stroke="#000000"
 stroke-linecap="round"
       stroke-linejoin="round"
       stroke-miterlimit="10"
       stroke-width="2"
       d="m 42.16,46.97 c -0.42,0.01 -0.84,0.01 -1.26,0.02 0.01,0 0.01,-0.01 0.01,-0.01 0.42,0 0.83,-0.01 1.25,-0.01 z"
       id="path100"/>
    <path
 fill="none"
 stroke="#000000"
 stroke-linecap="round"
       stroke-linejoin="round"
       stroke-miterlimit="10"
       stroke-width="2"
       d="m 50.97,46.8 c -1.63,3.04 -7.43,5.3 -14.38,5.39 -0.15,0.01 -0.31,0.01 -0.47,0.01 -0.87,0 -1.73,-0.03 -2.56,-0.1 -0.88,-0.07 -1.73,-0.17 -2.55,-0.31 -4.63,-0.76 -8.24,-2.53 -9.61,-4.75 -0.03,-0.04 -0.05,-0.07 -0.07,-0.11 0.49,0.01 0.99,0.02 1.5,0.03 0.16,0 0.31,0 0.47,0.01 1.07,0.01 2.19,0.03 3.34,0.04 2.84,0.03 5.88,0.04 8.92,0.02 1.02,0 2.03,-0.01 3.04,-0.02 C 39.26,47 39.91,47 40.56,46.99 h 0.34 c 0.42,-0.01 0.84,-0.01 1.26,-0.02 1.24,-0.01 2.46,-0.03 3.64,-0.05 1.81,-0.04 3.55,-0.08 5.17,-0.12 z"
       id="path102"/>
    <path
 fill="none"
 stroke="#000000"
 stroke-linecap="round"
       stroke-linejoin="round"
       stroke-miterlimit="10"
       stroke-width="2"
       d="m 40.91,46.98 c 0,0 0,0.01 -0.01,0.01 h -0.34 c 0.12,0 0.23,0 0.35,-0.01 z"
       id="path104"/>
    <path
 fill="none"
 stroke="#000000"
 stroke-linecap="round"
       stroke-linejoin="round"
       stroke-miterlimit="10"
       stroke-width="2"
       d="m 42.16,46.97 c -0.42,0.01 -0.84,0.01 -1.26,0.02 h -0.34 c 0.12,0 0.23,0 0.35,-0.01 0.42,0 0.83,-0.01 1.25,-0.01 z"
       id="path106"/>
    <path
 fill="none"
 stroke="#000000"
 stroke-linecap="round"
       stroke-linejoin="round"
       stroke-miterlimit="10"
       stroke-width="2"
       d="m 51.4,35.75 v 0.1 H 20.83 v -0.09 c 0.19,-2.67 1.07,-5.16 2.46,-7.28 2.3,-3.5 5.98,-6 10.27,-6.72 0.83,-0.14 1.69,-0.21 2.56,-0.21 0.15,0 0.31,0 0.46,0.01 7.87,0.23 14.25,6.4 14.82,14.19 z"
       id="path108"/>
  </g>
</svg>
