<?xml version="1.0" encoding="UTF-8" standalone="no"?>
<svg
 xmlns="http://www.w3.org/2000/svg"
   width="800"
   height="800"
   version="1.1"
   id="svg1031">
  <g
 fill="#f5fa40"
 transform="matrix(5.1735315,0,0,5.1735315,-463.63972,-2087.8752)"
     id="g2860">
    <path
 transform="matrix(5.7244485,0,0,5.7244485,-582.68175,-2300.9683)"
 id="path2862"
       d=""/>
  </g>
  <g
 fill="#f5fa40"
 transform="matrix(5.1735315,0,0,5.1735315,-463.63972,-2087.8752)"
     id="g2872">
    <path
 transform="matrix(5.7244485,0,0,5.7244485,-582.68175,-2300.9683)"
 id="path2874"
       d=""/>
  </g>
  <g
 fill="#f5fa40"
 transform="matrix(5.1735315,0,0,5.1735315,-463.63972,-2087.8752)"
     id="g2884">
    <path
 transform="matrix(5.7244485,0,0,5.7244485,-582.68175,-2300.9683)"
 id="path2886"
       d=""/>
  </g>
  <g
 fill="#f5fa40"
 transform="matrix(5.1735315,0,0,5.1735315,-463.63972,-2087.8752)"
     id="g2896">
    <path
 transform="matrix(5.7244485,0,0,5.7244485,-582.68175,-2300.9683)"
 id="path2898"
       d=""/>
  </g>
  <g
 fill="#f5fa40"
 transform="matrix(5.1735315,0,0,5.1735315,-463.63972,-2087.8752)"
     id="g2908">
    <path
 transform="matrix(5.7244485,0,0,5.7244485,-582.68175,-2300.9683)"
 id="path2910"
       d=""/>
  </g>
  <g
 fill="#f5fa40"
 transform="matrix(5.1735315,0,0,5.1735315,-463.63972,-2087.8752)"
     id="g2920">
    <path
 transform="matrix(5.7244485,0,0,5.7244485,-582.68175,-2300.9683)"
 id="path2922"
       d=""/>
  </g>
  <g
 fill="#f5fa40"
 transform="matrix(5.1735315,0,0,5.1735315,-463.63972,-2087.8752)"
     id="g2932">
    <path
 transform="matrix(5.7244485,0,0,5.7244485,-582.68175,-2300.9683)"
 id="path2934"
       d=""/>
  </g>
  <g
 fill="#f5fa40"
 transform="matrix(5.1735315,0,0,5.1735315,-463.63972,-2087.8752)"
     id="g2944">
    <path
 transform="matrix(5.7244485,0,0,5.7244485,-582.68175,-2300.9683)"
 id="path2946"
       d=""/>
  </g>
  <g
 fill="#ff212c"
 transform="matrix(5.1735315,0,0,5.1735315,-463.63972,-2087.8752)"
     id="g2968">
    <path
 transform="matrix(5.7244485,0,0,5.7244485,-582.68175,-2300.9683)"
 id="path2970"
       d=""/>
  </g>
  <g
 fill="#ff212c"
 transform="matrix(5.1735315,0,0,5.1735315,-463.63972,-2087.8752)"
     id="g2980">
    <path
 transform="matrix(5.7244485,0,0,5.7244485,-582.68175,-2300.9683)"
 id="path2982"
       d=""/>
  </g>
  <g
 fill="#ff212c"
 transform="matrix(5.1735315,0,0,5.1735315,-463.63972,-2087.8752)"
     id="g2992">
    <path
 transform="matrix(5.7244485,0,0,5.7244485,-582.68175,-2300.9683)"
 id="path2994"
       d=""/>
  </g>
  <g
 fill="#ff212c"
 transform="matrix(5.1735315,0,0,5.1735315,-463.63972,-2087.8752)"
     id="g3004">
    <path
 transform="matrix(5.7244485,0,0,5.7244485,-582.68175,-2300.9683)"
 id="path3006"
       d=""/>
  </g>
  <g
 fill="#ff212c"
 transform="matrix(5.1735315,0,0,5.1735315,-463.63972,-2087.8752)"
     id="g3016">
    <path
 transform="matrix(5.7244485,0,0,5.7244485,-582.68175,-2300.9683)"
 id="path3018"
       d=""/>
  </g>
  <g
 fill="#ff212c"
 transform="matrix(5.1735315,0,0,5.1735315,-463.63972,-2087.8752)"
     id="g3028">
    <path
 transform="matrix(5.7244485,0,0,5.7244485,-582.68175,-2300.9683)"
 id="path3030"
       d=""/>
  </g>
  <g
 fill="#ff212c"
 transform="matrix(5.1735315,0,0,5.1735315,-463.63972,-2087.8752)"
     id="g3040">
    <path
 transform="matrix(5.7244485,0,0,5.7244485,-582.68175,-2300.9683)"
 id="path3042"
       d=""/>
  </g>
  <g
 fill="#ff212c"
 transform="matrix(5.1735315,0,0,5.1735315,-463.63972,-2087.8752)"
     id="g3052">
    <path
 transform="matrix(5.7244485,0,0,5.7244485,-582.68175,-2300.9683)"
 id="path3054"
       d=""/>
  </g>
  <g
 fill="#2da6ff"
 transform="matrix(5.1735315,0,0,5.1735315,-463.63972,-2087.8752)"
     id="g3076">
    <path
 transform="matrix(5.7244485,0,0,5.7244485,-582.68175,-2300.9683)"
 id="path3078"
       d=""/>
  </g>
  <g
 fill="#2da6ff"
 transform="matrix(5.1735315,0,0,5.1735315,-463.63972,-2087.8752)"
     id="g3088">
    <path
 transform="matrix(5.7244485,0,0,5.7244485,-582.68175,-2300.9683)"
 id="path3090"
       d=""/>
  </g>
  <g
 fill="#2da6ff"
 transform="matrix(5.1735315,0,0,5.1735315,-463.63972,-2087.8752)"
     id="g3100">
    <path
 transform="matrix(5.7244485,0,0,5.7244485,-582.68175,-2300.9683)"
 id="path3102"
       d=""/>
  </g>
  <g
 fill="#2da6ff"
 transform="matrix(5.1735315,0,0,5.1735315,-463.63972,-2087.8752)"
     id="g3112">
    <path
 transform="matrix(5.7244485,0,0,5.7244485,-582.68175,-2300.9683)"
 id="path3114"
       d=""/>
  </g>
  <g
 fill="#2da6ff"
 transform="matrix(5.1735315,0,0,5.1735315,-463.63972,-2087.8752)"
     id="g3124">
    <path
 transform="matrix(5.7244485,0,0,5.7244485,-582.68175,-2300.9683)"
 id="path3126"
       d=""/>
  </g>
  <g
 fill="#2da6ff"
 transform="matrix(5.1735315,0,0,5.1735315,-463.63972,-2087.8752)"
     id="g3136">
    <path
 transform="matrix(5.7244485,0,0,5.7244485,-582.68175,-2300.9683)"
 id="path3138"
       d=""/>
  </g>
  <g
 fill="#002ec4"
 id="g3056"
     transform="matrix(1.5978715,0,0,1.5978715,-38.991454,38.088554)">
    <path
 fill="#002ec4"
 d="m 27.68185,171.23788 v 128.8057 l 144.1473,58.26926 V 229.50697 Z"
       id="path3058"/>
  </g>
  <g
 fill="#2da6ff"
 id="g3060"
     transform="matrix(1.5978715,0,0,1.5978715,-38.991454,38.088554)">
    <path
 d="M 528.3479,245.7988 V 125.99172 L 171.06213,230.27406 v 128.80586 z"
 id="path3062"/>
  </g>
  <g
 fill="#2da6ff"
 id="g3064"
     transform="matrix(1.5978715,0,0,1.5978715,-38.991454,38.088554)">
    <path
 d="M 27.68185,172.76631 382.66635,64.654274 527.58081,125.99172 171.82915,231.80248 Z"
 id="path3066"/>
  </g>
  <g
 fill="#002ec4"
 id="g3068"
     transform="matrix(1.5978715,0,0,1.5978715,-38.991454,38.088554)">
    <path
 d="m 144.22591,180.43129 v 26.06923 c 13.80162,12.26735 61.33177,11.50026 72.8321,-1.5342 V 178.13 Z"
 id="path3070"/>
  </g>
  <g
 fill="#2da6ff"
 id="g3072"
     transform="matrix(1.5978715,0,0,1.5978715,-38.991454,38.088554)">
    <path
 d="m 144.22591,178.51941 c 0,-4.86582 16.30317,-8.81571 36.41893,-8.81571 20.11,0 36.41317,3.94989 36.41317,8.81571 0,4.8714 -16.30317,8.81552 -36.41317,8.81552 -20.11576,0 -36.41893,-3.94412 -36.41893,-8.81552 z"
 id="path3074"/>
  </g>
  <g
 fill="#002ec4"
 id="g3080"
     transform="matrix(1.5978715,0,0,1.5978715,-38.991454,38.088554)">
    <path
 d="m 235.07864,153.97859 v 26.06923 c 13.79593,12.27312 61.32599,11.50603 72.8321,-1.52841 v -26.83632 z"
 id="path3082"/>
  </g>
  <g
 fill="#2da6ff"
 id="g3084"
     transform="matrix(1.5978715,0,0,1.5978715,-38.991454,38.088554)">
    <path
 d="m 235.07864,152.06671 c 0,-4.86581 16.30318,-8.81569 36.41318,-8.81569 20.11575,0 36.41892,3.94988 36.41892,8.81569 0,4.87141 -16.30317,8.82129 -36.41892,8.82129 -20.11,0 -36.41318,-3.94987 -36.41318,-8.82129 z"
 id="path3086"/>
  </g>
  <g
 fill="#002ec4"
 id="g3092"
     transform="matrix(1.5978715,0,0,1.5978715,-38.991454,38.088554)">
    <path
 d="m 323.6301,127.5259 v 26.07482 c 13.80163,12.26753 61.33175,11.50045 72.83221,-1.53401 v -26.83632 z"
 id="path3094"/>
  </g>
  <g
 fill="#2da6ff"
 id="g3096"
     transform="matrix(1.5978715,0,0,1.5978715,-38.991454,38.088554)">
    <path
 d="m 323.6301,125.61962 c 0,-4.87141 16.30328,-8.81553 36.41326,-8.81553 20.11567,0 36.41895,3.94412 36.41895,8.81553 0,4.86581 -16.30328,8.8157 -36.41895,8.8157 -20.10998,0 -36.41326,-3.94989 -36.41326,-8.8157 z"
 id="path3098"/>
  </g>
  <g
 fill="#002ec4"
 id="g3104"
     transform="matrix(1.5978715,0,0,1.5978715,-38.991454,38.088554)">
    <path
 d="m 409.11905,101.84607 v 26.06906 c 13.79593,12.26752 61.32599,11.50043 72.83212,-1.53401 V 99.544799 Z"
 id="path3106"/>
  </g>
  <g
 fill="#2da6ff"
 id="g3108"
     transform="matrix(1.5978715,0,0,1.5978715,-38.991454,38.088554)">
    <path
 d="m 409.11905,99.934021 c 0,-4.871407 16.30319,-8.815521 36.41318,-8.815521 20.11575,0 36.41894,3.944115 36.41894,8.815521 0,4.871579 -16.30319,8.815699 -36.41894,8.815699 -20.10999,0 -36.41318,-3.94412 -36.41318,-8.815699 z"
 id="path3110"/>
  </g>
  <g
 fill="#002ec4"
 id="g3116"
     transform="matrix(1.5978715,0,0,1.5978715,-38.991454,38.088554)">
    <path
 d="m 338.19882,70.7966 v 26.069229 c 13.8017,12.267521 61.33176,11.506031 72.83786,-1.53418 V 68.495498 Z"
 id="path3118"/>
  </g>
  <g
 fill="#2da6ff"
 id="g3120"
     transform="matrix(1.5978715,0,0,1.5978715,-38.991454,38.088554)">
    <path
 d="m 338.19882,68.88472 c 0,-4.865814 16.30893,-8.815697 36.41892,-8.815697 20.11575,0 36.41894,3.949883 36.41894,8.815697 0,4.871407 -16.30319,8.815704 -36.41894,8.815704 -20.10999,0 -36.41892,-3.944298 -36.41892,-8.815704 z"
 id="path3122"/>
  </g>
  <g
 fill="#002ec4"
 id="g3128"
     transform="matrix(1.5978715,0,0,1.5978715,-38.991454,38.088554)">
    <path
 d="m 248.89169,96.487961 v 26.069229 c 13.79596,12.26735 61.32602,11.50026 72.83222,-1.53418 V 94.186691 Z"
 id="path3130"/>
  </g>
  <g
 fill="#2da6ff"
 id="g3132"
     transform="matrix(1.5978715,0,0,1.5978715,-38.991454,38.088554)">
    <path
 d="m 248.89169,94.576088 c 0,-4.865822 16.30329,-8.815704 36.41327,-8.815704 20.11566,0 36.41895,3.949883 36.41895,8.815704 0,4.871407 -16.30329,8.815522 -36.41895,8.815522 -20.10998,0 -36.41327,-3.944116 -36.41327,-8.815522 z"
 id="path3134"/>
  </g>
  <g
 fill="#002ec4"
 id="g3140"
     transform="matrix(1.5978715,0,0,1.5978715,-38.991454,38.088554)">
    <path
 d="m 159.57883,122.17932 v 26.06906 c 13.79594,12.26752 61.32609,11.50043 72.8322,-1.53401 v -26.83632 z"
 id="path3142"/>
  </g>
  <g
 fill="#2da6ff"
 id="g3144"
     transform="matrix(1.5978715,0,0,1.5978715,-38.991454,38.088554)">
    <path
 d="m 159.57883,120.26727 c 0,-4.8714 16.30326,-8.81552 36.41325,-8.81552 20.11568,0 36.41895,3.94412 36.41895,8.81552 0,4.87159 -16.30327,8.81571 -36.41895,8.81571 -20.10998,0 -36.41325,-3.94412 -36.41325,-8.81571 z"
 id="path3146"/>
  </g>
  <g
 fill="#002ec4"
 id="g3152"
     transform="matrix(1.5978715,0,0,1.5978715,-38.991454,38.088554)">
    <path
 d="m 70.266037,147.86493 v 26.07481 c 13.80162,12.26752 61.326003,11.50043 72.832153,-1.53418 v -26.83615 z"
 id="path3154"/>
  </g>
  <g
 fill="#2da6ff"
 id="g3156"
     transform="matrix(1.5978715,0,0,1.5978715,-38.991454,38.088554)">
    <path
 d="m 70.266037,145.95863 c 0,-4.8714 16.30323,-8.81569 36.413223,-8.81569 20.11571,0 36.41893,3.94429 36.41893,8.81569 0,4.86582 -16.30322,8.81571 -36.41893,8.81571 -20.109993,0 -36.413223,-3.94989 -36.413223,-8.81571 z"
 id="path3158"/>
  </g>
  <g
 fill="#2da6ff"
 transform="matrix(5.1735315,0,0,5.1735315,-463.63972,-2087.8752)"
     id="g3148">
    <path
 transform="matrix(5.7244485,0,0,5.7244485,-582.68175,-2300.9683)"
 id="path3150"
       d=""/>
  </g>
  <g
 fill="#2da6ff"
 transform="matrix(5.1735315,0,0,5.1735315,-463.63972,-2087.8752)"
     id="g3160">
    <path
 transform="matrix(5.7244485,0,0,5.7244485,-582.68175,-2300.9683)"
 id="path3162"
       d=""/>
  </g>
  <g
 fill="#2da6ff"
 transform="matrix(5.1735315,0,0,5.1735315,-463.63972,-2087.8752)"
     id="g3184">
    <path
 transform="matrix(5.7244485,0,0,5.7244485,-582.68175,-2300.9683)"
 id="path3186"
       d=""/>
  </g>
  <g
 fill="#2da6ff"
 transform="matrix(5.1735315,0,0,5.1735315,-463.63972,-2087.8752)"
     id="g3196">
    <path
 transform="matrix(5.7244485,0,0,5.7244485,-582.68175,-2300.9683)"
 id="path3198"
       d=""/>
  </g>
  <g
 fill="#2da6ff"
 transform="matrix(5.1735315,0,0,5.1735315,-463.63972,-2087.8752)"
     id="g3208">
    <path
 transform="matrix(5.7244485,0,0,5.7244485,-582.68175,-2300.9683)"
 id="path3210"
       d=""/>
  </g>
  <g
 fill="#2da6ff"
 transform="matrix(5.1735315,0,0,5.1735315,-463.63972,-2087.8752)"
     id="g3220">
    <path
 transform="matrix(5.7244485,0,0,5.7244485,-610.3636,-2361.0373)"
 id="path3222"
       d=""/>
  </g>
</svg>
