<?xml version="1.0" encoding="UTF-8" standalone="no"?>
<svg
 xmlns="http://www.w3.org/2000/svg"
 width="800"
   height="800"
   version="1.1"
   id="svg1031">
  <g
 id="g3944">
    <path
 id="path2862"
 d=""
 style="fill:#f5fa40;stroke-width:29.1467"/>
    <path
 id="path2874"
 d=""
 style="fill:#f5fa40;stroke-width:29.1467"/>
    <path
 id="path2886"
 d=""
 style="fill:#f5fa40;stroke-width:29.1467"/>
    <path
 id="path2898"
 d=""
 style="fill:#f5fa40;stroke-width:29.1467"/>
    <path
 id="path2910"
 d=""
 style="fill:#f5fa40;stroke-width:29.1467"/>
    <path
 id="path2922"
 d=""
 style="fill:#f5fa40;stroke-width:29.1467"/>
    <path
 id="path2934"
 d=""
 style="fill:#f5fa40;stroke-width:29.1467"/>
    <path
 id="path2946"
 d=""
 style="fill:#f5fa40;stroke-width:29.1467"/>
    <path
 id="path2970"
 d=""
 style="fill:#ff212c;stroke-width:29.1467"/>
    <path
 id="path2982"
 d=""
 style="fill:#ff212c;stroke-width:29.1467"/>
    <path
 id="path2994"
 d=""
 style="fill:#ff212c;stroke-width:29.1467"/>
    <path
 id="path3006"
 d=""
 style="fill:#ff212c;stroke-width:29.1467"/>
    <path
 id="path3018"
 d=""
 style="fill:#ff212c;stroke-width:29.1467"/>
    <path
 id="path3030"
 d=""
 style="fill:#ff212c;stroke-width:29.1467"/>
    <path
 id="path3042"
 d=""
 style="fill:#ff212c;stroke-width:29.1467"/>
    <path
 id="path3054"
 d=""
 style="fill:#ff212c;stroke-width:29.1467"/>
    <path
 id="path3078"
 d=""
 style="fill:#2da6ff;stroke-width:29.1467"/>
    <path
 id="path3090"
 d=""
 style="fill:#2da6ff;stroke-width:29.1467"/>
    <path
 id="path3102"
 d=""
 style="fill:#2da6ff;stroke-width:29.1467"/>
    <path
 id="path3114"
 d=""
 style="fill:#2da6ff;stroke-width:29.1467"/>
    <path
 id="path3126"
 d=""
 style="fill:#2da6ff;stroke-width:29.1467"/>
    <path
 id="path3138"
 d=""
 style="fill:#2da6ff;stroke-width:29.1467"/>
    <path
 id="path3150"
 d=""
 style="fill:#2da6ff;stroke-width:29.1467"/>
    <path
 id="path3162"
 d=""
 style="fill:#2da6ff;stroke-width:29.1467"/>
    <path
 id="path3186"
 d=""
 style="fill:#2da6ff;stroke-width:29.1467"/>
    <path
 id="path3198"
 d=""
 style="fill:#2da6ff;stroke-width:29.1467"/>
    <path
 id="path3210"
 d=""
 style="fill:#2da6ff;stroke-width:29.1467"/>
    <path
 id="path3222"
 d=""
 style="fill:#2da6ff;stroke-width:29.1467"/>
    <g
 fill="#c00104"
 id="g2948"
 transform="matrix(1.5978717,0,0,1.5978717,-358.39561,-142.43989)">
      <path
 fill="#c00104"
 d="m 225.53593,293.84412 v 128.80569 l 144.14736,58.27503 V 352.11319 Z"
 id="path2950"/>
    </g>
    <g
 fill="#ff212c"
 id="g2952"
 transform="matrix(1.5978717,0,0,1.5978717,-358.39561,-142.43989)">
      <path
 d="M 726.2019,368.40503 V 248.59796 L 368.9162,352.88028 v 128.80588 z"
 id="path2954"/>
    </g>
    <g
 fill="#ff212c"
 id="g2956"
 transform="matrix(1.5978717,0,0,1.5978717,-358.39561,-142.43989)">
      <path
 d="M 225.53593,295.37253 580.52618,187.26051 725.43494,248.59796 369.68329,354.40872 Z"
 id="path2958"/>
    </g>
    <g
 fill="#c00104"
 id="g2960"
 transform="matrix(1.5978717,0,0,1.5978717,-358.39561,-142.43989)">
      <path
 d="m 342.08572,303.03751 v 26.06924 c 13.79593,12.26733 61.32599,11.50601 72.83219,-1.53418 v -26.83633 z"
 id="path2962"/>
    </g>
    <g
 fill="#ff212c"
 id="g2964"
 transform="matrix(1.5978717,0,0,1.5978717,-358.39561,-142.43989)">
      <path
 d="m 342.08572,301.12564 c 0,-4.86581 16.30326,-8.8157 36.41324,-8.8157 20.1157,0 36.41895,3.94989 36.41895,8.8157 0,4.8714 -16.30325,8.81552 -36.41895,8.81552 -20.10998,0 -36.41324,-3.94412 -36.41324,-8.81552 z"
 id="path2966"/>
    </g>
    <g
 fill="#c00104"
 id="g2972"
 transform="matrix(1.5978717,0,0,1.5978717,-358.39561,-142.43989)">
      <path
 d="m 432.93277,276.58484 v 26.06921 c 13.80164,12.27313 61.3317,11.50604 72.83212,-1.52841 v -26.83633 z"
 id="path2974"/>
    </g>
    <g
 fill="#ff212c"
 id="g2976"
 transform="matrix(1.5978717,0,0,1.5978717,-358.39561,-142.43989)">
      <path
 d="m 432.93277,274.67853 c 0,-4.8714 16.30319,-8.81552 36.41895,-8.81552 20.10998,0 36.41317,3.94412 36.41317,8.81552 0,4.86584 -16.30319,8.8157 -36.41317,8.8157 -20.11576,0 -36.41895,-3.94986 -36.41895,-8.8157 z"
 id="path2978"/>
    </g>
    <g
 fill="#c00104"
 id="g2984"
 transform="matrix(1.5978717,0,0,1.5978717,-358.39561,-142.43989)">
      <path
 d="m 521.48425,250.13214 v 26.07483 c 13.80158,12.26752 61.33173,11.50043 72.83209,-1.53403 v -26.83632 z"
 id="path2986"/>
    </g>
    <g
 fill="#ff212c"
 id="g2988"
 transform="matrix(1.5978717,0,0,1.5978717,-358.39561,-142.43989)">
      <path
 d="m 521.48425,248.22586 c 0,-4.87141 16.30316,-8.81554 36.41895,-8.81554 20.10998,0 36.41314,3.94413 36.41314,8.81554 0,4.86581 -16.30316,8.8157 -36.41314,8.8157 -20.11579,0 -36.41895,-3.94989 -36.41895,-8.8157 z"
 id="path2990"/>
    </g>
    <g
 fill="#c00104"
 id="g2996"
 transform="matrix(1.5978717,0,0,1.5978717,-358.39561,-142.43989)">
      <path
 d="m 606.97321,224.4523 v 26.06906 c 13.80157,12.26752 61.33166,11.50043 72.83209,-1.53401 v -26.83632 z"
 id="path2998"/>
    </g>
    <g
 fill="#ff212c"
 id="g3000"
 transform="matrix(1.5978717,0,0,1.5978717,-358.39561,-142.43989)">
      <path
 d="m 606.97321,222.54025 c 0,-4.86564 16.30316,-8.81552 36.41888,-8.81552 20.11005,0 36.41321,3.94988 36.41321,8.81552 0,4.87158 -16.30316,8.81571 -36.41321,8.81571 -20.11572,0 -36.41888,-3.94412 -36.41888,-8.81571 z"
 id="path3002"/>
    </g>
    <g
 fill="#c00104"
 id="g3008"
 transform="matrix(1.5978717,0,0,1.5978717,-358.39561,-142.43989)">
      <path
 d="m 536.05872,193.40283 v 26.06923 c 13.80163,12.27312 61.33166,11.50603 72.83209,-1.52841 v -26.84192 z"
 id="path3010"/>
    </g>
    <g
 fill="#ff212c"
 id="g3012"
 transform="matrix(1.5978717,0,0,1.5978717,-358.39561,-142.43989)">
      <path
 d="m 536.05872,191.49095 c 0,-4.86581 16.30316,-8.81569 36.41314,-8.81569 20.11579,0 36.41895,3.94988 36.41895,8.81569 0,4.87142 -16.30316,8.81571 -36.41895,8.81571 -20.10998,0 -36.41314,-3.94429 -36.41314,-8.81571 z"
 id="path3014"/>
    </g>
    <g
 fill="#c00104"
 id="g3020"
 transform="matrix(1.5978717,0,0,1.5978717,-358.39561,-142.43989)">
      <path
 d="m 446.74582,219.09419 v 26.06923 c 13.80163,12.26737 61.33179,11.50604 72.83212,-1.53418 v -26.83632 z"
 id="path3022"/>
    </g>
    <g
 fill="#ff212c"
 id="g3024"
 transform="matrix(1.5978717,0,0,1.5978717,-358.39561,-142.43989)">
      <path
 d="m 446.74582,217.18233 c 0,-4.86583 16.30319,-8.81571 36.41318,-8.81571 20.11575,0 36.41894,3.94988 36.41894,8.81571 0,4.8714 -16.30319,8.81552 -36.41894,8.81552 -20.10999,0 -36.41318,-3.94412 -36.41318,-8.81552 z"
 id="path3026"/>
    </g>
    <g
 fill="#c00104"
 id="g3032"
 transform="matrix(1.5978717,0,0,1.5978717,-358.39561,-142.43989)">
      <path
 d="m 357.43295,244.78555 v 26.06906 c 13.80173,12.26752 61.33179,11.50043 72.83222,-1.53399 v -26.83634 z"
 id="path3034"/>
    </g>
    <g
 fill="#ff212c"
 id="g3036"
 transform="matrix(1.5978717,0,0,1.5978717,-358.39561,-142.43989)">
      <path
 d="m 357.43295,242.8735 c 0,-4.86563 16.30329,-8.81552 36.41895,-8.81552 20.10998,0 36.41327,3.94989 36.41327,8.81552 0,4.87159 -16.30329,8.81571 -36.41327,8.81571 -20.11566,0 -36.41895,-3.94412 -36.41895,-8.81571 z"
 id="path3038"/>
    </g>
    <g
 fill="#c00104"
 id="g3044"
 transform="matrix(1.5978717,0,0,1.5978717,-358.39561,-142.43989)">
      <path
 d="m 268.12018,270.47693 v 26.06906 c 13.8016,12.26752 61.33166,11.50043 72.83209,-1.53421 v -26.83612 z"
 id="path3046"/>
    </g>
    <g
 fill="#ff212c"
 id="g3048"
 transform="matrix(1.5978717,0,0,1.5978717,-358.39561,-142.43989)">
      <path
 d="m 268.12018,268.56488 c 0,-4.87143 16.30319,-8.8157 36.41894,-8.8157 20.10999,0 36.41315,3.94427 36.41315,8.8157 0,4.87158 -16.30316,8.8157 -36.41315,8.8157 -20.11575,0 -36.41894,-3.94412 -36.41894,-8.8157 z"
 id="path3050"/>
    </g>
  </g>
</svg>
