<?xml version="1.0" encoding="UTF-8" standalone="no"?>
<svg
 xmlns="http://www.w3.org/2000/svg"
   width="800"
   height="800"
   version="1.1"
   id="svg1031">
  <g
 id="g425"
 transform="matrix(2.4961859,0,0,2.4961857,-829.65644,-1294.4428)">
    <g
 id="g3245"
 transform="translate(69.112083,-58.103542)">
      <g
 fill="#002ec4"
 id="g3164">
        <path
 fill="#002ec4"
 d="m 263.25757,673.13507 v 128.80567 l 144.14734,58.2752 V 731.40399 Z"
           id="path3166"/>
      </g>
      <g
 fill="#2da6ff"
 id="g3168">
        <path
 d="M 583.74652,804.09894 V 679.53528 l -177.1087,52.63598 v 128.80567 z"
 id="path3170"/>
      </g>
      <g
 fill="#2da6ff"
 id="g3172">
        <path
 d="m 263.25757,674.66925 178.5571,-52.61883 141.93185,57.48486 -176.34161,54.16455 z"
 id="path3174"/>
      </g>
      <g
 fill="#002ec4"
 id="g3176">
        <path
 d="m 379.80743,682.32831 v 26.06958 c 13.79578,12.26715 61.32593,11.50616 72.83213,-1.53455 v -26.83581 z"
 id="path3178"/>
      </g>
      <g
 fill="#2da6ff"
 id="g3180">
        <path
 d="m 379.80743,680.41675 c 0,-4.86597 16.3032,-8.81623 36.41318,-8.81623 20.11575,0 36.41895,3.95026 36.41895,8.81623 0,4.87127 -16.3032,8.81555 -36.41895,8.81555 -20.10998,0 -36.41318,-3.94427 -36.41318,-8.81555 z"
 id="path3182"/>
      </g>
      <g
 fill="#002ec4"
 id="g3188">
        <path
 d="m 470.65442,655.87579 v 26.06922 c 13.80151,12.27313 61.33166,11.50622 72.83209,-1.52826 v -26.83649 z"
 id="path3190"/>
      </g>
      <g
 fill="#2da6ff"
 id="g3192">
        <path
 d="m 470.65442,653.96985 c 0,-4.87158 16.30316,-8.81622 36.41891,-8.81622 20.11002,0 36.41318,3.94464 36.41318,8.81622 0,4.86529 -16.30316,8.81518 -36.41318,8.81518 -20.11575,0 -36.41891,-3.94989 -36.41891,-8.81518 z"
 id="path3194"/>
      </g>
      <g
 fill="#002ec4"
 id="g3200">
        <path
 d="m 395.15469,624.07684 v 26.06855 c 13.80152,12.26751 61.33167,11.50097 72.8321,-1.53418 v -26.83613 z"
 id="path3202"/>
      </g>
      <g
 fill="#2da6ff"
 id="g3204">
        <path
 d="m 395.15469,622.16431 c 0,-4.86567 16.30317,-8.81519 36.41892,-8.81519 20.11001,0 36.41318,3.94952 36.41318,8.81519 0,4.87158 -16.30317,8.81622 -36.41318,8.81622 -20.11575,0 -36.41892,-3.94464 -36.41892,-8.81622 z"
 id="path3206"/>
      </g>
      <g
 fill="#002ec4"
 id="g3212">
        <path
 d="m 305.84174,649.7677 v 26.06921 c 13.80169,12.26789 61.33184,11.50031 72.83209,-1.53381 v -26.83649 z"
 id="path3214"/>
      </g>
      <g
 fill="#2da6ff"
 id="g3216">
        <path
 d="m 305.84174,647.85583 c 0,-4.87121 16.30316,-8.81585 36.41891,-8.81585 20.10999,0 36.41318,3.94464 36.41318,8.81585 0,4.87122 -16.30319,8.81586 -36.41318,8.81586 -20.11575,0 -36.41891,-3.94464 -36.41891,-8.81586 z"
 id="path3218"/>
      </g>
    </g>
  </g>
  <g
 fill="#f5fa40"
 transform="matrix(5.7244485,0,0,5.7244485,-513.56967,-2359.0718)"
     id="g2860">
    <path
 transform="matrix(5.7244485,0,0,5.7244485,-582.68175,-2300.9683)"
 id="path2862"
       d=""/>
  </g>
  <g
 fill="#f5fa40"
 transform="matrix(5.7244485,0,0,5.7244485,-513.56967,-2359.0718)"
     id="g2872">
    <path
 transform="matrix(5.7244485,0,0,5.7244485,-582.68175,-2300.9683)"
 id="path2874"
       d=""/>
  </g>
  <g
 fill="#f5fa40"
 transform="matrix(5.7244485,0,0,5.7244485,-513.56967,-2359.0718)"
     id="g2884">
    <path
 transform="matrix(5.7244485,0,0,5.7244485,-582.68175,-2300.9683)"
 id="path2886"
       d=""/>
  </g>
  <g
 fill="#f5fa40"
 transform="matrix(5.7244485,0,0,5.7244485,-513.56967,-2359.0718)"
     id="g2896">
    <path
 transform="matrix(5.7244485,0,0,5.7244485,-582.68175,-2300.9683)"
 id="path2898"
       d=""/>
  </g>
  <g
 fill="#f5fa40"
 transform="matrix(5.7244485,0,0,5.7244485,-513.56967,-2359.0718)"
     id="g2908">
    <path
 transform="matrix(5.7244485,0,0,5.7244485,-582.68175,-2300.9683)"
 id="path2910"
       d=""/>
  </g>
  <g
 fill="#f5fa40"
 transform="matrix(5.7244485,0,0,5.7244485,-513.56967,-2359.0718)"
     id="g2920">
    <path
 transform="matrix(5.7244485,0,0,5.7244485,-582.68175,-2300.9683)"
 id="path2922"
       d=""/>
  </g>
  <g
 fill="#f5fa40"
 transform="matrix(5.7244485,0,0,5.7244485,-513.56967,-2359.0718)"
     id="g2932">
    <path
 transform="matrix(5.7244485,0,0,5.7244485,-582.68175,-2300.9683)"
 id="path2934"
       d=""/>
  </g>
  <g
 fill="#f5fa40"
 transform="matrix(5.7244485,0,0,5.7244485,-513.56967,-2359.0718)"
     id="g2944">
    <path
 transform="matrix(5.7244485,0,0,5.7244485,-582.68175,-2300.9683)"
 id="path2946"
       d=""/>
  </g>
  <g
 fill="#ff212c"
 transform="matrix(5.7244485,0,0,5.7244485,-513.56967,-2359.0718)"
     id="g2968">
    <path
 transform="matrix(5.7244485,0,0,5.7244485,-582.68175,-2300.9683)"
 id="path2970"
       d=""/>
  </g>
  <g
 fill="#ff212c"
 transform="matrix(5.7244485,0,0,5.7244485,-513.56967,-2359.0718)"
     id="g2980">
    <path
 transform="matrix(5.7244485,0,0,5.7244485,-582.68175,-2300.9683)"
 id="path2982"
       d=""/>
  </g>
  <g
 fill="#ff212c"
 transform="matrix(5.7244485,0,0,5.7244485,-513.56967,-2359.0718)"
     id="g2992">
    <path
 transform="matrix(5.7244485,0,0,5.7244485,-582.68175,-2300.9683)"
 id="path2994"
       d=""/>
  </g>
  <g
 fill="#ff212c"
 transform="matrix(5.7244485,0,0,5.7244485,-513.56967,-2359.0718)"
     id="g3004">
    <path
 transform="matrix(5.7244485,0,0,5.7244485,-582.68175,-2300.9683)"
 id="path3006"
       d=""/>
  </g>
  <g
 fill="#ff212c"
 transform="matrix(5.7244485,0,0,5.7244485,-513.56967,-2359.0718)"
     id="g3016">
    <path
 transform="matrix(5.7244485,0,0,5.7244485,-582.68175,-2300.9683)"
 id="path3018"
       d=""/>
  </g>
  <g
 fill="#ff212c"
 transform="matrix(5.7244485,0,0,5.7244485,-513.56967,-2359.0718)"
     id="g3028">
    <path
 transform="matrix(5.7244485,0,0,5.7244485,-582.68175,-2300.9683)"
 id="path3030"
       d=""/>
  </g>
  <g
 fill="#ff212c"
 transform="matrix(5.7244485,0,0,5.7244485,-513.56967,-2359.0718)"
     id="g3040">
    <path
 transform="matrix(5.7244485,0,0,5.7244485,-582.68175,-2300.9683)"
 id="path3042"
       d=""/>
  </g>
  <g
 fill="#ff212c"
 transform="matrix(5.7244485,0,0,5.7244485,-513.56967,-2359.0718)"
     id="g3052">
    <path
 transform="matrix(5.7244485,0,0,5.7244485,-582.68175,-2300.9683)"
 id="path3054"
       d=""/>
  </g>
  <g
 fill="#2da6ff"
 transform="matrix(5.7244485,0,0,5.7244485,-513.56967,-2359.0718)"
     id="g3076">
    <path
 transform="matrix(5.7244485,0,0,5.7244485,-582.68175,-2300.9683)"
 id="path3078"
       d=""/>
  </g>
  <g
 fill="#2da6ff"
 transform="matrix(5.7244485,0,0,5.7244485,-513.56967,-2359.0718)"
     id="g3088">
    <path
 transform="matrix(5.7244485,0,0,5.7244485,-582.68175,-2300.9683)"
 id="path3090"
       d=""/>
  </g>
  <g
 fill="#2da6ff"
 transform="matrix(5.7244485,0,0,5.7244485,-513.56967,-2359.0718)"
     id="g3100">
    <path
 transform="matrix(5.7244485,0,0,5.7244485,-582.68175,-2300.9683)"
 id="path3102"
       d=""/>
  </g>
  <g
 fill="#2da6ff"
 transform="matrix(5.7244485,0,0,5.7244485,-513.56967,-2359.0718)"
     id="g3112">
    <path
 transform="matrix(5.7244485,0,0,5.7244485,-582.68175,-2300.9683)"
 id="path3114"
       d=""/>
  </g>
  <g
 fill="#2da6ff"
 transform="matrix(5.7244485,0,0,5.7244485,-513.56967,-2359.0718)"
     id="g3124">
    <path
 transform="matrix(5.7244485,0,0,5.7244485,-582.68175,-2300.9683)"
 id="path3126"
       d=""/>
  </g>
  <g
 fill="#2da6ff"
 transform="matrix(5.7244485,0,0,5.7244485,-513.56967,-2359.0718)"
     id="g3136">
    <path
 transform="matrix(5.7244485,0,0,5.7244485,-582.68175,-2300.9683)"
 id="path3138"
       d=""/>
  </g>
  <g
 fill="#2da6ff"
 transform="matrix(5.7244485,0,0,5.7244485,-513.56967,-2359.0718)"
     id="g3148">
    <path
 transform="matrix(5.7244485,0,0,5.7244485,-582.68175,-2300.9683)"
 id="path3150"
       d=""/>
  </g>
  <g
 fill="#2da6ff"
 transform="matrix(5.7244485,0,0,5.7244485,-513.56967,-2359.0718)"
     id="g3160">
    <path
 transform="matrix(5.7244485,0,0,5.7244485,-582.68175,-2300.9683)"
 id="path3162"
       d=""/>
  </g>
  <g
 fill="#2da6ff"
 transform="matrix(5.7244485,0,0,5.7244485,-513.56967,-2359.0718)"
     id="g3184">
    <path
 transform="matrix(5.7244485,0,0,5.7244485,-582.68175,-2300.9683)"
 id="path3186"
       d=""/>
  </g>
  <g
 fill="#2da6ff"
 transform="matrix(5.7244485,0,0,5.7244485,-513.56967,-2359.0718)"
     id="g3196">
    <path
 transform="matrix(5.7244485,0,0,5.7244485,-582.68175,-2300.9683)"
 id="path3198"
       d=""/>
  </g>
  <g
 fill="#2da6ff"
 transform="matrix(5.7244485,0,0,5.7244485,-513.56967,-2359.0718)"
     id="g3208">
    <path
 transform="matrix(5.7244485,0,0,5.7244485,-582.68175,-2300.9683)"
 id="path3210"
       d=""/>
  </g>
  <g
 fill="#2da6ff"
 transform="matrix(5.7244485,0,0,5.7244485,-513.56967,-2359.0718)"
     id="g3220">
    <path
 transform="matrix(5.7244485,0,0,5.7244485,-610.3636,-2361.0373)"
 id="path3222"
       d=""/>
  </g>
</svg>
