<?xml version="1.0" encoding="UTF-8" standalone="no"?>
<svg
   id="emoji"
   viewBox="0 0 72 72"
   version="1.1"
   sodipodi:docname="magnet-right.svg"
   inkscape:version="1.1.2 (0a00cf5339, 2022-02-04)"
   xmlns:inkscape="http://www.inkscape.org/namespaces/inkscape"
   xmlns:sodipodi="http://sodipodi.sourceforge.net/DTD/sodipodi-0.dtd"
   xmlns="http://www.w3.org/2000/svg"
   xmlns:svg="http://www.w3.org/2000/svg">
  <defs
     id="defs27" />
  <sodipodi:namedview
     id="namedview25"
     pagecolor="#ffffff"
     bordercolor="#000000"
     borderopacity="0.25"
     inkscape:pageshadow="2"
     inkscape:pageopacity="0.0"
     inkscape:pagecheckerboard="0"
     showgrid="false"
     inkscape:zoom="9.9861111"
     inkscape:cx="36.05007"
     inkscape:cy="36"
     inkscape:window-width="1920"
     inkscape:window-height="1136"
     inkscape:window-x="0"
     inkscape:window-y="0"
     inkscape:window-maximized="1"
     inkscape:current-layer="emoji" />
  <g
     id="color"
     transform="rotate(90,35,35.604953)">
    <path
       fill="#ea5a47"
       d="M 43.5,36.5 V 47 a 8.5,8.5 0 0 1 -17,0 V 36.5 h -6 V 47 a 14.5,14.5 0 0 0 29,0 V 36.5 Z"
       id="path2" />
    <g
       id="g8">
      <rect
         x="20.5"
         y="31.5"
         width="6"
         height="5"
         fill="#d0cfce"
         id="rect4" />
      <rect
         x="43.5"
         y="31.5"
         width="6"
         height="5"
         fill="#d0cfce"
         id="rect6" />
    </g>
    <path
       fill="#fcea2b"
       d="m 44.8818,19.7754 a 1.283,1.283 0 0 0 -1.26,-0.9072 h -4.9245 l 3.4609,-7.75 A 1,1 0 0 0 40.5127,10.0293 L 29.4214,21.958 a 1.327,1.327 0 0 0 -0.2788,1.4512 1.37,1.37 0 0 0 1.2666,0.85 h 4.8789 l -4.9946,8.05 a 1.0006,1.0006 0 0 0 0.2124,1.2988 c 0.227,0.1875 0.38,0.3145 0.5717,0.3145 0.4,0 0.9659,-0.5567 2.7163,-2.2783 L 44.21,21.3711 a 1.4519,1.4519 0 0 0 0.6718,-1.5957 z"
       id="path10" />
  </g>
  <g
     id="line"
     transform="rotate(90,35,35.604953)">
    <path
       fill="none"
       stroke="#000000"
       stroke-linecap="round"
       stroke-linejoin="round"
       stroke-width="2"
       d="M 43.5,36.5 V 47 a 8.5,8.5 0 0 1 -17,0 V 36.5 h -6 V 47 a 14.5,14.5 0 0 0 29,0 V 36.5 Z"
       id="path13" />
    <g
       id="g19">
      <rect
         x="20.5"
         y="31.5"
         width="6"
         height="5"
         fill="none"
         stroke="#000000"
         stroke-linecap="round"
         stroke-linejoin="round"
         stroke-width="2"
         id="rect15" />
      <rect
         x="43.5"
         y="31.5"
         width="6"
         height="5"
         fill="none"
         stroke="#000000"
         stroke-linecap="round"
         stroke-linejoin="round"
         stroke-width="2"
         id="rect17" />
    </g>
    <path
       fill="none"
       stroke="#000000"
       stroke-miterlimit="10"
       stroke-width="2"
       d="m 44.8818,19.7754 a 1.283,1.283 0 0 0 -1.26,-0.9072 h -4.9245 l 3.4609,-7.75 A 1,1 0 0 0 40.5127,10.0293 L 29.4214,21.958 a 1.327,1.327 0 0 0 -0.2788,1.4512 1.37,1.37 0 0 0 1.2666,0.85 h 4.8789 l -4.9946,8.05 a 1.0006,1.0006 0 0 0 0.2124,1.2988 c 0.227,0.1875 0.38,0.3145 0.5717,0.3145 0.4,0 0.9659,-0.5567 2.7163,-2.2783 L 44.21,21.3711 a 1.4519,1.4519 0 0 0 0.6718,-1.5957 z"
       id="path21" />
  </g>
</svg>
