<?xml version="1.0" encoding="UTF-8" standalone="no"?>
<svg
 id="emoji"
 viewBox="0 0 72 72"
 version="1.1"
   xmlns="http://www.w3.org/2000/svg">
  <g
 id="hair"/>
  <g
 id="skin"/>
  <g
 id="skin-shadow"/>
  <polyline
 fill="none"
 stroke="#000000"
 stroke-linecap="round"
     stroke-linejoin="round"
     stroke-miterlimit="10"
     stroke-width="2"
     points="8.4925,35.5947 36.0155,7.9766 63.5958,35.3474"
     id="polyline2"
     transform="translate(0,-2)"/>
  <g
 id="line"
 transform="matrix(0.95810212,0,0,1.0100563,1.6976369,7.7253339)">
    <path
 fill="none"
 stroke="#000000"
 stroke-linecap="round"
       stroke-linejoin="round"
       stroke-miterlimit="10"
       stroke-width="2"
       d="m 15.9345,30.2552 c -0.0372,0.4242 -0.3794,0.7675 -0.8028,0.8127 C 9.9704,31.6186 6,36.6998 6,42.8852 c 0,6.553 4.5445,11.8652 10.1505,11.8652 H 54.8482 C 61.0072,54.7504 66,49.1365 66,42.2114 66,35.5735 61.4128,30.1403 55.6084,29.7011 55.1663,29.6676 54.8076,29.3567 54.7229,28.9215 53.4265,22.2651 47.4466,17.263 40.3767,17.263 c -4.5964,0 -8.6908,2.0817 -11.3486,5.3929 -0.2582,0.3217 -0.6903,0.4696 -1.0705,0.3097 -1.0245,-0.4306 -2.1065,-0.639 -3.3175,-0.639 -4.5674,0 -8.3164,3.4856 -8.7056,7.9286 z"
       id="path2"/>
  </g>
</svg>
