<?xml version="1.0" encoding="UTF-8" standalone="no"?>
<!-- Created with Inkscape (http://www.inkscape.org/) -->
<svg xmlns="http://www.w3.org/2000/svg" xmlns:xlink="http://www.w3.org/1999/xlink" width="140.97894" height="140" id="svg6625" version="1.0">
  <defs id="defs6627">
    <filter id="filter15564" x="-0.61283314" width="2.2256663" y="-0.71497208" height="2.429944">
      <feGaussianBlur stdDeviation="1.2767358" id="feGaussianBlur15566"/>
    </filter>
    <filter id="filter15480" x="-0.51607001" width="2.03214" y="-0.60208172" height="2.2041636">
      <feGaussianBlur stdDeviation="1.0751459" id="feGaussianBlur15482"/>
    </filter>
    <filter id="filter15624" x="-0.49815094" width="1.9963019" y="-0.5811761" height="2.1623521">
      <feGaussianBlur stdDeviation="1.0378145" id="feGaussianBlur15626"/>
    </filter>
    <linearGradient id="linearGradient15630">
      <stop style="stop-color:#00ff00;stop-opacity:1;" offset="0" id="stop15632"/>
      <stop style="stop-color:#00ff00;stop-opacity:0;" offset="1" id="stop15634"/>
    </linearGradient>
    <linearGradient xlink:href="#linearGradient15630" id="linearGradient8289" gradientUnits="userSpaceOnUse" gradientTransform="matrix(1.0961139,0,0,1.0016089,-65.924597,308.36723)" x1="3142.3215" y1="565.89282" x2="3077.9583" y2="589.82147"/>
    <filter id="filter15696" x="-0.033344861" width="1.0666897" y="-0.43439755" height="1.8687952">
      <feGaussianBlur stdDeviation="6.7280306" id="feGaussianBlur15698"/>
    </filter>
    </defs>
  <g id="layer1" transform="translate(-320.93912,-433.79074)">
    <g id="g2426">
      <rect ry="6.9642859" rx="6.9642859" y="433.79074" x="321.42859" height="140" width="140" id="rect6661" style="opacity:1;fill:#000000;fill-opacity:1;fill-rule:nonzero;stroke:none;stroke-width:0.32499999;stroke-linecap:butt;stroke-linejoin:miter;marker:none;marker-start:none;marker-mid:none;marker-end:none;stroke-miterlimit:4;stroke-dasharray:none;stroke-dashoffset:0;stroke-opacity:1;visibility:visible;display:inline;overflow:visible;enable-background:accumulate"/>
      <g transform="matrix(0.9291641,0,0,0.9983937,-2692.7733,-376.69797)" id="g14847">
        <g id="g14869" transform="matrix(0.7341598,-0.6318958,0.7295655,0.7341598,239.00351,2331.9163)">
          <g transform="matrix(0.1528462,0,0,0.1528462,2894.9871,927.50093)" id="g15080">
            <path style="opacity:1;fill:#000000;fill-opacity:1;fill-rule:nonzero;stroke:#000000;stroke-width:0.435;stroke-linecap:butt;stroke-linejoin:miter;marker:none;marker-start:none;marker-mid:none;marker-end:none;stroke-miterlimit:4;stroke-dasharray:none;stroke-dashoffset:0;stroke-opacity:1;visibility:visible;display:inline;overflow:visible;enable-background:accumulate" id="path14839" d="M 2638.5184,-316.54987 A 145.46196,135.36044 0 1 1 2638.518,-316.86055" transform="matrix(3.3187479,0,0,3.3187479,-5506.5076,752.23887)"/>
            <path style="opacity:1;fill:none;fill-opacity:1;fill-rule:nonzero;stroke:#00ff00;stroke-width:0.90385294;stroke-linecap:butt;stroke-linejoin:miter;marker:none;marker-start:none;marker-mid:none;marker-end:none;stroke-miterlimit:4;stroke-dasharray:none;stroke-dashoffset:0;stroke-opacity:1;visibility:visible;display:inline;overflow:visible;enable-background:accumulate" id="path14841" d="M 2638.5184,-316.54987 A 145.46196,135.36044 0 1 1 2638.518,-316.86055" transform="matrix(3.3187479,0,0,3.3187479,-5506.5076,752.23887)"/>
            <path style="opacity:1;fill:none;fill-opacity:1;fill-rule:nonzero;stroke:#00ff00;stroke-width:12.62356186;stroke-linecap:butt;stroke-linejoin:miter;marker:none;marker-start:none;marker-mid:none;marker-end:none;stroke-miterlimit:4;stroke-dasharray:none;stroke-dashoffset:0;stroke-opacity:1;visibility:visible;display:inline;overflow:visible;enable-background:accumulate" id="path14861" d="M 2638.5184,-316.54987 A 145.46196,135.36044 0 1 1 2638.518,-316.86055" transform="matrix(1.0762082,0,0,1.0762082,84.270395,42.363228)"/>
            <path style="opacity:1;fill:none;fill-opacity:1;fill-rule:nonzero;stroke:#00ff00;stroke-width:5.98938942;stroke-linecap:butt;stroke-linejoin:miter;marker:none;marker-start:none;marker-mid:none;marker-end:none;stroke-miterlimit:4;stroke-dasharray:none;stroke-dashoffset:0;stroke-opacity:1;visibility:visible;display:inline;overflow:visible;enable-background:accumulate" id="path14865" d="M 2638.5184,-316.54987 A 145.46196,135.36044 0 1 1 2638.518,-316.86055" transform="matrix(2.2682748,0,0,2.2682748,-2886.3567,413.86082)"/>
            <path style="opacity:1;fill:none;fill-opacity:1;fill-rule:nonzero;stroke:#00ff00;stroke-width:4.11411047;stroke-linecap:butt;stroke-linejoin:miter;marker:none;marker-start:none;marker-mid:none;marker-end:none;stroke-miterlimit:4;stroke-dasharray:none;stroke-dashoffset:0;stroke-opacity:1;visibility:visible;display:inline;overflow:visible;enable-background:accumulate" id="path14867" d="M 2638.5184,-316.54987 A 145.46196,135.36044 0 1 1 2638.518,-316.86055" transform="matrix(3.3021916,0,0,3.3021916,-5465.2318,746.99798)"/>
            <path style="fill:#00b801;fill-opacity:1;fill-rule:evenodd;stroke:#00ff00;stroke-width:32.71261978;stroke-linecap:butt;stroke-linejoin:miter;stroke-miterlimit:4;stroke-dasharray:none;stroke-opacity:1;filter:url(#filter15696)" d="M 2575.889,-605.4535 L 3018.3358,-609.49412 L 3018.3358,-609.49412 C 3025.4068,-610.50426 3022.3763,-609.4941 3027.4271,-608.48395" id="path14940" transform="matrix(1.1094008,0,0,0.9779372,-103.68124,293.98231)"/>
          </g>
          <path id="path15628" d="M 3389.9659,881.43062 L 3316.7896,882.14605 L 3268.7291,935.80367 L 3334.7688,948.6815 L 3348.2744,944.03118 L 3365.8906,933.65736 L 3374.8943,924.89329 L 3384.2897,911.47889 L 3390.1617,895.73931 L 3391.7276,882.68263 L 3391.7276,881.78834" style="fill:url(#linearGradient8289);fill-opacity:1;fill-rule:evenodd;stroke:none;stroke-width:1px;stroke-linecap:butt;stroke-linejoin:miter;stroke-opacity:1"/>
          <path transform="matrix(1.5682299,0,0,1.7027351,-1515.4042,-111.5931)" d="M 3049.2856,580 A 2.5,2.1428571 0 1 1 3049.285,579.94955" id="path15090" style="opacity:1;fill:#00ff00;fill-opacity:1;fill-rule:nonzero;stroke:none;stroke-width:20;stroke-linecap:butt;stroke-linejoin:miter;marker:none;marker-start:none;marker-mid:none;marker-end:none;stroke-miterlimit:4;stroke-dasharray:none;stroke-dashoffset:0;stroke-opacity:1;visibility:visible;display:inline;overflow:visible;filter:url(#filter15624);enable-background:accumulate"/>
          <path transform="matrix(1.0762362,0,0,1.1685437,85.683805,216.80352)" d="M 3049.2856,580 A 2.5,2.1428571 0 1 1 3049.285,579.94955" id="path15360" style="opacity:1;fill:#00ff00;fill-opacity:1;fill-rule:nonzero;stroke:none;stroke-width:20;stroke-linecap:butt;stroke-linejoin:miter;marker:none;marker-start:none;marker-mid:none;marker-end:none;stroke-miterlimit:4;stroke-dasharray:none;stroke-dashoffset:0;stroke-opacity:1;visibility:visible;display:inline;overflow:visible;filter:url(#filter15480);enable-background:accumulate"/>
          <path transform="matrix(2.1447852,0,0,2.3287407,-3238.9695,-438.7436)" d="M 3049.2856,580 A 2.5,2.1428571 0 1 1 3049.285,579.94955" id="path15362" style="opacity:1;fill:#00ff00;fill-opacity:1;fill-rule:nonzero;stroke:none;stroke-width:20;stroke-linecap:butt;stroke-linejoin:miter;marker:none;marker-start:none;marker-mid:none;marker-end:none;stroke-miterlimit:4;stroke-dasharray:none;stroke-dashoffset:0;stroke-opacity:1;visibility:visible;display:inline;overflow:visible;filter:url(#filter15564);enable-background:accumulate"/>
          <path transform="matrix(4.1588843,0,0,4.5155867,-9359.8926,-1770.8953)" d="M 3049.2856,580 A 2.5,2.1428571 0 1 1 3049.285,579.94955" id="path15642" style="opacity:1;fill:#00ff00;fill-opacity:1;fill-rule:nonzero;stroke:none;stroke-width:20;stroke-linecap:butt;stroke-linejoin:miter;marker:none;marker-start:none;marker-mid:none;marker-end:none;stroke-miterlimit:4;stroke-dasharray:none;stroke-dashoffset:0;stroke-opacity:1;visibility:visible;display:inline;overflow:visible;filter:url(#filter15564);enable-background:accumulate"/>
        </g>
      </g>
    </g>
  </g>
</svg>
