<?xml version="1.0" encoding="UTF-8" standalone="no"?>
<svg
   xmlns:dc="http://purl.org/dc/elements/1.1/"
   xmlns:cc="http://creativecommons.org/ns#"
   xmlns:rdf="http://www.w3.org/1999/02/22-rdf-syntax-ns#"
   xmlns:svg="http://www.w3.org/2000/svg"
   xmlns="http://www.w3.org/2000/svg"
   xmlns:sodipodi="http://sodipodi.sourceforge.net/DTD/sodipodi-0.dtd"
   xmlns:inkscape="http://www.inkscape.org/namespaces/inkscape"
   version="1.1"
   id="Feather"
   x="0px"
   y="0px"
   viewBox="0 0 4266.6001 4226.6"
   enable-background="new 0 0 2392.5 4226.6"
   xml:space="preserve"
   sodipodi:docname="apache-feather-vertical.svg"
   width="4266.6001"
   height="4226.6001"
   inkscape:version="1.0.1 (c497b03c, 2020-09-10)"><metadata
   id="metadata976"><rdf:RDF><cc:Work
       rdf:about=""><dc:format>image/svg+xml</dc:format><dc:type
         rdf:resource="http://purl.org/dc/dcmitype/StillImage" /><dc:title></dc:title></cc:Work></rdf:RDF></metadata><defs
   id="defs974" /><sodipodi:namedview
   pagecolor="#ffffff"
   bordercolor="#666666"
   borderopacity="1"
   objecttolerance="10"
   gridtolerance="10"
   guidetolerance="10"
   inkscape:pageopacity="0"
   inkscape:pageshadow="2"
   inkscape:window-width="1792"
   inkscape:window-height="1040"
   id="namedview972"
   showgrid="false"
   inkscape:zoom="0.17389864"
   inkscape:cx="1196.25"
   inkscape:cy="2113.3"
   inkscape:window-x="0"
   inkscape:window-y="25"
   inkscape:window-maximized="0"
   inkscape:current-layer="Feather" />
<linearGradient
   id="SVGID_1_"
   gradientUnits="userSpaceOnUse"
   x1="-5167.0962"
   y1="697.55487"
   x2="-4570.1162"
   y2="1395.619"
   gradientTransform="matrix(0.4226,-0.9063,0.9063,0.4226,4207.3975,-4613.5478)">
	<stop
   offset="0"
   style="stop-color:#F69923"
   id="stop833" />
	<stop
   offset="0.3123"
   style="stop-color:#F79A23"
   id="stop835" />
	<stop
   offset="0.8383"
   style="stop-color:#E97826"
   id="stop837" />
</linearGradient>
<path
   fill="url(#SVGID_1_)"
   d="m 2861.4867,25.850476 c -66.3,39.1 -176.4,149.900004 -307.9,310.400004 l 120.8,228 c 84.8,-121.3 170.9,-230.4 257.8,-323.6 6.7,-7.4 10.2,-10.9 10.2,-10.9 -3.4,3.6 -6.8,7.3 -10.2,10.9 -28.1,31 -113.4,130.5 -242.1,328.1 123.9,-6.2 314.3,-31.5 469.6,-58.1 46.2,-258.8 -45.3,-377.3 -45.3,-377.3 0,0 -116.3,-188.200004 -252.9,-107.500004 z"
   id="path840"
   style="fill:url(#SVGID_1_)" />
<path
   fill="none"
   d="m 2656.9867,1326.4505 c 0.9,-0.2 1.8,-0.3 2.7,-0.5 l -17.4,1.9 c -1.1,0.5 -2,1 -3.1,1.4 6,-0.9 11.9,-1.9 17.8,-2.8 z"
   id="path842" />
<path
   fill="none"
   d="m 2533.6867,1734.8505 c -9.9,2.2 -20,3.9 -30.2,5.4 10.2,-1.5 20.3,-3.3 30.2,-5.4 z"
   id="path844" />
<path
   fill="none"
   d="m 1695.6867,2650.9505 c 1.3,-3.4 2.6,-6.8 3.8,-10.2 26.6,-70.2 52.9,-138.4 79,-204.9 29.3,-74.6 58.2,-146.8 86.8,-216.8 30.1,-73.8 59.8,-145.1 89.1,-214 30.7,-72.3 61,-141.9 90.7,-208.9 24.2,-54.5 48,-107.3 71.5,-158.4 7.8,-17 15.6,-33.9 23.4,-50.6 15.4,-33.1 30.7,-65.6 45.7,-97.3 13.9,-29.3 27.7,-57.9 41.4,-86 4.5,-9.4 9.1,-18.6 13.6,-27.9 0.7,-1.5 1.5,-3 2.2,-4.5 l -14.8,1.6 -11.8,-23.2 c -1.1,2.3 -2.3,4.5 -3.5,6.8 -21.2,42.1 -42.2,84.6 -63,127.5 -12,24.8 -24,49.7 -35.9,74.7 -33,69.3 -65.5,139.2 -97.4,209.6 -32.3,71.1 -63.9,142.6 -94.9,214.2 -30.5,70.3 -60.3,140.7 -89.6,210.9 -29.2,70.1 -57.7,140 -85.6,209.4 -29.1,72.5 -57.4,144.3 -84.8,215.3 -6.2,16 -12.4,32 -18.5,48 -22,57.3 -43.4,113.8 -64.3,169.6 l 18.6,36.7 16.6,-1.8 c 0.6,-1.7 1.2,-3.4 1.8,-5 26.9,-73.5 53.5,-145.1 79.9,-214.8 z"
   id="path846" />
<path
   fill="none"
   d="m 2495.7867,1741.4505 v 0 c 0.1,0 0.1,-0.1 0.2,-0.1 0,0 -0.1,0 -0.2,0.1 z"
   id="path848" />
<path
   fill="#be202e"
   d="m 2455.7867,1940.5505 c -15.4,2.8 -31.3,5.5 -47.6,8.3 -0.1,0 -0.2,0.1 -0.3,0.1 8.2,-1.2 16.3,-2.4 24.3,-3.8 8,-1.4 15.8,-2.9 23.6,-4.6 z"
   id="path850" />
<path
   opacity="0.35"
   fill="#be202e"
   d="m 2455.7867,1940.5505 c -15.4,2.8 -31.3,5.5 -47.6,8.3 -0.1,0 -0.2,0.1 -0.3,0.1 8.2,-1.2 16.3,-2.4 24.3,-3.8 8,-1.4 15.8,-2.9 23.6,-4.6 z"
   id="path852" />
<path
   fill="#be202e"
   d="m 2496.1867,1741.2505 c 0,0 -0.1,0 -0.1,0.1 -0.1,0 -0.1,0.1 -0.2,0.1 2.6,-0.3 5.1,-0.8 7.6,-1.1 10.3,-1.5 20.4,-3.3 30.2,-5.4 -12.3,2 -24.8,4.2 -37.5,6.3 z"
   id="path854" />
<path
   opacity="0.35"
   fill="#be202e"
   d="m 2496.1867,1741.2505 c 0,0 -0.1,0 -0.1,0.1 -0.1,0 -0.1,0.1 -0.2,0.1 2.6,-0.3 5.1,-0.8 7.6,-1.1 10.3,-1.5 20.4,-3.3 30.2,-5.4 -12.3,2 -24.8,4.2 -37.5,6.3 z"
   id="path856" />
<linearGradient
   id="SVGID_2_"
   gradientUnits="userSpaceOnUse"
   x1="-9585.3418"
   y1="620.50482"
   x2="-5326.209"
   y2="620.50482"
   gradientTransform="matrix(0.4226,-0.9063,0.9063,0.4226,4207.3975,-4613.5478)">
	<stop
   offset="0.3233"
   style="stop-color:#9E2064"
   id="stop858" />
	<stop
   offset="0.6302"
   style="stop-color:#C92037"
   id="stop860" />
	<stop
   offset="0.7514"
   style="stop-color:#CD2335"
   id="stop862" />
	<stop
   offset="1"
   style="stop-color:#E97826"
   id="stop864" />
</linearGradient>
<path
   fill="url(#SVGID_2_)"
   d="m 2318.2867,1153.3505 c 36.7,-68.6 73.9,-135.7 111.5,-201.00002 39,-67.8 78.5,-133.6 118.4,-197 2.3,-3.7 4.7,-7.5 7,-11.3 39.4,-62.4 79.2,-122.4 119.3,-179.8 l -120.8,-228 c -9.1,11.1 -18.2,22.4 -27.5,33.9 -34.8,43.4 -71,90.1 -108.1,139.6 -41.8,55.8 -84.8,115.4 -128.5,177.9 -40.3,57.8 -81.2,118.3 -122.1,180.9 -34.8,53.3 -69.8,108.2 -104.5,164.50002 -1.3,2.1 -2.6,4.2 -3.9,6.3 l 157.2,310.5 c 33.6,-66.5 67.6,-132.1 102,-196.5 z"
   id="path867"
   style="fill:url(#SVGID_2_)" />
<linearGradient
   id="SVGID_3_"
   gradientUnits="userSpaceOnUse"
   x1="-9071.207"
   y1="1047.6898"
   x2="-6533.1782"
   y2="1047.6898"
   gradientTransform="matrix(0.4226,-0.9063,0.9063,0.4226,4207.3975,-4613.5478)">
	<stop
   offset="0"
   style="stop-color:#282662"
   id="stop869" />
	<stop
   offset="9.548390e-02"
   style="stop-color:#662E8D"
   id="stop871" />
	<stop
   offset="0.7882"
   style="stop-color:#9F2064"
   id="stop873" />
	<stop
   offset="0.9487"
   style="stop-color:#CD2032"
   id="stop875" />
</linearGradient>
<path
   fill="url(#SVGID_3_)"
   d="m 1602.2867,2902.8505 c -20.8,57.2 -41.7,115.4 -62.7,174.9 -0.3,0.9 -0.6,1.7 -0.9,2.6 -3,8.4 -5.9,16.8 -8.9,25.2 -14.1,40.1 -26.4,76.2 -54.5,158.3 46.3,21.1 83.5,76.7 118.7,139.8 -3.7,-65.3 -30.8,-126.7 -82.1,-174.2 228.3,10.3 425,-47.4 526.7,-214.3 9.1,-14.9 17.4,-30.5 24.9,-47.2 -46.2,58.6 -103.5,83.5 -211.4,77.4 -0.2,0.1 -0.5,0.2 -0.7,0.3 0.2,-0.1 0.5,-0.2 0.7,-0.3 158.8,-71.1 238.5,-139.3 308.9,-252.4 16.7,-26.8 32.9,-56.1 49.5,-88.6 -138.9,142.6 -299.8,183.2 -469.3,152.4 l -127.1,13.9 c -4,10.7 -7.9,21.4 -11.8,32.2 z"
   id="path878"
   style="fill:url(#SVGID_3_)" />
<linearGradient
   id="SVGID_4_"
   gradientUnits="userSpaceOnUse"
   x1="-9346.126"
   y1="580.81702"
   x2="-5086.9941"
   y2="580.81702"
   gradientTransform="matrix(0.4226,-0.9063,0.9063,0.4226,4207.3975,-4613.5478)">
	<stop
   offset="0.3233"
   style="stop-color:#9E2064"
   id="stop880" />
	<stop
   offset="0.6302"
   style="stop-color:#C92037"
   id="stop882" />
	<stop
   offset="0.7514"
   style="stop-color:#CD2335"
   id="stop884" />
	<stop
   offset="1"
   style="stop-color:#E97826"
   id="stop886" />
</linearGradient>
<path
   fill="url(#SVGID_4_)"
   d="m 1661.5867,2618.1505 c 27.5,-71 55.8,-142.8 84.8,-215.3 27.8,-69.4 56.4,-139.2 85.6,-209.4 29.2,-70.2 59.1,-140.5 89.6,-210.9 31,-71.6 62.7,-143.1 94.9,-214.2 31.9,-70.3 64.4,-140.3 97.4,-209.6 11.9,-25 23.9,-49.9 35.9,-74.7 20.8,-42.9 41.8,-85.4 63,-127.5 1.1,-2.3 2.3,-4.5 3.5,-6.8 l -157.2,-310.5 c -2.6,4.2 -5.1,8.4 -7.7,12.6 -36.6,59.8 -73.1,121 -108.9,183.5 -36.2,63.1 -71.7,127.4 -106.4,192.6 -29.3,55 -57.9,110.5 -85.7,166.5 -5.6,11.4 -11.1,22.6 -16.6,33.9 -34.3,70.5 -65.2,138.6 -93.2,204.1 -31.7,74.2 -59.6,145.1 -84,212.3 -16.1,44.2 -30.7,86.9 -44.1,127.9 -11,35 -21.5,70.1 -31.4,105 -23.5,82.3 -43.7,164.4 -60.3,246.2 l 158,311.9 c 20.9,-55.8 42.3,-112.3 64.3,-169.6 6.1,-15.9 12.3,-32 18.5,-48 z"
   id="path889"
   style="fill:url(#SVGID_4_)" />
<linearGradient
   id="SVGID_5_"
   gradientUnits="userSpaceOnUse"
   x1="-9035.5029"
   y1="638.4408"
   x2="-6797.2012"
   y2="638.4408"
   gradientTransform="matrix(0.4226,-0.9063,0.9063,0.4226,4207.3975,-4613.5478)">
	<stop
   offset="0"
   style="stop-color:#282662"
   id="stop891" />
	<stop
   offset="9.548390e-02"
   style="stop-color:#662E8D"
   id="stop893" />
	<stop
   offset="0.7882"
   style="stop-color:#9F2064"
   id="stop895" />
	<stop
   offset="0.9487"
   style="stop-color:#CD2032"
   id="stop897" />
</linearGradient>
<path
   fill="url(#SVGID_5_)"
   d="m 1418.6867,2534.9505 c -19.8,99.8 -33.9,199.2 -41,298 -0.2,3.5 -0.6,6.9 -0.8,10.4 -49.3,-79 -181.3,-156.1 -181,-155.4 94.5,137 166.2,273 176.9,406.5 -50.6,10.4 -119.9,-4.6 -200,-34.1 83.5,76.7 146.2,97.9 170.6,103.6 -76.7,4.8 -156.6,57.5 -237.1,118.2 117.7,-48 212.8,-67 280.9,-51.6 -108,305.8 -216.3,643.4 -324.6,1001.8 33.2,-9.8 53,-32.1 64.1,-62.3 19.3,-64.9 147.4,-490.7 348.1,-1050.4 5.7,-15.9 11.5,-31.9 17.3,-48 1.6,-4.5 3.3,-9 4.9,-13.4 21.2,-58.7 43.2,-118.6 65.9,-179.7 5.2,-13.9 10.4,-27.8 15.6,-41.8 0.1,-0.3 0.2,-0.6 0.3,-0.8 l -157.8,-311.8 c -0.7,3.5 -1.6,7.1 -2.3,10.8 z"
   id="path900"
   style="fill:url(#SVGID_5_)" />
<linearGradient
   id="SVGID_6_"
   gradientUnits="userSpaceOnUse"
   x1="-9346.126"
   y1="1021.6218"
   x2="-5086.9941"
   y2="1021.6218"
   gradientTransform="matrix(0.4226,-0.9063,0.9063,0.4226,4207.3975,-4613.5478)">
	<stop
   offset="0.3233"
   style="stop-color:#9E2064"
   id="stop902" />
	<stop
   offset="0.6302"
   style="stop-color:#C92037"
   id="stop904" />
	<stop
   offset="0.7514"
   style="stop-color:#CD2335"
   id="stop906" />
	<stop
   offset="1"
   style="stop-color:#E97826"
   id="stop908" />
</linearGradient>
<path
   fill="url(#SVGID_6_)"
   d="m 2240.6867,1376.0505 c -4.5,9.2 -9,18.5 -13.6,27.9 -13.6,28.1 -27.4,56.7 -41.4,86 -15.1,31.7 -30.3,64.1 -45.7,97.3 -7.8,16.7 -15.5,33.5 -23.4,50.6 -23.5,51.1 -47.3,103.9 -71.5,158.4 -29.7,67 -60,136.6 -90.7,208.9 -29.3,68.9 -59,140.2 -89.1,214 -28.6,70 -57.5,142.3 -86.8,216.8 -26.1,66.5 -52.4,134.7 -79,204.9 -1.3,3.4 -2.6,6.8 -3.8,10.2 -26.4,69.7 -53,141.3 -79.8,214.7 -0.6,1.7 -1.2,3.4 -1.8,5 l 127.1,-13.9 c -2.5,-0.5 -5.1,-0.8 -7.6,-1.3 152,-18.9 354,-132.5 484.6,-272.7 60.2,-64.6 114.8,-140.8 165.3,-230 37.6,-66.4 72.9,-140 106.5,-221.5 29.4,-71.2 57.6,-148.3 84.8,-231.9 -34.9,18.4 -74.9,31.9 -119,41.3 -7.7,1.6 -15.6,3.2 -23.6,4.6 -8,1.4 -16.1,2.7 -24.3,3.8 v 0 0 c 0.1,0 0.2,-0.1 0.3,-0.1 141.7,-54.5 231.1,-159.8 296.1,-288.7 -37.3,25.4 -97.9,58.7 -170.5,74.7 -9.9,2.2 -20,3.9 -30.2,5.4 -2.6,0.4 -5.1,0.8 -7.6,1.1 v 0 0 c 0.1,0 0.1,-0.1 0.2,-0.1 0,0 0.1,0 0.1,-0.1 v 0 c 49.2,-20.6 90.7,-43.6 126.7,-70.8 7.7,-5.8 15.2,-11.8 22.4,-18.1 11,-9.5 21.4,-19.5 31.4,-30 6.4,-6.7 12.6,-13.6 18.6,-20.8 14.1,-16.8 27.3,-34.9 39.7,-54.6 3.8,-6 7.5,-12.1 11.2,-18.4 4.7,-9.1 9.2,-18 13.6,-26.8 19.8,-39.8 35.6,-75.3 48.2,-106.5 6.3,-15.6 11.8,-30 16.5,-43.4 1.9,-5.3 3.7,-10.5 5.4,-15.5 5,-15 9.1,-28.3 12.3,-40 4.8,-17.5 7.7,-31.4 9.3,-41.5 v 0 0 c -4.8,3.8 -10.3,7.6 -16.5,11.3 -42.8,25.6 -116.2,48.8 -175.4,59.7 l 116.7,-12.8 -116.7,12.8 c -0.9,0.2 -1.8,0.3 -2.7,0.5 -5.9,1 -11.9,1.9 -17.9,2.9 1.1,-0.5 2,-1 3.1,-1.4 l -399.3,43.8 c -0.7,1.4 -1.4,2.8 -2.2,4.3 z"
   id="path911"
   style="fill:url(#SVGID_6_)" />
<linearGradient
   id="SVGID_7_"
   gradientUnits="userSpaceOnUse"
   x1="-9610.334"
   y1="999.73297"
   x2="-5351.2017"
   y2="999.73297"
   gradientTransform="matrix(0.4226,-0.9063,0.9063,0.4226,4207.3975,-4613.5478)">
	<stop
   offset="0.3233"
   style="stop-color:#9E2064"
   id="stop913" />
	<stop
   offset="0.6302"
   style="stop-color:#C92037"
   id="stop915" />
	<stop
   offset="0.7514"
   style="stop-color:#CD2335"
   id="stop917" />
	<stop
   offset="1"
   style="stop-color:#E97826"
   id="stop919" />
</linearGradient>
<path
   fill="url(#SVGID_7_)"
   d="m 2690.1867,568.85048 c -35.5,54.5 -74.3,116.4 -116,186.5 -2.2,3.6 -4.4,7.4 -6.6,11.1 -36,60.7 -74.3,127.3 -114.5,200.3 -34.8,63.00002 -71,130.60002 -108.6,203.30002 -32.8,63.3 -66.7,130.5 -101.5,201.6 l 399.3,-43.8 c 116.3,-53.5 168.3,-101.9 218.8,-171.9 13.4,-19.3 26.9,-39.5 40.3,-60.4 41,-64 81.2,-134.50002 117.2,-204.60002 34.7,-67.7 65.3,-134.8 88.8,-195.3 14.9,-38.5 26.9,-74.3 35.2,-105.7 7.3,-27.7 13,-54 17.4,-79.1 -155.5,26.5 -345.9,51.9 -469.8,58 z"
   id="path922"
   style="fill:url(#SVGID_7_)" />
<path
   fill="#be202e"
   d="m 2432.1867,1945.1505 c -8,1.4 -16.1,2.7 -24.3,3.8 v 0 c 8.2,-1.1 16.3,-2.4 24.3,-3.8 z"
   id="path924" />
<path
   opacity="0.35"
   fill="#be202e"
   d="m 2432.1867,1945.1505 c -8,1.4 -16.1,2.7 -24.3,3.8 v 0 c 8.2,-1.1 16.3,-2.4 24.3,-3.8 z"
   id="path926" />
<linearGradient
   id="SVGID_8_"
   gradientUnits="userSpaceOnUse"
   x1="-9346.126"
   y1="1152.7261"
   x2="-5086.9941"
   y2="1152.7261"
   gradientTransform="matrix(0.4226,-0.9063,0.9063,0.4226,4207.3975,-4613.5478)">
	<stop
   offset="0.3233"
   style="stop-color:#9E2064"
   id="stop928" />
	<stop
   offset="0.6302"
   style="stop-color:#C92037"
   id="stop930" />
	<stop
   offset="0.7514"
   style="stop-color:#CD2335"
   id="stop932" />
	<stop
   offset="1"
   style="stop-color:#E97826"
   id="stop934" />
</linearGradient>
<path
   fill="url(#SVGID_8_)"
   d="m 2432.1867,1945.1505 c -8,1.4 -16.1,2.7 -24.3,3.8 v 0 c 8.2,-1.1 16.3,-2.4 24.3,-3.8 z"
   id="path937"
   style="fill:url(#SVGID_8_)" />
<path
   fill="#be202e"
   d="m 2495.7867,1741.4505 c 2.6,-0.3 5.1,-0.8 7.6,-1.1 -2.5,0.3 -5,0.7 -7.6,1.1 z"
   id="path939" />
<path
   opacity="0.35"
   fill="#be202e"
   d="m 2495.7867,1741.4505 c 2.6,-0.3 5.1,-0.8 7.6,-1.1 -2.5,0.3 -5,0.7 -7.6,1.1 z"
   id="path941" />
<linearGradient
   id="SVGID_9_"
   gradientUnits="userSpaceOnUse"
   x1="-9346.126"
   y1="1137.7247"
   x2="-5086.9941"
   y2="1137.7247"
   gradientTransform="matrix(0.4226,-0.9063,0.9063,0.4226,4207.3975,-4613.5478)">
	<stop
   offset="0.3233"
   style="stop-color:#9E2064"
   id="stop943" />
	<stop
   offset="0.6302"
   style="stop-color:#C92037"
   id="stop945" />
	<stop
   offset="0.7514"
   style="stop-color:#CD2335"
   id="stop947" />
	<stop
   offset="1"
   style="stop-color:#E97826"
   id="stop949" />
</linearGradient>
<path
   fill="url(#SVGID_9_)"
   d="m 2495.7867,1741.4505 c 2.6,-0.3 5.1,-0.8 7.6,-1.1 -2.5,0.3 -5,0.7 -7.6,1.1 z"
   id="path952"
   style="fill:url(#SVGID_9_)" />
<path
   fill="#be202e"
   d="m 2496.0867,1741.3505 c 0,0 0.1,0 0.1,-0.1 v 0 0 0 c 0,0 -0.1,0 -0.1,0.1 z"
   id="path954" />
<path
   opacity="0.35"
   fill="#be202e"
   d="m 2496.0867,1741.3505 c 0,0 0.1,0 0.1,-0.1 v 0 0 0 c 0,0 -0.1,0 -0.1,0.1 z"
   id="path956" />
<linearGradient
   id="SVGID_10_"
   gradientUnits="userSpaceOnUse"
   x1="-6953.4072"
   y1="1134.7161"
   x2="-6011.9995"
   y2="1134.7161"
   gradientTransform="matrix(0.4226,-0.9063,0.9063,0.4226,4207.3975,-4613.5478)">
	<stop
   offset="0.3233"
   style="stop-color:#9E2064"
   id="stop958" />
	<stop
   offset="0.6302"
   style="stop-color:#C92037"
   id="stop960" />
	<stop
   offset="0.7514"
   style="stop-color:#CD2335"
   id="stop962" />
	<stop
   offset="1"
   style="stop-color:#E97826"
   id="stop964" />
</linearGradient>
<path
   fill="url(#SVGID_10_)"
   d="m 2496.0867,1741.3505 c 0,0 0.1,0 0.1,-0.1 v 0 0 0 c 0,0 -0.1,0 -0.1,0.1 z"
   id="path967"
   style="fill:url(#SVGID_10_)" />
<path
   fill="#6d6e71"
   d="m 3281.2867,392.75048 v 11.7 h 27.4 v 77.4 h 12.7 v -77.4 h 27.6 v -11.7 z m 158.3,0 -30.6,62.2 -30.8,-62.2 h -15.3 v 89.1 h 11.7 v -70.7 l 30.3,61.3 h 8.1 l 30.3,-61.3 v 70.7 h 11.7 v -89.1 z"
   id="path969" />
</svg>
