<?xml version="1.0" encoding="UTF-8" standalone="no"?>
<svg
   xmlns:dc="http://purl.org/dc/elements/1.1/"
   xmlns:cc="http://creativecommons.org/ns#"
   xmlns:rdf="http://www.w3.org/1999/02/22-rdf-syntax-ns#"
   xmlns:svg="http://www.w3.org/2000/svg"
   xmlns="http://www.w3.org/2000/svg"
   xmlns:sodipodi="http://sodipodi.sourceforge.net/DTD/sodipodi-0.dtd"
   xmlns:inkscape="http://www.inkscape.org/namespaces/inkscape"
   width="54.348358"
   height="62.352848"
   viewBox="-3.22 -4.4 56.703001 64.630805"
   version="1.1"
   id="svg837"
   sodipodi:docname="ceph-named.svg"
   inkscape:version="1.0.1 (c497b03c, 2020-09-10)">
  <metadata
     id="metadata843">
    <rdf:RDF>
      <cc:Work
         rdf:about="">
        <dc:format>image/svg+xml</dc:format>
        <dc:type
           rdf:resource="http://purl.org/dc/dcmitype/StillImage" />
        <dc:title></dc:title>
      </cc:Work>
    </rdf:RDF>
  </metadata>
  <defs
     id="defs841" />
  <sodipodi:namedview
     pagecolor="#ffffff"
     bordercolor="#666666"
     borderopacity="1"
     objecttolerance="10"
     gridtolerance="10"
     guidetolerance="10"
     inkscape:pageopacity="0"
     inkscape:pageshadow="2"
     inkscape:window-width="1242"
     inkscape:window-height="882"
     id="namedview839"
     showgrid="false"
     fit-margin-top="0"
     fit-margin-left="0"
     fit-margin-right="0"
     fit-margin-bottom="0"
     showguides="false"
     inkscape:zoom="5.9333333"
     inkscape:cx="43.565004"
     inkscape:cy="49.677573"
     inkscape:window-x="0"
     inkscape:window-y="25"
     inkscape:window-maximized="0"
     inkscape:current-layer="svg837" />
  <path
     d="m 38.54942,35.428926 c -1.6,-0.856 -2.528,-1.82 -2.732,-2.87 -0.196,-1.015 0.256,-2.143 1.385,-3.45 2.697,-3.094 4.182,-7.07 4.182,-11.193 A 17.08,17.08 0 0 0 24.32742,0.85892597 l -0.075,0.001 -0.077,-0.001 a 17.08,17.08 0 0 0 -17.056,17.05700003 17.03,17.03 0 0 0 4.183,11.194 c 1.137,1.316 1.58,2.4 1.4,3.404 -0.196,1.047 -1.117,2.025 -2.74,2.912 -2.5,-2.075 -4.7,-4.846 -6.048,-7.626 a 22.54,22.54 0 0 1 -1.685,-4.735 22.62,22.62 0 0 1 -0.59,-5.15 22.42,22.42 0 0 1 1.771,-8.778 c 1.137,-2.684 2.762,-5.096 4.833,-7.165 a 22.51,22.51 0 0 1 7.166,-4.832 22.41,22.41 0 0 1 8.777,-1.772 h 0.153 a 22.42,22.42 0 0 1 8.778,1.772 c 2.684,1.136 5.096,2.75999997 7.166,4.832 a 22.49,22.49 0 0 1 4.832,7.165 22.42,22.42 0 0 1 1.773,8.778 c 0,1.738 -0.2,3.47 -0.6,5.15 a 22.43,22.43 0 0 1 -1.686,4.735 c -1.358,2.78 -3.557,5.553 -6.05,7.628 m -8.333,4.22 c -0.262,-0.165 -1.157,-0.83 -2.03,-2.04 -0.837,-1.155 -1.822,-3.072 -1.77,-5.638 a 12.46,12.46 0 0 1 0.922,-4.47 12.7,12.7 0 0 1 2.454,-3.833 l 0.006,-0.01 0.232,-0.27 c 0.397,-0.46 0.808,-0.937 1.135,-1.493 0.404,-0.684 0.697,-1.404 0.872,-2.14 a 8.05,8.05 0 0 0 0.044,-3.486 c -0.222,-1.052 -0.67,-2.07 -1.294,-2.95 a 8.04,8.04 0 0 0 -2.28,-2.147 7.94,7.94 0 0 0 -3.068,-1.117 8,8 0 0 0 -1.123,-0.08 h -0.162 a 7.91,7.91 0 0 0 -1.121,0.079 7.95,7.95 0 0 0 -3.068,1.117 8.04,8.04 0 0 0 -2.281,2.147 8.01,8.01 0 0 0 -1.293,2.95 8.03,8.03 0 0 0 0.045,3.486 c 0.174,0.736 0.468,1.455 0.87,2.14 0.33,0.557 0.74,1.032 1.136,1.493 l 0.233,0.27 0.005,0.01 c 1.054,1.135 1.88,2.425 2.455,3.833 a 12.43,12.43 0 0 1 0.921,4.469 c 0.052,2.566 -0.933,4.483 -1.77,5.638 -0.874,1.2 -1.77,1.875 -2.03,2.04 l -1.307,-0.393 c -1.296,-0.434 -2.557,-1 -3.757,-1.656 2.06,-1.1 3.37,-3.274 3.37,-5.634 0,-1.56 -0.607,-3.06 -1.803,-4.45 -0.018,-0.02 -0.036,-0.038 -0.05,-0.052 l -0.358,-0.392 -0.96,-1.125 a 13.46,13.46 0 0 1 -2.3,-4.916 13.55,13.55 0 0 1 -0.074,-5.89 c 0.375,-1.782 1.133,-3.5 2.2,-4.998 1.022,-1.44 2.354,-2.693 3.85,-3.626 a 13.48,13.48 0 0 1 5.2,-1.894 13.21,13.21 0 0 1 1.892,-0.133 h 0.17 a 13.33,13.33 0 0 1 1.893,0.133 13.48,13.48 0 0 1 5.2,1.894 13.58,13.58 0 0 1 3.852,3.626 c 1.056,1.487 1.814,3.216 2.2,4.998 a 13.64,13.64 0 0 1 -0.075,5.9 13.46,13.46 0 0 1 -2.302,4.916 c -0.3,0.4 -0.616,0.747 -0.96,1.125 l -0.347,0.383 c -0.025,0.023 -0.044,0.04 -0.06,0.064 -1.213,1.45 -1.803,2.907 -1.803,4.447 a 6.41,6.41 0 0 0 3.374,5.634 22.51,22.51 0 0 1 -3.757,1.656 l -1.3,0.393 m -5.996,-17.073 a 4.46,4.46 0 0 1 -4.452,-4.452 4.46,4.46 0 0 1 4.452,-4.452 4.46,4.46 0 0 1 4.451,4.452 4.46,4.46 0 0 1 -4.451,4.452"
     fill="#f0424d"
     id="path833" />
  <path
     d="m 9.13,51.582171 c 0,3.13 -0.28,3.995 -1.034,4.75 -0.447,0.447 -1.146,0.754 -2.46,0.754 h -4.6 c -1.48,0 -2.374,-0.252 -3,-0.865 -0.977,-0.978 -1.256,-2.152 -1.256,-6.677 0,-4.525 0.28,-5.7 1.256,-6.677 0.616,-0.615 1.5,-0.865 3,-0.865 h 4.582 c 1.368,0 1.982,0.278 2.458,0.754 0.726,0.726 1.006,1.732 1.006,4.552 h -2.82 c -0.057,-1.955 -0.168,-2.3 -0.336,-2.458 -0.168,-0.158 -0.4,-0.25 -1.033,-0.25 H 1.401 c -0.866,0 -1.1,0.084 -1.284,0.28 -0.28,0.28 -0.42,0.8 -0.42,4.665 0,3.865 0.14,4.386 0.42,4.665 0.195,0.196 0.42,0.28 1.284,0.28 h 3.52 c 0.615,0 0.896,-0.056 1.1,-0.25 0.204,-0.194 0.308,-0.755 0.308,-2.654 h 2.822 m 4.895,-3.412 h 6.872 c 0,-2.542 -0.168,-3.1 -0.418,-3.352 -0.17,-0.167 -0.42,-0.28 -1.285,-0.28 H 15.75 c -0.866,0 -1.1,0.084 -1.313,0.307 -0.252,0.252 -0.362,0.754 -0.4,3.324 z m 0,2.32 c 0.03,2.96 0.195,3.547 0.42,3.77 0.225,0.223 0.42,0.28 1.284,0.28 h 3.9 c 0.643,0 0.84,-0.112 1.007,-0.28 0.194,-0.196 0.25,-0.53 0.307,-1.872 h 2.82 c -0.056,2.346 -0.28,3.185 -1.034,3.94 -0.474,0.475 -1.117,0.754 -2.458,0.754 h -4.9 c -1.48,0 -2.375,-0.252 -3,-0.865 -0.98,-0.978 -1.256,-2.152 -1.256,-6.677 0,-4.525 0.278,-5.7 1.256,-6.677 0.615,-0.615 1.5,-0.865 3,-0.865 h 4.134 c 1.482,0 2.43,0.278 3,0.837 0.977,0.978 1.256,2.152 1.256,6.566 v 0.754 c 0,0.222 -0.083,0.335 -0.336,0.335 h -9.42 m 21.143,3.66 c -0.25,0.25 -0.616,0.363 -1.536,0.363 h -2.18 c -0.894,0 -1.67,-0.252 -2.738,-0.795 l -0.195,-0.098 v -8.217 c 1.118,-0.558 1.9,-0.838 2.822,-0.838 h 2.3 c 0.92,0 1.285,0.112 1.536,0.363 0.42,0.42 0.53,1.228 0.53,4.6 0,3.372 -0.112,4.2 -0.53,4.6 z m -0.84,-12.182 h -2.038 c -1.258,0 -1.872,0.28 -3.772,1.845 v -1.815 h -2.903 v 18.42 h 2.905 v -5.115 c 1.9,1.536 2.514,1.815 3.772,1.815 h 2.038 c 1.622,0 2.432,-0.28 3.074,-0.92 0.8,-0.8 1.2,-1.956 1.2,-6.65 0,-4.694 -0.392,-5.84 -1.2,-6.65 -0.642,-0.642 -1.452,-0.923 -3.074,-0.923 m 18.245,0.868 c -0.56,-0.56 -1.285,-0.867 -2.598,-0.867 h -2.374 c -1.257,0 -1.872,0.28 -3.772,1.845 v -5.75 a 10.48,10.48 0 0 0 -2.884,-1.081 c -0.007,0 -0.013,0.005 -0.02,0.007 v 20.086 h 2.905 v -11.68 l 0.603,-0.285 c 0.815,-0.366 1.472,-0.552 2.22,-0.552 h 1.956 c 0.978,0 1.257,0.112 1.564,0.42 0.28,0.28 0.4,0.725 0.4,1.452 v 10.645 h 2.907 v -10.84 c 0,-2.096 -0.308,-2.822 -0.895,-3.408"
     fill="#333c46"
     id="path835" />
</svg>
