<svg width="20" height="20" viewBox="0 0 20 20" fill="currentColor" xmlns="http://www.w3.org/2000/svg">
<path d="M7.9425 10.05L1.97625 16.0162C1.88676 16.1028 1.81538 16.2062 1.76631 16.3207C1.71723 16.4351 1.69142 16.5581 1.6904 16.6826C1.68938 16.807 1.71316 16.9305 1.76035 17.0457C1.80754 17.1609 1.8772 17.2655 1.96527 17.3535C2.05333 17.4415 2.15804 17.511 2.27328 17.5581C2.38851 17.6052 2.51197 17.6289 2.63645 17.6277C2.76093 17.6266 2.88394 17.6007 2.9983 17.5515C3.11265 17.5023 3.21606 17.4308 3.3025 17.3412L9.93125 10.7125C10.1068 10.5367 10.2054 10.2984 10.2054 10.05C10.2054 9.80155 10.1068 9.56328 9.93125 9.38749L3.3025 2.75749C3.12561 2.5868 2.88875 2.49242 2.64294 2.49467C2.39713 2.49692 2.16204 2.59563 1.9883 2.76953C1.81456 2.94343 1.71608 3.17862 1.71406 3.42443C1.71204 3.67024 1.80665 3.90701 1.9775 4.08374L7.9425 10.05ZM10.9375 14.375C10.6889 14.375 10.4504 14.4738 10.2746 14.6496C10.0988 14.8254 10 15.0639 10 15.3125C10 15.5611 10.0988 15.7996 10.2746 15.9754C10.4504 16.1512 10.6889 16.25 10.9375 16.25H17.8125C18.0611 16.25 18.2996 16.1512 18.4754 15.9754C18.6512 15.7996 18.75 15.5611 18.75 15.3125C18.75 15.0639 18.6512 14.8254 18.4754 14.6496C18.2996 14.4738 18.0611 14.375 17.8125 14.375H10.9375Z"/>
</svg>
