<?xml version="1.0" encoding="UTF-8" standalone="no"?>
<svg
   xmlns:dc="http://purl.org/dc/elements/1.1/"
   xmlns:cc="http://creativecommons.org/ns#"
   xmlns:rdf="http://www.w3.org/1999/02/22-rdf-syntax-ns#"
   xmlns:svg="http://www.w3.org/2000/svg"
   xmlns="http://www.w3.org/2000/svg"
   xmlns:sodipodi="http://sodipodi.sourceforge.net/DTD/sodipodi-0.dtd"
   xmlns:inkscape="http://www.inkscape.org/namespaces/inkscape"
   viewBox="64.74 19 60 60"
   width="60"
   height="60"
   version="1.1"
   id="svg1444"
   sodipodi:docname="consul-name.svg"
   inkscape:version="1.0.1 (c497b03c, 2020-09-10)">
  <metadata
     id="metadata1450">
    <rdf:RDF>
      <cc:Work
         rdf:about="">
        <dc:format>image/svg+xml</dc:format>
        <dc:type
           rdf:resource="http://purl.org/dc/dcmitype/StillImage" />
        <dc:title></dc:title>
      </cc:Work>
    </rdf:RDF>
  </metadata>
  <defs
     id="defs1448" />
  <sodipodi:namedview
     pagecolor="#ffffff"
     bordercolor="#666666"
     borderopacity="1"
     objecttolerance="10"
     gridtolerance="10"
     guidetolerance="10"
     inkscape:pageopacity="0"
     inkscape:pageshadow="2"
     inkscape:window-width="1341"
     inkscape:window-height="859"
     id="namedview1446"
     showgrid="false"
     inkscape:zoom="6.5542653"
     inkscape:cx="53.498832"
     inkscape:cy="50.310025"
     inkscape:window-x="0"
     inkscape:window-y="25"
     inkscape:window-maximized="0"
     inkscape:current-layer="svg1444" />
  <path
     d="m 64.968217,63.645169 c 0,-2.868711 1.6709,-4.531129 5.572488,-4.531129 a 17.745667,17.745667 0 0 1 4.259719,0.514557 l -0.327959,2.563369 a 23.079734,23.079734 0 0 0 -3.834687,-0.402412 c -2.04504,0 -2.685882,0.706811 -2.685882,2.377713 v 6.00695 c 0,1.668073 0.656862,2.370172 2.700958,2.370172 1.286394,-0.02827 2.569967,-0.162095 3.835631,-0.402411 l 0.327959,2.563368 a 17.783363,17.783363 0 0 1 -4.259709,0.514558 c -3.901599,0 -5.572498,-1.668073 -5.572498,-4.531129 z m 16.181248,11.58039 c -3.924206,0 -4.983481,-2.160956 -4.983481,-4.508511 V 67.82572 c 0,-2.356037 1.059275,-4.508512 4.983481,-4.508512 3.924218,0 4.983493,2.160957 4.983493,4.508512 v 2.891328 c 0,2.356036 -1.021581,4.508511 -4.983493,4.508511 z m 0,-9.464669 c -1.491839,0 -2.118539,0.678538 -2.118539,1.975301 v 3.078868 c 0,1.289223 0.589006,1.975301 2.118539,1.975301 1.529545,0 2.118551,-0.678538 2.118551,-1.975301 v -3.077926 c 0,-1.289223 -0.589006,-1.975301 -2.118551,-1.975301 z m 13.704599,9.233778 v -7.988849 c 0,-0.610685 -0.261047,-0.916969 -0.917909,-0.916969 -1.04891,0.119686 -2.073313,0.445762 -2.983689,0.961263 v 7.937015 H 88.095067 V 63.555639 h 2.186395 l 0.282732,0.961263 a 11.478609,11.478609 0 0 1 4.587668,-1.199694 c 1.903673,0 2.588808,1.341057 2.588808,3.392692 v 8.293249 z m 8.764446,0.230891 a 13.476528,13.476528 0 0 1 -3.953425,-0.655921 l 0.402415,-2.183574 a 12.807414,12.807414 0 0 0 3.40966,0.49194 c 1.26848,0 1.49184,-0.282724 1.49184,-1.14786 0,-0.706812 -0.14137,-1.058332 -1.99792,-1.490901 -2.79709,-0.678538 -3.125991,-1.385348 -3.125991,-3.581175 0,-2.195826 1.014971,-3.298451 4.282331,-3.298451 a 15.088057,15.088057 0 0 1 3.43133,0.402411 l -0.28272,2.280644 a 20.177096,20.177096 0 0 0 -3.14767,-0.327961 c -1.24586,0 -1.49184,0.282724 -1.49184,0.983881 0,0.916969 0.066,0.983881 1.62661,1.385349 3.20043,0.842519 3.50579,1.266605 3.50579,3.61416 -0.01,2.220329 -0.69363,3.547249 -4.14663,3.547249 z m 8.88509,-11.66992 v 7.988849 c 0,0.610685 0.26105,0.916969 0.91791,0.916969 1.04891,-0.119686 2.07332,-0.445762 2.98369,-0.961263 v -7.944555 h 2.89133 v 11.439029 h -2.18641 l -0.28272,-0.961263 a 11.478609,11.478609 0 0 1 -4.58768,1.199694 c -1.90367,0 -2.58881,-1.341056 -2.58881,-3.392693 v -8.293248 z m 9.2432,11.439029 V 58.874666 l 2.89322,-0.395814 v 16.513931 z"
     id="path1438"
     style="stroke-width:0.942415" />
  <path
     d="m 93.910322,41.969318 c -2.021488,0.0019 -3.66317,-1.630377 -3.668824,-3.649971 -0.0053,-2.019594 1.626606,-3.661281 3.64715,-3.670705 2.020533,-0.0094 3.66787,1.619068 3.680123,3.63772 0.0095,0.974457 -0.37414,1.911217 -1.061153,2.603892 -0.687023,0.692675 -1.623785,1.080007 -2.59824,1.078122"
     fill="#961d59"
     id="path1440"
     style="stroke-width:0.942415" />
  <path
     d="m 101.0312,39.979882 c -0.94242,0 -1.689745,-0.755817 -1.689745,-1.696347 0,-0.94053 0.756755,-1.696346 1.689745,-1.696346 a 1.6869221,1.6869221 0 0 1 1.68975,1.687865 1.677498,1.677498 0 0 1 -0.49382,1.194039 1.6869221,1.6869221 0 0 1 -1.19688,0.492883 m 6.18225,1.590795 a 1.6209531,1.6209531 0 0 1 -1.99604,1.071526 1.6209531,1.6209531 0 0 1 -1.11487,-1.969646 1.6209531,1.6209531 0 0 1 1.94797,-1.156343 c 0.84817,0.209216 1.38818,1.063043 1.19687,1.922526 0,0.04429 0,0.08293 -0.0349,0.131937 m -1.19309,-4.3483 a 1.6963462,1.6963462 0 0 1 -1.77551,-0.638957 c -0.40712,-0.552255 -0.44011,-1.295821 -0.083,-1.882003 a 1.6963462,1.6963462 0 0 1 3.09488,0.491941 1.7340428,1.7340428 0 0 1 0,0.661575 1.6303772,1.6303772 0 0 1 -1.27225,1.372155 m 6.04652,4.159819 c -0.16021,0.917911 -1.03664,1.530481 -1.95551,1.370271 a 1.6877328,1.6877328 0 1 1 0.58242,-3.324839 1.6963462,1.6963462 0 0 1 1.42587,1.801897 0.44293485,0.44293485 0 0 0 -0.0349,0.148901 m -1.39477,-4.233327 a 1.6869221,1.6869221 0 0 1 -1.93761,-1.385349 c -0.15267,-0.916027 0.46744,-1.783048 1.38536,-1.935719 a 1.6869221,1.6869221 0 0 1 1.93854,1.383465 1.7057703,1.7057703 0 0 1 0,0.438222 c -0.0687,0.755817 -0.63802,1.371213 -1.38535,1.507863 m -1.17614,10.081952 a 1.7151945,1.7151945 0 0 1 -2.16283,0.74168 1.7057703,1.7057703 0 0 1 -0.97069,-2.070485 c 0.25257,-0.845346 1.09886,-1.345768 1.95833,-1.181787 0.85949,0.163979 1.45698,0.94901 1.38536,1.818859 a 1.5078633,1.5078633 0 0 1 -0.21017,0.692675 m -0.60974,-15.508374 a 1.6963462,1.6963462 0 0 1 -2.30608,-0.644612 c -0.45896,-0.814246 -0.16964,-1.845247 0.64461,-2.304204 a 1.6963462,1.6963462 0 0 1 2.30608,0.642727 1.5738323,1.5738323 0 0 1 0.21017,0.977284 c -0.0509,0.551312 -0.36943,1.04231 -0.85101,1.314668 M 93.97629,55.289407 a 16.991735,16.991735 0 0 1 -14.938214,-8.403511 16.954038,16.954038 0 0 1 0,-17.1265 16.991735,16.991735 0 0 1 14.938214,-8.403511 16.831524,16.831524 0 0 1 10.3119,3.506724 l -2.0752,2.70473 A 13.57077,13.57077 0 0 0 87.963684,26.177278 c -4.636682,2.28347 -7.55816,6.992716 -7.55816,12.157148 a 13.561345,13.561345 0 0 0 7.559104,12.150551 13.599043,13.599043 0 0 0 14.254012,-1.375925 l 2.07143,2.709441 c -2.95635,2.269335 -6.58371,3.492589 -10.311892,3.480338 z"
     fill="#d62783"
     id="path1442"
     style="stroke-width:0.942415" />
</svg>
