<svg width="16" height="16" viewBox="0 0 16 16" fill="currentColor" xmlns="http://www.w3.org/2000/svg">
  <path d="M13.155 3.22904C13.0144 3.08859 12.8237 3.0097 12.625 3.0097C12.4262 3.0097 12.2356 3.08859 12.095 3.22904L7.84499 7.47904C7.70454 7.61967 7.62565 7.81029 7.62565 8.00904C7.62565 8.2078 7.70454 8.39842 7.84499 8.53904L12.095 12.789C12.2372 12.9215 12.4253 12.9936 12.6196 12.9902C12.8139 12.9868 12.9994 12.9083 13.137 12.771C13.2742 12.6334 13.3528 12.448 13.3561 12.2537C13.3595 12.0594 13.2874 11.8713 13.155 11.729L9.43499 8.00904L13.155 4.28904C13.2954 4.14842 13.3743 3.9578 13.3743 3.75904C13.3743 3.56029 13.2954 3.36967 13.155 3.22904Z" />
  <path d="M8.15499 3.22904C8.01436 3.08859 7.82374 3.0097 7.62499 3.0097C7.42624 3.0097 7.23561 3.08859 7.09499 3.22904L2.84499 7.47904C2.70454 7.61967 2.62565 7.81029 2.62565 8.00904C2.62565 8.2078 2.70454 8.39842 2.84499 8.53904L7.09499 12.789C7.23725 12.9215 7.4253 12.9936 7.61962 12.9902C7.81394 12.9868 7.99939 12.9083 8.13699 12.771C8.27423 12.6334 8.35279 12.448 8.35614 12.2537C8.3595 12.0594 8.2874 11.8713 8.15499 11.729L4.43499 8.00904L8.15499 4.28904C8.29544 4.14842 8.37433 3.9578 8.37433 3.75904C8.37433 3.56029 8.29544 3.36967 8.15499 3.22904Z" />
</svg>