<?xml version="1.0" encoding="UTF-8" standalone="no"?>
<svg
   xmlns:dc="http://purl.org/dc/elements/1.1/"
   xmlns:cc="http://creativecommons.org/ns#"
   xmlns:rdf="http://www.w3.org/1999/02/22-rdf-syntax-ns#"
   xmlns:svg="http://www.w3.org/2000/svg"
   xmlns="http://www.w3.org/2000/svg"
   xmlns:sodipodi="http://sodipodi.sourceforge.net/DTD/sodipodi-0.dtd"
   xmlns:inkscape="http://www.inkscape.org/namespaces/inkscape"
   width="20"
   height="20"
   viewBox="0 0 20 20"
   fill="currentColor"
   version="1.1"
   id="svg12"
   sodipodi:docname="file-browser.svg"
   inkscape:version="1.0.1 (c497b03c, 2020-09-10)">
  <metadata
     id="metadata18">
    <rdf:RDF>
      <cc:Work
         rdf:about="">
        <dc:format>image/svg+xml</dc:format>
        <dc:type
           rdf:resource="http://purl.org/dc/dcmitype/StillImage" />
      </cc:Work>
    </rdf:RDF>
  </metadata>
  <defs
     id="defs16" />
  <sodipodi:namedview
     pagecolor="#ffffff"
     bordercolor="#666666"
     borderopacity="1"
     objecttolerance="10"
     gridtolerance="10"
     guidetolerance="10"
     inkscape:pageopacity="0"
     inkscape:pageshadow="2"
     inkscape:window-width="1076"
     inkscape:window-height="750"
     id="namedview14"
     showgrid="false"
     inkscape:zoom="16.546081"
     inkscape:cx="2.5919443"
     inkscape:cy="10.599413"
     inkscape:window-x="0"
     inkscape:window-y="25"
     inkscape:window-maximized="0"
     inkscape:current-layer="svg12" />
  <path
     d="m 0.05032749,3.4979373 c 0,-1.2075 0.97999701,-2.1875 2.18749701,-2.1875 h 4.0625 c 0.6875,0 1.3375,0.325 1.75,0.875 l 1.125,1.5 c 0.02911,0.03881 0.06686,0.07031 0.11025,0.09201 0.04339,0.02169 0.09124,0.03299 0.13979,0.03299 h 8.4374995 c 1.2075,0 2.1875,0.98 2.1875,2.1875 V 16.622937 c 0,0.5802 -0.2305,1.1366 -0.6407,1.5468 -0.4103,0.4102 -0.9667,0.6407 -1.5468,0.6407 H 2.2378245 c -0.58016,0 -1.13656,-0.2305 -1.54679001,-0.6407 -0.410239,-0.4102 -0.640707,-0.9666 -0.640707,-1.5468 z m 2.18749701,-0.3125 c -0.08288,0 -0.16236,0.03292 -0.22097,0.09153 -0.0586,0.0586 -0.09153,0.13809 -0.09153,0.22097 V 16.622937 c 0,0.1725 0.14,0.3125 0.3125,0.3125 H 17.862864 c 0.0828,0 0.1623,-0.0329 0.2209,-0.0915 0.0586,-0.0586 0.0916,-0.1381 0.0916,-0.221 V 5.9979373 c 0,-0.08288 -0.033,-0.16237 -0.0916,-0.22097 -0.0586,-0.05861 -0.1381,-0.09153 -0.2209,-0.09153 H 9.4253645 c -0.68754,0 -1.33754,-0.325 -1.75004,-0.875 l -1.125,-1.5 c -0.02911,-0.03881 -0.06685,-0.07031 -0.11024,-0.09201 -0.04339,-0.02169 -0.09124,-0.03299 -0.13976,-0.03299 z"
     id="path10" />
</svg>
