<?xml version="1.0" encoding="UTF-8" standalone="no"?>
<svg
   xmlns:dc="http://purl.org/dc/elements/1.1/"
   xmlns:cc="http://creativecommons.org/ns#"
   xmlns:rdf="http://www.w3.org/1999/02/22-rdf-syntax-ns#"
   xmlns:svg="http://www.w3.org/2000/svg"
   xmlns="http://www.w3.org/2000/svg"
   xmlns:sodipodi="http://sodipodi.sourceforge.net/DTD/sodipodi-0.dtd"
   xmlns:inkscape="http://www.inkscape.org/namespaces/inkscape"
   width="50"
   height="50"
   viewBox="0 0 50 50"
   version="1.1"
   id="svg890"
   sodipodi:docname="golang.svg"
   inkscape:version="1.0.1 (c497b03c, 2020-09-10)">
  <metadata
     id="metadata894">
    <rdf:RDF>
      <cc:Work
         rdf:about="">
        <dc:format>image/svg+xml</dc:format>
        <dc:type
           rdf:resource="http://purl.org/dc/dcmitype/StillImage" />
        <dc:title>go</dc:title>
      </cc:Work>
    </rdf:RDF>
  </metadata>
  <sodipodi:namedview
     pagecolor="#ffffff"
     bordercolor="#666666"
     borderopacity="1"
     objecttolerance="10"
     gridtolerance="10"
     guidetolerance="10"
     inkscape:pageopacity="0"
     inkscape:pageshadow="2"
     inkscape:window-width="1413"
     inkscape:window-height="905"
     id="namedview892"
     showgrid="false"
     inkscape:zoom="7.85608"
     inkscape:cx="2.7445846"
     inkscape:cy="23.489287"
     inkscape:window-x="0"
     inkscape:window-y="25"
     inkscape:window-maximized="0"
     inkscape:current-layer="svg890" />
  <!-- Generator: Sketch 42 (36781) - http://www.bohemiancoding.com/sketch -->
  <title
     id="title833">go</title>
  <desc
     id="desc835">Created with Sketch.</desc>
  <defs
     id="defs837" />
  <g
     id="Page-1"
     stroke="none"
     stroke-width="1"
     fill="none"
     fill-rule="evenodd"
     opacity="0.7"
     transform="matrix(1.2350897,0,0,1.2350897,5.8072727,-0.93785409)">
    <g
       id="Artboard"
       transform="translate(-753,-1007)">
      <g
         id="languages"
         transform="translate(162,987)">
        <g
           transform="translate(150,14)"
           id="go">
          <g
             transform="translate(442,7)"
             id="g884">
            <path
               d="m 0.34873857,21.656723 c 0.057496,1.186516 1.24165683,0.637514 1.77800983,0.266591 0.5091101,-0.352165 0.6579675,-0.05944 0.7026698,-0.754425 0.029275,-0.456799 0.081879,-0.913597 0.055991,-1.372204 -0.7698739,-0.06983 -1.6072529,0.113673 -2.23842906,0.572656 -0.32510803,0.236459 -0.9346856,0.991186 -0.29824147,1.287382"
               id="Shape"
               stroke="#000000"
               stroke-width="0.5"
               fill="#f7d8ac"
               fill-rule="nonzero" />
            <path
               d="M 3.0852903,7.5218832 C -1.4524502,6.2445951 1.9217497,0.46621469 5.5656689,2.8429379 Z"
               id="path840"
               stroke="#000000"
               stroke-width="0.5"
               fill="#75dce8"
               fill-rule="nonzero" />
            <path
               d="m 23.246353,2.4093409 c 3.591767,-2.5252731 6.837504,3.1722034 2.663177,4.605725 z"
               id="path842"
               stroke="#000000"
               stroke-width="0.5"
               fill="#75dce8"
               fill-rule="nonzero" />
            <path
               d="m 24.018936,36.25936 c 0.912335,0.565047 2.579943,2.273597 1.211329,3.102071 -1.315032,1.205198 -2.051041,-1.322862 -3.205249,-1.673145 0.497069,-0.675706 1.127116,-1.291827 1.99392,-1.428926 z"
               id="path844"
               stroke="#000000"
               stroke-width="0.5"
               fill="#f7d8ac"
               fill-rule="nonzero" />
            <path
               d="M 25.230265,39.361356 C 25.027373,38.957514 24.959266,38.486177 24.620537,38.160678"
               id="path846"
               stroke="#000000"
               stroke-width="0.5" />
            <path
               d="M 7.7197354,38.190207 C 6.6489108,38.356083 6.0461816,39.323088 5.1534891,39.814162 4.3122721,40.316234 3.9904754,39.653409 3.9146921,39.51887 3.7828427,39.45868 3.7939054,39.57491 3.5904119,39.369793 c -0.7798078,-1.23194 0.8125443,-2.13243 1.6417203,-2.744407 1.154886,-0.233672 1.8786277,0.768512 2.4876032,1.564821 z"
               id="path848"
               stroke="#000000"
               stroke-width="0.5"
               fill="#f7d8ac"
               fill-rule="nonzero" />
            <path
               d="M 3.9147673,39.518795 C 3.9555563,39.049266 4.3274739,38.73484 4.5046277,38.337853"
               id="path850"
               stroke="#000000"
               stroke-width="0.5" />
            <path
               d="M 3.2746356,5.925951 C 2.6759703,5.6089642 2.2367734,5.1784557 2.6029715,4.4853484 2.9420019,3.8436912 3.5718235,3.913371 4.1705641,4.2303578 Z"
               id="path852"
               fill="#000000"
               fill-rule="nonzero" />
            <path
               d="M 24.963782,5.3233145 C 25.562447,5.0063277 26.001644,4.5758192 25.635446,3.8827119 25.296415,3.2410546 24.666594,3.3107345 24.067853,3.6277213 Z"
               id="path854"
               fill="#000000"
               fill-rule="nonzero" />
            <path
               d="m 29.084752,21.506064 c -0.0575,1.186516 -1.241657,0.637514 -1.77801,0.266591 -0.50911,-0.352165 -0.657968,-0.05944 -0.70267,-0.754425 -0.02927,-0.456799 -0.08188,-0.913597 -0.05599,-1.372204 0.769874,-0.06983 1.607253,0.113673 2.238429,0.572656 0.325033,0.236459 0.934686,0.991186 0.298242,1.287382"
               id="path856"
               stroke="#000000"
               stroke-width="0.5"
               fill="#f7d8ac"
               fill-rule="nonzero" />
            <path
               d="m 14.262008,0.00934087 c 4.542858,0 8.801472,0.65032015 11.021463,5.01913373 1.992642,4.8968738 1.284026,10.1773254 1.587912,15.3526174 0.26099,4.443842 0.839637,9.577778 -1.219908,13.69582 -2.166634,4.332504 -7.580586,5.422372 -12.041038,5.262749 C 10.106871,39.214162 5.8745216,38.070056 3.8971573,34.865913 1.5773008,31.106968 2.675594,25.517665 2.8440932,21.335066 3.0436735,16.380565 1.5033989,11.410998 3.1294659,6.5628625 4.8163401,1.5336346 9.3657454,0.39706215 14.262008,0.00934087"
               id="path858"
               stroke="#000000"
               stroke-width="0.5"
               fill="#75dce8"
               fill-rule="nonzero" />
            <path
               d="m 15.064016,6.1137476 c 0.81563,4.7459884 8.565844,3.4911488 7.45265,-1.2954425 -0.998202,-4.29227873 -7.723724,-3.1041808 -7.45265,1.2954425"
               id="path860"
               stroke="#000000"
               stroke-width="0.5"
               fill="#ffffff"
               fill-rule="nonzero" />
            <path
               d="M 5.8025011,6.8813559 C 6.859629,11.013183 13.468428,9.9553296 13.219329,5.8106968 12.920862,0.84685499 4.7918064,1.8046704 5.8025011,6.8813559"
               id="path862"
               stroke="#000000"
               stroke-width="0.5"
               fill="#ffffff"
               fill-rule="nonzero" />
            <path
               d="m 15.999078,11.808814 c 0.0035,0.617024 0.140052,1.309755 0.02348,1.966177 -0.157361,0.297702 -0.466063,0.32919 -0.73217,0.449491 -0.368004,-0.05778 -0.677459,-0.299661 -0.825037,-0.644218 -0.09445,-0.749228 0.03522,-1.474652 0.05908,-2.224181 z"
               id="path864"
               stroke="#000000"
               stroke-width="0.5"
               fill="#ffffff"
               fill-rule="nonzero" />
            <g
               id="Group"
               transform="translate(6.472058,4.971751)"
               fill-rule="nonzero">
              <ellipse
                 id="Oval"
                 fill="#000000"
                 cx="1.1532304"
                 cy="1.2357062"
                 rx="1.1159785"
                 ry="1.2099435" />
              <ellipse
                 id="ellipse867"
                 fill="#ffffff"
                 cx="1.6608355"
                 cy="1.5087759"
                 rx="0.26309669"
                 ry="0.3074953" />
            </g>
            <g
               id="g874"
               transform="translate(15.803862,4.670433)"
               fill-rule="nonzero">
              <ellipse
                 id="ellipse870"
                 fill="#000000"
                 cx="1.1718187"
                 cy="1.2357062"
                 rx="1.0973902"
                 ry="1.2099435" />
              <ellipse
                 id="ellipse872"
                 fill="#ffffff"
                 cx="1.6709951"
                 cy="1.5087759"
                 rx="0.25873181"
                 ry="0.3074953" />
            </g>
            <path
               d="m 12.809934,11.74162 c -0.48691,1.181167 0.271525,3.543126 1.592653,1.800979 -0.09445,-0.749228 0.03522,-1.474652 0.05908,-2.224181 z"
               id="path876"
               stroke="#000000"
               stroke-width="0.5"
               fill="#ffffff"
               fill-rule="nonzero" />
            <g
               id="g882"
               transform="translate(11.589499,8.060264)"
               fill-rule="nonzero">
              <path
                 d="M 1.3870524,1.406629 C 0.47953435,1.4840678 -0.26226887,2.5641431 0.20958932,3.4186064 0.83444396,4.5503578 2.2291725,3.3184934 3.0978581,3.4338983 4.0976406,3.454388 4.9168075,4.4920527 5.7197942,3.6214689 6.612863,2.6531827 5.3353088,1.7101318 4.3368057,1.2885122 Z"
                 id="path878"
                 stroke="#231f20"
                 stroke-width="0.5"
                 fill="#f7d8ac" />
              <path
                 d="M 1.272813,1.359322 C 1.205609,-0.21438795 4.2031502,-0.41114878 4.5571567,0.90613936 4.9102602,2.220339 1.420391,2.5255744 1.272813,1.359322 c -0.1177764,-0.9312994 0,0 0,0 z"
                 id="path880"
                 fill="#000000" />
            </g>
          </g>
        </g>
      </g>
    </g>
  </g>
</svg>
