<?xml version="1.0" encoding="UTF-8" standalone="no"?>
<svg
   xmlns:dc="http://purl.org/dc/elements/1.1/"
   xmlns:cc="http://creativecommons.org/ns#"
   xmlns:rdf="http://www.w3.org/1999/02/22-rdf-syntax-ns#"
   xmlns:svg="http://www.w3.org/2000/svg"
   xmlns="http://www.w3.org/2000/svg"
   xmlns:sodipodi="http://sodipodi.sourceforge.net/DTD/sodipodi-0.dtd"
   xmlns:inkscape="http://www.inkscape.org/namespaces/inkscape"
   width="899.9079"
   height="800.9079"
   version="1.1"
   id="svg1031"
   sodipodi:docname="lego.svg"
   inkscape:version="1.0.1 (c497b03c, 2020-09-10)">
  <defs
     id="defs1035" />
  <sodipodi:namedview
     pagecolor="#ffffff"
     bordercolor="#666666"
     borderopacity="1"
     objecttolerance="10"
     gridtolerance="10"
     guidetolerance="10"
     inkscape:pageopacity="0"
     inkscape:pageshadow="2"
     inkscape:window-width="1525"
     inkscape:window-height="846"
     id="namedview1033"
     showgrid="false"
     fit-margin-top="0"
     fit-margin-left="0"
     fit-margin-right="0"
     fit-margin-bottom="0"
     inkscape:zoom="0.49151671"
     inkscape:cx="226.21856"
     inkscape:cy="295.4836"
     inkscape:window-x="0"
     inkscape:window-y="25"
     inkscape:window-maximized="0"
     inkscape:current-layer="svg1031" />
  <metadata
     id="metadata2835">image/svg+xmlLegoBlocks brunurb2007-11-14brunurbThis work is hereby released into the Public Domain. To view a copy of the public domain dedication, visit http://creativecommons.org/licenses/publicdomain/ or send a letter to Creative Commons, 171 Second Street, Suite 300, San Francisco, California, 94105, USA.openclipart.orgopenclipart.orglegoblockbrickplasticplaygametoykidchildrenpuzzlebuildLego type construction bricks<rdf:RDF>
  <cc:Work
     rdf:about="">
    <dc:format>image/svg+xml</dc:format>
    <dc:type
       rdf:resource="http://purl.org/dc/dcmitype/StillImage" />
    <dc:title></dc:title>
  </cc:Work>
</rdf:RDF>
</metadata>
  <g
     id="g1029"
     transform="translate(69.112083,-58.103542)">
    <g
       id="g3245">
      <g
         fill="#002ec4"
         id="g3164">
        <path
           fill="#002ec4"
           d="m 263.25757,673.13507 v 128.80567 l 144.14734,58.2752 V 731.40399 Z"
           id="path3166" />
      </g>
      <g
         fill="#2da6ff"
         id="g3168">
        <path
           d="M 583.74652,804.09894 V 679.53528 l -177.1087,52.63598 v 128.80567 z"
           id="path3170" />
      </g>
      <g
         fill="#2da6ff"
         id="g3172">
        <path
           d="m 263.25757,674.66925 178.5571,-52.61883 141.93185,57.48486 -176.34161,54.16455 z"
           id="path3174" />
      </g>
      <g
         fill="#002ec4"
         id="g3176">
        <path
           d="m 379.80743,682.32831 v 26.06958 c 13.79578,12.26715 61.32593,11.50616 72.83213,-1.53455 v -26.83581 z"
           id="path3178" />
      </g>
      <g
         fill="#2da6ff"
         id="g3180">
        <path
           d="m 379.80743,680.41675 c 0,-4.86597 16.3032,-8.81623 36.41318,-8.81623 20.11575,0 36.41895,3.95026 36.41895,8.81623 0,4.87127 -16.3032,8.81555 -36.41895,8.81555 -20.10998,0 -36.41318,-3.94427 -36.41318,-8.81555 z"
           id="path3182" />
      </g>
      <g
         fill="#002ec4"
         id="g3188">
        <path
           d="m 470.65442,655.87579 v 26.06922 c 13.80151,12.27313 61.33166,11.50622 72.83209,-1.52826 v -26.83649 z"
           id="path3190" />
      </g>
      <g
         fill="#2da6ff"
         id="g3192">
        <path
           d="m 470.65442,653.96985 c 0,-4.87158 16.30316,-8.81622 36.41891,-8.81622 20.11002,0 36.41318,3.94464 36.41318,8.81622 0,4.86529 -16.30316,8.81518 -36.41318,8.81518 -20.11575,0 -36.41891,-3.94989 -36.41891,-8.81518 z"
           id="path3194" />
      </g>
      <g
         fill="#002ec4"
         id="g3200">
        <path
           d="m 395.15469,624.07684 v 26.06855 c 13.80152,12.26751 61.33167,11.50097 72.8321,-1.53418 v -26.83613 z"
           id="path3202" />
      </g>
      <g
         fill="#2da6ff"
         id="g3204">
        <path
           d="m 395.15469,622.16431 c 0,-4.86567 16.30317,-8.81519 36.41892,-8.81519 20.11001,0 36.41318,3.94952 36.41318,8.81519 0,4.87158 -16.30317,8.81622 -36.41318,8.81622 -20.11575,0 -36.41892,-3.94464 -36.41892,-8.81622 z"
           id="path3206" />
      </g>
      <g
         fill="#002ec4"
         id="g3212">
        <path
           d="m 305.84174,649.7677 v 26.06921 c 13.80169,12.26789 61.33184,11.50031 72.83209,-1.53381 v -26.83649 z"
           id="path3214" />
      </g>
      <g
         fill="#2da6ff"
         id="g3216">
        <path
           d="m 305.84174,647.85583 c 0,-4.87121 16.30316,-8.81585 36.41891,-8.81585 20.10999,0 36.41318,3.94464 36.41318,8.81585 0,4.87122 -16.30319,8.81586 -36.41318,8.81586 -20.11575,0 -36.41891,-3.94464 -36.41891,-8.81586 z"
           id="path3218" />
      </g>
    </g>
    <g
       fill="#f5fa40"
       transform="matrix(5.7244485,0,0,5.7244485,-582.68175,-2300.9683)"
       id="g2860">
      <path
         transform="matrix(5.7244485,0,0,5.7244485,-582.68175,-2300.9683)"
         id="path2862"
         d="" />
    </g>
    <g
       fill="#f5fa40"
       transform="matrix(5.7244485,0,0,5.7244485,-582.68175,-2300.9683)"
       id="g2872">
      <path
         transform="matrix(5.7244485,0,0,5.7244485,-582.68175,-2300.9683)"
         id="path2874"
         d="" />
    </g>
    <g
       fill="#f5fa40"
       transform="matrix(5.7244485,0,0,5.7244485,-582.68175,-2300.9683)"
       id="g2884">
      <path
         transform="matrix(5.7244485,0,0,5.7244485,-582.68175,-2300.9683)"
         id="path2886"
         d="" />
    </g>
    <g
       fill="#f5fa40"
       transform="matrix(5.7244485,0,0,5.7244485,-582.68175,-2300.9683)"
       id="g2896">
      <path
         transform="matrix(5.7244485,0,0,5.7244485,-582.68175,-2300.9683)"
         id="path2898"
         d="" />
    </g>
    <g
       fill="#f5fa40"
       transform="matrix(5.7244485,0,0,5.7244485,-582.68175,-2300.9683)"
       id="g2908">
      <path
         transform="matrix(5.7244485,0,0,5.7244485,-582.68175,-2300.9683)"
         id="path2910"
         d="" />
    </g>
    <g
       fill="#f5fa40"
       transform="matrix(5.7244485,0,0,5.7244485,-582.68175,-2300.9683)"
       id="g2920">
      <path
         transform="matrix(5.7244485,0,0,5.7244485,-582.68175,-2300.9683)"
         id="path2922"
         d="" />
    </g>
    <g
       fill="#f5fa40"
       transform="matrix(5.7244485,0,0,5.7244485,-582.68175,-2300.9683)"
       id="g2932">
      <path
         transform="matrix(5.7244485,0,0,5.7244485,-582.68175,-2300.9683)"
         id="path2934"
         d="" />
    </g>
    <g
       fill="#f5fa40"
       transform="matrix(5.7244485,0,0,5.7244485,-582.68175,-2300.9683)"
       id="g2944">
      <path
         transform="matrix(5.7244485,0,0,5.7244485,-582.68175,-2300.9683)"
         id="path2946"
         d="" />
    </g>
    <g
       fill="#ff212c"
       transform="matrix(5.7244485,0,0,5.7244485,-582.68175,-2300.9683)"
       id="g2968">
      <path
         transform="matrix(5.7244485,0,0,5.7244485,-582.68175,-2300.9683)"
         id="path2970"
         d="" />
    </g>
    <g
       fill="#ff212c"
       transform="matrix(5.7244485,0,0,5.7244485,-582.68175,-2300.9683)"
       id="g2980">
      <path
         transform="matrix(5.7244485,0,0,5.7244485,-582.68175,-2300.9683)"
         id="path2982"
         d="" />
    </g>
    <g
       fill="#ff212c"
       transform="matrix(5.7244485,0,0,5.7244485,-582.68175,-2300.9683)"
       id="g2992">
      <path
         transform="matrix(5.7244485,0,0,5.7244485,-582.68175,-2300.9683)"
         id="path2994"
         d="" />
    </g>
    <g
       fill="#ff212c"
       transform="matrix(5.7244485,0,0,5.7244485,-582.68175,-2300.9683)"
       id="g3004">
      <path
         transform="matrix(5.7244485,0,0,5.7244485,-582.68175,-2300.9683)"
         id="path3006"
         d="" />
    </g>
    <g
       fill="#ff212c"
       transform="matrix(5.7244485,0,0,5.7244485,-582.68175,-2300.9683)"
       id="g3016">
      <path
         transform="matrix(5.7244485,0,0,5.7244485,-582.68175,-2300.9683)"
         id="path3018"
         d="" />
    </g>
    <g
       fill="#ff212c"
       transform="matrix(5.7244485,0,0,5.7244485,-582.68175,-2300.9683)"
       id="g3028">
      <path
         transform="matrix(5.7244485,0,0,5.7244485,-582.68175,-2300.9683)"
         id="path3030"
         d="" />
    </g>
    <g
       fill="#ff212c"
       transform="matrix(5.7244485,0,0,5.7244485,-582.68175,-2300.9683)"
       id="g3040">
      <path
         transform="matrix(5.7244485,0,0,5.7244485,-582.68175,-2300.9683)"
         id="path3042"
         d="" />
    </g>
    <g
       fill="#ff212c"
       transform="matrix(5.7244485,0,0,5.7244485,-582.68175,-2300.9683)"
       id="g3052">
      <path
         transform="matrix(5.7244485,0,0,5.7244485,-582.68175,-2300.9683)"
         id="path3054"
         d="" />
    </g>
    <g
       fill="#2da6ff"
       transform="matrix(5.7244485,0,0,5.7244485,-582.68175,-2300.9683)"
       id="g3076">
      <path
         transform="matrix(5.7244485,0,0,5.7244485,-582.68175,-2300.9683)"
         id="path3078"
         d="" />
    </g>
    <g
       fill="#2da6ff"
       transform="matrix(5.7244485,0,0,5.7244485,-582.68175,-2300.9683)"
       id="g3088">
      <path
         transform="matrix(5.7244485,0,0,5.7244485,-582.68175,-2300.9683)"
         id="path3090"
         d="" />
    </g>
    <g
       fill="#2da6ff"
       transform="matrix(5.7244485,0,0,5.7244485,-582.68175,-2300.9683)"
       id="g3100">
      <path
         transform="matrix(5.7244485,0,0,5.7244485,-582.68175,-2300.9683)"
         id="path3102"
         d="" />
    </g>
    <g
       fill="#2da6ff"
       transform="matrix(5.7244485,0,0,5.7244485,-582.68175,-2300.9683)"
       id="g3112">
      <path
         transform="matrix(5.7244485,0,0,5.7244485,-582.68175,-2300.9683)"
         id="path3114"
         d="" />
    </g>
    <g
       fill="#2da6ff"
       transform="matrix(5.7244485,0,0,5.7244485,-582.68175,-2300.9683)"
       id="g3124">
      <path
         transform="matrix(5.7244485,0,0,5.7244485,-582.68175,-2300.9683)"
         id="path3126"
         d="" />
    </g>
    <g
       fill="#2da6ff"
       transform="matrix(5.7244485,0,0,5.7244485,-582.68175,-2300.9683)"
       id="g3136">
      <path
         transform="matrix(5.7244485,0,0,5.7244485,-582.68175,-2300.9683)"
         id="path3138"
         d="" />
    </g>
    <g
       fill="#fcd327"
       id="g2840">
      <path
         d="m 115.97572,451.26068 v 128.81146 l 144.14739,58.26923 V 509.52978 Z"
         id="path2842" />
    </g>
    <g
       fill="#f5fa40"
       id="g2844">
      <path
         d="M 616.64172,525.82159 V 406.01471 l -357.2857,104.28217 v 128.81146 z"
         id="path2846" />
    </g>
    <g
       fill="#f5fa40"
       id="g2848">
      <path
         d="M 115.97572,452.79486 470.96023,344.67709 615.87463,406.01471 260.12311,511.83106 Z"
         id="path2850" />
    </g>
    <g
       fill="#e9b018"
       id="g2852">
      <path
         d="m 232.51977,460.45407 v 26.06925 c 13.80162,12.2731 61.33176,11.50601 72.8379,-1.52842 v -26.84192 z"
         id="path2854" />
    </g>
    <g
       fill="#f5fa40"
       id="g2856">
      <path
         d="m 232.51977,458.54221 c 0,-4.86582 16.30327,-8.81571 36.41895,-8.81571 20.10998,0 36.41894,3.94989 36.41894,8.81571 0,4.8714 -16.30896,8.81552 -36.41894,8.81552 -20.11568,0 -36.41895,-3.94412 -36.41895,-8.81552 z"
         id="path2858" />
    </g>
    <g
       fill="#e9b018"
       id="g2864">
      <path
         d="m 323.3725,434.0014 v 26.07499 c 13.80163,12.26736 61.33179,11.50042 72.83221,-1.53418 V 431.7059 Z"
         id="path2866" />
    </g>
    <g
       fill="#f5fa40"
       id="g2868">
      <path
         d="m 323.3725,432.09528 c 0,-4.87159 16.30328,-8.81571 36.41327,-8.81571 20.11566,0 36.41894,3.94412 36.41894,8.81571 0,4.86566 -16.30328,8.81552 -36.41894,8.81552 -20.10999,0 -36.41327,-3.94986 -36.41327,-8.81552 z"
         id="path2870" />
    </g>
    <g
       fill="#e9b018"
       id="g2876">
      <path
         d="m 411.92398,407.55447 v 26.06925 c 13.8017,12.26733 61.33176,11.50043 72.83218,-1.53421 V 405.2532 Z"
         id="path2878" />
    </g>
    <g
       fill="#f5fa40"
       id="g2880">
      <path
         d="m 411.92398,405.64261 c 0,-4.87158 16.30325,-8.81571 36.41892,-8.81571 20.11001,0 36.41326,3.94413 36.41326,8.81571 0,4.8714 -16.30325,8.81552 -36.41326,8.81552 -20.11567,0 -36.41892,-3.94412 -36.41892,-8.81552 z"
         id="path2882" />
    </g>
    <g
       fill="#e9b018"
       id="g2888">
      <path
         d="m 497.4129,381.86887 v 26.06924 c 13.80164,12.26733 61.33179,11.50043 72.83222,-1.53418 V 379.5676 Z"
         id="path2890" />
    </g>
    <g
       fill="#f5fa40"
       id="g2892">
      <path
         d="m 497.4129,379.957 c 0,-4.86581 16.30329,-8.8157 36.41327,-8.8157 20.11566,0 36.41895,3.94989 36.41895,8.8157 0,4.8714 -16.30329,8.81552 -36.41895,8.81552 -20.10998,0 -36.41327,-3.94412 -36.41327,-8.81552 z"
         id="path2894" />
    </g>
    <g
       fill="#e9b018"
       id="g2900">
      <path
         d="m 426.49844,350.81958 v 26.06906 c 13.79593,12.27329 61.32599,11.5062 72.83222,-1.52841 v -26.83615 z"
         id="path2902" />
    </g>
    <g
       fill="#f5fa40"
       id="g2904">
      <path
         d="m 426.49844,348.9133 c 0,-4.87158 16.30329,-8.8157 36.41327,-8.8157 20.11566,0 36.41895,3.94412 36.41895,8.8157 0,4.86581 -16.30329,8.8157 -36.41895,8.8157 -20.10998,0 -36.41327,-3.94989 -36.41327,-8.8157 z"
         id="path2906" />
    </g>
    <g
       fill="#e9b018"
       id="g2912">
      <path
         d="m 337.18558,376.51077 v 26.06922 c 13.79593,12.27313 61.33175,11.50604 72.83218,-1.52842 v -26.84191 z"
         id="path2914" />
    </g>
    <g
       fill="#f5fa40"
       id="g2916">
      <path
         d="m 337.18558,374.59888 c 0,-4.86582 16.30325,-8.81568 36.41327,-8.81568 20.11566,0 36.41891,3.94986 36.41891,8.81568 0,4.87143 -16.30325,8.8157 -36.41891,8.8157 -20.11002,0 -36.41327,-3.94427 -36.41327,-8.8157 z"
         id="path2918" />
    </g>
    <g
       fill="#e9b018"
       id="g2924">
      <path
         d="m 247.87279,402.20212 v 26.06924 c 13.80162,12.26734 61.33168,11.50601 72.8321,-1.53418 v -26.83633 z"
         id="path2926" />
    </g>
    <g
       fill="#f5fa40"
       id="g2928">
      <path
         d="m 247.87279,400.29025 c 0,-4.86581 16.30317,-8.8157 36.41316,-8.8157 20.11575,0 36.41894,3.94989 36.41894,8.8157 0,4.8714 -16.30319,8.81552 -36.41894,8.81552 -20.10999,0 -36.41316,-3.94412 -36.41316,-8.81552 z"
         id="path2930" />
    </g>
    <g
       fill="#e9b018"
       id="g2936">
      <path
         d="m 158.55991,427.89349 v 26.06906 c 13.80162,12.26752 61.33177,11.50043 72.8322,-1.53402 v -26.83631 z"
         id="path2938" />
    </g>
    <g
       fill="#f5fa40"
       id="g2940">
      <path
         d="m 158.55991,425.98144 c 0,-4.86566 16.30326,-8.81552 36.41327,-8.81552 20.11566,0 36.41893,3.94986 36.41893,8.81552 0,4.87159 -16.30327,8.81571 -36.41893,8.81571 -20.11001,0 -36.41327,-3.94412 -36.41327,-8.81571 z"
         id="path2942" />
    </g>
    <g
       fill="#c00104"
       id="g2948">
      <path
         fill="#c00104"
         d="m 225.53593,293.84412 v 128.80569 l 144.14736,58.27503 V 352.11319 Z"
         id="path2950" />
    </g>
    <g
       fill="#ff212c"
       id="g2952">
      <path
         d="M 726.2019,368.40503 V 248.59796 L 368.9162,352.88028 v 128.80588 z"
         id="path2954" />
    </g>
    <g
       fill="#ff212c"
       id="g2956">
      <path
         d="M 225.53593,295.37253 580.52618,187.26051 725.43494,248.59796 369.68329,354.40872 Z"
         id="path2958" />
    </g>
    <g
       fill="#c00104"
       id="g2960">
      <path
         d="m 342.08572,303.03751 v 26.06924 c 13.79593,12.26733 61.32599,11.50601 72.83219,-1.53418 v -26.83633 z"
         id="path2962" />
    </g>
    <g
       fill="#ff212c"
       id="g2964">
      <path
         d="m 342.08572,301.12564 c 0,-4.86581 16.30326,-8.8157 36.41324,-8.8157 20.1157,0 36.41895,3.94989 36.41895,8.8157 0,4.8714 -16.30325,8.81552 -36.41895,8.81552 -20.10998,0 -36.41324,-3.94412 -36.41324,-8.81552 z"
         id="path2966" />
    </g>
    <g
       fill="#c00104"
       id="g2972">
      <path
         d="m 432.93277,276.58484 v 26.06921 c 13.80164,12.27313 61.3317,11.50604 72.83212,-1.52841 v -26.83633 z"
         id="path2974" />
    </g>
    <g
       fill="#ff212c"
       id="g2976">
      <path
         d="m 432.93277,274.67853 c 0,-4.8714 16.30319,-8.81552 36.41895,-8.81552 20.10998,0 36.41317,3.94412 36.41317,8.81552 0,4.86584 -16.30319,8.8157 -36.41317,8.8157 -20.11576,0 -36.41895,-3.94986 -36.41895,-8.8157 z"
         id="path2978" />
    </g>
    <g
       fill="#c00104"
       id="g2984">
      <path
         d="m 521.48425,250.13214 v 26.07483 c 13.80158,12.26752 61.33173,11.50043 72.83209,-1.53403 v -26.83632 z"
         id="path2986" />
    </g>
    <g
       fill="#ff212c"
       id="g2988">
      <path
         d="m 521.48425,248.22586 c 0,-4.87141 16.30316,-8.81554 36.41895,-8.81554 20.10998,0 36.41314,3.94413 36.41314,8.81554 0,4.86581 -16.30316,8.8157 -36.41314,8.8157 -20.11579,0 -36.41895,-3.94989 -36.41895,-8.8157 z"
         id="path2990" />
    </g>
    <g
       fill="#c00104"
       id="g2996">
      <path
         d="m 606.97321,224.4523 v 26.06906 c 13.80157,12.26752 61.33166,11.50043 72.83209,-1.53401 v -26.83632 z"
         id="path2998" />
    </g>
    <g
       fill="#ff212c"
       id="g3000">
      <path
         d="m 606.97321,222.54025 c 0,-4.86564 16.30316,-8.81552 36.41888,-8.81552 20.11005,0 36.41321,3.94988 36.41321,8.81552 0,4.87158 -16.30316,8.81571 -36.41321,8.81571 -20.11572,0 -36.41888,-3.94412 -36.41888,-8.81571 z"
         id="path3002" />
    </g>
    <g
       fill="#c00104"
       id="g3008">
      <path
         d="m 536.05872,193.40283 v 26.06923 c 13.80163,12.27312 61.33166,11.50603 72.83209,-1.52841 v -26.84192 z"
         id="path3010" />
    </g>
    <g
       fill="#ff212c"
       id="g3012">
      <path
         d="m 536.05872,191.49095 c 0,-4.86581 16.30316,-8.81569 36.41314,-8.81569 20.11579,0 36.41895,3.94988 36.41895,8.81569 0,4.87142 -16.30316,8.81571 -36.41895,8.81571 -20.10998,0 -36.41314,-3.94429 -36.41314,-8.81571 z"
         id="path3014" />
    </g>
    <g
       fill="#c00104"
       id="g3020">
      <path
         d="m 446.74582,219.09419 v 26.06923 c 13.80163,12.26737 61.33179,11.50604 72.83212,-1.53418 v -26.83632 z"
         id="path3022" />
    </g>
    <g
       fill="#ff212c"
       id="g3024">
      <path
         d="m 446.74582,217.18233 c 0,-4.86583 16.30319,-8.81571 36.41318,-8.81571 20.11575,0 36.41894,3.94988 36.41894,8.81571 0,4.8714 -16.30319,8.81552 -36.41894,8.81552 -20.10999,0 -36.41318,-3.94412 -36.41318,-8.81552 z"
         id="path3026" />
    </g>
    <g
       fill="#c00104"
       id="g3032">
      <path
         d="m 357.43295,244.78555 v 26.06906 c 13.80173,12.26752 61.33179,11.50043 72.83222,-1.53399 v -26.83634 z"
         id="path3034" />
    </g>
    <g
       fill="#ff212c"
       id="g3036">
      <path
         d="m 357.43295,242.8735 c 0,-4.86563 16.30329,-8.81552 36.41895,-8.81552 20.10998,0 36.41327,3.94989 36.41327,8.81552 0,4.87159 -16.30329,8.81571 -36.41327,8.81571 -20.11566,0 -36.41895,-3.94412 -36.41895,-8.81571 z"
         id="path3038" />
    </g>
    <g
       fill="#c00104"
       id="g3044">
      <path
         d="m 268.12018,270.47693 v 26.06906 c 13.8016,12.26752 61.33166,11.50043 72.83209,-1.53421 v -26.83612 z"
         id="path3046" />
    </g>
    <g
       fill="#ff212c"
       id="g3048">
      <path
         d="m 268.12018,268.56488 c 0,-4.87143 16.30319,-8.8157 36.41894,-8.8157 20.10999,0 36.41315,3.94427 36.41315,8.8157 0,4.87158 -16.30316,8.8157 -36.41315,8.8157 -20.11575,0 -36.41894,-3.94412 -36.41894,-8.8157 z"
         id="path3050" />
    </g>
    <g
       fill="#002ec4"
       id="g3056">
      <path
         fill="#002ec4"
         d="m 27.68185,171.23788 v 128.8057 l 144.1473,58.26926 V 229.50697 Z"
         id="path3058" />
    </g>
    <g
       fill="#2da6ff"
       id="g3060">
      <path
         d="M 528.3479,245.7988 V 125.99172 L 171.06213,230.27406 v 128.80586 z"
         id="path3062" />
    </g>
    <g
       fill="#2da6ff"
       id="g3064">
      <path
         d="M 27.68185,172.76631 382.66635,64.654274 527.58081,125.99172 171.82915,231.80248 Z"
         id="path3066" />
    </g>
    <g
       fill="#002ec4"
       id="g3068">
      <path
         d="m 144.22591,180.43129 v 26.06923 c 13.80162,12.26735 61.33177,11.50026 72.8321,-1.5342 V 178.13 Z"
         id="path3070" />
    </g>
    <g
       fill="#2da6ff"
       id="g3072">
      <path
         d="m 144.22591,178.51941 c 0,-4.86582 16.30317,-8.81571 36.41893,-8.81571 20.11,0 36.41317,3.94989 36.41317,8.81571 0,4.8714 -16.30317,8.81552 -36.41317,8.81552 -20.11576,0 -36.41893,-3.94412 -36.41893,-8.81552 z"
         id="path3074" />
    </g>
    <g
       fill="#002ec4"
       id="g3080">
      <path
         d="m 235.07864,153.97859 v 26.06923 c 13.79593,12.27312 61.32599,11.50603 72.8321,-1.52841 v -26.83632 z"
         id="path3082" />
    </g>
    <g
       fill="#2da6ff"
       id="g3084">
      <path
         d="m 235.07864,152.06671 c 0,-4.86581 16.30318,-8.81569 36.41318,-8.81569 20.11575,0 36.41892,3.94988 36.41892,8.81569 0,4.87141 -16.30317,8.82129 -36.41892,8.82129 -20.11,0 -36.41318,-3.94987 -36.41318,-8.82129 z"
         id="path3086" />
    </g>
    <g
       fill="#002ec4"
       id="g3092">
      <path
         d="m 323.6301,127.5259 v 26.07482 c 13.80163,12.26753 61.33175,11.50045 72.83221,-1.53401 v -26.83632 z"
         id="path3094" />
    </g>
    <g
       fill="#2da6ff"
       id="g3096">
      <path
         d="m 323.6301,125.61962 c 0,-4.87141 16.30328,-8.81553 36.41326,-8.81553 20.11567,0 36.41895,3.94412 36.41895,8.81553 0,4.86581 -16.30328,8.8157 -36.41895,8.8157 -20.10998,0 -36.41326,-3.94989 -36.41326,-8.8157 z"
         id="path3098" />
    </g>
    <g
       fill="#002ec4"
       id="g3104">
      <path
         d="m 409.11905,101.84607 v 26.06906 c 13.79593,12.26752 61.32599,11.50043 72.83212,-1.53401 V 99.544799 Z"
         id="path3106" />
    </g>
    <g
       fill="#2da6ff"
       id="g3108">
      <path
         d="m 409.11905,99.934021 c 0,-4.871407 16.30319,-8.815521 36.41318,-8.815521 20.11575,0 36.41894,3.944115 36.41894,8.815521 0,4.871579 -16.30319,8.815699 -36.41894,8.815699 -20.10999,0 -36.41318,-3.94412 -36.41318,-8.815699 z"
         id="path3110" />
    </g>
    <g
       fill="#002ec4"
       id="g3116">
      <path
         d="m 338.19882,70.7966 v 26.069229 c 13.8017,12.267521 61.33176,11.506031 72.83786,-1.53418 V 68.495498 Z"
         id="path3118" />
    </g>
    <g
       fill="#2da6ff"
       id="g3120">
      <path
         d="m 338.19882,68.88472 c 0,-4.865814 16.30893,-8.815697 36.41892,-8.815697 20.11575,0 36.41894,3.949883 36.41894,8.815697 0,4.871407 -16.30319,8.815704 -36.41894,8.815704 -20.10999,0 -36.41892,-3.944298 -36.41892,-8.815704 z"
         id="path3122" />
    </g>
    <g
       fill="#002ec4"
       id="g3128">
      <path
         d="m 248.89169,96.487961 v 26.069229 c 13.79596,12.26735 61.32602,11.50026 72.83222,-1.53418 V 94.186691 Z"
         id="path3130" />
    </g>
    <g
       fill="#2da6ff"
       id="g3132">
      <path
         d="m 248.89169,94.576088 c 0,-4.865822 16.30329,-8.815704 36.41327,-8.815704 20.11566,0 36.41895,3.949883 36.41895,8.815704 0,4.871407 -16.30329,8.815522 -36.41895,8.815522 -20.10998,0 -36.41327,-3.944116 -36.41327,-8.815522 z"
         id="path3134" />
    </g>
    <g
       fill="#002ec4"
       id="g3140">
      <path
         d="m 159.57883,122.17932 v 26.06906 c 13.79594,12.26752 61.32609,11.50043 72.8322,-1.53401 v -26.83632 z"
         id="path3142" />
    </g>
    <g
       fill="#2da6ff"
       id="g3144">
      <path
         d="m 159.57883,120.26727 c 0,-4.8714 16.30326,-8.81552 36.41325,-8.81552 20.11568,0 36.41895,3.94412 36.41895,8.81552 0,4.87159 -16.30327,8.81571 -36.41895,8.81571 -20.10998,0 -36.41325,-3.94412 -36.41325,-8.81571 z"
         id="path3146" />
    </g>
    <g
       fill="#002ec4"
       id="g3152">
      <path
         d="m 70.266037,147.86493 v 26.07481 c 13.80162,12.26752 61.326003,11.50043 72.832153,-1.53418 v -26.83615 z"
         id="path3154" />
    </g>
    <g
       fill="#2da6ff"
       id="g3156">
      <path
         d="m 70.266037,145.95863 c 0,-4.8714 16.30323,-8.81569 36.413223,-8.81569 20.11571,0 36.41893,3.94429 36.41893,8.81569 0,4.86582 -16.30322,8.81571 -36.41893,8.81571 -20.109993,0 -36.413223,-3.94989 -36.413223,-8.81571 z"
         id="path3158" />
    </g>
    <g
       fill="#2da6ff"
       transform="matrix(5.7244485,0,0,5.7244485,-582.68175,-2300.9683)"
       id="g3148">
      <path
         transform="matrix(5.7244485,0,0,5.7244485,-582.68175,-2300.9683)"
         id="path3150"
         d="" />
    </g>
    <g
       fill="#2da6ff"
       transform="matrix(5.7244485,0,0,5.7244485,-582.68175,-2300.9683)"
       id="g3160">
      <path
         transform="matrix(5.7244485,0,0,5.7244485,-582.68175,-2300.9683)"
         id="path3162"
         d="" />
    </g>
    <g
       fill="#2da6ff"
       transform="matrix(5.7244485,0,0,5.7244485,-582.68175,-2300.9683)"
       id="g3184">
      <path
         transform="matrix(5.7244485,0,0,5.7244485,-582.68175,-2300.9683)"
         id="path3186"
         d="" />
    </g>
    <g
       fill="#2da6ff"
       transform="matrix(5.7244485,0,0,5.7244485,-582.68175,-2300.9683)"
       id="g3196">
      <path
         transform="matrix(5.7244485,0,0,5.7244485,-582.68175,-2300.9683)"
         id="path3198"
         d="" />
    </g>
    <g
       fill="#2da6ff"
       transform="matrix(5.7244485,0,0,5.7244485,-582.68175,-2300.9683)"
       id="g3208">
      <path
         transform="matrix(5.7244485,0,0,5.7244485,-582.68175,-2300.9683)"
         id="path3210"
         d="" />
    </g>
    <g
       fill="#2da6ff"
       transform="matrix(5.7244485,0,0,5.7244485,-582.68175,-2300.9683)"
       id="g3220">
      <path
         transform="matrix(5.7244485,0,0,5.7244485,-610.3636,-2361.0373)"
         id="path3222"
         d="" />
    </g>
    <title
       id="title1027">Layer 1</title>
  </g>
</svg>
