<svg width="20" height="20" viewBox="0 0 20 20" fill="currentColor" xmlns="http://www.w3.org/2000/svg">
<path fill-rule="evenodd" clip-rule="evenodd" d="M3.5 6C3.5 5.72386 3.72386 5.5 4 5.5H16C16.2761 5.5 16.5 5.72386 16.5 6C16.5 6.27614 16.2761 6.5 16 6.5H4C3.72386 6.5 3.5 6.27614 3.5 6Z"/>
<path fill-rule="evenodd" clip-rule="evenodd" d="M3.5 13C3.5 12.7239 3.72386 12.5 4 12.5H16C16.2761 12.5 16.5 12.7239 16.5 13C16.5 13.2761 16.2761 13.5 16 13.5H4C3.72386 13.5 3.5 13.2761 3.5 13Z"/>
<path fill-rule="evenodd" clip-rule="evenodd" d="M18 1.5H2C1.72386 1.5 1.5 1.72386 1.5 2V18C1.5 18.2761 1.72386 18.5 2 18.5H18C18.2761 18.5 18.5 18.2761 18.5 18V2C18.5 1.72386 18.2761 1.5 18 1.5ZM2 0C0.895431 0 0 0.895431 0 2V18C0 19.1046 0.895431 20 2 20H18C19.1046 20 20 19.1046 20 18V2C20 0.895431 19.1046 0 18 0H2Z"/>
<path fill-rule="evenodd" clip-rule="evenodd" d="M16 4H4V8H16V4ZM4 3C3.44772 3 3 3.44772 3 4V8C3 8.55228 3.44772 9 4 9H16C16.5523 9 17 8.55228 17 8V4C17 3.44772 16.5523 3 16 3H4Z"/>
<path fill-rule="evenodd" clip-rule="evenodd" d="M16 11H4V16H16V11ZM4 10C3.44772 10 3 10.4477 3 11V16C3 16.5523 3.44772 17 4 17H16C16.5523 17 17 16.5523 17 16V11C17 10.4477 16.5523 10 16 10H4Z"/>
</svg>
