<?xml version="1.0" encoding="UTF-8"?><svg xmlns="http://www.w3.org/2000/svg" viewBox="0 0 259 259"><g id="Ebene_3"><rect style="fill:#fff;" width="259" height="259"/></g><g id="Openstack"><path style="fill:#e52a4a;" d="M198.11,210.95H61.82c-.47,0-.91,0-1.41,.05-8.29-.36-14.82-7.19-14.81-15.48v-35.38c0-.91,.15-1.28,1.2-1.28,11.8,.05,23.6,.05,35.39,0,.91,0,1.21,.22,1.19,1.18-.13,1.96-.1,3.92,.09,5.87,.53,4.26,4.2,7.42,8.49,7.33h74.49c2.01,.05,3.98-.64,5.52-1.94,1.94-1.55,3.06-3.9,3.04-6.37,0-1.67,.05-3.33,0-5,0-.83,.17-1.1,1.06-1.09,5.34,.05,10.67,0,16.01,0h19.71c.91,0,1.13,.25,1.13,1.15v35.52c-.04,8.26-6.54,15.05-14.8,15.45Z"/><path style="fill:#e52a4a;" d="M129.26,47.35h67.82c8.58-.12,15.64,6.74,15.76,15.32,0,.12,0,.24,0,.37v35.26c0,.91-.15,1.24-1.17,1.24-11.87-.04-23.74-.04-35.6,0-.91,0-1.19-.22-1.14-1.14,.08-1.45,0-2.9,0-4.35,0-5.32-3.47-8.86-8.8-8.96H92.49c-5.13,0-8.75,3.16-9.11,8-.12,1.62,0,3.27,0,4.9s0,1.52-1.47,1.52H46.85c-1,0-1.24-.27-1.24-1.26,.04-11.76,.04-23.51,0-35.26-.09-8.55,6.77-15.55,15.32-15.65,.09,0,.19,0,.28,0h68.05Z"/><path style="fill:#e52a4a;" d="M193.89,110.28h17.86c.91,0,1.13,.25,1.13,1.15-.04,11.83-.04,23.67,0,35.52,0,.91-.23,1.21-1.19,1.2h-35.61c-.91,0-1.1-.3-1.1-1.17v-35.6c0-.83,.18-1.08,1.07-1.08,5.95,0,11.9-.02,17.85-.02Z"/><path style="fill:#e52a4a;" d="M83.34,129.22v17.85c0,.83-.23,1.02-1.03,1.02H46.6c-.8,0-1.05-.18-1.05-1.02,.04-11.93,.04-23.87,0-35.81,0-.84,.25-1.01,1.04-1h35.71c.91,0,1.04,.33,1.04,1.12,0,5.94,0,11.88,0,17.84Z"/></g></svg>