<?xml version="1.0" encoding="UTF-8" standalone="no"?>
<svg
   xmlns:dc="http://purl.org/dc/elements/1.1/"
   xmlns:cc="http://creativecommons.org/ns#"
   xmlns:rdf="http://www.w3.org/1999/02/22-rdf-syntax-ns#"
   xmlns:svg="http://www.w3.org/2000/svg"
   xmlns="http://www.w3.org/2000/svg"
   xmlns:sodipodi="http://sodipodi.sourceforge.net/DTD/sodipodi-0.dtd"
   xmlns:inkscape="http://www.inkscape.org/namespaces/inkscape"
   viewBox="0 0 167.37 163.66"
   version="1.1"
   id="svg845"
   sodipodi:docname="open-stack.svg"
   width="167.37"
   height="163.66"
   inkscape:version="1.0.1 (c497b03c, 2020-09-10)">
  <metadata
     id="metadata851">
    <rdf:RDF>
      <cc:Work
         rdf:about="">
        <dc:format>image/svg+xml</dc:format>
        <dc:type
           rdf:resource="http://purl.org/dc/dcmitype/StillImage" />
        <dc:title></dc:title>
      </cc:Work>
    </rdf:RDF>
  </metadata>
  <defs
     id="defs849" />
  <sodipodi:namedview
     pagecolor="#ffffff"
     bordercolor="#666666"
     borderopacity="1"
     objecttolerance="10"
     gridtolerance="10"
     guidetolerance="10"
     inkscape:pageopacity="0"
     inkscape:pageshadow="2"
     inkscape:window-width="1324"
     inkscape:window-height="740"
     id="namedview847"
     showgrid="false"
     fit-margin-top="0"
     fit-margin-left="0"
     fit-margin-right="0"
     fit-margin-bottom="0"
     inkscape:zoom="1.2867167"
     inkscape:cx="-51.142493"
     inkscape:cy="74.771956"
     inkscape:window-x="0"
     inkscape:window-y="25"
     inkscape:window-maximized="0"
     inkscape:current-layer="svg845" />
  <g
     id="Openstack"
     transform="translate(-45.55,-47.34)">
    <path
       style="fill:#e52a4a"
       d="M 198.11,210.95 H 61.82 c -0.47,0 -0.91,0 -1.41,0.05 -8.29,-0.36 -14.82,-7.19 -14.81,-15.48 v -35.38 c 0,-0.91 0.15,-1.28 1.2,-1.28 11.8,0.05 23.6,0.05 35.39,0 0.91,0 1.21,0.22 1.19,1.18 -0.13,1.96 -0.1,3.92 0.09,5.87 0.53,4.26 4.2,7.42 8.49,7.33 h 74.49 c 2.01,0.05 3.98,-0.64 5.52,-1.94 1.94,-1.55 3.06,-3.9 3.04,-6.37 0,-1.67 0.05,-3.33 0,-5 0,-0.83 0.17,-1.1 1.06,-1.09 5.34,0.05 10.67,0 16.01,0 h 19.71 c 0.91,0 1.13,0.25 1.13,1.15 v 35.52 c -0.04,8.26 -6.54,15.05 -14.8,15.45 z"
       id="path836" />
    <path
       style="fill:#e52a4a"
       d="m 129.26,47.35 h 67.82 c 8.58,-0.12 15.64,6.74 15.76,15.32 0,0.12 0,0.24 0,0.37 V 98.3 c 0,0.91 -0.15,1.24 -1.17,1.24 -11.87,-0.04 -23.74,-0.04 -35.6,0 -0.91,0 -1.19,-0.22 -1.14,-1.14 0.08,-1.45 0,-2.9 0,-4.35 0,-5.32 -3.47,-8.86 -8.8,-8.96 H 92.49 c -5.13,0 -8.75,3.16 -9.11,8 -0.12,1.62 0,3.27 0,4.9 0,1.63 0,1.52 -1.47,1.52 H 46.85 c -1,0 -1.24,-0.27 -1.24,-1.26 0.04,-11.76 0.04,-23.51 0,-35.26 -0.09,-8.55 6.77,-15.55 15.32,-15.65 0.09,0 0.19,0 0.28,0 h 68.05 z"
       id="path838" />
    <path
       style="fill:#e52a4a"
       d="m 193.89,110.28 h 17.86 c 0.91,0 1.13,0.25 1.13,1.15 -0.04,11.83 -0.04,23.67 0,35.52 0,0.91 -0.23,1.21 -1.19,1.2 h -35.61 c -0.91,0 -1.1,-0.3 -1.1,-1.17 v -35.6 c 0,-0.83 0.18,-1.08 1.07,-1.08 5.95,0 11.9,-0.02 17.85,-0.02 z"
       id="path840" />
    <path
       style="fill:#e52a4a"
       d="m 83.34,129.22 v 17.85 c 0,0.83 -0.23,1.02 -1.03,1.02 H 46.6 c -0.8,0 -1.05,-0.18 -1.05,-1.02 0.04,-11.93 0.04,-23.87 0,-35.81 0,-0.84 0.25,-1.01 1.04,-1 H 82.3 c 0.91,0 1.04,0.33 1.04,1.12 0,5.94 0,11.88 0,17.84 z"
       id="path842" />
  </g>
</svg>
