<?xml version="1.0" encoding="UTF-8" standalone="no"?>
<svg
   xmlns:dc="http://purl.org/dc/elements/1.1/"
   xmlns:cc="http://creativecommons.org/ns#"
   xmlns:rdf="http://www.w3.org/1999/02/22-rdf-syntax-ns#"
   xmlns:svg="http://www.w3.org/2000/svg"
   xmlns="http://www.w3.org/2000/svg"
   xmlns:sodipodi="http://sodipodi.sourceforge.net/DTD/sodipodi-0.dtd"
   xmlns:inkscape="http://www.inkscape.org/namespaces/inkscape"
   width="2500"
   height="2500"
   viewBox="0 0 257.02811 257"
   preserveAspectRatio="xMidYMid"
   version="1.1"
   id="svg835"
   sodipodi:docname="prometheus.svg"
   inkscape:version="1.0.1 (c497b03c, 2020-09-10)">
  <metadata
     id="metadata841">
    <rdf:RDF>
      <cc:Work
         rdf:about="">
        <dc:format>image/svg+xml</dc:format>
        <dc:type
           rdf:resource="http://purl.org/dc/dcmitype/StillImage" />
        <dc:title></dc:title>
      </cc:Work>
    </rdf:RDF>
  </metadata>
  <defs
     id="defs839" />
  <sodipodi:namedview
     pagecolor="#ffffff"
     bordercolor="#666666"
     borderopacity="1"
     objecttolerance="10"
     gridtolerance="10"
     guidetolerance="10"
     inkscape:pageopacity="0"
     inkscape:pageshadow="2"
     inkscape:window-width="1724"
     inkscape:window-height="1032"
     id="namedview837"
     showgrid="false"
     inkscape:zoom="0.28594378"
     inkscape:cx="1245"
     inkscape:cy="1250"
     inkscape:window-x="0"
     inkscape:window-y="25"
     inkscape:window-maximized="0"
     inkscape:current-layer="svg835" />
  <path
     d="M 128.51506,0.667 C 57.825056,0.667 0.51405622,57.971 0.51405622,128.664 c 0,70.69 57.31099978,127.998 128.00100378,127.998 70.69,0 127.999,-57.308 127.999,-127.998 0,-70.694 -57.311,-127.997 -127.999,-127.997 z m 0,239.56 c -20.112,0 -36.419004,-13.435 -36.419004,-30.004 h 72.838004 c 0,16.566 -16.306,30.004 -36.419,30.004 z m 60.153,-39.94 H 68.356056 V 178.47 H 188.67006 v 21.816 h -0.002 z m -0.432,-33.045 H 68.699056 c -0.398,-0.458 -0.804,-0.91 -1.188,-1.375 -12.315,-14.954 -15.216,-22.76 -18.032,-30.716 -0.048,-0.262 14.933,3.06 25.556,5.45 0,0 5.466,1.265 13.458,2.722 -7.673,-8.994 -12.23,-20.428 -12.23,-32.116 0,-25.658 19.68,-48.079 12.58,-66.201 6.91,0.562 14.300004,14.583 14.800004,36.505 7.346,-10.152 10.42,-28.69 10.42,-40.056 0,-11.769 7.755,-25.44 15.512,-25.907 -6.915,11.396 1.79,21.165 9.53,45.4 2.902,9.103 2.532,24.423 4.772,34.138 0.744,-20.178 4.213,-49.62 17.014,-59.784 -5.647,12.8 0.836,28.818 5.27,36.518 7.154,12.424 11.49,21.836 11.49,39.638 0,11.936 -4.407,23.173 -11.84,31.958 8.452,-1.586 14.289,-3.016 14.289,-3.016 l 27.45,-5.355 c 0.002,-0.002 -3.987,16.401 -19.314,32.197 z"
     fill="#da4e31"
     id="path833" />
</svg>
