<svg width="20" height="20" viewBox="0 0 20 20" fill="currentColor" xmlns="http://www.w3.org/2000/svg">
<path d="M0.0198975 3.47113C0.0198975 2.26363 0.999897 1.28363 2.2074 1.28363H17.8324C19.0399 1.28363 20.0199 2.26363 20.0199 3.47113V16.5961C20.0199 17.1763 19.7894 17.7327 19.3792 18.1429C18.969 18.5532 18.4126 18.7836 17.8324 18.7836H2.2074C1.62724 18.7836 1.07084 18.5532 0.660601 18.1429C0.250366 17.7327 0.0198975 17.1763 0.0198975 16.5961L0.0198975 3.47113ZM2.2074 3.15863C2.12452 3.15863 2.04503 3.19155 1.98643 3.25016C1.92782 3.30876 1.8949 3.38825 1.8949 3.47113V16.5961C1.8949 16.7686 2.0349 16.9086 2.2074 16.9086H17.8324C17.9153 16.9086 17.9948 16.8757 18.0534 16.8171C18.112 16.7585 18.1449 16.679 18.1449 16.5961V3.47113C18.1449 3.38825 18.112 3.30876 18.0534 3.25016C17.9948 3.19155 17.9153 3.15863 17.8324 3.15863H2.2074ZM9.0824 10.0336C9.08236 10.1567 9.05805 10.2786 9.01086 10.3923C8.96367 10.5059 8.89453 10.6092 8.8074 10.6961L5.9949 13.5086C5.88031 13.632 5.73455 13.7222 5.57299 13.7698C5.41143 13.8173 5.24005 13.8203 5.07689 13.7786C4.91374 13.7369 4.76485 13.652 4.64593 13.5327C4.527 13.4135 4.44244 13.2644 4.40115 13.1011C4.35938 12.9382 4.36229 12.7669 4.40958 12.6055C4.45688 12.444 4.5468 12.2983 4.6699 12.1836L6.8199 10.0336L4.6699 7.88363C4.54649 7.76904 4.45628 7.62329 4.40876 7.46173C4.36124 7.30017 4.35818 7.12878 4.3999 6.96562C4.44161 6.80247 4.52656 6.65359 4.6458 6.53466C4.76503 6.41574 4.91413 6.33117 5.0774 6.28988C5.24037 6.24811 5.41158 6.25102 5.57304 6.29832C5.73449 6.34561 5.88022 6.43553 5.9949 6.55863L8.8074 9.37113C8.98365 9.54613 9.0824 9.78488 9.0824 10.0336ZM10.9574 11.9086H14.7074C14.956 11.9086 15.1945 12.0074 15.3703 12.1832C15.5461 12.359 15.6449 12.5975 15.6449 12.8461C15.6449 13.0948 15.5461 13.3332 15.3703 13.509C15.1945 13.6849 14.956 13.7836 14.7074 13.7836H10.9574C10.7088 13.7836 10.4703 13.6849 10.2945 13.509C10.1187 13.3332 10.0199 13.0948 10.0199 12.8461C10.0199 12.5975 10.1187 12.359 10.2945 12.1832C10.4703 12.0074 10.7088 11.9086 10.9574 11.9086Z"/>
</svg>
