<svg xmlns="http://www.w3.org/2000/svg" fill="none" viewBox="0 0 20 21" aria-hidden="true">
  <path fill="#F37726" d="M10.268 15.77c-3.205 0-6.021-1.15-7.478-2.85a7.972 7.972 0 0014.956 0c-1.453 1.7-4.26 2.85-7.478 2.85zM10.268 4.724c3.205 0 6.021 1.15 7.478 2.85a7.973 7.973 0 00-14.956 0c1.457-1.703 4.259-2.85 7.478-2.85z"/>
  <path fill="#4E4E4E" d="M4.338 8.121h-.452v3.692h.452v-.947l.234-.26.863 1.207h.562L4.889 10.33l.967-1.035H5.31l-.743.869a5.222 5.222 0 00-.219.286h-.01V8.12zM8.346 10.638c.01-.052.015-.12.015-.213 0-.463-.213-1.18-1.04-1.18-.733 0-1.18.592-1.18 1.351 0 .76.463 1.274 1.237 1.274.4 0 .682-.088.843-.161l-.083-.328c-.167.073-.37.13-.697.13-.463 0-.853-.254-.863-.873h1.768zm-1.763-.328c.036-.317.234-.738.702-.738.515 0 .64.452.634.738H6.583zM8.928 11.813h.457V10.47c0-.072.006-.15.016-.213.062-.343.291-.582.614-.582.062 0 .109 0 .155.01v-.431c-.041-.006-.078-.01-.124-.01-.307 0-.588.212-.702.55h-.016l-.02-.499h-.401c.016.234.02.49.02.785v1.732zM10.65 11.813h.457V10.3c0-.078.01-.156.03-.213.084-.255.318-.468.614-.468.432 0 .583.338.583.743v1.45h.457v-1.497c0-.863-.54-1.07-.889-1.07a.932.932 0 00-.832.467h-.01l-.026-.416h-.406c.016.208.021.416.021.681v1.836zM15.556 10.638c.01-.052.015-.12.015-.213 0-.463-.213-1.18-1.04-1.18-.733 0-1.18.592-1.18 1.351 0 .76.463 1.274 1.238 1.274.4 0 .68-.088.842-.161l-.083-.328c-.167.073-.37.13-.697.13-.463 0-.853-.254-.863-.873h1.768zm-1.763-.328c.037-.317.234-.738.702-.738.515 0 .64.452.634.738h-1.336zM16.138 11.813h.458V8.12h-.458v3.692z"/>
</svg>
