<svg width="20" height="21" viewBox="0 0 20 21" fill="none" xmlns="http://www.w3.org/2000/svg">
<path d="M9.47188 13.1458L9.29883 12.0555C9.18922 12.0151 9.07385 11.9603 8.95271 11.8911C8.83157 11.8219 8.72485 11.7498 8.63255 11.6748L7.61151 12.1421L6.80679 10.723L7.74131 10.0394C7.72977 9.98749 7.72256 9.92836 7.71967 9.86202C7.71679 9.79568 7.71535 9.73655 7.71535 9.68464C7.71535 9.63272 7.71679 9.57359 7.71967 9.50725C7.72256 9.44091 7.72977 9.38179 7.74131 9.32987L6.80679 8.64629L7.61151 7.22722L8.63255 7.69447C8.72485 7.61948 8.83157 7.54737 8.95271 7.47815C9.07385 7.40893 9.18922 7.35701 9.29883 7.3224L9.47188 6.22348H11.064L11.2371 7.31374C11.3467 7.35412 11.4635 7.40748 11.5875 7.47382C11.7115 7.54016 11.8168 7.61371 11.9033 7.69447L12.9244 7.22722L13.7291 8.64629L12.7946 9.31256C12.8061 9.37025 12.8133 9.43226 12.8162 9.4986C12.8191 9.56494 12.8206 9.62695 12.8206 9.68464C12.8206 9.74232 12.8191 9.80289 12.8162 9.86635C12.8133 9.9298 12.8061 9.99037 12.7946 10.0481L13.7291 10.723L12.9244 12.1421L11.9033 11.6748C11.811 11.7498 11.7058 11.8233 11.5875 11.8955C11.4693 11.9676 11.3524 12.0209 11.2371 12.0555L11.064 13.1458H9.47188ZM10.2679 10.8095C10.5795 10.8095 10.8448 10.6999 11.064 10.4807C11.2832 10.2615 11.3928 9.99614 11.3928 9.68464C11.3928 9.37313 11.2832 9.10778 11.064 8.88857C10.8448 8.66936 10.5795 8.55976 10.2679 8.55976C9.95645 8.55976 9.69109 8.66936 9.47188 8.88857C9.25268 9.10778 9.14307 9.37313 9.14307 9.68464C9.14307 9.99614 9.25268 10.2615 9.47188 10.4807C9.69109 10.6999 9.95645 10.8095 10.2679 10.8095Z" fill="#4E4E4E"/>
<path d="M10.2679 15.3248C7.06321 15.3248 4.24657 14.1746 2.79019 12.4761C3.35527 14.0041 4.37489 15.3223 5.71182 16.2533C7.04873 17.1843 8.63881 17.6834 10.2679 17.6834C11.8971 17.6834 13.4871 17.1843 14.8241 16.2533C16.161 15.3223 17.1806 14.0041 17.7457 12.4761C16.2929 14.1746 13.4869 15.3248 10.2679 15.3248Z" fill="#F37726"/>
<path d="M10.2679 4.27975C13.4727 4.27975 16.2893 5.4299 17.7457 7.1284C17.1806 5.6004 16.161 4.28218 14.8241 3.35118C13.4871 2.42017 11.8971 1.92108 10.2679 1.92108C8.63881 1.92108 7.04873 2.42017 5.71182 3.35118C4.37489 4.28218 3.35527 5.6004 2.79019 7.1284C4.24657 5.42634 7.04897 4.27975 10.2679 4.27975Z" fill="#F37726"/>
</svg>
