<svg width="21" height="21" viewBox="0 0 21 21" fill="none" xmlns="http://www.w3.org/2000/svg">
<path d="M10.5357 17.1473C6.46941 17.1473 2.89553 15.6879 1.04761 13.5327C1.76461 15.4716 3.05835 17.1442 4.75471 18.3255C6.45104 19.5068 8.46862 20.14 10.5357 20.14C12.6029 20.14 14.6204 19.5068 16.3168 18.3255C18.0131 17.1442 19.3069 15.4716 20.0239 13.5327C18.1805 15.6879 14.6201 17.1473 10.5357 17.1473Z" fill="#F37726"/>
<path d="M10.5357 3.13286C14.6021 3.13286 18.176 4.59223 20.0239 6.74738C19.3069 4.80858 18.0131 3.13595 16.3168 1.95465C14.6204 0.773346 12.6029 0.140076 10.5357 0.140076C8.46862 0.140076 6.45104 0.773346 4.75471 1.95465C3.05835 3.13595 1.76461 4.80858 1.04761 6.74738C2.89553 4.58771 6.45135 3.13286 10.5357 3.13286Z" fill="#F37726"/>
<path d="M9.52567 14.3825L9.30608 12.9991C9.16701 12.9479 9.02063 12.8784 8.86692 12.7905C8.71321 12.7027 8.5778 12.6112 8.46069 12.5161L7.16514 13.1089L6.14407 11.3083L7.32983 10.441C7.31519 10.3751 7.30604 10.3001 7.30238 10.2159C7.29872 10.1317 7.29689 10.0567 7.29689 9.99083C7.29689 9.92496 7.29872 9.84993 7.30238 9.76576C7.30604 9.68159 7.31519 9.60656 7.32983 9.54069L6.14407 8.67333L7.16514 6.87274L8.46069 7.46562C8.5778 7.37046 8.71321 7.27897 8.86692 7.19114C9.02063 7.1033 9.16701 7.03743 9.30608 6.99351L9.52567 5.59915H11.5458L11.7654 6.98253C11.9045 7.03377 12.0527 7.10147 12.2101 7.18565C12.3675 7.26982 12.501 7.36314 12.6108 7.46562L13.9064 6.87274L14.9274 8.67333L13.7417 9.51873C13.7563 9.59192 13.7655 9.67061 13.7691 9.75478C13.7728 9.83895 13.7746 9.91764 13.7746 9.99083C13.7746 10.064 13.7728 10.1409 13.7691 10.2214C13.7655 10.3019 13.7563 10.3788 13.7417 10.452L14.9274 11.3083L13.9064 13.1089L12.6108 12.5161C12.4937 12.6112 12.3601 12.7045 12.2101 12.796C12.06 12.8875 11.9118 12.9552 11.7654 12.9991L11.5458 14.3825H9.52567ZM10.5358 11.4181C10.931 11.4181 11.2677 11.2791 11.5458 11.0009C11.824 10.7228 11.9631 10.3861 11.9631 9.99083C11.9631 9.59558 11.824 9.25889 11.5458 8.98075C11.2677 8.70261 10.931 8.56354 10.5358 8.56354C10.1405 8.56354 9.80381 8.70261 9.52567 8.98075C9.24753 9.25889 9.10846 9.59558 9.10846 9.99083C9.10846 10.3861 9.24753 10.7228 9.52567 11.0009C9.80381 11.2791 10.1405 11.4181 10.5358 11.4181Z" fill="#4E4E4E"/>
</svg>
