<svg xmlns="http://www.w3.org/2000/svg" fill="none" viewBox="0 0 20 21" aria-hidden="true">
  <path fill="#767677" d="M17.309 1.434A1.207 1.207 0 1116.052.302a1.193 1.193 0 011.257 1.132z"/>
  <path fill="#F37726" d="M10.268 15.38c-3.205 0-6.021-1.15-7.478-2.85a7.973 7.973 0 0014.956 0c-1.453 1.7-4.26 2.85-7.478 2.85zM10.268 4.335c3.205 0 6.021 1.15 7.478 2.848a7.973 7.973 0 00-14.956 0c1.457-1.702 4.259-2.848 7.478-2.848z"/>
  <path fill="#9E9E9E" d="M5.856 18.685a1.52 1.52 0 11-1.584-1.424 1.507 1.507 0 011.584 1.424z"/>
  <path fill="#616262" d="M3.154 3.948a.876.876 0 11.851-.912.887.887 0 01-.85.912z"/>
  <path fill="#4E4E4E" d="M7.244 12.04H7.7V8.35h-.457v3.691zM10.24 10.496c0-.499-.187-1.024-.956-1.024a1.63 1.63 0 00-.832.218l.104.307c.176-.12.42-.187.66-.187.515-.005.572.374.572.577v.052c-.972-.005-1.513.328-1.513.936 0 .364.26.723.77.723.358 0 .628-.177.769-.375h.015l.037.317h.41a4.223 4.223 0 01-.036-.603v-.94zm-.442.697a.517.517 0 01-.02.145.635.635 0 01-.62.422c-.228 0-.426-.136-.426-.437 0-.489.567-.577 1.066-.567v.437zM10.98 11.39c0 .224-.01.479-.02.65h.39l.026-.41h.01c.193.327.484.468.848.468.561 0 1.133-.448 1.133-1.347 0-.76-.436-1.28-1.066-1.28-.405 0-.696.178-.857.458h-.01V8.35h-.453v3.041zm.453-.806c0-.072.01-.135.026-.192.094-.343.385-.561.692-.561.494 0 .754.431.754.936 0 .577-.281.967-.765.967a.702.702 0 01-.707-.702v-.447z"/>
</svg>
