<svg width="21" height="21" viewBox="0 0 21 21" fill="none" xmlns="http://www.w3.org/2000/svg">
<path d="M10.7527 17.1473C6.68643 17.1473 3.11254 15.6879 1.26462 13.5328C1.98162 15.4716 3.27537 17.1442 4.97172 18.3255C6.66806 19.5068 8.68563 20.1401 10.7527 20.1401C12.8199 20.1401 14.8374 19.5068 16.5338 18.3255C18.2301 17.1442 19.5239 15.4716 20.2409 13.5328C18.3975 15.6879 14.8372 17.1473 10.7527 17.1473Z" fill="#F37726"/>
<path d="M10.7527 3.1329C14.8191 3.1329 18.393 4.59226 20.2409 6.74741C19.5239 4.80861 18.2301 3.13598 16.5338 1.95468C14.8374 0.773377 12.8199 0.140106 10.7527 0.140106C8.68563 0.140106 6.66806 0.773377 4.97172 1.95468C3.27537 3.13598 1.98162 4.80861 1.26462 6.74741C3.11254 4.58775 6.66836 3.1329 10.7527 3.1329Z" fill="#F37726"/>
<g clip-path="url(#clip0_11_986)">
<path d="M5.09467 11.4502V11.1787L5.43362 11.12V8.65475L5.09467 8.59605V8.32457H5.97736L6.94479 10.7018H6.95891L7.8981 8.32457H8.80903V8.59605L8.47008 8.65475V11.12L8.80903 11.1787V11.4502H7.72156V11.1787L8.07463 11.12V8.89687H8.06757L7.09308 11.3402H6.82474L5.80788 8.90421H5.80082L5.81494 10.2102V11.12L6.18214 11.1787V11.4502H5.09467ZM9.63523 12.3894C9.59287 12.3894 9.5505 12.382 9.50813 12.3747C9.4587 12.3674 9.41633 12.36 9.38808 12.3527L9.43045 12.0225C9.46576 12.0299 9.494 12.0299 9.52931 12.0299C9.57168 12.0299 9.59993 12.0299 9.61405 12.0299C9.69879 12.0299 9.77647 11.9932 9.8259 11.9271C9.88945 11.8391 9.93888 11.7437 9.98125 11.6483L10.0801 11.4062L9.28922 9.43249L9.04913 9.3958V9.12433H9.98831V9.3958L9.71997 9.43983L10.1578 10.5991L10.2637 10.8999H10.2778L10.7933 9.43249L10.5109 9.38847V9.11699H11.4289V9.38847L11.1958 9.42515L10.3131 11.8024C10.2778 11.9051 10.2213 12.0078 10.1649 12.1032C10.1084 12.1913 10.0377 12.2573 9.953 12.3087C9.85414 12.3674 9.74822 12.3967 9.63523 12.3894ZM12.7211 11.4942C12.5446 11.4942 12.361 11.4649 12.1915 11.4135C12.015 11.3548 11.8526 11.2668 11.7043 11.1567V10.489H12.022L12.0926 10.9806C12.1844 11.0393 12.2833 11.0834 12.3822 11.1127C12.4952 11.1421 12.6081 11.1641 12.7211 11.1567C12.8412 11.1641 12.9612 11.1421 13.0742 11.0907C13.166 11.054 13.2366 10.988 13.2931 10.9073C13.392 10.7458 13.399 10.5477 13.3072 10.379C13.2507 10.2983 13.1731 10.2322 13.0883 10.1882C12.9542 10.1222 12.82 10.0708 12.6717 10.0415C12.4881 9.99745 12.3116 9.93142 12.1491 9.84337C12.015 9.77 11.9091 9.66728 11.8243 9.53521C11.7466 9.41048 11.7113 9.27107 11.7113 9.12433C11.7113 8.97025 11.7537 8.81616 11.8384 8.6841C11.9232 8.55203 12.0432 8.4493 12.1844 8.37593C12.3469 8.29522 12.5234 8.25854 12.707 8.26588C12.8977 8.25854 13.0883 8.29522 13.2649 8.3686C13.4132 8.42729 13.5473 8.508 13.6674 8.61072V9.23438H13.3567L13.286 8.78682C13.2154 8.72812 13.1378 8.69143 13.053 8.65475C12.94 8.61806 12.827 8.60339 12.707 8.60339C12.6011 8.60339 12.4952 8.6254 12.4034 8.66942C12.3186 8.70611 12.248 8.77214 12.1986 8.84551C12.1491 8.92622 12.128 9.02161 12.128 9.10965C12.128 9.1977 12.1491 9.27841 12.1915 9.34444C12.248 9.42515 12.3257 9.48385 12.4104 9.52054C12.5446 9.57923 12.6788 9.63059 12.82 9.65994C13.1307 9.74799 13.3708 9.86538 13.5332 10.0268C13.6956 10.1809 13.7804 10.3937 13.7804 10.6211C13.7804 10.7825 13.738 10.9366 13.6462 11.0687C13.5544 11.2008 13.4273 11.3108 13.279 11.3695C13.1024 11.4649 12.9118 11.5016 12.7211 11.4942ZM14.8749 11.4502V11.1861L15.2138 11.1274V8.64007H14.5289L14.4724 9.07297H14.1687V8.32457H16.6685V9.07297H16.3649L16.3013 8.64007H15.6164V11.12L15.9553 11.1787V11.4502H14.8749Z" fill="#616161"/>
<path d="M4.88282 12.8883C4.49443 12.7709 4.21903 12.5948 4.04956 12.3453C3.88714 12.0812 3.8024 11.7657 3.80946 11.4429V10.8045C3.80946 10.5697 3.76003 10.3937 3.65411 10.2616C3.54819 10.1295 3.3999 10.0708 3.18805 10.0708V9.61591C3.3999 9.61591 3.55525 9.54988 3.65411 9.42515C3.75297 9.30041 3.80946 9.11698 3.80946 8.88219V8.24386C3.8024 7.92102 3.88714 7.60552 4.05662 7.34138C4.21903 7.09192 4.49443 6.91583 4.88282 6.79843L5.00286 7.16529C4.80514 7.22399 4.63566 7.3634 4.5368 7.55416C4.43794 7.76694 4.38851 8.00907 4.39557 8.24386V8.88219C4.40263 9.0803 4.3532 9.2784 4.26846 9.4545C4.18373 9.61591 4.05662 9.75532 3.8942 9.83603C4.05662 9.92408 4.19079 10.0561 4.27553 10.2249C4.36026 10.401 4.40263 10.5991 4.40263 10.7972V11.4355C4.39557 11.6703 4.445 11.9125 4.54386 12.1252C4.64273 12.316 4.80514 12.4554 5.00993 12.5141L4.88282 12.8883Z" fill="#F37726"/>
<path d="M16.7462 12.8516L16.6262 12.4921C16.8239 12.4334 16.9863 12.294 17.0781 12.1106C17.177 11.8978 17.2264 11.6703 17.2193 11.4355V10.8119C17.2123 10.6138 17.2617 10.4157 17.3535 10.2396C17.4453 10.0708 17.5865 9.93876 17.7631 9.86538C17.5936 9.79201 17.4453 9.66728 17.3535 9.49852C17.2617 9.32243 17.2193 9.12433 17.2193 8.91889V8.28789C17.2264 8.0531 17.177 7.81831 17.0781 7.60553C16.9863 7.41476 16.8168 7.28269 16.6262 7.22399L16.7462 6.86447C17.1205 6.97453 17.3959 7.15062 17.5583 7.39275C17.7278 7.65689 17.8125 7.96505 17.7984 8.28055V8.91155C17.7984 9.139 17.8478 9.32243 17.9467 9.44716C18.0455 9.5719 18.2009 9.63793 18.4127 9.63793V10.0855C18.2009 10.0855 18.0455 10.1515 17.9467 10.2763C17.8478 10.401 17.7984 10.5844 17.7984 10.8119V11.4355C17.8054 11.751 17.7207 12.0592 17.5583 12.3233C17.3959 12.5581 17.1205 12.7342 16.7462 12.8516Z" fill="#F37726"/>
</g>
<defs>
<clipPath id="clip0_11_986">
<rect width="15.2247" height="6.08987" fill="white" transform="translate(3.18805 6.79843)"/>
</clipPath>
</defs>
</svg>
