<svg width="20" height="21" viewBox="0 0 20 21" fill="none" xmlns="http://www.w3.org/2000/svg">
<path d="M17.309 1.82409C17.3236 2.06331 17.2667 2.30147 17.1455 2.50822C17.0243 2.71498 16.8443 2.88098 16.6284 2.98507C16.4125 3.08916 16.1705 3.12663 15.9333 3.09271C15.696 3.05879 15.4742 2.95502 15.2962 2.79461C15.1181 2.6342 14.9918 2.42441 14.9334 2.19198C14.875 1.95954 14.8871 1.71497 14.9682 1.48943C15.0492 1.2639 15.1956 1.06759 15.3886 0.925533C15.5816 0.783473 15.8126 0.702088 16.052 0.691743C16.209 0.683105 16.3662 0.705586 16.5144 0.757893C16.6627 0.8102 16.7992 0.891303 16.916 0.996535C17.0328 1.10177 17.1277 1.22906 17.1951 1.37108C17.2626 1.5131 17.3013 1.66706 17.309 1.82409Z" fill="#767677"/>
<path d="M10.2679 15.7694C7.06321 15.7694 4.24657 14.6193 2.79019 12.9207C3.35527 14.4488 4.37489 15.767 5.71182 16.698C7.04873 17.629 8.63881 18.1281 10.2679 18.1281C11.8971 18.1281 13.4871 17.629 14.8241 16.698C16.161 15.767 17.1806 14.4488 17.7457 12.9207C16.2929 14.6193 13.4869 15.7694 10.2679 15.7694Z" fill="#F37726"/>
<path d="M10.2679 4.72442C13.4727 4.72442 16.2893 5.87457 17.7457 7.57308C17.1806 6.04508 16.161 4.72685 14.8241 3.79585C13.4871 2.86484 11.8971 2.36575 10.2679 2.36575C8.63881 2.36575 7.04873 2.86484 5.71182 3.79585C4.37489 4.72685 3.35527 6.04508 2.79019 7.57308C4.24657 5.87101 7.04897 4.72442 10.2679 4.72442Z" fill="#F37726"/>
<path d="M5.85624 19.0748C5.87504 19.3761 5.80371 19.6762 5.65134 19.9368C5.49898 20.1975 5.27247 20.4068 5.00068 20.5383C4.7289 20.6697 4.42414 20.7173 4.12523 20.6749C3.82632 20.6325 3.5468 20.5021 3.32227 20.3003C3.09775 20.0984 2.93838 19.8343 2.86449 19.5416C2.79059 19.2489 2.80551 18.9408 2.90734 18.6566C3.00917 18.3724 3.1933 18.1249 3.43627 17.9458C3.67925 17.7666 3.97006 17.6638 4.27167 17.6505C4.46925 17.6399 4.66697 17.6684 4.85355 17.7342C5.04012 17.8001 5.21189 17.9021 5.35904 18.0343C5.50619 18.1666 5.62584 18.3266 5.71115 18.5051C5.79646 18.6836 5.84576 18.8772 5.85624 19.0748Z" fill="#9E9E9E"/>
<path d="M3.15443 4.33735C2.98174 4.34212 2.81151 4.29572 2.66512 4.204C2.51874 4.11227 2.40274 3.97931 2.33172 3.82184C2.2607 3.66436 2.23783 3.4894 2.26598 3.31897C2.29414 3.14853 2.37206 2.99021 2.48994 2.86394C2.60783 2.73767 2.76042 2.64907 2.92853 2.6093C3.09663 2.56952 3.27275 2.58033 3.43473 2.64038C3.5967 2.70043 3.73731 2.80703 3.83886 2.94677C3.94041 3.08652 3.99838 3.25318 4.00547 3.42578C4.01221 3.65917 3.92663 3.8858 3.76729 4.05647C3.60796 4.22714 3.38773 4.32807 3.15443 4.33735Z" fill="#616262"/>
<path d="M6.23825 12.4302H6.69581V10.9119C6.69581 10.8287 6.701 10.7612 6.727 10.6936C6.81539 10.4492 7.04417 10.2412 7.34054 10.2412C7.7721 10.2412 7.92288 10.5792 7.92288 10.9847V12.4302H8.38044V10.9327C8.38044 10.0696 7.83969 9.86164 7.50173 9.86164C7.33014 9.86164 7.16896 9.90844 7.03377 9.98643C6.89339 10.0644 6.779 10.184 6.7062 10.314H6.69581V8.73856H6.23825V12.4302Z" fill="#F37726"/>
<path d="M11.2281 9.91364H10.7706V11.4527C10.7706 11.5411 10.755 11.6243 10.729 11.6867C10.6458 11.8946 10.4326 12.1078 10.1258 12.1078C9.71508 12.1078 9.5643 11.7803 9.5643 11.3019V9.91364H9.10674V11.3851C9.10674 12.2638 9.57989 12.4874 9.97505 12.4874C10.4222 12.4874 10.6926 12.2222 10.807 12.0194H10.8174L10.8434 12.4302H11.2489C11.2333 12.2326 11.2281 12.0038 11.2281 11.7387V9.91364Z" fill="#F37726"/>
<path d="M11.9861 11.7803C11.9861 12.0038 11.9757 12.2586 11.9653 12.4302H12.3553L12.3813 12.0194H12.3917C12.5841 12.347 12.8752 12.4874 13.2392 12.4874C13.8007 12.4874 14.3727 12.0402 14.3727 11.1407C14.3727 10.3816 13.9359 9.86164 13.3068 9.86164C12.9012 9.86164 12.6101 10.0384 12.4489 10.3192H12.4385V8.73856H11.9861V11.7803ZM12.4385 10.9743C12.4385 10.9015 12.4489 10.8391 12.4645 10.782C12.5581 10.4388 12.8492 10.2204 13.156 10.2204C13.65 10.2204 13.9099 10.652 13.9099 11.1563C13.9099 11.7335 13.6292 12.1234 13.1456 12.1234C12.8128 12.1234 12.5425 11.905 12.4593 11.5879C12.4437 11.5359 12.4385 11.4787 12.4385 11.4215V10.9743Z" fill="#F37726"/>
</svg>
