<svg width="21" height="21" viewBox="0 0 21 21" fill="none" xmlns="http://www.w3.org/2000/svg">
<path d="M10.9351 17.2325C6.86877 17.2325 3.29488 15.7731 1.44696 13.618C2.16396 15.5568 3.45771 17.2294 5.15406 18.4107C6.8504 19.592 8.86797 20.2253 10.9351 20.2253C13.0022 20.2253 15.0197 19.592 16.7161 18.4107C18.4125 17.2294 19.7062 15.5568 20.4232 13.618C18.5798 15.7731 15.0195 17.2325 10.9351 17.2325Z" fill="#F37726"/>
<path d="M10.9351 3.21804C15.0014 3.21804 18.5753 4.6774 20.4232 6.83255C19.7062 4.89375 18.4125 3.22112 16.7161 2.03982C15.0197 0.85852 13.0022 0.22525 10.9351 0.22525C8.86797 0.22525 6.8504 0.85852 5.15406 2.03982C3.45771 3.22112 2.16396 4.89375 1.44696 6.83255C3.29488 4.67289 6.8507 3.21804 10.9351 3.21804Z" fill="#F37726"/>
<path d="M3.48556 6.49026H2.91159V11.1744H3.48556V9.97367L3.78244 9.6438L4.8776 11.1744H5.59012L4.18488 9.29414L5.41199 7.98127H4.71927L3.77584 9.08303C3.68348 9.19518 3.57792 9.33372 3.49875 9.44588H3.48556V6.49026Z" fill="#4E4E4E"/>
<path d="M8.57047 9.68338C8.58366 9.61741 8.59026 9.53165 8.59026 9.41289C8.59026 8.82573 8.31977 7.91529 7.27079 7.91529C6.34056 7.91529 5.77319 8.66739 5.77319 9.63061C5.77319 10.5938 6.36036 11.247 7.34336 11.247C7.85136 11.247 8.20762 11.1348 8.41213 11.0424L8.30658 10.6268C8.09546 10.7192 7.83816 10.7917 7.42253 10.7917C6.83537 10.7917 6.34056 10.4685 6.32737 9.68338H8.57047ZM6.33397 9.26775C6.38015 8.86531 6.63085 8.33093 7.22461 8.33093C7.87775 8.33093 8.03608 8.9049 8.02949 9.26775H6.33397Z" fill="#4E4E4E"/>
<path d="M9.30922 11.1744H9.88979V9.47227C9.88979 9.37991 9.89638 9.28095 9.90958 9.20178C9.98875 8.76635 10.279 8.46287 10.6881 8.46287C10.7672 8.46287 10.8266 8.46287 10.886 8.47607V7.92849C10.8332 7.92189 10.787 7.91529 10.7276 7.91529C10.3384 7.91529 9.98215 8.18578 9.83701 8.61461H9.81722L9.79083 7.98127H9.28283C9.30262 8.27815 9.30922 8.60142 9.30922 8.97747V11.1744Z" fill="#4E4E4E"/>
<path d="M11.4933 11.1744H12.0739V9.25456C12.0739 9.1556 12.0871 9.05664 12.1135 8.98406C12.219 8.66079 12.5159 8.3903 12.8919 8.3903C13.4395 8.3903 13.6308 8.81913 13.6308 9.33372V11.1744H14.2114V9.27435C14.2114 8.17919 13.5253 7.91529 13.0833 7.91529C12.5555 7.91529 12.186 8.21217 12.0277 8.50906H12.0145L11.9815 7.98127H11.4669C11.4867 8.24516 11.4933 8.50906 11.4933 8.84552V11.1744Z" fill="#4E4E4E"/>
<path d="M17.7191 9.68338C17.7323 9.61741 17.7389 9.53165 17.7389 9.41289C17.7389 8.82573 17.4684 7.91529 16.4195 7.91529C15.4892 7.91529 14.9219 8.66739 14.9219 9.63061C14.9219 10.5938 15.509 11.247 16.492 11.247C17 11.247 17.3563 11.1348 17.5608 11.0424L17.4552 10.6268C17.2441 10.7192 16.9868 10.7917 16.5712 10.7917C15.984 10.7917 15.4892 10.4685 15.476 9.68338H17.7191ZM15.4826 9.26775C15.5288 8.86531 15.7795 8.33093 16.3733 8.33093C17.0264 8.33093 17.1848 8.9049 17.1782 9.26775H15.4826Z" fill="#4E4E4E"/>
<path d="M18.4579 11.1744H19.0385V6.49026H18.4579V11.1744Z" fill="#4E4E4E"/>
<path d="M6.67689 13.0145C6.67689 12.8085 6.68044 12.6664 6.6911 12.5456H6.41401L6.40335 12.8049H6.39625C6.31809 12.6628 6.15824 12.5101 5.85983 12.5101C5.46196 12.5101 5.08185 12.8369 5.08185 13.4195C5.08185 13.8955 5.38736 14.2579 5.81365 14.2579C6.08008 14.2579 6.26836 14.13 6.36072 13.9701H6.36783V14.1584C6.36783 14.5954 6.13337 14.7623 5.81365 14.7623C5.60051 14.7623 5.42288 14.6984 5.30921 14.6238L5.23105 14.8653C5.3696 14.9577 5.59695 15.0074 5.80299 15.0074C6.01969 15.0074 6.26126 14.9542 6.43177 14.8014C6.59518 14.6487 6.67689 14.4106 6.67689 14.0128V13.0145ZM6.36428 13.5332C6.36428 13.5865 6.35717 13.6469 6.33941 13.7002C6.27547 13.8991 6.1014 14.0199 5.90601 14.0199C5.57209 14.0199 5.39802 13.7392 5.39802 13.4018C5.39802 13.0039 5.61116 12.7517 5.90957 12.7517C6.14047 12.7517 6.28968 12.9009 6.34651 13.0856C6.36072 13.1247 6.36428 13.1708 6.36428 13.2241V13.5332Z" fill="#8F8F8F"/>
<path d="M8.39837 13.2099C8.39837 12.8689 8.27048 12.5101 7.74472 12.5101C7.52803 12.5101 7.31843 12.5705 7.17634 12.6593L7.24739 12.8689C7.36817 12.7872 7.53513 12.741 7.69854 12.741C8.05023 12.7374 8.08931 12.9968 8.08931 13.1353V13.1708C7.42501 13.1673 7.05555 13.3946 7.05555 13.8103C7.05555 14.059 7.23318 14.3041 7.58131 14.3041C7.82643 14.3041 8.01116 14.1833 8.10707 14.0483H8.11773L8.1426 14.265H8.42324C8.40547 14.1478 8.39837 14.0021 8.39837 13.8529V13.2099ZM8.09641 13.6859C8.09641 13.7144 8.09286 13.7499 8.0822 13.7854C8.03247 13.9311 7.88682 14.0732 7.65947 14.0732C7.50316 14.0732 7.36817 13.9808 7.36817 13.7748C7.36817 13.4408 7.75538 13.3804 8.09641 13.3875V13.6859Z" fill="#8F8F8F"/>
<path d="M8.96148 12.2259V12.5456H8.69505V12.7836H8.96148V13.7215C8.96148 13.924 8.99701 14.0767 9.08227 14.1726C9.15687 14.2543 9.2741 14.3041 9.41975 14.3041C9.54053 14.3041 9.63644 14.2828 9.69684 14.2614L9.68263 14.0234C9.63644 14.0376 9.58671 14.0447 9.50145 14.0447C9.32738 14.0447 9.26699 13.924 9.26699 13.7108V12.7836H9.7146V12.5456H9.26699V12.1335L8.96148 12.2259Z" fill="#8F8F8F"/>
<path d="M11.4276 13.4621C11.4347 13.4266 11.4382 13.3804 11.4382 13.3165C11.4382 13.0003 11.2926 12.5101 10.7277 12.5101C10.2268 12.5101 9.92133 12.9151 9.92133 13.4337C9.92133 13.9524 10.2375 14.3041 10.7668 14.3041C11.0403 14.3041 11.2322 14.2437 11.3423 14.1939L11.2855 13.9701C11.1718 14.0199 11.0332 14.059 10.8094 14.059C10.4933 14.059 10.2268 13.8849 10.2197 13.4621H11.4276ZM10.2233 13.2383C10.2482 13.0216 10.3831 12.7339 10.7029 12.7339C11.0546 12.7339 11.1398 13.043 11.1363 13.2383H10.2233Z" fill="#8F8F8F"/>
<path d="M11.63 12.5456L12.1486 14.265H12.4328L12.7099 13.4479C12.7703 13.2632 12.8236 13.0856 12.8662 12.8795H12.8733C12.9159 13.082 12.9657 13.2526 13.0261 13.4444L13.2889 14.265H13.5731L14.1273 12.5456H13.8183L13.5731 13.4089C13.5163 13.6113 13.4701 13.7925 13.4417 13.9666H13.431C13.392 13.7925 13.3422 13.6113 13.2783 13.4053L13.0119 12.5456H12.749L12.4683 13.4231C12.4115 13.6078 12.3547 13.7925 12.3156 13.9666H12.3049C12.273 13.789 12.2268 13.6113 12.1806 13.4195L11.9497 12.5456H11.63Z" fill="#8F8F8F"/>
<path d="M15.635 13.2099C15.635 12.8689 15.5072 12.5101 14.9814 12.5101C14.7647 12.5101 14.5551 12.5705 14.413 12.6593L14.4841 12.8689C14.6048 12.7872 14.7718 12.741 14.9352 12.741C15.2869 12.7374 15.326 12.9968 15.326 13.1353V13.1708C14.6617 13.1673 14.2922 13.3946 14.2922 13.8103C14.2922 14.059 14.4698 14.3041 14.818 14.3041C15.0631 14.3041 15.2478 14.1833 15.3437 14.0483H15.3544L15.3793 14.265H15.6599C15.6421 14.1478 15.635 14.0021 15.635 13.8529V13.2099ZM15.3331 13.6859C15.3331 13.7144 15.3295 13.7499 15.3189 13.7854C15.2691 13.9311 15.1235 14.0732 14.8961 14.0732C14.7398 14.0732 14.6048 13.9808 14.6048 13.7748C14.6048 13.4408 14.9921 13.3804 15.3331 13.3875V13.6859Z" fill="#8F8F8F"/>
<path d="M15.8859 12.5456L16.5182 14.13C16.536 14.1691 16.5431 14.1939 16.5431 14.2117C16.5431 14.2295 16.5324 14.2543 16.5182 14.2863C16.4436 14.4462 16.3406 14.5669 16.2553 14.6344C16.163 14.7126 16.0599 14.7623 15.9818 14.7872L16.0599 15.0465C16.1381 15.0323 16.2873 14.979 16.4436 14.8476C16.6567 14.6593 16.8095 14.3609 17.0333 13.7712L17.5022 12.5456H17.1719L16.8308 13.5545C16.7882 13.6788 16.7527 13.8103 16.7207 13.9133H16.7136C16.6852 13.8103 16.6425 13.6753 16.5999 13.5616L16.2269 12.5456H15.8859Z" fill="#8F8F8F"/>
</svg>
