<svg xmlns="http://www.w3.org/2000/svg" fill="none" viewBox="0 0 21 21" aria-hidden="true">
  <path fill="#F37726" d="M10.509 15.235c-3.205 0-6.022-1.15-7.478-2.848a7.973 7.973 0 0014.955 0c-1.453 1.698-4.258 2.848-7.477 2.848zM10.509 4.19c3.204 0 6.021 1.15 7.477 2.849a7.973 7.973 0 00-14.955 0C4.487 5.337 7.29 4.19 10.509 4.19z"/>
  <path fill="#4E4E4E" d="M4.6 6.668h-.452v3.692H4.6v-.947l.234-.26.863 1.207h.562L5.15 8.878l.967-1.035h-.546l-.743.868a5.217 5.217 0 00-.219.286H4.6V6.668zM8.607 9.185c.01-.052.016-.12.016-.214 0-.462-.213-1.18-1.04-1.18-.733 0-1.18.593-1.18 1.352 0 .759.463 1.274 1.237 1.274.4 0 .682-.089.843-.161l-.084-.328c-.166.073-.369.13-.696.13-.463 0-.853-.255-.863-.873h1.767zm-1.762-.328c.036-.317.234-.738.702-.738.515 0 .64.452.634.738H6.845zM9.19 10.36h.457V9.018c0-.073.005-.15.016-.213.062-.343.291-.582.613-.582.063 0 .11 0 .156.01v-.432c-.041-.005-.078-.01-.124-.01-.307 0-.588.213-.702.551H9.59l-.02-.499h-.401c.015.234.02.489.02.785v1.732zM10.911 10.36h.458V8.847c0-.078.01-.156.03-.214.084-.254.318-.468.614-.468.432 0 .583.338.583.744v1.45h.457V8.863c0-.863-.54-1.07-.889-1.07a.932.932 0 00-.832.467h-.01l-.026-.416h-.406c.016.208.021.416.021.681v1.836zM15.818 9.185c.01-.052.015-.12.015-.214 0-.462-.213-1.18-1.04-1.18-.733 0-1.18.593-1.18 1.352 0 .759.463 1.274 1.238 1.274.4 0 .68-.089.842-.161l-.083-.328c-.167.073-.37.13-.697.13-.463 0-.853-.255-.863-.873h1.768zm-1.763-.328c.037-.317.234-.738.702-.738.515 0 .64.452.634.738h-1.336zM16.4 10.36h.458V6.668H16.4v3.692z"/>
  <path fill="#8F8F8F" d="M5.236 12.87h.209v-.63h.004c.07.115.204.182.358.182.274 0 .53-.207.53-.624 0-.35-.21-.588-.494-.588a.452.452 0 00-.413.223h-.005l-.012-.2h-.187c.005.111.01.231.01.38v1.258zm.209-1.149c0-.026.007-.057.014-.084a.333.333 0 01.32-.26c.222 0 .345.2.345.43 0 .267-.13.45-.353.45a.326.326 0 01-.326-.334v-.202zM6.602 12.395h.211v-.619c0-.033.003-.07.008-.098.028-.159.134-.269.283-.269.029 0 .05 0 .072.005v-.2c-.02-.002-.036-.004-.058-.004-.141 0-.271.098-.324.254h-.007l-.01-.23h-.184c.007.108.01.226.01.362v.8zM7.856 11.21c-.32 0-.576.228-.576.614 0 .367.245.598.557.598.278 0 .578-.187.578-.617 0-.353-.226-.595-.56-.595zm-.005.158c.25 0 .348.248.348.444 0 .262-.151.451-.353.451-.206 0-.35-.192-.35-.446 0-.218.108-.449.355-.449zM8.52 11.234l.442 1.161h.202l.456-1.161h-.221l-.226.65a4.337 4.337 0 00-.098.3h-.007a3.23 3.23 0 00-.094-.3l-.228-.65H8.52zM10.031 12.395v-1.161H9.82v1.161h.211zm-.106-1.62c-.079 0-.132.06-.132.133 0 .072.05.13.128.13.084 0 .134-.059.134-.13a.127.127 0 00-.13-.132zM10.303 12.34c.082.048.2.082.326.082.272 0 .432-.144.432-.35 0-.173-.105-.274-.304-.348-.152-.06-.219-.104-.219-.2 0-.086.067-.158.192-.158a.45.45 0 01.238.07l.05-.154a.54.54 0 00-.283-.072c-.247 0-.4.153-.4.34 0 .14.098.253.309.33.153.057.213.11.213.21 0 .099-.072.173-.223.173a.597.597 0 01-.28-.081l-.05.158zM11.545 12.395v-1.161h-.211v1.161h.21zm-.106-1.62c-.079 0-.132.06-.132.133 0 .072.05.13.127.13.085 0 .135-.059.135-.13a.127.127 0 00-.13-.132zM12.388 11.21c-.32 0-.576.228-.576.614 0 .367.245.598.557.598.278 0 .578-.187.578-.617 0-.353-.225-.595-.559-.595zm-.005.158c.25 0 .348.248.348.444 0 .262-.15.451-.352.451-.207 0-.35-.192-.35-.446 0-.218.107-.449.354-.449zM13.213 12.395h.211v-.698c0-.036.005-.072.015-.098a.305.305 0 01.283-.216c.2 0 .269.156.269.343v.67h.21v-.692c0-.398-.249-.494-.41-.494a.43.43 0 00-.383.216h-.005l-.012-.192h-.187c.007.096.01.192.01.314v.847zM15.478 11.853a.515.515 0 00.007-.098c0-.214-.098-.545-.48-.545-.338 0-.545.273-.545.624 0 .35.214.588.571.588.185 0 .315-.041.39-.075l-.04-.15a.755.755 0 01-.32.06c-.214 0-.394-.118-.4-.404h.817zm-.814-.151c.017-.146.108-.34.324-.34.238 0 .296.208.293.34h-.617zM15.747 12.395h.21v-.619c0-.033.003-.07.008-.098.029-.159.134-.269.283-.269.029 0 .05 0 .072.005v-.2c-.02-.002-.036-.004-.058-.004-.141 0-.27.098-.324.254h-.007l-.01-.23h-.184c.007.108.01.226.01.362v.8z"/>
</svg>
