<svg xmlns="http://www.w3.org/2000/svg" fill="none" viewBox="0 0 20 21" aria-hidden="true">
  <path fill="#767677" d="M17.309 1.824A1.207 1.207 0 1116.052.692a1.193 1.193 0 011.257 1.132z"/>
  <path fill="#F37726" d="M10.268 15.77c-3.205 0-6.021-1.15-7.478-2.85a7.972 7.972 0 0014.956 0c-1.453 1.7-4.26 2.85-7.478 2.85zM10.268 4.724c3.205 0 6.021 1.15 7.478 2.85a7.973 7.973 0 00-14.956 0c1.457-1.703 4.259-2.85 7.478-2.85z"/>
  <path fill="#9E9E9E" d="M5.856 19.075a1.52 1.52 0 11-1.584-1.424 1.507 1.507 0 011.584 1.424z"/>
  <path fill="#616262" d="M3.154 4.337a.876.876 0 11.851-.911.887.887 0 01-.85.911z"/>
  <path fill="#4E4E4E" d="M6.238 12.43h.458v-1.518c0-.083.005-.15.031-.218.088-.245.317-.453.614-.453.431 0 .582.338.582.744v1.445h.457v-1.497c0-.863-.54-1.071-.878-1.071a.938.938 0 00-.468.124.861.861 0 00-.328.328h-.01V8.739h-.458v3.691zM11.228 9.914h-.457v1.539a.627.627 0 01-.042.234.658.658 0 01-.603.42c-.41 0-.562-.327-.562-.805V9.914h-.457v1.471c0 .879.473 1.102.868 1.102a.94.94 0 00.832-.468h.01l.026.411h.406a9.009 9.009 0 01-.02-.691V9.914zM11.986 11.78c0 .224-.01.479-.02.65h.39l.025-.41h.01c.193.327.484.467.848.467.562 0 1.134-.447 1.134-1.346 0-.76-.437-1.28-1.066-1.28-.406 0-.697.177-.858.458h-.01V8.74h-.453v3.041zm.452-.806c0-.072.01-.135.026-.192.094-.343.385-.562.692-.562.494 0 .754.432.754.936 0 .577-.28.967-.764.967a.702.702 0 01-.708-.701v-.448z"/>
</svg>
