<svg width="21" height="21" viewBox="0 0 21 21" fill="none" xmlns="http://www.w3.org/2000/svg">
<path d="M10.9697 17.6118C6.90344 17.6118 3.32955 16.1525 1.48163 13.9973C2.19863 15.9361 3.49238 17.6088 5.18873 18.7901C6.88507 19.9714 8.90264 20.6046 10.9697 20.6046C13.0369 20.6046 15.0544 19.9714 16.7508 18.7901C18.4471 17.6088 19.7409 15.9361 20.4579 13.9973C18.6145 16.1525 15.0542 17.6118 10.9697 17.6118Z" fill="#F37726"/>
<path d="M10.9697 3.59741C15.0361 3.59741 18.61 5.05677 20.4579 7.21192C19.7409 5.27312 18.4471 3.60049 16.7508 2.41919C15.0544 1.23788 13.0369 0.604614 10.9697 0.604614C8.90264 0.604614 6.88507 1.23788 5.18873 2.41919C3.49238 3.60049 2.19863 5.27312 1.48163 7.21192C3.32955 5.05225 6.88537 3.59741 10.9697 3.59741Z" fill="#F37726"/>
<path d="M3.44564 7.90744H2.87167V12.5916H3.44564V11.3908L3.74253 11.061L4.83769 12.5916H5.5502L4.14496 10.7113L5.37207 9.39844H4.67935L3.73593 10.5002C3.64356 10.6124 3.53801 10.7509 3.45884 10.8631H3.44564V7.90744Z" fill="#4E4E4E"/>
<path d="M8.53056 11.1006C8.54375 11.0346 8.55035 10.9488 8.55035 10.8301C8.55035 10.2429 8.27986 9.33247 7.23088 9.33247C6.30065 9.33247 5.73328 10.0846 5.73328 11.0478C5.73328 12.011 6.32044 12.6641 7.30345 12.6641C7.81145 12.6641 8.1677 12.552 8.37222 12.4596L8.26667 12.044C8.05555 12.1363 7.79825 12.2089 7.38262 12.2089C6.79545 12.2089 6.30065 11.8856 6.28746 11.1006H8.53056ZM6.29405 10.6849C6.34024 10.2825 6.59094 9.7481 7.1847 9.7481C7.83784 9.7481 7.99617 10.3221 7.98958 10.6849H6.29405Z" fill="#4E4E4E"/>
<path d="M9.26931 12.5916H9.84988V10.8894C9.84988 10.7971 9.85647 10.6981 9.86967 10.619C9.94884 10.1835 10.2391 9.88005 10.6482 9.88005C10.7273 9.88005 10.7867 9.88005 10.8461 9.89325V9.34566C10.7933 9.33907 10.7471 9.33247 10.6877 9.33247C10.2985 9.33247 9.94224 9.60296 9.7971 10.0318H9.77731L9.75092 9.39844H9.24292C9.26271 9.69533 9.26931 10.0186 9.26931 10.3946V12.5916Z" fill="#4E4E4E"/>
<path d="M11.4534 12.5916H12.034V10.6717C12.034 10.5728 12.0472 10.4738 12.0735 10.4012C12.1791 10.078 12.476 9.80748 12.852 9.80748C13.3996 9.80748 13.5909 10.2363 13.5909 10.7509V12.5916H14.1715V10.6915C14.1715 9.59636 13.4854 9.33247 13.0434 9.33247C12.5156 9.33247 12.1461 9.62935 11.9878 9.92623H11.9746L11.9416 9.39844H11.427C11.4468 9.66234 11.4534 9.92623 11.4534 10.2627V12.5916Z" fill="#4E4E4E"/>
<path d="M17.6792 11.1006C17.6924 11.0346 17.699 10.9488 17.699 10.8301C17.699 10.2429 17.4285 9.33247 16.3796 9.33247C15.4493 9.33247 14.882 10.0846 14.882 11.0478C14.882 12.011 15.4691 12.6641 16.4521 12.6641C16.9601 12.6641 17.3164 12.552 17.5209 12.4596L17.4153 12.044C17.2042 12.1363 16.9469 12.2089 16.5313 12.2089C15.9441 12.2089 15.4493 11.8856 15.4361 11.1006H17.6792ZM15.4427 10.6849C15.4889 10.2825 15.7396 9.7481 16.3334 9.7481C16.9865 9.7481 17.1449 10.3221 17.1383 10.6849H15.4427Z" fill="#4E4E4E"/>
<path d="M18.418 12.5916H18.9986V7.90744H18.418V12.5916Z" fill="#4E4E4E"/>
</svg>
