<svg xmlns="http://www.w3.org/2000/svg" fill="none" viewBox="0 0 20 21" aria-hidden="true">
  <path fill="#767677" d="M17.309 1.852A1.207 1.207 0 1116.052.72a1.193 1.193 0 011.257 1.132z"/>
  <path fill="#F37726" d="M10.268 15.798c-3.205 0-6.021-1.15-7.478-2.849a7.973 7.973 0 0014.956 0c-1.453 1.699-4.26 2.849-7.478 2.849zM10.268 4.753c3.205 0 6.021 1.15 7.478 2.848a7.973 7.973 0 00-14.956 0C4.247 5.9 7.05 4.753 10.268 4.753z"/>
  <path fill="#9E9E9E" d="M5.856 19.103a1.52 1.52 0 11-1.584-1.424 1.507 1.507 0 011.584 1.424z"/>
  <path fill="#616262" d="M3.154 4.366a.876.876 0 11.851-.912.887.887 0 01-.85.912z"/>
  <path fill="#4E4E4E" d="M4.397 7.332h-.453v3.691h.453v-.946l.234-.26.863 1.206h.561L4.948 9.541l.967-1.034H5.37l-.743.868a5.227 5.227 0 00-.219.286h-.01v-2.33zM8.404 9.848c.01-.052.016-.12.016-.213 0-.463-.213-1.18-1.04-1.18-.733 0-1.18.592-1.18 1.352 0 .759.463 1.274 1.237 1.274.4 0 .681-.089.843-.162l-.084-.327c-.166.072-.369.13-.696.13-.463 0-.853-.255-.863-.874h1.767zm-1.762-.327c.036-.318.234-.739.702-.739.514 0 .64.453.634.739H6.642zM8.987 11.023h.457V9.682c0-.073.005-.151.016-.213.062-.344.29-.583.613-.583.063 0 .11 0 .156.01v-.43c-.041-.006-.078-.011-.124-.011-.307 0-.588.213-.702.55h-.016l-.02-.498h-.401c.015.234.02.488.02.785v1.731zM10.708 11.023h.457V9.51c0-.078.01-.156.032-.213.083-.255.317-.468.613-.468.432 0 .582.338.582.744v1.45h.458V9.526c0-.863-.54-1.071-.889-1.071a.932.932 0 00-.832.468h-.01l-.026-.416h-.406c.016.208.02.416.02.68v1.836zM15.615 9.848c.01-.052.015-.12.015-.213 0-.463-.213-1.18-1.04-1.18-.733 0-1.18.592-1.18 1.352 0 .759.463 1.274 1.238 1.274.4 0 .68-.089.842-.162l-.083-.327c-.167.072-.37.13-.697.13-.463 0-.853-.255-.863-.874h1.768zm-1.763-.327c.036-.318.234-.739.702-.739.515 0 .64.453.634.739h-1.336zM16.197 11.023h.457V7.332h-.457v3.691z"/>
  <path fill="#8F8F8F" d="M6.912 12.473c0-.162.003-.274.011-.369h-.218l-.009.204h-.005c-.062-.112-.188-.232-.423-.232-.314 0-.613.258-.613.717 0 .375.24.66.577.66.21 0 .358-.1.43-.226h.006v.148c0 .344-.184.476-.436.476a.738.738 0 01-.398-.11l-.061.191c.109.073.288.112.45.112.171 0 .361-.042.496-.162.129-.12.193-.308.193-.622v-.787zm-.246.41c0 .041-.006.089-.02.13a.355.355 0 01-.342.253c-.263 0-.4-.221-.4-.487 0-.314.168-.513.403-.513.182 0 .3.118.345.264.01.03.014.067.014.109v.243zM8.269 12.627c0-.268-.101-.551-.515-.551a.877.877 0 00-.448.118l.056.165a.653.653 0 01.355-.101c.277-.003.308.202.308.31v.029c-.523-.003-.815.176-.815.504 0 .196.14.389.415.389a.505.505 0 00.414-.202h.009l.02.171h.22a2.273 2.273 0 01-.02-.325v-.507zm-.238.376c0 .022-.003.05-.011.078a.342.342 0 01-.334.227c-.123 0-.23-.073-.23-.235 0-.264.306-.311.575-.306v.236zM8.713 11.852v.252h-.21v.188h.21v.739c0 .16.028.28.095.355a.351.351 0 00.266.104c.095 0 .17-.017.218-.034l-.011-.187a.46.46 0 01-.143.016c-.137 0-.185-.095-.185-.263v-.73h.353v-.188h-.353v-.325l-.24.073zM10.656 12.826a.6.6 0 00.008-.115c0-.249-.114-.635-.56-.635-.394 0-.635.32-.635.728 0 .409.25.686.666.686.216 0 .367-.048.454-.087l-.045-.176a.881.881 0 01-.375.07c-.25 0-.46-.138-.465-.47h.952zm-.949-.176c.02-.17.126-.398.378-.398.277 0 .344.244.341.398h-.719zM10.816 12.104l.408 1.355h.224l.219-.644a4.01 4.01 0 00.123-.448h.006c.033.16.072.294.12.445l.207.647h.224l.437-1.355h-.244l-.193.68a4.08 4.08 0 00-.104.44h-.008a5.74 5.74 0 00-.12-.443l-.21-.677h-.207l-.222.692c-.045.145-.09.29-.12.428h-.008c-.026-.14-.062-.28-.099-.431l-.181-.689h-.252zM13.972 12.627c0-.268-.1-.551-.515-.551a.878.878 0 00-.448.118l.056.165a.653.653 0 01.356-.101c.277-.003.308.202.308.31v.029c-.524-.003-.815.176-.815.504 0 .196.14.389.414.389a.505.505 0 00.415-.202h.008l.02.171h.22a2.273 2.273 0 01-.019-.325v-.507zm-.238.376c0 .022-.003.05-.011.078a.342.342 0 01-.333.227c-.123 0-.23-.073-.23-.235 0-.264.305-.311.574-.306v.236zM14.17 12.104l.498 1.249c.014.03.02.05.02.064a.177.177 0 01-.02.059.779.779 0 01-.207.274.652.652 0 01-.216.12l.062.205a.699.699 0 00.302-.157c.168-.148.289-.383.465-.848l.37-.966h-.26l-.27.795c-.033.098-.061.202-.086.283h-.006a3.502 3.502 0 00-.09-.277l-.293-.801h-.27z"/>
</svg>
