<svg width="21" height="21" viewBox="0 0 21 21" fill="none" xmlns="http://www.w3.org/2000/svg">
<path d="M17.7341 1.15905C17.7487 1.39827 17.6918 1.63643 17.5706 1.84318C17.4494 2.04994 17.2694 2.21594 17.0535 2.32003C16.8376 2.42412 16.5956 2.46159 16.3584 2.42768C16.1211 2.39376 15.8994 2.28998 15.7213 2.12957C15.5432 1.96916 15.4169 1.75937 15.3585 1.52694C15.3001 1.2945 15.3122 1.04993 15.3933 0.824395C15.4743 0.598857 15.6207 0.402553 15.8137 0.260494C16.0067 0.118434 16.2377 0.0370486 16.4771 0.0267043C16.6341 0.0180657 16.7913 0.0405466 16.9395 0.092854C17.0878 0.145161 17.2243 0.226264 17.3411 0.331496C17.4579 0.436729 17.5528 0.564017 17.6202 0.706039C17.6877 0.848061 17.7264 1.00202 17.7341 1.15905Z" fill="#767677"/>
<path d="M10.693 15.1044C7.48832 15.1044 4.67168 13.9542 3.2153 12.2557C3.78038 13.7837 4.8 15.102 6.13693 16.033C7.47384 16.964 9.06392 17.463 10.693 17.463C12.3222 17.463 13.9122 16.964 15.2492 16.033C16.5861 15.102 17.6057 13.7837 18.1708 12.2557C16.718 13.9542 13.912 15.1044 10.693 15.1044Z" fill="#F37726"/>
<path d="M10.693 4.05938C13.8978 4.05938 16.7144 5.20953 18.1708 6.90803C17.6057 5.38003 16.5861 4.06181 15.2492 3.13081C13.9122 2.1998 12.3222 1.70071 10.693 1.70071C9.06392 1.70071 7.47384 2.1998 6.13693 3.13081C4.8 4.06181 3.78038 5.38003 3.2153 6.90803C4.67168 5.20597 7.47408 4.05938 10.693 4.05938Z" fill="#F37726"/>
<path d="M6.28133 18.4098C6.30013 18.7111 6.2288 19.0112 6.07643 19.2718C5.92406 19.5324 5.69756 19.7418 5.42577 19.8732C5.15399 20.0047 4.84923 20.0522 4.55032 20.0098C4.25141 19.9674 3.97188 19.837 3.74736 19.6352C3.52283 19.4334 3.36347 19.1693 3.28957 18.8766C3.21568 18.5839 3.2306 18.2758 3.33243 17.9916C3.43426 17.7074 3.61839 17.4599 3.86136 17.2807C4.10434 17.1015 4.39515 16.9987 4.69676 16.9854C4.89433 16.9749 5.09206 17.0033 5.27863 17.0692C5.46521 17.1351 5.63698 17.237 5.78413 17.3693C5.93128 17.5016 6.05093 17.6615 6.13624 17.8401C6.22155 18.0186 6.27085 18.2122 6.28133 18.4098Z" fill="#9E9E9E"/>
<path d="M3.57952 3.67231C3.40684 3.67708 3.2366 3.63068 3.09021 3.53896C2.94383 3.44723 2.82783 3.31427 2.75682 3.1568C2.6858 2.99932 2.66293 2.82436 2.69108 2.65392C2.71923 2.48348 2.79715 2.32517 2.91504 2.1989C3.03292 2.07263 3.18552 1.98403 3.35362 1.94425C3.52173 1.90447 3.69784 1.91529 3.85982 1.97533C4.0218 2.03538 4.1624 2.14198 4.26395 2.28173C4.36551 2.42148 4.42347 2.58813 4.43056 2.76073C4.43731 2.99412 4.35172 3.22076 4.19239 3.39142C4.03305 3.56209 3.81282 3.66303 3.57952 3.67231Z" fill="#616262"/>
<path d="M6.15462 13.3044V5.49438H7.12262V8.82739H7.14462C7.29862 8.55239 7.54062 8.29939 7.83762 8.13438C8.12362 7.96939 8.46462 7.87038 8.82762 7.87038C9.54262 7.87038 10.6866 8.31038 10.6866 10.1364V13.3044H9.71862V10.2464C9.71862 9.38839 9.39962 8.67338 8.48662 8.67338C7.85962 8.67338 7.37562 9.11339 7.18862 9.63038C7.13362 9.77339 7.12262 9.91638 7.12262 10.0924V13.3044H6.15462Z" fill="#F37726"/>
<path d="M11.8932 13.0514L12.1242 12.3254C12.4212 12.5014 12.9272 12.6994 13.4112 12.6994C14.1042 12.6994 14.4342 12.3584 14.4342 11.9074C14.4342 11.4454 14.1592 11.2034 13.4552 10.9394C12.4872 10.5874 12.0362 10.0704 12.0362 9.43238C12.0362 8.57439 12.7402 7.87038 13.8732 7.87038C14.4122 7.87038 14.8852 8.01338 15.1712 8.20039L14.9402 8.90439C14.7312 8.77238 14.3462 8.58538 13.8512 8.58538C13.2792 8.58538 12.9712 8.91539 12.9712 9.31139C12.9712 9.75139 13.2792 9.94939 13.9722 10.2244C14.8852 10.5654 15.3692 11.0274 15.3692 11.8194C15.3692 12.7654 14.6322 13.4254 13.3892 13.4254C12.8062 13.4254 12.2672 13.2714 11.8932 13.0514Z" fill="#F37726"/>
</svg>
