<svg width="21" height="21" viewBox="0 0 21 21" fill="none" xmlns="http://www.w3.org/2000/svg">
<path d="M10.1778 17.9331C6.11152 17.9331 2.53764 16.4738 0.68971 14.3186C1.40671 16.2574 2.70046 17.9301 4.39681 19.1114C6.09315 20.2927 8.11072 20.9259 10.1778 20.9259C12.245 20.9259 14.2625 20.2927 15.9589 19.1114C17.6552 17.9301 18.949 16.2574 19.666 14.3186C17.8226 16.4738 14.2623 17.9331 10.1778 17.9331Z" fill="#F37726"/>
<path d="M10.1778 3.91872C14.2442 3.91872 17.8181 5.37809 19.666 7.53324C18.949 5.59444 17.6552 3.92181 15.9589 2.74051C14.2625 1.5592 12.245 0.925934 10.1778 0.925934C8.11072 0.925934 6.09315 1.5592 4.39681 2.74051C2.70046 3.92181 1.40671 5.59444 0.68971 7.53324C2.53764 5.37357 6.09345 3.91872 10.1778 3.91872Z" fill="#F37726"/>
<path d="M7.60553 13.4956V13.0492L8.1164 12.9527V8.89919L7.60553 8.80268V8.35631H8.93593L10.3941 12.2651H10.4153L11.8309 8.35631H13.2039V8.80268L12.693 8.89919V12.9527L13.2039 13.0492V13.4956H11.5648V13.0492L12.097 12.9527V9.2973H12.0863L10.6176 13.3146H10.2131L8.6805 9.30937H8.66985L8.69114 11.4568V12.9527L9.24459 13.0492V13.4956H7.60553Z" fill="#616161"/>
<path d="M6.44219 15.9325C5.85681 15.7395 5.44173 15.45 5.18629 15.0398C4.94149 14.6055 4.81378 14.0867 4.82442 13.5559V12.5063C4.82442 12.1203 4.74992 11.8307 4.59027 11.6136C4.43062 11.3964 4.20711 11.2999 3.88781 11.2999V10.552C4.20711 10.552 4.44126 10.4434 4.59027 10.2383C4.73927 10.0332 4.82442 9.7316 4.82442 9.34555V8.29598C4.81378 7.76516 4.94149 7.2464 5.19693 6.8121C5.44173 6.40192 5.85681 6.11238 6.44219 5.91936L6.62313 6.52256C6.32512 6.61907 6.06968 6.84829 5.92067 7.16195C5.77167 7.51181 5.69717 7.90993 5.70781 8.29598V9.34555C5.71845 9.67128 5.64395 9.99701 5.51623 10.2865C5.38851 10.552 5.19693 10.7812 4.95214 10.9139C5.19693 11.0586 5.39915 11.2758 5.52687 11.5533C5.65459 11.8428 5.71845 12.1685 5.71845 12.4943V13.5438C5.70781 13.9299 5.78231 14.328 5.93132 14.6779C6.08032 14.9915 6.32512 15.2207 6.63377 15.3173L6.44219 15.9325Z" fill="#F37726"/>
<path d="M13.9561 15.8481L13.7751 15.2569C14.0731 15.1604 14.3179 14.9312 14.4563 14.6296C14.6053 14.2797 14.6798 13.9058 14.6692 13.5197V12.4943C14.6585 12.1685 14.733 11.8428 14.8714 11.5533C15.0097 11.2758 15.2226 11.0586 15.4887 10.938C15.2333 10.8174 15.0097 10.6123 14.8714 10.3348C14.733 10.0453 14.6692 9.71953 14.6692 9.38173V8.34423C14.6798 7.95818 14.6053 7.57213 14.4563 7.22227C14.3179 6.9086 14.0625 6.69145 13.7751 6.59494L13.9561 6.0038C14.5202 6.18476 14.9352 6.4743 15.18 6.87241C15.4355 7.30672 15.5632 7.81341 15.5419 8.33216V9.36967C15.5419 9.74366 15.6164 10.0453 15.7654 10.2503C15.9144 10.4554 16.1486 10.564 16.4679 10.564V11.2999C16.1486 11.2999 15.9144 11.4085 15.7654 11.6136C15.6164 11.8187 15.5419 12.1203 15.5419 12.4943V13.5197C15.5526 14.0385 15.4248 14.5452 15.18 14.9795C14.9352 15.3655 14.5202 15.655 13.9561 15.8481Z" fill="#F37726"/>
</svg>
