<svg width="21" height="21" viewBox="0 0 21 21" fill="none" xmlns="http://www.w3.org/2000/svg">
<path d="M10.1863 17.1473C6.11999 17.1473 2.54611 15.688 0.698181 13.5328C1.41518 15.4716 2.70893 17.1442 4.40528 18.3256C6.10162 19.5069 8.11919 20.1401 10.1863 20.1401C12.2534 20.1401 14.271 19.5069 15.9674 18.3256C17.6637 17.1442 18.9574 15.4716 19.6745 13.5328C17.8311 15.688 14.2707 17.1473 10.1863 17.1473Z" fill="#F37726"/>
<path d="M10.1863 3.13293C14.2526 3.13293 17.8265 4.59229 19.6745 6.74744C18.9574 4.80864 17.6637 3.13601 15.9674 1.95471C14.271 0.773407 12.2534 0.140137 10.1863 0.140137C8.11919 0.140137 6.10162 0.773407 4.40528 1.95471C2.70893 3.13601 1.41518 4.80864 0.698181 6.74744C2.54611 4.58777 6.10192 3.13293 10.1863 3.13293Z" fill="#F37726"/>
<path d="M1.95728 12.0461C2.18159 12.1781 2.50486 12.2704 2.85452 12.2704C3.60002 12.2704 4.04204 11.8746 4.04204 11.3072C4.04204 10.8322 3.75176 10.5551 3.20418 10.3506C2.78854 10.1857 2.60382 10.0669 2.60382 9.80304C2.60382 9.56553 2.78854 9.36761 3.1316 9.36761C3.42849 9.36761 3.65939 9.47976 3.78474 9.55893L3.92329 9.1367C3.75176 9.02455 3.46807 8.93878 3.1448 8.93878C2.46527 8.93878 2.04304 9.36101 2.04304 9.87561C2.04304 10.2583 2.31353 10.5683 2.8941 10.7794C3.31633 10.9378 3.48126 11.0829 3.48126 11.36C3.48126 11.6305 3.28334 11.835 2.86771 11.835C2.57743 11.835 2.27395 11.7163 2.09582 11.6107L1.95728 12.0461Z" fill="#4E4E4E"/>
<path d="M7.35711 10.7069C7.3703 10.6409 7.3769 10.5551 7.3769 10.4364C7.3769 9.84922 7.10641 8.93878 6.05743 8.93878C5.1272 8.93878 4.55983 9.69088 4.55983 10.6541C4.55983 11.6173 5.14699 12.2704 6.13 12.2704C6.638 12.2704 6.99425 12.1583 7.19877 12.0659L7.09321 11.6503C6.8821 11.7427 6.6248 11.8152 6.20917 11.8152C5.622 11.8152 5.1272 11.492 5.11401 10.7069H7.35711ZM5.1206 10.2912C5.16679 9.8888 5.41749 9.35441 6.01125 9.35441C6.66439 9.35441 6.82272 9.92838 6.81612 10.2912H5.1206Z" fill="#4E4E4E"/>
<path d="M8.09586 12.1979H8.67642V10.4958C8.67642 10.4034 8.68302 10.3044 8.69622 10.2253C8.77538 9.78984 9.06567 9.48636 9.4747 9.48636C9.55387 9.48636 9.61325 9.48636 9.67262 9.49956V8.95198C9.61985 8.94538 9.57366 8.93878 9.51429 8.93878C9.12504 8.93878 8.76879 9.20927 8.62364 9.6381H8.60385L8.57746 9.00476H8.06947C8.08926 9.30164 8.09586 9.62491 8.09586 10.001V12.1979Z" fill="#4E4E4E"/>
<path d="M10.0258 9.00476L11.2398 12.1979H11.7939L13.0474 9.00476H12.4405L11.8203 10.7926C11.7148 11.0895 11.6224 11.3534 11.5498 11.6173H11.53C11.4641 11.3534 11.3783 11.0895 11.2727 10.7926L10.646 9.00476H10.0258Z" fill="#4E4E4E"/>
<path d="M16.0999 10.7069C16.1131 10.6409 16.1197 10.5551 16.1197 10.4364C16.1197 9.84922 15.8492 8.93878 14.8002 8.93878C13.87 8.93878 13.3026 9.69088 13.3026 10.6541C13.3026 11.6173 13.8898 12.2704 14.8728 12.2704C15.3808 12.2704 15.737 12.1583 15.9416 12.0659L15.836 11.6503C15.6249 11.7427 15.3676 11.8152 14.952 11.8152C14.3648 11.8152 13.87 11.492 13.8568 10.7069H16.0999ZM13.8634 10.2912C13.9096 9.8888 14.1603 9.35441 14.754 9.35441C15.4072 9.35441 15.5655 9.92838 15.5589 10.2912H13.8634Z" fill="#4E4E4E"/>
<path d="M16.8386 12.1979H17.4192V10.4958C17.4192 10.4034 17.4258 10.3044 17.439 10.2253C17.5182 9.78984 17.8085 9.48636 18.2175 9.48636C18.2967 9.48636 18.356 9.48636 18.4154 9.49956V8.95198C18.3626 8.94538 18.3164 8.93878 18.2571 8.93878C17.8678 8.93878 17.5116 9.20927 17.3664 9.6381H17.3466L17.3202 9.00476H16.8123C16.832 9.30164 16.8386 9.62491 16.8386 10.001V12.1979Z" fill="#4E4E4E"/>
</svg>
