<svg xmlns="http://www.w3.org/2000/svg" fill="none" viewBox="0 0 20 21" aria-hidden="true">
  <path fill="#4E4E4E" d="M2.163 11.147c0 .623-.05.826-.178.976a.777.777 0 01-.52.2l.05.355c.297.004.586-.1.811-.295a1.424 1.424 0 00.314-1.068V8.957h-.477v2.19zM5.721 10.866c0 .267 0 .506.021.712H5.32l-.029-.423a.986.986 0 01-.865.484c-.413 0-.904-.224-.904-1.14V8.98h.477v1.424c0 .495.153.826.584.826a.665.665 0 00.673-.673V8.961h.477v1.891l-.01.014zM6.626 9.826c0-.331 0-.602-.022-.847h.427l.022.445a1.033 1.033 0 01.933-.506c.634 0 1.11.53 1.11 1.321 0 .933-.573 1.396-1.192 1.396a.922.922 0 01-.808-.41v1.425h-.47V9.827zm.47.694a.734.734 0 00.734.744c.501 0 .797-.409.797-1.003 0-.52-.278-.965-.78-.965a.819.819 0 00-.751.78v.444zM9.947 8.976l.573 1.535c.06.17.125.377.168.53.05-.156.103-.356.167-.54l.52-1.525h.502l-.712 1.852c-.356.89-.574 1.35-.901 1.627-.165.15-.366.256-.584.306l-.118-.398c.153-.05.294-.129.417-.232.174-.142.312-.322.402-.527a.355.355 0 00.04-.114.408.408 0 00-.032-.124l-.97-2.397h.52l.008.007zM13.144 8.23v.747h.683v.356h-.683v1.403c0 .32.092.506.356.506.093.001.187-.01.277-.032l.022.356c-.136.047-.28.069-.424.064a.66.66 0 01-.516-.2.958.958 0 01-.185-.676V9.33h-.406v-.357h.413V8.34l.463-.11zM14.706 10.36a.837.837 0 00.901.902c.244.005.487-.041.712-.136l.082.356a2.137 2.137 0 01-.872.16 1.209 1.209 0 01-1.29-1.31c0-.783.467-1.403 1.23-1.403.854 0 1.068.748 1.068 1.225.004.074.004.147 0 .22h-1.841l.01-.013zm1.396-.355a.674.674 0 00-.662-.77.787.787 0 00-.73.77h1.392zM17.26 9.786c0-.306 0-.57-.02-.812h.426v.51h.022a.787.787 0 01.712-.57.52.52 0 01.135 0v.445a.711.711 0 00-.163 0 .666.666 0 00-.638.605c-.013.073-.02.147-.021.22v1.386h-.47V9.79l.018-.004z"/>
  <path fill="#F37726" d="M10.01 15.77c-3.204 0-6.021-1.15-7.477-2.85a7.972 7.972 0 0014.955 0c-1.453 1.7-4.259 2.85-7.478 2.85zM10.01 4.724c3.205 0 6.022 1.15 7.478 2.85a7.973 7.973 0 00-14.955 0c1.456-1.703 4.258-2.85 7.477-2.85z"/>
</svg>
