<?xml version="1.0" encoding="UTF-8" standalone="no"?>
<svg
   xmlns:dc="http://purl.org/dc/elements/1.1/"
   xmlns:cc="http://creativecommons.org/ns#"
   xmlns:rdf="http://www.w3.org/1999/02/22-rdf-syntax-ns#"
   xmlns:svg="http://www.w3.org/2000/svg"
   xmlns="http://www.w3.org/2000/svg"
   xmlns:sodipodi="http://sodipodi.sourceforge.net/DTD/sodipodi-0.dtd"
   xmlns:inkscape="http://www.inkscape.org/namespaces/inkscape"
   width="21"
   height="21"
   viewBox="0 0 21 21"
   fill="none"
   version="1.1"
   id="svg851"
   sodipodi:docname="jupyter-empty.svg"
   inkscape:version="1.0.1 (c497b03c, 2020-09-10)">
  <metadata
     id="metadata857">
    <rdf:RDF>
      <cc:Work
         rdf:about="">
        <dc:format>image/svg+xml</dc:format>
        <dc:type
           rdf:resource="http://purl.org/dc/dcmitype/StillImage" />
      </cc:Work>
    </rdf:RDF>
  </metadata>
  <defs
     id="defs855" />
  <sodipodi:namedview
     pagecolor="#ffffff"
     bordercolor="#666666"
     borderopacity="1"
     objecttolerance="10"
     gridtolerance="10"
     guidetolerance="10"
     inkscape:pageopacity="0"
     inkscape:pageshadow="2"
     inkscape:window-width="1237"
     inkscape:window-height="800"
     id="namedview853"
     showgrid="false"
     inkscape:zoom="34.761905"
     inkscape:cx="10.5"
     inkscape:cy="10.5"
     inkscape:window-x="0"
     inkscape:window-y="25"
     inkscape:window-maximized="0"
     inkscape:current-layer="svg851" />
  <path
     d="M10.3848 16.5737C6.63011 16.5737 3.33012 15.2261 1.62381 13.2361C2.28586 15.0264 3.48046 16.5708 5.04681 17.6616C6.61315 18.7524 8.4761 19.3371 10.3848 19.3371C12.2935 19.3371 14.1564 18.7524 15.7228 17.6616C17.2891 16.5708 18.4837 15.0264 19.1458 13.2361C17.4437 15.2261 14.1562 16.5737 10.3848 16.5737Z"
     fill="#F37726"
     id="path847" />
  <path
     d="M10.3848 3.63324C14.1395 3.63324 17.4395 4.98077 19.1458 6.97075C18.4837 5.18054 17.2891 3.63609 15.7228 2.54532C14.1564 1.45455 12.2935 0.869812 10.3848 0.869812C8.4761 0.869812 6.61315 1.45455 5.04681 2.54532C3.48046 3.63609 2.28586 5.18054 1.62381 6.97075C3.33012 4.9766 6.61343 3.63324 10.3848 3.63324Z"
     fill="#F37726"
     id="path849" />
</svg>
