<svg width="21" height="21" viewBox="0 0 21 21" fill="none" xmlns="http://www.w3.org/2000/svg">
<path d="M7.69942 14.9746L8.02142 13.9526C8.56742 14.3026 9.35142 14.5686 10.1914 14.5686C11.4374 14.5686 12.1654 13.9106 12.1654 12.9586C12.1654 12.0906 11.6614 11.5726 10.3874 11.0966C8.84742 10.5366 7.89542 9.72455 7.89542 8.40855C7.89542 6.93855 9.11342 5.84655 10.9474 5.84655C11.8994 5.84655 12.6134 6.07055 13.0194 6.30855L12.6834 7.30255C12.3894 7.12055 11.7594 6.85455 10.9054 6.85455C9.61742 6.85455 9.12742 7.62455 9.12742 8.26855C9.12742 9.15055 9.70142 9.58455 11.0034 10.0886C12.5994 10.7046 13.3974 11.4746 13.3974 12.8606C13.3974 14.3166 12.3334 15.5906 10.1074 15.5906C9.19742 15.5906 8.20342 15.3106 7.69942 14.9746Z" fill="#4E4E4E"/>
<path d="M10.6114 17.9332C6.54509 17.9332 2.97121 16.4738 1.12329 14.3186C1.84029 16.2575 3.13403 17.9301 4.83039 19.1114C6.52672 20.2927 8.5443 20.9259 10.6114 20.9259C12.6786 20.9259 14.6961 20.2927 16.3925 19.1114C18.0888 17.9301 19.3825 16.2575 20.0996 14.3186C18.2562 16.4738 14.6958 17.9332 10.6114 17.9332Z" fill="#F37726"/>
<path d="M10.6114 3.91875C14.6778 3.91875 18.2516 5.37812 20.0996 7.53327C19.3825 5.59447 18.0888 3.92184 16.3925 2.74054C14.6961 1.55923 12.6786 0.925964 10.6114 0.925964C8.5443 0.925964 6.52672 1.55923 4.83039 2.74054C3.13403 3.92184 1.84029 5.59447 1.12329 7.53327C2.97121 5.3736 6.52703 3.91875 10.6114 3.91875Z" fill="#F37726"/>
<path d="M7.69942 14.9746L8.02142 13.9526C8.56742 14.3026 9.35142 14.5686 10.1914 14.5686C11.4374 14.5686 12.1654 13.9106 12.1654 12.9586C12.1654 12.0906 11.6614 11.5726 10.3874 11.0966C8.84742 10.5366 7.89542 9.72455 7.89542 8.40855C7.89542 6.93855 9.11342 5.84655 10.9474 5.84655C11.8994 5.84655 12.6134 6.07055 13.0194 6.30855L12.6834 7.30255C12.3894 7.12055 11.7594 6.85455 10.9054 6.85455C9.61742 6.85455 9.12742 7.62455 9.12742 8.26855C9.12742 9.15055 9.70142 9.58455 11.0034 10.0886C12.5994 10.7046 13.3974 11.4746 13.3974 12.8606C13.3974 14.3166 12.3334 15.5906 10.1074 15.5906C9.19742 15.5906 8.20342 15.3106 7.69942 14.9746Z" fill="#4E4E4E"/>
<path d="M10.6114 17.9332C6.54509 17.9332 2.97121 16.4738 1.12329 14.3186C1.84029 16.2575 3.13403 17.9301 4.83039 19.1114C6.52672 20.2927 8.5443 20.9259 10.6114 20.9259C12.6786 20.9259 14.6961 20.2927 16.3925 19.1114C18.0888 17.9301 19.3825 16.2575 20.0996 14.3186C18.2562 16.4738 14.6958 17.9332 10.6114 17.9332Z" fill="#F37726"/>
<path d="M10.6114 3.91875C14.6778 3.91875 18.2516 5.37812 20.0996 7.53327C19.3825 5.59447 18.0888 3.92184 16.3925 2.74054C14.6961 1.55923 12.6786 0.925964 10.6114 0.925964C8.5443 0.925964 6.52672 1.55923 4.83039 2.74054C3.13403 3.92184 1.84029 5.59447 1.12329 7.53327C2.97121 5.3736 6.52703 3.91875 10.6114 3.91875Z" fill="#F37726"/>
</svg>
