<svg width="20" height="21" viewBox="0 0 20 21" fill="none" xmlns="http://www.w3.org/2000/svg">
<path d="M9.47188 13.1458L9.29883 12.0555C9.18922 12.0151 9.07385 11.9603 8.95271 11.8911C8.83157 11.8219 8.72485 11.7498 8.63255 11.6748L7.61151 12.1421L6.80679 10.723L7.74131 10.0394C7.72977 9.98749 7.72256 9.92836 7.71967 9.86202C7.71679 9.79568 7.71535 9.73655 7.71535 9.68464C7.71535 9.63272 7.71679 9.57359 7.71967 9.50725C7.72256 9.44091 7.72977 9.38179 7.74131 9.32987L6.80679 8.64629L7.61151 7.22722L8.63255 7.69447C8.72485 7.61948 8.83157 7.54737 8.95271 7.47815C9.07385 7.40893 9.18922 7.35701 9.29883 7.3224L9.47188 6.22348H11.064L11.2371 7.31374C11.3467 7.35412 11.4635 7.40748 11.5875 7.47382C11.7115 7.54016 11.8168 7.61371 11.9033 7.69447L12.9244 7.22722L13.7291 8.64629L12.7946 9.31256C12.8061 9.37025 12.8133 9.43226 12.8162 9.4986C12.8191 9.56494 12.8206 9.62695 12.8206 9.68464C12.8206 9.74232 12.8191 9.80289 12.8162 9.86635C12.8133 9.9298 12.8061 9.99037 12.7946 10.0481L13.7291 10.723L12.9244 12.1421L11.9033 11.6748C11.811 11.7498 11.7058 11.8233 11.5875 11.8955C11.4693 11.9676 11.3524 12.0209 11.2371 12.0555L11.064 13.1458H9.47188ZM10.2679 10.8095C10.5795 10.8095 10.8448 10.6999 11.064 10.4807C11.2832 10.2615 11.3928 9.99614 11.3928 9.68464C11.3928 9.37313 11.2832 9.10778 11.064 8.88857C10.8448 8.66936 10.5795 8.55976 10.2679 8.55976C9.95645 8.55976 9.69109 8.66936 9.47188 8.88857C9.25268 9.10778 9.14307 9.37313 9.14307 9.68464C9.14307 9.99614 9.25268 10.2615 9.47188 10.4807C9.69109 10.6999 9.95645 10.8095 10.2679 10.8095Z" fill="#4E4E4E"/>
<path d="M17.309 1.37942C17.3236 1.61864 17.2667 1.85679 17.1455 2.06355C17.0243 2.27031 16.8443 2.4363 16.6284 2.5404C16.4125 2.64449 16.1705 2.68196 15.9333 2.64804C15.696 2.61412 15.4742 2.51035 15.2962 2.34994C15.1181 2.18953 14.9918 1.97974 14.9334 1.7473C14.875 1.51487 14.8871 1.2703 14.9682 1.04476C15.0492 0.819225 15.1956 0.622921 15.3886 0.480861C15.5816 0.338802 15.8126 0.257416 16.052 0.247072C16.209 0.238433 16.3662 0.260914 16.5144 0.313221C16.6627 0.365529 16.7992 0.446631 16.916 0.551864C17.0328 0.657097 17.1277 0.784384 17.1951 0.926406C17.2626 1.06843 17.3013 1.22238 17.309 1.37942Z" fill="#767677"/>
<path d="M10.2679 15.3248C7.06321 15.3248 4.24657 14.1746 2.79019 12.4761C3.35527 14.0041 4.37489 15.3223 5.71182 16.2533C7.04873 17.1843 8.63881 17.6834 10.2679 17.6834C11.8971 17.6834 13.4871 17.1843 14.8241 16.2533C16.161 15.3223 17.1806 14.0041 17.7457 12.4761C16.2929 14.1746 13.4869 15.3248 10.2679 15.3248Z" fill="#F37726"/>
<path d="M10.2679 4.27975C13.4727 4.27975 16.2893 5.4299 17.7457 7.1284C17.1806 5.6004 16.161 4.28218 14.8241 3.35118C13.4871 2.42017 11.8971 1.92108 10.2679 1.92108C8.63881 1.92108 7.04873 2.42017 5.71182 3.35118C4.37489 4.28218 3.35527 5.6004 2.79019 7.1284C4.24657 5.42634 7.04897 4.27975 10.2679 4.27975Z" fill="#F37726"/>
<path d="M5.85624 18.6301C5.87504 18.9314 5.80371 19.2315 5.65134 19.4922C5.49898 19.7528 5.27247 19.9622 5.00068 20.0936C4.7289 20.225 4.42414 20.2726 4.12523 20.2302C3.82632 20.1878 3.5468 20.0574 3.32227 19.8556C3.09775 19.6538 2.93838 19.3897 2.86449 19.097C2.79059 18.8042 2.80551 18.4962 2.90734 18.2119C3.00917 17.9277 3.1933 17.6803 3.43627 17.5011C3.67925 17.3219 3.97006 17.2191 4.27167 17.2058C4.46925 17.1952 4.66697 17.2237 4.85355 17.2896C5.04012 17.3554 5.21189 17.4574 5.35904 17.5897C5.50619 17.7219 5.62584 17.8819 5.71115 18.0604C5.79646 18.239 5.84576 18.4325 5.85624 18.6301Z" fill="#9E9E9E"/>
<path d="M3.15443 3.89268C2.98174 3.89745 2.81151 3.85105 2.66512 3.75933C2.51874 3.6676 2.40274 3.53464 2.33172 3.37717C2.2607 3.21969 2.23783 3.04473 2.26598 2.87429C2.29414 2.70385 2.37206 2.54554 2.48994 2.41927C2.60783 2.293 2.76042 2.2044 2.92853 2.16462C3.09663 2.12484 3.27275 2.13566 3.43473 2.19571C3.5967 2.25575 3.73731 2.36235 3.83886 2.5021C3.94041 2.64185 3.99838 2.8085 4.00547 2.98111C4.01221 3.2145 3.92663 3.44113 3.76729 3.6118C3.60796 3.78247 3.38773 3.8834 3.15443 3.89268Z" fill="#616262"/>
</svg>
