<svg width="21" height="21" viewBox="0 0 21 21" fill="none" xmlns="http://www.w3.org/2000/svg">
<path d="M10.4001 17.6393C6.33379 17.6393 2.7599 16.18 0.911979 14.0248C1.62898 15.9636 2.92273 17.6362 4.61908 18.8175C6.31541 19.9988 8.33299 20.6321 10.4001 20.6321C12.4672 20.6321 14.4848 19.9988 16.1811 18.8175C17.8775 17.6362 19.1712 15.9636 19.8883 14.0248C18.0449 16.18 14.4845 17.6393 10.4001 17.6393Z" fill="#F37726"/>
<path d="M10.4001 3.62487C14.4664 3.62487 18.0403 5.08424 19.8883 7.23938C19.1712 5.30058 17.8775 3.62796 16.1811 2.44666C14.4848 1.26535 12.4672 0.632084 10.4001 0.632084C8.33299 0.632084 6.31541 1.26535 4.61908 2.44666C2.92273 3.62796 1.62898 5.30058 0.911979 7.23938C2.7599 5.07972 6.31572 3.62487 10.4001 3.62487Z" fill="#F37726"/>
<path d="M4.514 14.0248V5.93678H5.558V9.83678H5.594C5.81 9.52478 6.026 9.23678 6.23 8.97278L8.702 5.93678H9.998L7.07 9.36878L10.226 14.0248H8.99L6.338 10.0528L5.558 10.9408V14.0248H4.514Z" fill="#4E4E4E"/>
<path d="M10.9819 16.4008V10.1128C10.9819 9.36878 10.9579 8.76878 10.9339 8.21678H11.8699L11.9299 9.21278H11.9539C12.3739 8.50478 13.0699 8.09678 14.0179 8.09678C15.4339 8.09678 16.4899 9.28478 16.4899 11.0368C16.4899 13.1248 15.2059 14.1568 13.8379 14.1568C13.0699 14.1568 12.3979 13.8208 12.0499 13.2448H12.0259V16.4008H10.9819ZM12.0259 10.6528V11.6608C12.0259 11.8168 12.0379 11.9608 12.0739 12.0928C12.2659 12.8248 12.9019 13.3288 13.6579 13.3288C14.7739 13.3288 15.4219 12.4168 15.4219 11.0848C15.4219 9.93278 14.8099 8.93678 13.6939 8.93678C12.9739 8.93678 12.2899 9.44078 12.0979 10.2328C12.0619 10.3648 12.0259 10.5208 12.0259 10.6528Z" fill="#8F8F8F"/>
</svg>
