<svg xmlns="http://www.w3.org/2000/svg" fill="none" viewBox="0 0 20 21" aria-hidden="true">
  <path fill="#767677" d="M17.309 1.373A1.207 1.207 0 1116.052.241a1.193 1.193 0 011.257 1.132z"/>
  <path fill="#F37726" d="M10.268 15.319c-3.205 0-6.021-1.15-7.478-2.85a7.973 7.973 0 0014.956 0c-1.453 1.7-4.26 2.85-7.478 2.85zM10.268 4.274c3.205 0 6.021 1.15 7.478 2.848a7.973 7.973 0 00-14.956 0C4.247 5.42 7.05 4.274 10.268 4.274z"/>
  <path fill="#9E9E9E" d="M5.856 18.624A1.52 1.52 0 114.272 17.2a1.505 1.505 0 011.584 1.424z"/>
  <path fill="#616262" d="M3.154 3.886a.876.876 0 11.851-.911.887.887 0 01-.85.911z"/>
  <path fill="#4E4E4E" d="M6.331 10.162h.458V8.644c0-.083.005-.15.03-.219.09-.244.318-.452.614-.452.432 0 .583.338.583.744v1.445h.457V8.665c0-.863-.54-1.071-.879-1.071a.938.938 0 00-.468.124.861.861 0 00-.327.328h-.01V6.47H6.33v3.692zM11.32 7.646h-.457v1.539a.658.658 0 01-.645.655c-.41 0-.561-.328-.561-.806V7.646h-.458v1.471c0 .879.474 1.102.869 1.102a.94.94 0 00.832-.468h.01l.026.411h.406a9.007 9.007 0 01-.021-.691V7.646zM12.079 9.512c0 .224-.01.479-.021.65h.39l.026-.41h.01c.193.327.484.467.848.467.561 0 1.133-.447 1.133-1.346 0-.76-.436-1.28-1.066-1.28-.405 0-.696.177-.857.458h-.01v-1.58h-.453v3.041zm.452-.806c0-.073.01-.135.026-.192.094-.343.385-.562.692-.562.494 0 .754.432.754.936 0 .577-.281.967-.765.967a.702.702 0 01-.707-.702v-.447z"/>
  <path fill="#8F8F8F" d="M5.78 12.924a.883.883 0 00.434.109c.362 0 .576-.192.576-.467 0-.23-.14-.365-.406-.464-.202-.08-.291-.138-.291-.266 0-.115.09-.21.256-.21a.6.6 0 01.317.092l.067-.205a.719.719 0 00-.378-.096c-.33 0-.534.205-.534.454 0 .186.131.336.413.439.204.077.284.147.284.281 0 .132-.096.23-.297.23a.796.796 0 01-.375-.108l-.067.211zM8.398 12.275a.687.687 0 00.01-.132c0-.284-.131-.726-.64-.726-.451 0-.727.365-.727.832 0 .467.285.784.762.784.246 0 .42-.054.518-.1l-.05-.2c-.103.044-.228.08-.43.08-.284 0-.524-.158-.53-.538h1.087zm-1.085-.202c.023-.195.144-.454.432-.454.317 0 .394.278.39.454h-.822zM8.756 12.998h.282v-.826c0-.045.003-.093.01-.13.038-.212.179-.36.377-.36.039 0 .067 0 .096.007v-.265c-.025-.004-.048-.007-.077-.007-.188 0-.361.131-.432.34h-.01l-.012-.308h-.246c.01.144.012.3.012.483v1.066zM9.692 11.45l.59 1.548h.268l.608-1.549h-.294l-.301.867a5.776 5.776 0 00-.131.4h-.01a4.311 4.311 0 00-.125-.4l-.304-.867h-.3zM11.707 12.998v-1.549h-.282v1.549h.281zm-.141-2.16a.172.172 0 00-.176.176c0 .096.067.173.17.173.111 0 .178-.077.178-.173 0-.1-.07-.176-.172-.176zM13.23 12.732a.808.808 0 01-.345.074c-.307 0-.537-.22-.537-.58 0-.32.192-.585.547-.585a.69.69 0 01.326.074l.064-.215a.886.886 0 00-.39-.083c-.506 0-.832.349-.832.826 0 .473.304.79.771.79.208 0 .371-.054.445-.09l-.048-.21zM14.835 12.275a.686.686 0 00.01-.132c0-.284-.132-.726-.64-.726-.451 0-.727.365-.727.832 0 .467.285.784.762.784.246 0 .419-.054.518-.1l-.051-.2a1.01 1.01 0 01-.429.08c-.285 0-.524-.158-.53-.538h1.087zm-1.085-.202c.023-.195.144-.454.432-.454.317 0 .394.278.39.454h-.822z"/>
</svg>
