<svg width="21" height="21" viewBox="0 0 21 21" fill="none" xmlns="http://www.w3.org/2000/svg">
<path d="M1.19037 11.1581C1.19037 11.8882 1.13197 12.126 0.981777 12.3012C0.814623 12.4517 0.597618 12.535 0.372681 12.5348L0.431088 12.952C0.779816 12.9567 1.11819 12.8335 1.38228 12.6057C1.52437 12.4325 1.63011 12.2323 1.69319 12.0173C1.75626 11.8023 1.77538 11.5768 1.74941 11.3542V8.59238H1.19037V11.1414V11.1581Z" fill="#4E4E4E"/>
<path d="M5.35955 10.829C5.35955 11.1419 5.35955 11.4214 5.38458 11.6634H4.88812L4.85475 11.1669C4.75091 11.3426 4.6024 11.4876 4.42434 11.5873C4.24628 11.6869 4.045 11.7377 3.84097 11.7343C3.35703 11.7343 2.78131 11.4715 2.78131 10.3993V8.61791H3.34035V10.2867C3.34035 10.8666 3.51974 11.2545 4.02454 11.2545C4.1284 11.2557 4.23143 11.236 4.3276 11.1968C4.42377 11.1576 4.51113 11.0995 4.58457 11.0261C4.65801 10.9527 4.71605 10.8653 4.75528 10.7691C4.79451 10.6729 4.81414 10.5699 4.81303 10.4661V8.59705H5.37206V10.8123L5.35955 10.829Z" fill="#4E4E4E"/>
<path d="M6.41917 9.61042C6.41917 9.22243 6.41917 8.90537 6.39413 8.61751H6.89476L6.91979 9.139C7.03133 8.95059 7.19191 8.79598 7.3844 8.69165C7.57689 8.58732 7.79409 8.53719 8.01283 8.54659C8.75543 8.54659 9.31447 9.1682 9.31447 10.0944C9.31447 11.1874 8.64279 11.7297 7.91688 11.7297C7.73108 11.738 7.54629 11.6982 7.38039 11.6142C7.21448 11.5301 7.07308 11.4047 6.96986 11.25V12.9187H6.41917V9.62294V9.61042ZM6.96986 10.4239C6.97137 10.4996 6.97975 10.575 6.99489 10.6492C7.04222 10.8345 7.14998 10.9986 7.30109 11.1158C7.45222 11.2329 7.63808 11.2963 7.82927 11.2959C8.41751 11.2959 8.76378 10.8161 8.76378 10.1194C8.76378 9.5103 8.43837 8.98881 7.85013 8.98881C7.61734 9.00787 7.3995 9.11119 7.23744 9.27939C7.07539 9.44759 6.98025 9.66912 6.96986 9.90246V10.4239Z" fill="#4E4E4E"/>
<path d="M10.3105 8.61467L10.9822 10.4128C11.0531 10.613 11.1282 10.855 11.1783 11.0344C11.2367 10.8508 11.2992 10.6172 11.3743 10.4002L11.9834 8.61467H12.5717L11.7373 10.7841C11.3201 11.827 11.0656 12.3652 10.6818 12.6906C10.4885 12.8672 10.2528 12.9908 9.9976 13.0494L9.85993 12.5821C10.0384 12.5235 10.204 12.4315 10.348 12.311C10.5516 12.1451 10.7131 11.9336 10.8195 11.6935C10.8422 11.652 10.8578 11.6068 10.8654 11.56C10.8606 11.5097 10.8479 11.4604 10.8278 11.414L9.69305 8.60632H10.3022L10.3105 8.61467Z" fill="#4E4E4E"/>
<path d="M14.0557 7.7395V8.6156H14.8567V9.03279H14.0557V10.6765C14.0557 11.052 14.1642 11.2689 14.4729 11.2689C14.5826 11.2707 14.692 11.2581 14.7983 11.2314L14.8234 11.6486C14.6639 11.7038 14.4956 11.7293 14.3269 11.7237C14.2152 11.7307 14.1033 11.7134 13.9989 11.6731C13.8945 11.6327 13.8 11.5703 13.722 11.49C13.5521 11.2628 13.4745 10.9795 13.505 10.6974V9.02862H13.0294V8.61143H13.5134V7.86883L14.0557 7.7395Z" fill="#4E4E4E"/>
<path d="M15.8865 10.2367C15.8752 10.3782 15.8947 10.5204 15.9438 10.6536C15.9928 10.7868 16.0702 10.9078 16.1705 11.0081C16.2709 11.1085 16.3919 11.1859 16.5251 11.2349C16.6583 11.284 16.8005 11.3035 16.942 11.2922C17.2282 11.2986 17.5125 11.2446 17.7764 11.1336L17.8723 11.5508C17.5485 11.6842 17.2003 11.7482 16.8502 11.7386C16.6461 11.7525 16.4414 11.7222 16.2502 11.6496C16.0589 11.5771 15.8856 11.464 15.7421 11.3181C15.5987 11.1723 15.4885 10.9972 15.4191 10.8047C15.3496 10.6123 15.3227 10.4071 15.34 10.2033C15.34 9.28548 15.8865 8.55957 16.7793 8.55957C17.7806 8.55957 18.0309 9.43567 18.0309 9.9947C18.0362 10.0808 18.0362 10.1672 18.0309 10.2534H15.874L15.8865 10.2367ZM17.5219 9.81949C17.538 9.70795 17.53 9.59426 17.4985 9.48607C17.4669 9.37789 17.4125 9.27772 17.339 9.19232C17.2655 9.10693 17.1745 9.03829 17.0722 8.99103C16.9699 8.94377 16.8586 8.91899 16.7459 8.91835C16.5167 8.93495 16.3019 9.03655 16.1437 9.20324C15.9855 9.36994 15.8953 9.58971 15.8907 9.81949H17.5219Z" fill="#4E4E4E"/>
<path d="M18.8791 9.5634C18.8791 9.20462 18.8791 8.89589 18.8541 8.6122H19.3547V9.20879H19.3798C19.4323 9.02466 19.5409 8.86146 19.6904 8.74184C19.8399 8.62222 20.023 8.55213 20.2141 8.54128C20.2668 8.53438 20.32 8.53438 20.3727 8.54128V9.06277C20.3089 9.05539 20.2445 9.05539 20.1808 9.06277C19.9914 9.07011 19.8111 9.14613 19.6737 9.27665C19.5363 9.40716 19.4511 9.58324 19.434 9.77199C19.4184 9.85736 19.41 9.94388 19.409 10.0306V11.6535H18.8583V9.56757L18.8791 9.5634Z" fill="#4E4E4E"/>
<path d="M10.3848 16.5737C6.63011 16.5737 3.33012 15.2261 1.62381 13.2361C2.28586 15.0264 3.48046 16.5708 5.04681 17.6616C6.61315 18.7524 8.4761 19.3371 10.3848 19.3371C12.2935 19.3371 14.1564 18.7524 15.7228 17.6616C17.2891 16.5708 18.4837 15.0264 19.1458 13.2361C17.4437 15.2261 14.1562 16.5737 10.3848 16.5737Z" fill="#F37726"/>
<path d="M10.3848 3.63324C14.1395 3.63324 17.4395 4.98077 19.1458 6.97075C18.4837 5.18054 17.2891 3.63609 15.7228 2.54532C14.1564 1.45455 12.2935 0.869812 10.3848 0.869812C8.4761 0.869812 6.61315 1.45455 5.04681 2.54532C3.48046 3.63609 2.28586 5.18054 1.62381 6.97075C3.33012 4.9766 6.61343 3.63324 10.3848 3.63324Z" fill="#F37726"/>
</svg>
