<svg width="21" height="21" viewBox="0 0 21 21" fill="none" xmlns="http://www.w3.org/2000/svg">
<path d="M17.7341 1.60992C17.7487 1.84914 17.6918 2.08729 17.5706 2.29405C17.4494 2.50081 17.2694 2.6668 17.0535 2.7709C16.8376 2.87499 16.5956 2.91246 16.3584 2.87854C16.1211 2.84462 15.8994 2.74085 15.7213 2.58044C15.5432 2.42003 15.4169 2.21024 15.3585 1.9778C15.3001 1.74537 15.3122 1.5008 15.3933 1.27526C15.4743 1.04972 15.6207 0.85342 15.8137 0.71136C16.0067 0.569301 16.2377 0.487915 16.4771 0.477571C16.6341 0.468932 16.7913 0.491413 16.9395 0.543721C17.0878 0.596028 17.2243 0.67713 17.3411 0.782363C17.4579 0.887596 17.5528 1.01488 17.6202 1.15691C17.6877 1.29893 17.7264 1.45288 17.7341 1.60992Z" fill="#767677"/>
<path d="M10.693 15.5553C7.48832 15.5553 4.67168 14.4051 3.2153 12.7066C3.78038 14.2346 4.8 15.5528 6.13693 16.4838C7.47384 17.4148 9.06392 17.9139 10.693 17.9139C12.3222 17.9139 13.9122 17.4148 15.2492 16.4838C16.5861 15.5528 17.6057 14.2346 18.1708 12.7066C16.718 14.4051 13.912 15.5553 10.693 15.5553Z" fill="#F37726"/>
<path d="M10.693 4.51024C13.8978 4.51024 16.7144 5.66039 18.1708 7.3589C17.6057 5.8309 16.5861 4.51268 15.2492 3.58167C13.9122 2.65067 12.3222 2.15158 10.693 2.15158C9.06392 2.15158 7.47384 2.65067 6.13693 3.58167C4.8 4.51268 3.78038 5.8309 3.2153 7.3589C4.67168 5.65683 7.47408 4.51024 10.693 4.51024Z" fill="#F37726"/>
<path d="M6.28133 18.8606C6.30013 19.1619 6.2288 19.462 6.07643 19.7227C5.92406 19.9833 5.69756 20.1927 5.42577 20.3241C5.15399 20.4555 4.84923 20.5031 4.55032 20.4607C4.25141 20.4183 3.97188 20.2879 3.74736 20.0861C3.52283 19.8843 3.36347 19.6202 3.28957 19.3275C3.21568 19.0347 3.2306 18.7266 3.33243 18.4424C3.43426 18.1582 3.61839 17.9108 3.86136 17.7316C4.10434 17.5524 4.39515 17.4496 4.69676 17.4363C4.89433 17.4257 5.09206 17.4542 5.27863 17.5201C5.46521 17.5859 5.63698 17.6879 5.78413 17.8202C5.93128 17.9524 6.05093 18.1124 6.13624 18.2909C6.22155 18.4695 6.27085 18.663 6.28133 18.8606Z" fill="#9E9E9E"/>
<path d="M3.57952 4.12317C3.40684 4.12794 3.2366 4.08155 3.09021 3.98982C2.94383 3.8981 2.82783 3.76513 2.75682 3.60766C2.6858 3.45019 2.66293 3.27523 2.69108 3.10479C2.71923 2.93435 2.79715 2.77604 2.91504 2.64977C3.03292 2.52349 3.18552 2.4349 3.35362 2.39512C3.52173 2.35534 3.69784 2.36615 3.85982 2.4262C4.0218 2.48625 4.1624 2.59285 4.26395 2.7326C4.36551 2.87234 4.42347 3.039 4.43056 3.2116C4.43731 3.44499 4.35172 3.67162 4.19239 3.84229C4.03305 4.01296 3.81282 4.1139 3.57952 4.12317Z" fill="#616262"/>
<path d="M8.43321 13.7553V5.94525H9.40121V9.27825H9.42321C9.57721 9.00325 9.81921 8.75025 10.1162 8.58525C10.4022 8.42025 10.7432 8.32125 11.1062 8.32125C11.8212 8.32125 12.9652 8.76125 12.9652 10.5873V13.7553H11.9972V10.6973C11.9972 9.83925 11.6782 9.12425 10.7652 9.12425C10.1382 9.12425 9.65421 9.56425 9.46721 10.0813C9.41221 10.2243 9.40121 10.3673 9.40121 10.5433V13.7553H8.43321Z" fill="#F37726"/>
</svg>
