<svg width="20" height="21" viewBox="0 0 20 21" fill="none" xmlns="http://www.w3.org/2000/svg">
<path d="M17.309 1.37322C17.3236 1.61244 17.2667 1.8506 17.1455 2.05735C17.0243 2.26411 16.8443 2.43011 16.6284 2.5342C16.4125 2.63829 16.1705 2.67576 15.9333 2.64185C15.696 2.60793 15.4742 2.50415 15.2962 2.34374C15.1181 2.18333 14.9918 1.97355 14.9334 1.74111C14.875 1.50867 14.8871 1.2641 14.9682 1.03857C15.0492 0.81303 15.1956 0.616726 15.3886 0.474666C15.5816 0.332607 15.8126 0.251221 16.052 0.240877C16.209 0.232238 16.3662 0.254719 16.5144 0.307026C16.6627 0.359334 16.7992 0.440436 16.916 0.545669C17.0328 0.650902 17.1277 0.778189 17.1951 0.920211C17.2626 1.06223 17.3013 1.21619 17.309 1.37322Z" fill="#767677"/>
<path d="M10.2679 15.3186C7.06321 15.3186 4.24657 14.1684 2.79019 12.4699C3.35527 13.9979 4.37489 15.3161 5.71182 16.2471C7.04873 17.1781 8.63881 17.6772 10.2679 17.6772C11.8971 17.6772 13.4871 17.1781 14.8241 16.2471C16.161 15.3161 17.1806 13.9979 17.7457 12.4699C16.2929 14.1684 13.4869 15.3186 10.2679 15.3186Z" fill="#F37726"/>
<path d="M10.2679 4.27355C13.4727 4.27355 16.2893 5.4237 17.7457 7.12221C17.1806 5.59421 16.161 4.27598 14.8241 3.34498C13.4871 2.41398 11.8971 1.91489 10.2679 1.91489C8.63881 1.91489 7.04873 2.41398 5.71182 3.34498C4.37489 4.27598 3.35527 5.59421 2.79019 7.12221C4.24657 5.42014 7.04897 4.27355 10.2679 4.27355Z" fill="#F37726"/>
<path d="M5.85624 18.6239C5.87504 18.9252 5.80371 19.2253 5.65134 19.486C5.49898 19.7466 5.27247 19.956 5.00068 20.0874C4.7289 20.2188 4.42414 20.2664 4.12523 20.224C3.82632 20.1816 3.5468 20.0512 3.32227 19.8494C3.09775 19.6476 2.93838 19.3835 2.86449 19.0908C2.79059 18.798 2.80551 18.49 2.90734 18.2057C3.00917 17.9215 3.1933 17.6741 3.43627 17.4949C3.67925 17.3157 3.97006 17.2129 4.27167 17.1996C4.46925 17.189 4.66697 17.2175 4.85355 17.2834C5.04012 17.3492 5.21189 17.4512 5.35904 17.5835C5.50619 17.7158 5.62584 17.8757 5.71115 18.0542C5.79646 18.2328 5.84576 18.4264 5.85624 18.6239Z" fill="#9E9E9E"/>
<path d="M3.15443 3.88649C2.98174 3.89125 2.81151 3.84486 2.66512 3.75313C2.51874 3.66141 2.40274 3.52845 2.33172 3.37097C2.2607 3.2135 2.23783 3.03854 2.26598 2.8681C2.29414 2.69766 2.37206 2.53935 2.48994 2.41308C2.60783 2.2868 2.76042 2.19821 2.92853 2.15843C3.09663 2.11865 3.27275 2.12946 3.43473 2.18951C3.5967 2.24956 3.73731 2.35616 3.83886 2.49591C3.94041 2.63565 3.99838 2.80231 4.00547 2.97491C4.01221 3.2083 3.92663 3.43493 3.76729 3.6056C3.60796 3.77627 3.38773 3.87721 3.15443 3.88649Z" fill="#616262"/>
<path d="M6.33098 10.1621H6.78853V8.64386C6.78853 8.56067 6.79373 8.49307 6.81973 8.42548C6.90812 8.1811 7.1369 7.97312 7.43327 7.97312C7.86482 7.97312 8.01561 8.31109 8.01561 8.71665V10.1621H8.47316V8.66466C8.47316 7.80154 7.93242 7.59356 7.59445 7.59356C7.42287 7.59356 7.26168 7.64036 7.1265 7.71835C6.98611 7.79634 6.87172 7.91593 6.79893 8.04592H6.78853V6.47047H6.33098V10.1621Z" fill="#F37726"/>
<path d="M11.3209 7.64556H10.8633V9.1846C10.8633 9.273 10.8477 9.35619 10.8217 9.41858C10.7385 9.62656 10.5253 9.83974 10.2186 9.83974C9.80781 9.83974 9.65702 9.51217 9.65702 9.03382V7.64556H9.19947V9.11701C9.19947 9.99572 9.67262 10.2193 10.0678 10.2193C10.5149 10.2193 10.7853 9.95413 10.8997 9.75135H10.9101L10.9361 10.1621H11.3417C11.3261 9.96453 11.3209 9.73575 11.3209 9.47058V7.64556Z" fill="#F37726"/>
<path d="M12.0788 9.51217C12.0788 9.73575 12.0684 9.99052 12.058 10.1621H12.448L12.474 9.75135H12.4844C12.6768 10.0789 12.968 10.2193 13.3319 10.2193C13.8935 10.2193 14.4654 9.77215 14.4654 8.87264C14.4654 8.11351 14.0286 7.59356 13.3995 7.59356C12.994 7.59356 12.7028 7.77035 12.5416 8.05112H12.5312V6.47047H12.0788V9.51217ZM12.5312 8.70625C12.5312 8.63346 12.5416 8.57107 12.5572 8.51387C12.6508 8.17071 12.942 7.95233 13.2487 7.95233C13.7427 7.95233 14.0027 8.38388 14.0027 8.88823C14.0027 9.46538 13.7219 9.85534 13.2383 9.85534C12.9056 9.85534 12.6352 9.63696 12.552 9.31979C12.5364 9.2678 12.5312 9.2106 12.5312 9.15341V8.70625Z" fill="#F37726"/>
<path d="M5.77924 12.9242C5.88803 12.9882 6.04481 13.033 6.21439 13.033C6.57596 13.033 6.79034 12.841 6.79034 12.5659C6.79034 12.3355 6.64955 12.2011 6.38398 12.1019C6.1824 12.0219 6.0928 11.9643 6.0928 11.8363C6.0928 11.7212 6.1824 11.6252 6.34878 11.6252C6.49276 11.6252 6.60475 11.6796 6.66555 11.718L6.73274 11.5132C6.64955 11.4588 6.51196 11.4172 6.35518 11.4172C6.02561 11.4172 5.82083 11.622 5.82083 11.8715C5.82083 12.0571 5.95202 12.2075 6.23359 12.3099C6.43837 12.3867 6.51836 12.4571 6.51836 12.5915C6.51836 12.7227 6.42237 12.8218 6.22079 12.8218C6.08001 12.8218 5.93282 12.7642 5.84643 12.7131L5.77924 12.9242Z" fill="#8F8F8F"/>
<path d="M8.39813 12.2747C8.40453 12.2427 8.40772 12.2011 8.40772 12.1435C8.40772 11.8587 8.27654 11.4172 7.76779 11.4172C7.31663 11.4172 7.04146 11.7819 7.04146 12.2491C7.04146 12.7163 7.32623 13.033 7.80298 13.033C8.04936 13.033 8.22214 12.9786 8.32133 12.9338L8.27014 12.7323C8.16775 12.777 8.04296 12.8122 7.84138 12.8122C7.55661 12.8122 7.31663 12.6555 7.31023 12.2747H8.39813ZM7.31343 12.0731C7.33583 11.8779 7.45742 11.6188 7.74539 11.6188C8.06216 11.6188 8.13895 11.8971 8.13575 12.0731H7.31343Z" fill="#8F8F8F"/>
<path d="M8.75642 12.9978H9.03799V12.1723C9.03799 12.1275 9.04119 12.0795 9.04759 12.0411C9.08598 11.8299 9.22677 11.6828 9.42515 11.6828C9.46354 11.6828 9.49234 11.6828 9.52114 11.6892V11.4236C9.49554 11.4204 9.47314 11.4172 9.44435 11.4172C9.25557 11.4172 9.08278 11.5484 9.01239 11.7563H9.00279L8.98999 11.4492H8.74362C8.75322 11.5932 8.75642 11.7499 8.75642 11.9323V12.9978Z" fill="#8F8F8F"/>
<path d="M9.69245 11.4492L10.2812 12.9978H10.55L11.1579 11.4492H10.8635L10.5628 12.3163C10.5116 12.4603 10.4668 12.5883 10.4316 12.7163H10.422C10.39 12.5883 10.3484 12.4603 10.2972 12.3163L9.99322 11.4492H9.69245Z" fill="#8F8F8F"/>
<path d="M11.7065 12.9978V11.4492H11.4249V12.9978H11.7065ZM11.5657 10.838C11.4601 10.838 11.3897 10.918 11.3897 11.014C11.3897 11.11 11.4569 11.1868 11.5593 11.1868C11.6713 11.1868 11.7385 11.11 11.7385 11.014C11.7385 10.9148 11.6681 10.838 11.5657 10.838Z" fill="#8F8F8F"/>
<path d="M13.2307 12.7323C13.1507 12.7674 13.0451 12.8058 12.8852 12.8058C12.578 12.8058 12.3476 12.5851 12.3476 12.2267C12.3476 11.9067 12.5396 11.6412 12.8948 11.6412C13.0483 11.6412 13.1539 11.6796 13.2211 11.7148L13.2851 11.5004C13.2083 11.4588 13.0611 11.4172 12.8948 11.4172C12.3892 11.4172 12.0628 11.7659 12.0628 12.2427C12.0628 12.7163 12.3668 13.033 12.834 13.033C13.0419 13.033 13.2051 12.9786 13.2787 12.9434L13.2307 12.7323Z" fill="#8F8F8F"/>
<path d="M14.835 12.2747C14.8414 12.2427 14.8446 12.2011 14.8446 12.1435C14.8446 11.8587 14.7134 11.4172 14.2046 11.4172C13.7535 11.4172 13.4783 11.7819 13.4783 12.2491C13.4783 12.7163 13.7631 13.033 14.2398 13.033C14.4862 13.033 14.659 12.9786 14.7582 12.9338L14.707 12.7323C14.6046 12.777 14.4798 12.8122 14.2782 12.8122C13.9935 12.8122 13.7535 12.6555 13.7471 12.2747H14.835ZM13.7503 12.0731C13.7727 11.8779 13.8943 11.6188 14.1823 11.6188C14.499 11.6188 14.5758 11.8971 14.5726 12.0731H13.7503Z" fill="#8F8F8F"/>
</svg>
