<svg width="21" height="21" viewBox="0 0 21 21" fill="none" xmlns="http://www.w3.org/2000/svg">
<path d="M10.975 17.8535C6.90868 17.8535 3.3348 16.3941 1.48688 14.239C2.20388 16.1778 3.49762 17.8504 5.19398 19.0317C6.89031 20.213 8.90788 20.8463 10.975 20.8463C13.0421 20.8463 15.0597 20.213 16.756 19.0317C18.4524 17.8504 19.7461 16.1778 20.4632 14.239C18.6197 16.3941 15.0594 17.8535 10.975 17.8535Z" fill="#F37726"/>
<path d="M10.975 3.83904C15.0413 3.83904 18.6152 5.29841 20.4632 7.45355C19.7461 5.51475 18.4524 3.84213 16.756 2.66082C15.0597 1.47952 13.0421 0.846252 10.975 0.846252C8.90788 0.846252 6.89031 1.47952 5.19398 2.66082C3.49762 3.84213 2.20388 5.51475 1.48688 7.45355C3.3348 5.29389 6.89062 3.83904 10.975 3.83904Z" fill="#F37726"/>
<path d="M3.47787 6.98294H2.9039V11.6671H3.47787V10.4663L3.77475 10.1365L4.86991 11.6671H5.58243L4.17719 9.78682L5.4043 8.47394H4.71157L3.76815 9.5757C3.67579 9.68786 3.57023 9.8264 3.49106 9.93855H3.47787V6.98294Z" fill="#4E4E4E"/>
<path d="M8.56278 10.1761C8.57597 10.1101 8.58257 10.0243 8.58257 9.90557C8.58257 9.3184 8.31208 8.40797 7.2631 8.40797C6.33287 8.40797 5.7655 9.16007 5.7655 10.1233C5.7655 11.0865 6.35267 11.7396 7.33567 11.7396C7.84367 11.7396 8.19992 11.6275 8.40444 11.5351L8.29889 11.1195C8.08777 11.2118 7.83047 11.2844 7.41484 11.2844C6.82768 11.2844 6.33287 10.9611 6.31968 10.1761H8.56278ZM6.32628 9.76043C6.37246 9.35799 6.62316 8.8236 7.21692 8.8236C7.87006 8.8236 8.02839 9.39757 8.0218 9.76043H6.32628Z" fill="#4E4E4E"/>
<path d="M9.30153 11.6671H9.8821V9.96494C9.8821 9.87258 9.88869 9.77362 9.90189 9.69445C9.98106 9.25903 10.2713 8.95555 10.6804 8.95555C10.7595 8.95555 10.8189 8.95555 10.8783 8.96874V8.42116C10.8255 8.41457 10.7793 8.40797 10.72 8.40797C10.3307 8.40797 9.97446 8.67846 9.82932 9.10729H9.80952L9.78314 8.47394H9.27514C9.29493 8.77082 9.30153 9.09409 9.30153 9.47014V11.6671Z" fill="#4E4E4E"/>
<path d="M11.4856 11.6671H12.0662V9.74723C12.0662 9.64827 12.0794 9.54931 12.1058 9.47674C12.2113 9.15347 12.5082 8.88298 12.8843 8.88298C13.4318 8.88298 13.6232 9.31181 13.6232 9.8264V11.6671H14.2037V9.76702C14.2037 8.67186 13.5176 8.40797 13.0756 8.40797C12.5478 8.40797 12.1783 8.70485 12.02 9.00173H12.0068L11.9738 8.47394H11.4592C11.479 8.73784 11.4856 9.00173 11.4856 9.3382V11.6671Z" fill="#4E4E4E"/>
<path d="M17.7115 10.1761C17.7246 10.1101 17.7312 10.0243 17.7312 9.90557C17.7312 9.3184 17.4608 8.40797 16.4118 8.40797C15.4815 8.40797 14.9142 9.16007 14.9142 10.1233C14.9142 11.0865 15.5013 11.7396 16.4843 11.7396C16.9923 11.7396 17.3486 11.6275 17.5531 11.5351L17.4476 11.1195C17.2364 11.2118 16.9791 11.2844 16.5635 11.2844C15.9763 11.2844 15.4815 10.9611 15.4684 10.1761H17.7115ZM15.4749 9.76043C15.5211 9.35799 15.7718 8.8236 16.3656 8.8236C17.0187 8.8236 17.1771 9.39757 17.1705 9.76043H15.4749Z" fill="#4E4E4E"/>
<path d="M18.4502 11.6671H19.0308V6.98294H18.4502V11.6671Z" fill="#4E4E4E"/>
<path d="M4.28474 14.8531H4.54965V14.0523H4.55574C4.64405 14.1984 4.81456 14.2837 5.00944 14.2837C5.35656 14.2837 5.68237 14.0218 5.68237 13.492C5.68237 13.0474 5.41441 12.746 5.05511 12.746C4.81456 12.746 4.63796 12.8495 4.53138 13.0292H4.52529L4.51007 12.7764H4.27256C4.27865 12.9165 4.28474 13.0687 4.28474 13.2575V14.8531ZM4.54965 13.3946C4.54965 13.3611 4.55879 13.3215 4.56792 13.288C4.61664 13.087 4.7902 12.9591 4.9729 12.9591C5.25608 12.9591 5.41137 13.2119 5.41137 13.5042C5.41137 13.8422 5.24694 14.0736 4.96376 14.0736C4.77193 14.0736 4.61055 13.9457 4.56183 13.7599C4.5527 13.7264 4.54965 13.6899 4.54965 13.6503V13.3946Z" fill="#8F8F8F"/>
<path d="M6.01833 14.2502H6.28629V13.4646C6.28629 13.422 6.28933 13.3763 6.29542 13.3397C6.33196 13.1388 6.46594 12.9987 6.65472 12.9987C6.69126 12.9987 6.71867 12.9987 6.74607 13.0048V12.7521C6.72171 12.749 6.7004 12.746 6.67299 12.746C6.49334 12.746 6.32892 12.8708 6.26193 13.0687H6.25279L6.24061 12.7764H6.00615C6.01529 12.9135 6.01833 13.0627 6.01833 13.2362V14.2502Z" fill="#8F8F8F"/>
<path d="M7.60895 12.746C7.20398 12.746 6.87817 13.0352 6.87817 13.5255C6.87817 13.9914 7.18875 14.2837 7.58459 14.2837C7.9378 14.2837 8.31842 14.0462 8.31842 13.5011C8.31842 13.0535 8.0322 12.746 7.60895 12.746ZM7.60286 12.9469C7.91954 12.9469 8.04438 13.2606 8.04438 13.5103C8.04438 13.8422 7.85255 14.0827 7.59677 14.0827C7.33491 14.0827 7.15221 13.8391 7.15221 13.5163C7.15221 13.2393 7.28923 12.9469 7.60286 12.9469Z" fill="#8F8F8F"/>
<path d="M8.45237 12.7764L9.01264 14.2502H9.26842L9.84695 12.7764H9.56682L9.2806 13.6016C9.23188 13.7386 9.18925 13.8604 9.15575 13.9822H9.14662C9.11617 13.8604 9.07659 13.7386 9.02787 13.6016L8.7386 12.7764H8.45237Z" fill="#8F8F8F"/>
<path d="M10.369 14.2502V12.7764H10.101V14.2502H10.369ZM10.235 12.1948C10.1345 12.1948 10.0675 12.271 10.0675 12.3623C10.0675 12.4537 10.1315 12.5267 10.2289 12.5267C10.3355 12.5267 10.3994 12.4537 10.3994 12.3623C10.3994 12.2679 10.3325 12.1948 10.235 12.1948Z" fill="#8F8F8F"/>
<path d="M10.7142 14.1801C10.8177 14.241 10.9669 14.2837 11.1283 14.2837C11.4724 14.2837 11.6764 14.101 11.6764 13.8391C11.6764 13.6199 11.5424 13.492 11.2897 13.3976C11.0979 13.3215 11.0126 13.2667 11.0126 13.1449C11.0126 13.0352 11.0979 12.9439 11.2562 12.9439C11.3932 12.9439 11.4998 12.9957 11.5577 13.0322L11.6216 12.8373C11.5424 12.7856 11.4115 12.746 11.2623 12.746C10.9487 12.746 10.7538 12.9409 10.7538 13.1784C10.7538 13.355 10.8786 13.4981 11.1466 13.5955C11.3415 13.6686 11.4176 13.7356 11.4176 13.8635C11.4176 13.9883 11.3262 14.0827 11.1344 14.0827C11.0004 14.0827 10.8604 14.0279 10.7782 13.9792L10.7142 14.1801Z" fill="#8F8F8F"/>
<path d="M12.2899 14.2502V12.7764H12.022V14.2502H12.2899ZM12.1559 12.1948C12.0555 12.1948 11.9885 12.271 11.9885 12.3623C11.9885 12.4537 12.0524 12.5267 12.1498 12.5267C12.2564 12.5267 12.3204 12.4537 12.3204 12.3623C12.3204 12.2679 12.2534 12.1948 12.1559 12.1948Z" fill="#8F8F8F"/>
<path d="M13.3598 12.746C12.9549 12.746 12.629 13.0352 12.629 13.5255C12.629 13.9914 12.9396 14.2837 13.3355 14.2837C13.6887 14.2837 14.0693 14.0462 14.0693 13.5011C14.0693 13.0535 13.7831 12.746 13.3598 12.746ZM13.3537 12.9469C13.6704 12.9469 13.7953 13.2606 13.7953 13.5103C13.7953 13.8422 13.6034 14.0827 13.3477 14.0827C13.0858 14.0827 12.9031 13.8391 12.9031 13.5163C12.9031 13.2393 13.0401 12.9469 13.3537 12.9469Z" fill="#8F8F8F"/>
<path d="M14.4068 14.2502H14.6747V13.3641C14.6747 13.3184 14.6808 13.2728 14.693 13.2393C14.7417 13.0901 14.8787 12.9652 15.0523 12.9652C15.305 12.9652 15.3933 13.1631 15.3933 13.4006V14.2502H15.6613V13.3732C15.6613 12.8678 15.3446 12.746 15.1406 12.746C14.897 12.746 14.7265 12.883 14.6534 13.02H14.6473L14.6321 12.7764H14.3946C14.4037 12.8982 14.4068 13.02 14.4068 13.1753V14.2502Z" fill="#8F8F8F"/>
<path d="M17.2802 13.562C17.2863 13.5316 17.2894 13.492 17.2894 13.4372C17.2894 13.1662 17.1645 12.746 16.6804 12.746C16.251 12.746 15.9892 13.0931 15.9892 13.5377C15.9892 13.9822 16.2602 14.2837 16.7139 14.2837C16.9483 14.2837 17.1128 14.2319 17.2071 14.1893L17.1584 13.9974C17.061 14.0401 16.9422 14.0736 16.7504 14.0736C16.4794 14.0736 16.251 13.9244 16.245 13.562H17.2802ZM16.248 13.3702C16.2693 13.1845 16.385 12.9378 16.6591 12.9378C16.9605 12.9378 17.0336 13.2027 17.0305 13.3702H16.248Z" fill="#8F8F8F"/>
<path d="M17.6212 14.2502H17.8891V13.4646C17.8891 13.422 17.8922 13.3763 17.8983 13.3397C17.9348 13.1388 18.0688 12.9987 18.2576 12.9987C18.2941 12.9987 18.3215 12.9987 18.3489 13.0048V12.7521C18.3246 12.749 18.3033 12.746 18.2758 12.746C18.0962 12.746 17.9318 12.8708 17.8648 13.0687H17.8556L17.8435 12.7764H17.609C17.6181 12.9135 17.6212 13.0627 17.6212 13.2362V14.2502Z" fill="#8F8F8F"/>
</svg>
