<svg xmlns="http://www.w3.org/2000/svg" fill="none" viewBox="0 0 21 21" aria-hidden="true">
  <path fill="#767677" d="M17.682 2.064A1.207 1.207 0 1116.425.932a1.193 1.193 0 011.257 1.132z"/>
  <path fill="#F37726" d="M10.64 16.01c-3.204 0-6.02-1.15-7.477-2.849a7.973 7.973 0 0014.955 0c-1.452 1.699-4.258 2.849-7.477 2.849zM10.64 4.965c3.205 0 6.022 1.15 7.478 2.848a7.973 7.973 0 00-14.955 0c1.456-1.702 4.259-2.848 7.478-2.848z"/>
  <path fill="#9E9E9E" d="M6.229 19.315a1.52 1.52 0 11-1.585-1.424 1.505 1.505 0 011.585 1.424z"/>
  <path fill="#616262" d="M3.527 4.578a.876.876 0 11.851-.912.887.887 0 01-.85.912z"/>
  <path fill="#4E4E4E" d="M4.155 11.99c.177.103.432.176.707.176.588 0 .936-.312.936-.759 0-.374-.229-.593-.66-.754-.328-.13-.473-.223-.473-.431 0-.188.145-.344.416-.344.234 0 .416.089.514.151l.11-.333a1.168 1.168 0 00-.614-.156c-.535 0-.868.333-.868.739 0 .301.213.546.67.712.333.125.463.24.463.458 0 .213-.156.374-.483.374-.23 0-.468-.094-.609-.177l-.109.343zM8.41 10.934c.011-.052.016-.12.016-.213 0-.463-.213-1.18-1.04-1.18-.733 0-1.18.592-1.18 1.351 0 .76.463 1.274 1.238 1.274.4 0 .68-.088.842-.161l-.083-.328c-.166.073-.37.13-.697.13-.463 0-.853-.255-.863-.873h1.768zm-1.762-.328c.037-.317.234-.738.702-.738.515 0 .64.452.635.738H6.648zM8.993 12.109h.458v-1.342c0-.072.005-.15.015-.213.063-.343.291-.582.614-.582.062 0 .109 0 .156.01v-.431c-.042-.005-.078-.01-.125-.01-.307 0-.588.213-.702.55h-.016l-.02-.499h-.4c.015.234.02.49.02.785v1.732zM10.514 9.592l.957 2.517h.437l.988-2.517h-.479l-.489 1.41a9.402 9.402 0 00-.213.65H11.7a7.042 7.042 0 00-.203-.65l-.494-1.41h-.489zM15.301 10.934c.01-.052.016-.12.016-.213 0-.463-.213-1.18-1.04-1.18-.733 0-1.18.592-1.18 1.351 0 .76.462 1.274 1.237 1.274.4 0 .681-.088.842-.161l-.083-.328c-.166.073-.369.13-.697.13-.462 0-.852-.255-.863-.873h1.768zm-1.762-.328c.036-.317.234-.738.702-.738.514 0 .64.452.634.738h-1.336zM15.883 12.109h.458v-1.342c0-.072.005-.15.016-.213.062-.343.29-.582.613-.582.063 0 .11 0 .156.01v-.431c-.042-.005-.078-.01-.125-.01-.306 0-.587.213-.702.55h-.015l-.021-.499h-.4c.015.234.02.49.02.785v1.732z"/>
</svg>
