<svg xmlns="http://www.w3.org/2000/svg" fill="none" viewBox="0 0 21 21" aria-hidden="true">
  <path fill="#F37726" d="M10.64 15.77c-3.204 0-6.02-1.15-7.477-2.85a7.972 7.972 0 0014.956 0c-1.453 1.7-4.26 2.85-7.478 2.85zM10.64 4.724c3.206 0 6.022 1.15 7.479 2.85a7.973 7.973 0 00-14.956 0c1.457-1.703 4.259-2.85 7.478-2.85z"/>
  <g clip-path="url(#clip0_11_986)">
    <path fill="#616161" d="M6.182 11.28v-.214l.267-.047V9.076l-.267-.046v-.214h.695l.763 1.874h.01l.741-1.874h.718v.214l-.267.046v1.943l.267.046v.214h-.857v-.213l.278-.047V9.267h-.005l-.768 1.926h-.212l-.801-1.92h-.006l.011 1.03v.716l.29.046v.214h-.857zm3.578.74a.59.59 0 01-.1-.012 1.01 1.01 0 01-.095-.017l.034-.26c.028.005.05.005.078.005h.066a.206.206 0 00.167-.08c.05-.07.09-.145.123-.22l.078-.191-.624-1.556-.189-.029v-.214h.74v.214l-.211.035.345.914.083.237h.012l.406-1.157-.223-.034V9.44h.724v.214l-.184.028-.696 1.874c-.027.08-.072.162-.116.237a.505.505 0 01-.167.162.429.429 0 01-.25.064zm2.432-.706c-.139 0-.284-.023-.417-.063a1.366 1.366 0 01-.384-.203v-.526h.25l.056.387a.9.9 0 00.495.14.583.583 0 00.278-.053.388.388 0 00.173-.145.413.413 0 00.011-.416.486.486 0 00-.172-.15 1.31 1.31 0 00-.329-.116 1.694 1.694 0 01-.412-.156.699.699 0 01-.256-.243.644.644 0 01.011-.67.705.705 0 01.273-.243.841.841 0 01.412-.087c.15-.006.3.023.44.08.117.047.222.11.317.192v.491h-.245l-.056-.353a.724.724 0 00-.183-.104.867.867 0 00-.273-.04.558.558 0 00-.24.052.384.384 0 00-.16.139.402.402 0 00-.056.208c0 .07.016.133.05.185.044.063.105.11.172.139.106.046.212.086.323.11.245.069.434.161.562.289.128.121.195.289.195.468a.61.61 0 01-.106.353.653.653 0 01-.29.237.846.846 0 01-.439.098zm1.698-.035v-.208l.267-.046v-1.96h-.54l-.045.34h-.239v-.589h1.97v.59h-.24l-.05-.341h-.539v1.954l.267.046v.214h-.851z"/>
    <path fill="#F37726" d="M6.015 12.413c-.306-.093-.523-.232-.657-.428a1.307 1.307 0 01-.19-.711v-.503c0-.186-.038-.324-.122-.428-.083-.104-.2-.15-.367-.15v-.36c.167 0 .29-.051.367-.15.078-.098.123-.242.123-.427v-.504a1.266 1.266 0 01.195-.71c.128-.197.345-.336.65-.429l.095.29a.612.612 0 00-.367.306 1.22 1.22 0 00-.111.543v.504a.97.97 0 01-.1.45.687.687 0 01-.295.301c.128.07.233.174.3.307.067.139.1.295.1.45v.504a1.22 1.22 0 00.112.543c.077.15.205.26.367.307l-.1.295zM15.364 12.384l-.094-.284a.585.585 0 00.356-.3 1.17 1.17 0 00.111-.532v-.492a.911.911 0 01.106-.45.652.652 0 01.323-.296.664.664 0 01-.323-.289.982.982 0 01-.106-.457v-.497a1.195 1.195 0 00-.111-.538.582.582 0 00-.356-.3l.094-.284c.295.087.512.226.64.417.134.208.2.45.19.7v.497c0 .179.039.323.117.422.078.098.2.15.367.15v.353c-.167 0-.29.052-.367.15-.078.099-.117.243-.117.422v.492c.005.248-.061.491-.19.7-.128.185-.345.323-.64.416z"/>
  </g>
  <defs>
    <clipPath id="clip0_11_986">
      <path fill="#fff" d="M0 0h11.999v4.8H0z" transform="translate(4.68 7.613)"/>
    </clipPath>
  </defs>
</svg>
