<?xml version="1.0" encoding="UTF-8" standalone="no"?>
<svg
 xmlns="http://www.w3.org/2000/svg"
   version="1.0"
   width="900"
   height="900"
   viewBox="0 0 900 900"
   id="svg838"><g
 transform="matrix(1.0192525,0,0,1.0192525,70.086071,-8.6636462)"
 fill="currentColor">
	<path fill="currentColor"
 d="M 375,8.5 C 226.5,8.5 21.5,102.2 21.5,346 c 0,0.8 0,1.7 0,2.5 1.7,242.7 248.6,543 353.5,543 C 480.3,891.5 728.5,589.8 728.5,346 728.5,102.2 523.5,8.5 375,8.5 Z m -318,359 c 173,0 298,122 298,305 -181,0 -298,-117 -298,-305 z m 642,0 c 0,188 -119.4,305 -304,305 0,-183 127.5,-305 304,-305 z"
 id="path834"
   style="fill-opacity:1"/>
</g>
</svg>
