<svg
 xmlns="http://www.w3.org/2000/svg"
 width="42"
 height="42"
   viewBox="0 0 24 24">
  <path
 d="m 12.045,0.033 a 12.181,12.182 0 0 0 -1.361,0.078 17.512,17.513 0 0 1 1.813,1.433 l 0.48,0.438 -0.465,0.45 a 15.047,15.048 0 0 0 -1.126,1.205 l -0.178,0.215 a 8.5269999,8.527 0 0 1 0.86,-0.05 8.1539999,8.155 0 1 1 -4.2860001,15.149 15.764,15.765 0 0 1 -1.841,0.106 H 5.0809998 A 21.847,21.848 0 0 0 5.345,21.923 11.966,11.967 0 1 0 12.045,0.033 Z M 8.1699998,0.678 A 12.181,12.182 0 0 0 5.546,1.953 15.506,15.507 0 0 1 7.359,2.383 18.551,18.552 0 0 1 8.1699998,0.678 Z M 9.4229999,0.75 A 16.237,16.238 0 0 0 8.4279997,2.748 16.15,16.152 0 0 1 10.033,3.408 6.98,6.98 0 0 1 10.463,2.899 C 10.697,2.613 10.935,2.34 11.179,2.082 A 15.047,15.048 0 0 0 9.4229999,0.75 Z M 4.6799998,2.949 a 14.969,14.97 0 0 0 0,2.336 C 5.2669997,5.22 5.876,5.185 6.4919999,5.178 A 16.617,16.617 0 0 1 6.9720001,3.43 16.48,16.481 0 0 0 4.6799998,2.949 Z M 3.6199999,3.5 A 11.938,11.938 0 0 0 1.762,5.88 17.004,17.004 0 0 1 3.6389999,5.436 17.39,17.391 0 0 1 3.6199999,3.5 Z m 4.4059999,0.287 c -0.1429997,0.437 -0.2649999,0.888 -0.38,1.347 a 8.2550001,8.255 0 0 1 1.67,-0.803 C 8.8929999,4.131 8.471,3.951 8.0259998,3.787 Z M 6.2999999,6.216 A 14.051,14.052 0 0 0 4.7450001,6.324 c 0.064,0.523 0.1569996,1.038 0.2719998,1.554 a 8.3899998,8.391 0 0 1 1.283,-1.662 z m -2.55,0.137 A 15.313,15.313 0 0 0 1.148,7.069 H 1.07 V 7.148 A 17.104,17.105 0 0 0 2.337,9.692 L 2.38,9.763 2.452,9.714 A 16.309,16.31 0 0 1 4.1859999,8.631 L 4.243,8.596 V 8.54 A 16.867,16.868 0 0 1 3.8349999,6.446 V 6.354 Z M 0.644,8.095 0.581,8.295 A 11.844,11.845 0 0 0 0,11.655 v 0.209 L 0.143,11.712 A 17.706,17.707 0 0 1 1.727,10.265 L 1.784,10.222 1.741,10.158 A 16.18,16.18 0 0 1 0.716,8.288 Z m 3.77,1.253 -0.18,0.1 C 3.7689999,9.721 3.3039999,10.021 2.8589999,10.337 l -0.065,0.05 0.05,0.064 c 0.309,0.437 0.645,0.867 0.996,1.276 L 3.977,11.892 V 11.684 A 8.1759998,8.176 0 0 1 4.3409998,9.534 Z M 2.2,10.853 2.128,10.903 a 16.574,16.574 0 0 0 -1.813,1.734 l -0.058,0.058 0.066,0.057 a 15.449,15.45 0 0 0 1.991,1.483 l 0.072,0.05 0.043,-0.08 a 16.738,16.74 0 0 1 1.053,-1.64 v -0.05 l -0.043,-0.05 a 16.99,16.99 0 0 1 -1.19,-1.54 z m 1.8549999,2.071 -0.121,0.172 A 15.363,15.363 0 0 0 3.017,14.529 l -0.043,0.072 0.071,0.043 A 16.61,16.61 0 0 0 4.607,15.41 L 4.8,15.496 4.714,15.303 A 8.0399997,8.04 0 0 1 4.054,13.131 Z M 0.079,13.404 v 0.2 a 11.758,11.759 0 0 0 0.946,3.326 l 0.078,0.186 0.072,-0.194 a 16.215,16.216 0 0 1 0.845,-2 L 2.077,14.859 2.013,14.816 A 17.197,17.198 0 0 1 0.237,13.532 Z m 2.543,1.805 -0.035,0.08 a 15.764,15.765 0 0 0 -0.983,2.479 v 0.08 H 1.69 a 16.15,16.152 0 0 0 2.6880001,0.5 l 0.072,0.007 V 18.269 A 17.562,17.563 0 0 1 4.614,16.213 V 16.148 H 4.55 A 16.266,16.266 0 0 1 2.701,15.252 Z m 2.544,1.169 v 0.114 A 17.254,17.255 0 0 0 5.0149999,18.32 v 0.078 h 0.931 c 0.2870002,0 0.6239998,0.014 0.9459999,0 h 0.209 L 6.9349997,18.269 A 8.0109998,8.011 0 0 1 5.2950001,16.435 Z m -3.29,2.1 0.115,0.172 a 11.988,11.988 0 0 0 2.5019998,2.737 l 0.1570001,0.129 v -0.201 a 22.578,22.58 0 0 1 -0.2,-2.336 v -0.071 h -0.072 A 16.23,16.23 0 0 1 2.078,18.521 Z"
 style="stroke-width:1;fill:#43b038;"/>
</svg>
