<?xml version="1.0" encoding="UTF-8" standalone="no"?>
<svg
   viewBox="0 0 24 24"
   width="24"
   height="24"
   version="1.1"
   id="svg4"
   sodipodi:docname="arrow-switch.svg"
   inkscape:version="1.1.2 (0a00cf5339, 2022-02-04)"
   xmlns:inkscape="http://www.inkscape.org/namespaces/inkscape"
   xmlns:sodipodi="http://sodipodi.sourceforge.net/DTD/sodipodi-0.dtd"
   xmlns="http://www.w3.org/2000/svg"
   xmlns:svg="http://www.w3.org/2000/svg">
  <defs
     id="defs8" />
  <sodipodi:namedview
     id="namedview6"
     pagecolor="#ffffff"
     bordercolor="#666666"
     borderopacity="1.0"
     inkscape:pageshadow="2"
     inkscape:pageopacity="0.0"
     inkscape:pagecheckerboard="0"
     showgrid="false"
     inkscape:zoom="35.166667"
     inkscape:cx="11.985782"
     inkscape:cy="12.014218"
     inkscape:window-width="1920"
     inkscape:window-height="1016"
     inkscape:window-x="0"
     inkscape:window-y="27"
     inkscape:window-maximized="1"
     inkscape:current-layer="svg4" />
  <path
     d="M 2.22,7.72 A 0.75,0.75 0 0 0 3.28,8.78 L 6.5,5.56 v 14.69 a 0.75,0.75 0 0 0 1.5,0 V 5.56 l 3.22,3.22 a 0.75,0.75 0 1 0 1.06,-1.06 l -4.5,-4.5 a 0.75,0.75 0 0 0 -1.06,0 z m 9.5,8.56 a 0.75,0.75 0 1 1 1.06,-1.06 L 16,18.44 V 3.75 a 0.75,0.75 0 0 1 1.5,0 v 14.69 l 3.22,-3.22 a 0.75,0.75 0 0 1 1.06,1.06 l -4.5,4.5 a 0.75,0.75 0 0 1 -1.06,0 z"
     id="path2" />
</svg>
