<?xml version="1.0" encoding="UTF-8" standalone="no"?>
<svg
 viewBox="0 0 24 24"
 width="24"
 height="24"
   version="1.1"
   id="svg4"
   xmlns="http://www.w3.org/2000/svg">
  <path
 d="M 2.22,7.72 A 0.75,0.75 0 0 0 3.28,8.78 L 6.5,5.56 v 14.69 a 0.75,0.75 0 0 0 1.5,0 V 5.56 l 3.22,3.22 a 0.75,0.75 0 1 0 1.06,-1.06 l -4.5,-4.5 a 0.75,0.75 0 0 0 -1.06,0 z m 9.5,8.56 a 0.75,0.75 0 1 1 1.06,-1.06 L 16,18.44 V 3.75 a 0.75,0.75 0 0 1 1.5,0 v 14.69 l 3.22,-3.22 a 0.75,0.75 0 0 1 1.06,1.06 l -4.5,4.5 a 0.75,0.75 0 0 1 -1.06,0 z"
 id="path2"/>
</svg>
