<?xml version="1.0" encoding="UTF-8" standalone="no"?>
<svg
 xmlns="http://www.w3.org/2000/svg"
   version="1.0"
   x="0px"
   y="0px"
   viewBox="0 0 152 152"
   enable-background="new 0 0 152 117.5"
   id="svg2"
   width="152"
   height="152"><g
 id="Layer_1"
 transform="matrix(1.9668121,0,0,1.9668121,-92.938371,-38.824885)"><g
 id="Azure"><g
 id="g6"><path
 d="m 93.3,59 c -2,0 -3.7,1.2 -4.5,2.9 H 60.2 v 0 c -4.8,0 -8.8,-3.9 -8.8,-8.8 0,-4.9 3.9,-8.8 8.8,-8.8 v 0 h 0.1 v 0 h 3.9 c 0.2,-1 0.5,-2 0.9,-2.9 0.2,-0.3 0.3,-0.7 0.5,-1 2,-3.5 5.8,-5.8 10.1,-5.8 3.9,0 7.3,1.9 9.4,4.7 1.2,-0.6 2.5,-1 3.8,-1.3 -2.8,-4.4 -7.6,-7.3 -13.2,-7.3 -6.5,0 -12.1,4 -14.4,9.7 0,0 0,0 0,0.1 v 0 c 0,0 0,0 0,-0.1 h -1.1 c -7,0.1 -12.7,5.8 -12.7,12.8 0,7 5.7,12.7 12.7,12.7 h 28.7 c 0.8,1.7 2.5,2.9 4.5,2.9 2.7,0 4.9,-2.2 4.9,-4.9 C 98.2,61.2 96,59 93.3,59 Z"
 id="path8"
           style="fill:#0078d7"/><path
 d="m 108.5,80.8 c 8.6,0 16,-7.3 16,-15.9 0,-8.6 -6.9,-15.5 -15.5,-15.6 -2.9,-5.8 -8.8,-9.7 -15.7,-9.7 -8.4,0 -15.4,5.9 -17.1,13.7 -4.1,0.4 -7.6,2.6 -9.8,5.7 h 20.9 c 1.4,-1.8 3.6,-2.9 6.1,-2.9 4.3,0 7.8,3.5 7.8,7.8 0,4.3 -3.5,7.8 -7.8,7.8 -2.5,0 -4.6,-1.1 -6.1,-2.9 H 64 c 0.9,6.6 6.2,12 13.1,12 z"
 id="path10"
           style="fill:#0078d7"/></g></g></g><g
 id="paths"
 transform="matrix(1.9668121,0,0,1.9668121,-92.938371,-38.824885)"><g
 id="Access_control"/><g
 id="Azure_active_directory"/><g
 id="API_Management"/><g
 id="Azure_automation"/></g></svg>
