<?xml version="1.0" encoding="UTF-8" standalone="no"?>
<svg
 xmlns="http://www.w3.org/2000/svg"
 version="1.1"
   id="Layer_1"
   x="0px"
   y="0px"
   width="100"
   height="100"
   viewBox="0 0 100 99.999995"
   enable-background="new 0 0 212.118 65.883"><g
 id="g22"
 transform="matrix(0.44820571,0,0,0.44820571,-3.7882147,77.942836)">
			<path
 fill="#545454"
 d="M 50.751,48.727 V 12.472 h 7.251 v 17.547 c 1.885,-2.32 4.544,-3.094 7.299,-3.094 6.042,0 10.586,5.269 10.586,11.167 0,5.898 -4.543,11.118 -10.585,11.118 -2.755,0 -5.849,-0.87 -7.299,-3.046 v 2.562 h -7.252 z m 12.327,-5.318 c 2.9,0 5.076,-2.514 5.076,-5.317 0,-2.803 -2.175,-5.317 -5.076,-5.317 -2.901,0 -5.076,2.514 -5.076,5.317 0,2.803 2.176,5.317 5.076,5.317 z"
 id="path10"/>
			<path
 fill="#545454"
 d="m 84.35,15.855 c 2.32,0 4.254,1.885 4.254,4.254 0,2.32 -1.934,4.254 -4.254,4.254 -2.369,0 -4.254,-1.934 -4.254,-4.254 0,-2.368 1.885,-4.254 4.254,-4.254 z M 80.724,48.727 V 27.409 h 7.251 v 21.318 z"
 id="path12"/>
			<path
 fill="#545454"
 d="m 115.819,48.727 h -7.25 V 36.642 c 0,-2.514 -0.967,-3.867 -3.239,-3.867 -2.272,0 -4.061,2.417 -4.061,5.317 V 48.727 H 94.018 V 27.409 h 7.251 v 2.61 c 1.45,-1.837 3.722,-3.094 6.526,-3.094 5.704,0 8.024,3.916 8.024,9.716 z"
 id="path14"/>
			<path
 fill="#545454"
 d="m 144.826,48.727 h -7.251 v -2.562 c -1.45,2.176 -4.592,3.046 -7.299,3.046 -6.043,0 -10.587,-5.221 -10.587,-11.118 0,-5.897 4.544,-11.167 10.587,-11.167 2.707,0 5.414,0.773 7.299,3.094 V 12.472 h 7.251 z M 132.499,32.774 c -2.9,0 -5.075,2.514 -5.075,5.317 0,2.803 2.175,5.317 5.075,5.317 2.9,0 5.076,-2.514 5.076,-5.317 0,-2.803 -2.176,-5.317 -5.076,-5.317 z"
 id="path16"/>
			<path
 fill="#545454"
 d="m 173.639,38.962 h -16.532 c 0,2.466 1.74,5.075 4.592,5.075 2.562,0 4.158,-1.691 4.206,-3.238 h 7.396 c -1.256,5.607 -5.801,8.411 -11.456,8.411 -7.348,0 -12.423,-4.351 -12.423,-11.118 0,-6.671 5.269,-11.167 12.423,-11.167 6.478,0 11.843,3.867 11.843,10.683 -10e-4,0.435 -0.049,0.919 -0.049,1.354 z m -6.913,-3.432 c 0,0 -0.338,-3.964 -4.736,-3.964 -4.545,0 -4.786,3.964 -4.786,3.964 z"
 id="path18"/>
			<path
 fill="#545454"
 d="m 185.532,38.092 v 10.635 h -7.251 V 27.409 h 7.251 v 2.61 c 1.111,-1.595 2.949,-3.094 5.607,-3.094 0.629,0 1.596,0.193 2.176,0.483 v 6.574 h -0.098 c -0.725,-0.87 -1.788,-1.208 -2.9,-1.208 -2.707,0 -4.785,2.756 -4.785,5.318 z"
 id="path20"/>
		</g><g
 id="g75"
 transform="matrix(1.9218484,0,0,1.9218484,6.2919603,-23.023551)"><circle
 fill="none"
 stroke="#f5a252"
 stroke-width="4.8342"
     stroke-miterlimit="10"
     cx="27.879"
     cy="23.938999"
     r="9.5419998"
     id="circle24"/><circle
 fill="none"
 stroke="#579aca"
 stroke-width="4.8342"
     stroke-miterlimit="10"
     cx="27.879"
     cy="42.499001"
     r="9.5430002"
     id="circle26"/><circle
 fill="none"
 stroke="#e66581"
 stroke-width="4.8342"
     stroke-miterlimit="10"
     cx="18.551001"
     cy="33.289001"
     r="9.5430002"
     id="circle28"/><path
 fill="none"
 stroke="#579aca"
 stroke-width="4.8342"
     stroke-miterlimit="10"
     d="m 20.196,36.836 c 0.759,-1.031 1.74,-1.927 2.921,-2.607 4.566,-2.63 10.401,-1.06 13.031,3.507"
     id="path30"/><path
 fill="none"
 stroke="#f5a252"
 stroke-width="4.8342"
     stroke-miterlimit="10"
     d="M 19.61,28.701 C 16.98,24.135 18.549,18.3 23.117,15.669 c 4.567,-2.63 10.401,-1.059 13.031,3.508"
     id="path32"/></g>
</svg>
