<svg width="20" height="20" viewBox="0 0 20 20" fill="currentColor" xmlns="http://www.w3.org/2000/svg">
<path fill-rule="evenodd" clip-rule="evenodd" d="M18 3.53363H2C1.72386 3.53363 1.5 3.75749 1.5 4.03363V16.0336C1.5 16.3098 1.72386 16.5336 2 16.5336H18C18.2761 16.5336 18.5 16.3098 18.5 16.0336V4.03363C18.5 3.75749 18.2761 3.53363 18 3.53363ZM2 2.03363C0.895431 2.03363 0 2.92906 0 4.03363V16.0336C0 17.1382 0.895431 18.0336 2 18.0336H18C19.1046 18.0336 20 17.1382 20 16.0336V4.03363C20 2.92906 19.1046 2.03363 18 2.03363H2Z"/>
<path fill-rule="evenodd" clip-rule="evenodd" d="M1.5 7.25H18.5V8.75H1.5V7.25Z"/>
</svg>
