<?xml version="1.0" encoding="UTF-8" standalone="no"?>
<svg
   xmlns:dc="http://purl.org/dc/elements/1.1/"
   xmlns:cc="http://creativecommons.org/ns#"
   xmlns:rdf="http://www.w3.org/1999/02/22-rdf-syntax-ns#"
   xmlns:svg="http://www.w3.org/2000/svg"
   xmlns="http://www.w3.org/2000/svg"
   xmlns:sodipodi="http://sodipodi.sourceforge.net/DTD/sodipodi-0.dtd"
   xmlns:inkscape="http://www.inkscape.org/namespaces/inkscape"
   width="63"
   height="63"
   viewBox="-3.22 -4.4 65.729475 65.3016"
   version="1.1"
   id="svg837"
   sodipodi:docname="ceph-name.svg"
   inkscape:version="1.0.1 (c497b03c, 2020-09-10)">
  <metadata
     id="metadata843">
    <rdf:RDF>
      <cc:Work
         rdf:about="">
        <dc:format>image/svg+xml</dc:format>
        <dc:type
           rdf:resource="http://purl.org/dc/dcmitype/StillImage" />
        <dc:title></dc:title>
      </cc:Work>
    </rdf:RDF>
  </metadata>
  <defs
     id="defs841" />
  <sodipodi:namedview
     pagecolor="#ffffff"
     bordercolor="#666666"
     borderopacity="1"
     objecttolerance="10"
     gridtolerance="10"
     guidetolerance="10"
     inkscape:pageopacity="0"
     inkscape:pageshadow="2"
     inkscape:window-width="1242"
     inkscape:window-height="882"
     id="namedview839"
     showgrid="false"
     fit-margin-top="0"
     fit-margin-left="0"
     fit-margin-right="0"
     fit-margin-bottom="0"
     showguides="false"
     inkscape:zoom="5.9333333"
     inkscape:cx="43.565004"
     inkscape:cy="49.677573"
     inkscape:window-x="0"
     inkscape:window-y="25"
     inkscape:window-maximized="0"
     inkscape:current-layer="svg837"
     inkscape:document-rotation="0" />
  <path
     d="m 43.41311,35.929621 c -1.612974,-0.862941 -2.548499,-1.834758 -2.754153,-2.893273 -0.19759,-1.02323 0.258076,-2.160377 1.396231,-3.477976 2.718869,-3.119089 4.215911,-7.12733 4.215911,-11.283763 A 17.218501,17.218501 0 0 0 29.075784,1.079294 l -0.07561,0.00101 -0.07762,-0.00101 a 17.218501,17.218501 0 0 0 -17.194309,17.195315 17.168096,17.168096 0 0 0 4.21692,11.284772 c 1.14622,1.326671 1.592812,2.419461 1.411353,3.431602 -0.19759,1.055491 -1.126058,2.041421 -2.762219,2.935614 C 12.074027,33.834771 9.8561866,31.041301 8.4972556,28.238758 A 22.722776,22.722776 0 0 1 6.7985918,23.465362 22.803425,22.803425 0 0 1 6.2038075,18.2736 22.601803,22.601803 0 0 1 7.9891685,9.4244202 C 9.1353886,6.7186557 10.773566,4.2870968 12.86136,2.2013193 a 22.692533,22.692533 0 0 1 7.224109,-4.8711826 22.591722,22.591722 0 0 1 8.848172,-1.7863691 h 0.154241 a 22.601803,22.601803 0 0 1 8.84918,1.7863691 c 2.705765,1.1452118 5.137324,2.78238079 7.224109,4.8711826 a 22.672371,22.672371 0 0 1 4.871183,7.2231009 22.601803,22.601803 0 0 1 1.787377,8.8491798 c 0,1.752094 -0.201622,3.498139 -0.604865,5.191762 a 22.611884,22.611884 0 0 1 -1.699672,4.773396 c -1.369012,2.802543 -3.585844,5.598029 -6.099059,7.689855 m -8.400572,4.25422 C 34.751438,40.016495 33.84918,39.346102 32.969101,38.126291 32.125314,36.961925 31.132327,35.02938 31.184748,32.442572 a 12.561038,12.561038 0 0 1 0.929477,-4.506247 12.802984,12.802984 0 0 1 2.473899,-3.864082 l 0.006,-0.01008 0.233881,-0.272189 c 0.40022,-0.46373 0.814552,-0.944598 1.144204,-1.505107 0.407276,-0.689546 0.702652,-1.415385 0.879071,-2.157353 a 8.1152773,8.1152773 0 0 0 0.04436,-3.514268 c -0.2238,-1.060531 -0.675433,-2.086786 -1.304493,-2.973921 a 8.1051962,8.1051962 0 0 0 -2.298489,-2.16441 8.0043853,8.0043853 0 0 0 -3.092878,-1.126058 8.0648718,8.0648718 0 0 0 -1.132106,-0.08065 H 28.90436 a 7.974142,7.974142 0 0 0 -1.13009,0.07964 8.0144664,8.0144664 0 0 0 -3.092879,1.126057 8.1051962,8.1051962 0 0 0 -2.299496,2.16441 8.0749529,8.0749529 0 0 0 -1.303485,2.973922 8.0951151,8.0951151 0 0 0 0.04537,3.514268 c 0.175411,0.741968 0.471795,1.466798 0.877055,2.157353 0.332676,0.561517 0.746,1.040368 1.145211,1.505107 l 0.23489,0.272189 0.005,0.01008 c 1.062547,1.144204 1.895245,2.444665 2.474908,3.864082 a 12.530795,12.530795 0 0 1 0.928468,4.505239 c 0.05242,2.586808 -0.940565,4.519353 -1.784353,5.683718 -0.881087,1.209731 -1.784352,1.890205 -2.046461,2.056543 L 21.640981,39.78463 c -1.306509,-0.437519 -2.577735,-1.008109 -3.787466,-1.669429 2.076705,-1.108919 3.397328,-3.300548 3.397328,-5.679686 0,-1.57265 -0.611923,-3.084813 -1.817621,-4.486085 -0.01815,-0.02016 -0.03629,-0.03831 -0.0504,-0.05242 l -0.360903,-0.395179 -0.967785,-1.134123 a 13.569147,13.569147 0 0 1 -2.318651,-4.955863 13.659877,13.659877 0 0 1 -0.0746,-5.937762 c 0.378041,-1.79645 1.142188,-3.528382 2.21784,-5.038529 1.030287,-1.4516764 2.373089,-2.714837 3.88122,-3.6554027 a 13.589309,13.589309 0 0 1 5.242166,-1.9093584 13.31712,13.31712 0 0 1 1.907342,-0.1340785 h 0.171379 a 13.438093,13.438093 0 0 1 1.90835,0.1340785 13.589309,13.589309 0 0 1 5.242167,1.9093584 13.69012,13.69012 0 0 1 3.883236,3.6554027 c 1.064563,1.499058 1.828709,3.242079 2.21784,5.038529 a 13.750606,13.750606 0 0 1 -0.07561,5.947843 13.569147,13.569147 0 0 1 -2.320666,4.955864 c -0.302433,0.403243 -0.620996,0.753057 -0.967785,1.134122 l -0.349814,0.386106 c -0.0252,0.02319 -0.04436,0.04032 -0.06049,0.06452 -1.222837,1.461758 -1.817621,2.930573 -1.817621,4.483061 a 6.4619786,6.4619786 0 0 0 3.40136,5.679686 22.692533,22.692533 0 0 1 -3.787466,1.669428 L 35.04379,40.1909 M 28.999168,22.979453 a 4.496166,4.496166 0 0 1 -4.488101,-4.488101 4.496166,4.496166 0 0 1 4.488101,-4.488101 4.496166,4.496166 0 0 1 4.487093,4.488101 4.496166,4.496166 0 0 1 -4.487093,4.488101"
     fill="#f0424d"
     id="path833"
     style="stroke-width:1.00811" />
  <path
     d="m 13.755129,52.213852 c 0,3.155382 -0.282271,4.027396 -1.042385,4.788518 -0.450624,0.450625 -1.155293,0.760114 -2.479948,0.760114 H 5.5954944 c -1.4920013,0 -2.3932507,-0.254043 -3.0243269,-0.872014 -0.9849225,-0.985931 -1.2661849,-2.16945 -1.2661849,-6.731144 0,-4.561693 0.2822705,-5.746221 1.2661849,-6.731143 0.6209951,-0.619987 1.5121635,-0.872015 3.0243269,-0.872015 H 10.21465 c 1.379093,0 1.998072,0.280255 2.477932,0.760115 0.731887,0.731887 1.014158,1.746044 1.014158,4.588912 H 10.863872 C 10.806412,45.934342 10.69451,45.586544 10.525148,45.427263 10.355785,45.267982 10.121904,45.175236 9.4837706,45.175236 H 5.9634542 c -0.8730224,0 -1.1089199,0.08468 -1.2944119,0.28227 -0.2822705,0.282271 -0.4234058,0.806487 -0.4234058,4.702829 0,3.896341 0.1411353,4.421565 0.4234058,4.702828 0.1965812,0.197589 0.4234057,0.28227 1.2944119,0.28227 h 3.5485434 c 0.6199874,0 0.9032664,-0.05645 1.1089204,-0.252027 0.205654,-0.195573 0.310498,-0.761122 0.310498,-2.675521 h 2.844883 m 4.934694,-3.439668 h 6.927725 c 0,-2.562613 -0.169363,-3.125138 -0.42139,-3.379181 -0.171379,-0.168354 -0.423406,-0.282271 -1.29542,-0.282271 H 20.42881 c -0.873022,0 -1.10892,0.08468 -1.323647,0.30949 -0.254043,0.254043 -0.364935,0.760114 -0.403243,3.350954 z m 0,2.338813 c 0.03024,2.984003 0.196581,3.575762 0.423405,3.800571 0.226825,0.224808 0.423406,0.28227 1.294412,0.28227 h 3.931625 c 0.648214,0 0.846812,-0.112908 1.015166,-0.28227 0.195573,-0.19759 0.252027,-0.534298 0.30949,-1.88718 h 2.842867 c -0.05645,2.365023 -0.282271,3.210827 -1.042385,3.971949 -0.477843,0.478852 -1.126058,0.760114 -2.477932,0.760114 h -4.939734 c -1.492001,0 -2.394258,-0.254043 -3.024327,-0.872014 -0.987946,-0.985931 -1.266184,-2.16945 -1.266184,-6.731144 0,-4.561693 0.280254,-5.746221 1.266184,-6.731143 0.619987,-0.619987 1.512164,-0.872015 3.024327,-0.872015 h 4.167523 c 1.494017,0 2.449705,0.280255 3.024327,0.843788 0.984922,0.98593 1.266185,2.16945 1.266185,6.619243 v 0.760114 c 0,0.223801 -0.08367,0.337717 -0.338725,0.337717 H 18.69083 m 21.314449,3.689679 c -0.252028,0.252027 -0.620996,0.365943 -1.548456,0.365943 h -2.197677 c -0.90125,0 -1.683542,-0.254043 -2.760203,-0.801446 l -0.196581,-0.0988 v -8.283631 c 1.127066,-0.562525 1.915407,-0.844796 2.844884,-0.844796 h 2.31865 c 0.92746,0 1.29542,0.112908 1.548456,0.365944 0.423405,0.423406 0.534297,1.237958 0.534297,4.637301 0,3.399344 -0.112908,4.234058 -0.534297,4.637301 z M 39.158467,42.525925 h -2.054526 c -1.268201,0 -1.88718,0.282271 -3.802587,1.859961 v -1.829718 h -2.92654 v 18.569368 h 2.928556 v -5.156478 c 1.915407,1.548456 2.534386,1.829718 3.802587,1.829718 h 2.054526 c 1.635153,0 2.451721,-0.28227 3.098927,-0.92746 0.806487,-0.806487 1.209731,-1.971861 1.209731,-6.703925 0,-4.732063 -0.395179,-5.887356 -1.209731,-6.703924 -0.647206,-0.647206 -1.463774,-0.930485 -3.098927,-0.930485 m 18.392949,0.875039 C 56.988891,42.84348 56.258012,42.53399 54.934364,42.53399 h -2.39325 c -1.267193,0 -1.88718,0.282271 -3.802587,1.859961 V 38.597325 A 10.564982,10.564982 0 0 0 45.83114,37.507559 c -0.0071,0 -0.0131,0.005 -0.02016,0.0071 v 20.248877 h 2.928557 V 45.98878 l 0.60789,-0.287312 c 0.821608,-0.368967 1.483936,-0.556476 2.238001,-0.556476 h 1.971862 c 0.98593,0 1.267193,0.112909 1.576682,0.423406 0.282271,0.282271 0.403244,0.730879 0.403244,1.463774 v 10.73132 h 2.930572 V 46.835591 c 0,-2.112996 -0.310497,-2.844883 -0.902257,-3.435635"
     fill="#333c46"
     id="path835"
     style="stroke-width:1.00811" />
</svg>
