<?xml version="1.0" encoding="UTF-8" standalone="no"?>
<svg
 xmlns="http://www.w3.org/2000/svg"
   class="icon"
   viewBox="0 0 896 896"
   version="1.1"
   id="svg835"
   width="896"
   height="896">
  <path
 d="M 747.4,354.7 C 701.6,233.9 584.9,148 448.2,148 311.5,148 194.8,233.8 149,354.6 63.300002,377.1 0,455.1 0,548 0,658.5 89.500002,748 199.9,748 H 696.1 C 806.5,748 896,658.5 896,548 896,455.3 832.9,377.3 747.4,354.7 Z m 36.3,281 A 123.07,123.07 0 0 1 696.1,672 H 199.9 c -33.1,0 -64.2,-12.9 -87.6,-36.3 A 123.3,123.3 0 0 1 76.000002,548 c 0,-28 9.1,-54.3 26.199998,-76.3 A 125.7,125.7 0 0 1 168.3,428 l 37.9,-9.9 13.9,-36.6 c 8.6,-22.8 20.6,-44.1 35.7,-63.4 a 245.6,245.6 0 0 1 52.4,-49.9 c 41.1,-28.9 89.5,-44.2 140,-44.2 50.5,0 98.9,15.3 140,44.2 19.9,14 37.5,30.8 52.4,49.9 15.1,19.3 27.1,40.7 35.7,63.4 l 13.8,36.5 37.8,10 c 54.3,14.5 92.1,63.8 92.1,120 0,33.1 -12.9,64.3 -36.3,87.7 z"
 id="path833-7"/>
</svg>
