<?xml version="1.0" encoding="UTF-8" standalone="no"?>
<svg
   xmlns:dc="http://purl.org/dc/elements/1.1/"
   xmlns:cc="http://creativecommons.org/ns#"
   xmlns:rdf="http://www.w3.org/1999/02/22-rdf-syntax-ns#"
   xmlns:svg="http://www.w3.org/2000/svg"
   xmlns="http://www.w3.org/2000/svg"
   xmlns:sodipodi="http://sodipodi.sourceforge.net/DTD/sodipodi-0.dtd"
   xmlns:inkscape="http://www.inkscape.org/namespaces/inkscape"
   width="24"
   height="24"
   viewBox="0 0 24 24"
   fill="none"
   version="1.1"
   id="svg857"
   sodipodi:docname="dashboard-green.svg"
   inkscape:version="1.0.1 (c497b03c, 2020-09-10)">
  <metadata
     id="metadata863">
    <rdf:RDF>
      <cc:Work
         rdf:about="">
        <dc:format>image/svg+xml</dc:format>
        <dc:type
           rdf:resource="http://purl.org/dc/dcmitype/StillImage" />
      </cc:Work>
    </rdf:RDF>
  </metadata>
  <defs
     id="defs861" />
  <sodipodi:namedview
     pagecolor="#ffffff"
     bordercolor="#666666"
     borderopacity="1"
     objecttolerance="10"
     gridtolerance="10"
     guidetolerance="10"
     inkscape:pageopacity="0"
     inkscape:pageshadow="2"
     inkscape:window-width="1222"
     inkscape:window-height="787"
     id="namedview859"
     showgrid="false"
     inkscape:zoom="22.406763"
     inkscape:cx="12.293724"
     inkscape:cy="11.880865"
     inkscape:window-x="500"
     inkscape:window-y="163"
     inkscape:window-maximized="0"
     inkscape:current-layer="svg857" />
  <path
     class="jp-icon-selectable"
     d="M2 14C2 13.4477 2.44772 13 3 13L8 13L8 21C8 21.5523 7.55229 22 7 22L3 22C2.44772 22 2 21.5523 2 21L2 14Z"
     fill="#2DC0B7"
     id="path849"
     style="fill:#2ecc71;fill-opacity:1" />
  <path
     class="jp-icon-selectable"
     d="M10 13L21 13C21.5523 13 22 13.4477 22 14L22 21C22 21.5523 21.5523 22 21 22L11 22C10.4477 22 10 21.5523 10 21L10 13Z"
     fill="#2DC0B7"
     id="path851"
     style="fill:#2ecc71;fill-opacity:1" />
  <path
     class="jp-icon-selectable"
     d="M16 3C16 2.44772 16.4477 2 17 2L21 2C21.5523 2 22 2.44771 22 3L22 10C22 10.5523 21.5523 11 21 11L16 11L16 3Z"
     fill="#2DC0B7"
     id="path853"
     style="fill:#2ecc71;fill-opacity:1" />
  <path
     class="jp-icon-selectable"
     d="M2 3C2 2.44772 2.44772 2 3 2L13 2C13.5523 2 14 2.44771 14 3L14 11L3 11C2.44772 11 2 10.5523 2 10L2 3Z"
     fill="#2DC0B7"
     id="path855"
     style="fill:#2ecc71;fill-opacity:1" />
</svg>
