<svg width="16" height="16" viewBox="0 0 16 16" fill="currentColor" xmlns="http://www.w3.org/2000/svg">
  <path d="M3.22904 2.845C3.08859 2.98562 3.0097 3.17625 3.0097 3.375C3.0097 3.57375 3.08859 3.76437 3.22904 3.905L7.47904 8.155C7.61967 8.29545 7.81029 8.37434 8.00904 8.37434C8.2078 8.37434 8.39842 8.29545 8.53904 8.155L12.789 3.905C12.9215 3.76274 12.9936 3.57468 12.9902 3.38037C12.9868 3.18605 12.9083 3.0006 12.771 2.863C12.6334 2.72575 12.448 2.6472 12.2537 2.64384C12.0594 2.64048 11.8713 2.71259 11.729 2.845L8.00904 6.565L4.28904 2.845C4.14842 2.70455 3.9578 2.62566 3.75904 2.62566C3.56029 2.62566 3.36967 2.70455 3.22904 2.845Z" />
  <path d="M3.22904 7.845C3.08859 7.98562 3.0097 8.17625 3.0097 8.375C3.0097 8.57375 3.08859 8.76437 3.22904 8.905L7.47904 13.155C7.61967 13.2954 7.81029 13.3743 8.00904 13.3743C8.2078 13.3743 8.39842 13.2954 8.53904 13.155L12.789 8.905C12.9215 8.76274 12.9936 8.57468 12.9902 8.38037C12.9868 8.18605 12.9083 8.0006 12.771 7.863C12.6334 7.72575 12.448 7.6472 12.2537 7.64384C12.0594 7.64048 11.8713 7.71259 11.729 7.845L8.00904 11.565L4.28904 7.845C4.14842 7.70455 3.9578 7.62566 3.75904 7.62566C3.56029 7.62566 3.36967 7.70455 3.22904 7.845Z" />
</svg>