<?xml version="1.0" encoding="UTF-8" standalone="no"?>
<svg
 xmlns="http://www.w3.org/2000/svg"
   role="img"
   viewBox="-8.17 -10.17 299.99999 300"
   version="1.1"
   id="svg843"
   width="300"
   height="300">
  <defs
 id="defs835">
    <style
 id="style833">.cls-1{fill:#419eda}</style>
  </defs>
  <g
 id="g851"
 transform="matrix(1.2248285,0,0,1.2248285,51.581912,-142.3136)">
    <path
 d="m 64.584371,167.05888 a 8.4480876,8.4480876 0 1 1 -8.451871,-8.44557 8.4525011,8.4525011 0 0 1 8.451871,8.44557 z m 10.923436,0 a 8.4518706,8.4518706 0 1 0 8.45187,-8.44557 8.4461961,8.4461961 0 0 0 -8.45187,8.44557 z"
 class="cls-1"
       id="path837"
       style="stroke-width:0.630501"/>
    <path
 d="m 133.02529,176.22574 a 23.11418,23.11418 0 0 1 -1.86628,0.0706 24.388423,24.388423 0 0 1 -10.72672,-2.49678 99.603451,99.603451 0 0 0 1.44448,-18.97431 98.177257,98.177257 0 0 0 -12.28028,-14.55197 24.39725,24.39725 0 0 1 8.65363,-9.269 l 1.58887,-0.98485 -1.2402,-1.39971 A 64.668002,64.668002 0 0 0 96.016124,112.14914 l -1.718116,-0.74651 -0.436938,1.81206 a 24.331047,24.331047 0 0 1 -6.123429,11.11574 98.208152,98.208152 0 0 0 -17.693129,-7.28859 97.864528,97.864528 0 0 0 -17.666648,7.27661 24.270519,24.270519 0 0 1 -6.09947,-11.09052 l -0.443873,-1.81836 -1.712441,0.74399 a 65.28211,65.28211 0 0 0 -22.581406,16.46491 l -1.238305,1.39971 1.585711,0.98359 a 24.358789,24.358789 0 0 1 8.633455,9.21919 98.921879,98.921879 0 0 0 -12.258838,14.49901 99.536618,99.536618 0 0 0 1.407279,19.09977 24.323481,24.323481 0 0 1 -10.6617775,2.47535 22.849369,22.849369 0 0 1 -1.8706975,-0.0706 L 5.275,176.07883 l 0.1727574,1.85935 a 64.273308,64.273308 0 0 0 8.6864166,26.58446 l 0.945753,1.60967 1.418628,-1.20741 a 24.306458,24.306458 0 0 1 11.510432,-5.3889 98.74723,98.74723 0 0 0 9.850953,16.04437 99.737117,99.737117 0 0 0 18.665993,4.59005 24.25854,24.25854 0 0 1 -1.553555,12.7355 l -0.709314,1.72694 1.822148,0.40352 a 65.050716,65.050716 0 0 0 13.985151,1.54662 l 13.982628,-1.54662 1.82341,-0.40352 -0.706161,-1.72757 a 24.228275,24.228275 0 0 1 -1.549773,-12.75 99.754771,99.754771 0 0 0 18.591593,-4.57492 98.30651,98.30651 0 0 0 9.85852,-16.05887 24.354376,24.354376 0 0 1 11.56781,5.39457 l 1.41989,1.20237 0.94701,-1.59769 a 64.123248,64.123248 0 0 0 8.67633,-26.58257 l 0.17339,-1.85809 z m -42.968665,22.72263 a 75.488666,75.488666 0 0 1 -40.037466,0 76.607806,76.607806 0 0 1 -12.183808,-37.8616 76.225722,76.225722 0 0 1 14.511619,-13.81429 77.384583,77.384583 0 0 1 17.698803,-9.62775 77.624804,77.624804 0 0 1 17.662865,9.60253 76.808936,76.808936 0 0 1 14.575302,13.90886 77.170213,77.170213 0 0 1 -3.648713,19.72019 77.559232,77.559232 0 0 1 -8.577971,18.07206 z"
 class="cls-1"
       id="path839"
       style="stroke-width:0.630501"/>
  </g>
  <path
 d="m 38.974163,177.53637 c 21.22646,0 33.20977,15.23543 33.20977,39.0274 a 49.645046,49.645046 0 0 1 -0.51512,7.70158 h -56.14614 c 1.02771,17.97559 11.81433,29.27417 27.72945,29.27417 7.8737,0 14.54818,-2.56866 20.71197,-6.50551 l 4.9633,9.24189 c -7.18897,4.62284 -16.09039,8.55969 -27.38582,8.55969 -22.25229,0 -39.8836298,-16.26063 -39.8836298,-43.48064 0,-27.21244 18.3129098,-43.81858 37.3162198,-43.81858 z m 20.88473,37.48646 c 0,-16.94662 -7.53197,-26.35811 -20.54173,-26.35811 -11.64032,0 -22.25355,9.58362 -23.96536,26.35811 z m 28.24079,-23.9641 h -12.32504 v -10.61197 l 13.00787,-0.85622 1.71433,-23.27874 h 11.807397 v 23.27811 h 22.42504 v 11.47071 h -22.42504 v 46.21764 c 0,10.27213 3.25591,16.0904 12.83953,16.0904 2.91166,0 6.67701,-1.19795 9.41591,-2.22756 l 2.73448,10.61512 c -4.62031,1.53968 -10.26771,3.08189 -15.40567,3.08189 -17.799047,0 -23.793227,-11.29669 -23.793227,-27.73008 v -46.0493 z m 82.508657,-13.52236 c 10.9556,0 18.65654,4.62284 24.30394,9.92914 l -7.01622,9.06976 c -4.96457,-4.27543 -10.09874,-7.35795 -16.77575,-7.35795 -15.06078,0 -26.01953,13.00724 -26.01953,32.17952 0,19.00205 10.44237,31.84032 25.6778,31.84032 7.8737,0 14.55197,-3.93748 19.51402,-8.38693 l 6.33338,9.24315 c -7.53197,6.67512 -17.11937,10.78347 -27.0485,10.78347 -22.07638,0 -39.02426,-15.92016 -39.02426,-43.48001 10e-4,-27.90031 18.65906,-43.82047 40.05512,-43.82047 z m 65.73292,0 c 9.58425,0 15.91701,3.59512 23.27874,9.5874 l -0.68598,-14.20771 v -32.00992 h 14.20709 V 262.77952 H 261.5052 l -1.20173,-9.75575 h -0.51197 c -6.50551,6.33402 -15.40378,11.81182 -25.16331,11.81182 -20.8822,0 -34.40394,-15.74867 -34.40394,-43.48064 -0.001,-27.0422 17.11622,-43.81858 36.11701,-43.81858 z m 1.36819,75.4874 c 7.70158,0 14.37985,-3.76535 21.22583,-11.46566 v -43.4819 c -7.02,-6.33275 -13.3515,-8.72992 -20.19811,-8.72992 -13.35276,0 -23.9641,12.83701 -23.9641,31.84032 0,19.85638 8.38567,31.83716 22.93575,31.83716 z"
 id="path841"
     style="stroke-width:0.630501"/>
</svg>
