<?xml version="1.0" encoding="UTF-8" standalone="no"?>
<svg
   xmlns:dc="http://purl.org/dc/elements/1.1/"
   xmlns:cc="http://creativecommons.org/ns#"
   xmlns:rdf="http://www.w3.org/1999/02/22-rdf-syntax-ns#"
   xmlns:svg="http://www.w3.org/2000/svg"
   xmlns="http://www.w3.org/2000/svg"
   xmlns:sodipodi="http://sodipodi.sourceforge.net/DTD/sodipodi-0.dtd"
   xmlns:inkscape="http://www.inkscape.org/namespaces/inkscape"
   preserveAspectRatio="xMidYMid"
   width="470"
   height="470"
   viewBox="0 0 470 470"
   version="1.1"
   id="svg16"
   sodipodi:docname="hard-drive-retro.svg"
   inkscape:version="1.0.1 (c497b03c, 2020-09-10)">
  <metadata
     id="metadata20">
    <rdf:RDF>
      <cc:Work
         rdf:about="">
        <dc:format>image/svg+xml</dc:format>
        <dc:type
           rdf:resource="http://purl.org/dc/dcmitype/StillImage" />
        <dc:title></dc:title>
      </cc:Work>
    </rdf:RDF>
  </metadata>
  <sodipodi:namedview
     pagecolor="#ffffff"
     bordercolor="#666666"
     borderopacity="1"
     objecttolerance="10"
     gridtolerance="10"
     guidetolerance="10"
     inkscape:pageopacity="0"
     inkscape:pageshadow="2"
     inkscape:window-width="1657"
     inkscape:window-height="849"
     id="namedview18"
     showgrid="false"
     inkscape:zoom="0.76230147"
     inkscape:cx="-8.2054279"
     inkscape:cy="180.27621"
     inkscape:window-x="0"
     inkscape:window-y="25"
     inkscape:window-maximized="0"
     inkscape:current-layer="svg16" />
  <defs
     id="defs12">
    <style
       id="style10">
      .cls-1 {
        fill: #000;
        fill-rule: evenodd;
      }
    </style>
  </defs>
  <path
     d="M 419.5,470 H 59.5 C 55.358,470 52,466.642 52,462.5 V 7.5 C 52,3.358 55.358,0 59.5,0 h 360 c 4.142,0 7.5,3.358 7.5,7.5 v 455 c 0,4.142 -3.358,7.5 -7.5,7.5 z M 67.001,455 h 160 v -80.423 c -9.25,-0.613 -18.45,-1.915 -27.481,-3.877 -19.324,24.134 -19.65,24.463 -19.864,24.677 -7.082,7.083 -16.499,10.983 -26.517,10.983 -10.017,-0.001 -19.434,-3.901 -26.516,-10.983 -14.621,-14.621 -14.621,-38.412 0,-53.033 0.106,-0.106 0.244,-0.243 3.299,-2.71 C 112.803,327.306 98.026,312.343 85.88,295 H 67.001 Z M 293.612,252.975 c -25.93,32.466 -45.927,57.493 -61.373,76.817 2.424,0.124 4.848,0.208 7.261,0.208 C 318.075,330 382,266.075 382,187.5 382,108.925 318.075,45 239.5,45 160.925,45 97,108.925 97,187.5 c 0,50.413 26.619,96.927 69.798,122.578 21.034,-16.825 53.142,-42.486 102.225,-81.688 3.085,-2.462 6.959,-3.817 10.912,-3.817 4.672,0 9.064,1.82 12.368,5.124 6.305,6.304 6.867,16.312 1.309,23.278 z m -11.724,-9.359 c 0.789,-0.989 0.707,-2.414 -0.192,-3.313 -0.636,-0.635 -1.377,-0.73 -1.762,-0.73 -0.4,0 -0.995,0.094 -1.553,0.54 -29.227,23.343 -74.687,59.663 -106.185,84.857 -0.021,0.017 -0.043,0.035 -0.065,0.052 -19.115,15.29 -33.076,26.472 -35.116,28.144 -8.559,8.79 -8.488,22.903 0.213,31.604 4.249,4.249 9.9,6.59 15.913,6.59 5.907,0 11.466,-2.261 15.691,-6.376 4.421,-5.388 75.517,-94.367 113.056,-141.368 z M 412,15 H 67 v 265 h 22.835 c 2.502,0 4.839,1.248 6.232,3.328 12.333,18.422 27.804,34.049 46.028,46.527 3.318,-2.66 7.358,-5.896 12.275,-9.832 C 109.468,291.149 82,241.338 82,187.5 82,100.654 152.654,30 239.5,30 326.346,30 397,100.654 397,187.5 397,274.346 326.346,345 239.5,345 c -6.162,0 -12.375,-0.385 -18.532,-1.109 -3.993,4.993 -7.609,9.514 -10.862,13.581 8.118,1.395 16.351,2.226 24.599,2.451 4.061,0.111 7.295,3.434 7.295,7.497 V 455 H 412 Z M 264.5,425 h 95 c 4.142,0 7.5,3.358 7.5,7.5 0,4.142 -3.358,7.5 -7.5,7.5 h -95 c -4.142,0 -7.5,-3.358 -7.5,-7.5 0,-4.142 3.358,-7.5 7.5,-7.5 z m 125,0 c 4.142,0 7.5,3.358 7.5,7.5 0,4.142 -3.358,7.5 -7.5,7.5 -4.142,0 -7.5,-3.358 -7.5,-7.5 0,-4.142 3.358,-7.5 7.5,-7.5 z m 0,-380 c -4.142,0 -7.5,-3.358 -7.5,-7.5 0,-4.142 3.358,-7.5 7.5,-7.5 4.142,0 7.5,3.358 7.5,7.5 0,4.142 -3.358,7.5 -7.5,7.5 z m -300,0 C 85.358,45 82,41.642 82,37.5 82,33.358 85.358,30 89.5,30 c 4.142,0 7.5,3.358 7.5,7.5 0,4.142 -3.358,7.5 -7.5,7.5 z m 150,180 c -20.678,0 -37.5,-16.822 -37.5,-37.5 0,-20.678 16.822,-37.5 37.5,-37.5 20.678,0 37.5,16.822 37.5,37.5 0,20.678 -16.822,37.5 -37.5,37.5 z m 0,-60 c -12.407,0 -22.5,10.093 -22.5,22.5 0,12.407 10.093,22.5 22.5,22.5 12.407,0 22.5,-10.093 22.5,-22.5 C 262,175.093 251.907,165 239.5,165 Z M 97,432.5 c 0,4.142 -3.358,7.5 -7.5,7.5 -4.142,0 -7.5,-3.358 -7.5,-7.5 0,-4.142 3.358,-7.5 7.5,-7.5 4.142,0 7.5,3.358 7.5,7.5 z"
     class="cls-1"
     id="path14" />
</svg>
