<?xml version="1.0" encoding="utf-8"?>
<!-- Generator: Adobe Illustrator 24.3.0, SVG Export Plug-In . SVG Version: 6.00 Build 0)  -->
<svg version="1.0" id="katman_1" xmlns="http://www.w3.org/2000/svg" xmlns:xlink="http://www.w3.org/1999/xlink" x="0px" y="0px"
	 viewBox="0 0 841.89 595.28" style="enable-background:new 0 0 841.89 595.28;" xml:space="preserve">
<path id="Path_14420" d="M421.25,122.51c94.81,0.09,171.59,77.02,171.5,171.83c-0.09,94.81-77.02,171.59-171.83,171.5
	c-94.69-0.09-171.43-76.84-171.5-171.54c-0.09-94.79,76.67-171.7,171.46-171.79C421,122.51,421.12,122.51,421.25,122.51z
	 M363.54,382.32c37.22-13.23,77.87-13.24,115.1-0.02l5.35-20.13c2.47,0,4.73-0.06,7.01,0.02c2.35-0.19,4.71-0.06,7.02,0.41
	c-1.61,8.35-3.64,16.62-6.1,24.76c6.34,3.5,12.64,6.67,18.63,10.35c5.99,3.67,11.66,7.81,17.45,11.74
	c69.6-63.78,65.26-172.26-0.27-230.7c-11.06,8.7-23.11,16.07-35.9,21.94c2.43,8.61,4.75,16.86,6.28,25.37h-14.25
	c-0.87-3.43-1.66-6.71-2.53-9.96c-0.75-3.4-1.74-6.73-2.98-9.98c-37.14,13.16-77.68,13.14-114.81-0.06l-5.37,20.19
	c-2.47,0-4.75,0.01-7.02,0c-2.32-0.02-4.64-0.06-7.4-0.1l6.47-25.53c-12.76-5.85-24.77-13.2-35.78-21.92
	c-69.16,63.07-66.25,171.54,0,230.89c11.09-8.71,23.16-16.09,35.96-21.98c-2.57-8.33-4.7-16.8-6.37-25.35h14.21L363.54,382.32z
	 M473.71,192.72c-0.08-0.56-0.2-1.11-0.35-1.66c-4.36-11.75-10.34-22.83-17.75-32.93c-4.77-6.63-10.79-12.27-17.72-16.6
	c-9.67-6.27-22.02-6.61-32.02-0.88c-6.43,3.61-12.1,8.43-16.69,14.2c-7.38,9.12-13.39,19.27-17.86,30.12
	c-1.05,2.43-2.01,4.9-3.13,7.64C402.3,204.85,439.59,204.89,473.71,192.72L473.71,192.72z M368.36,395.63
	c0.24,0.82,0.34,1.3,0.51,1.74c4.07,10.9,9.51,21.23,16.19,30.76c4.37,6.29,9.72,11.85,15.85,16.45
	c12.87,9.39,26.83,9.51,39.83,0.36c4.45-3.18,8.47-6.93,11.96-11.14c8.88-10.99,15.88-23.38,20.71-36.66
	c0.14-0.51,0.23-1.03,0.28-1.55C439.62,383.47,402.42,383.49,368.36,395.63z M461.24,446.13c20.17-5.08,39.08-14.27,55.52-27.01
	c-9.03-7.02-18.83-12.99-29.2-17.8c-3.94,8.03-7.56,15.86-11.58,23.48C471.83,432.4,466.89,439.55,461.24,446.13L461.24,446.13z
	 M381.09,446.19c-5.7-6.5-10.67-13.62-14.81-21.22c-4.1-7.68-7.71-15.61-11.65-23.66c-10.38,4.82-20.19,10.79-29.22,17.81
	C341.91,431.87,360.86,441.09,381.09,446.19L381.09,446.19z M487.04,186.97c7.59-2.56,26.63-14.36,29.28-18.12
	c-16.37-12.6-35.16-21.69-55.2-26.71C472.69,155.39,480.62,170.64,487.04,186.97L487.04,186.97z M380.81,142.25
	c-20.06,5.04-38.87,14.18-55.24,26.83c5.88,5.47,24.08,16.39,29.64,17.77C361.17,170.65,369.82,155.57,380.81,142.25z"/>
<path id="Path_14421" d="M512.55,513.52c0.03,5.2-1.08,10.34-3.25,15.07c-4.09,9.13-12.99,15.15-22.98,15.55
	c-3.57,0.33-7.17,0.04-10.63-0.87c-8.88-2.21-15.95-8.92-18.64-17.67c-2.7-7.87-2.74-16.41-0.12-24.3
	c3.25-10.7,12.82-18.24,23.98-18.89c5.97-0.65,12,0.55,17.27,3.43c7.04,3.97,11.93,10.88,13.33,18.84
	C512.09,507.57,512.22,510.57,512.55,513.52z M475.33,513.19l0.5,0.04c0,2.28-0.15,4.57,0.03,6.84c0.03,3.98,0.88,7.9,2.49,11.54
	c0.92,2.05,2.94,3.39,5.18,3.45c2.36,0.16,4.57-1.19,5.51-3.36c0.8-1.59,1.38-3.28,1.72-5.03c1.35-7.93,1.5-16.02,0.44-23.99
	c-0.35-2.54-1.02-5.04-1.98-7.42c-0.74-2.25-2.86-3.76-5.23-3.72c-2.46-0.09-4.71,1.34-5.68,3.59c-0.67,1.22-1.13,2.54-1.36,3.91
	C476.31,503.75,475.85,508.47,475.33,513.19L475.33,513.19z"/>
<path id="Path_14422" d="M449.56,513.5c0.33,5.28-0.71,10.55-3.01,15.31c-4.26,9.29-13.51,15.27-23.72,15.37
	c-4.57,0.34-9.16-0.39-13.41-2.12c-7.2-2.96-12.7-8.97-15.01-16.4c-2.66-7.77-2.74-16.19-0.24-24.02
	c3.22-11.17,13.31-18.96,24.93-19.26c9.09-0.45,17.07,2.04,23.27,9.06c4.25,4.93,6.76,11.11,7.15,17.61
	C449.66,510.51,449.56,512.01,449.56,513.5z M429.4,514.04c-0.27-4.2-0.28-7.4-0.73-10.52c-0.38-2.74-1.04-5.44-1.97-8.04
	c-0.71-2.38-2.92-4-5.4-3.98c-2.58-0.11-4.93,1.5-5.76,3.95c-0.91,1.98-1.5,4.1-1.74,6.26c-0.37,6.42-0.59,12.87-0.5,19.3
	c-0.07,3.69,0.77,7.35,2.43,10.65c1.3,2.94,4.74,4.27,7.69,2.97c1.23-0.55,2.24-1.5,2.85-2.71c0.95-1.63,1.58-3.42,1.85-5.29
	c0.61-4.52,0.93-9.06,1.26-12.59H429.4z"/>
<path id="Path_14423" d="M280.47,496.31c0.33,0.14,0.68,0.24,1.03,0.32c3.46-0.05,6.31,2.72,6.36,6.18c0,0.21,0,0.42-0.02,0.62
	c0.29,4.05-2.47,7.68-6.44,8.49c-1.37,0.23-2.77,0.3-4.16,0.21c-4.38-0.1-7.97-3.5-8.32-7.87c-0.81-5.63,1.27-11.28,5.53-15.05
	c4.5-4,10.22-6.36,16.23-6.7c7.25-1,14.63,0.46,20.96,4.14c6.99,4,10.41,12.21,8.32,19.99c-1.02,4.01-3.65,7.42-7.27,9.42
	c-4.13,2.4-8.55,4.25-13.15,5.53c-3.32,1.02-6.69,1.92-9.94,3.14c-3.05,0.86-5.67,2.84-7.34,5.54c0.65-0.16,1.29-0.35,1.92-0.58
	c5.35-2.52,11.42-3.07,17.14-1.55c1.82,0.5,3.67,0.9,5.53,1.21c4.03,0.6,5.64-0.73,6.12-4.87c0.07-0.59,0.1-1.18,0.19-2.15
	c3.09-0.21,6.19-0.2,9.28,0.04c0.36,5.41,0.36,10.6-2.29,15.42c-2.47,4.51-6.73,5.96-11.46,6.37c-4.57,0.3-9.16-0.25-13.53-1.63
	c-2.86-0.82-5.71-1.74-8.62-2.34c-2.87-0.59-5.84-0.96-7.63,2.2h-9.87c-0.43-4.5,0.41-9.04,2.45-13.08
	c2.56-4.64,6.26-8.55,10.75-11.36c3.35-2.31,6.87-4.38,10.29-6.58c1.27-0.78,2.5-1.63,3.67-2.55c2.56-1.99,3.99-5.1,3.84-8.34
	c0.06-2.97-1.7-5.68-4.44-6.84C290.51,491.27,284.46,492.33,280.47,496.31z"/>
<path id="Path_14424" d="M344.49,484.02c0.12,1.91,0.21,3.43,0.32,5.33c0.39-0.31,0.77-0.66,1.11-1.03
	c3.68-5.03,8.82-6.21,14.56-5.21c2.9,0.64,5.76,1.47,8.56,2.47c1.7,0.52,3.39,1.11,5.07,1.7c1.39,0.56,2.97,0.23,4.03-0.82l1-2.32
	h7.52c0.53,1.64,0.45,3.41-0.23,4.99c-1.75,3.99-3.48,8-5.52,11.84c-2.61,4.9-5.61,9.6-8.28,14.47c-3.8,7.36-5.81,15.5-5.89,23.78
	c-0.04,0.97-0.1,1.94-0.16,3.08h-19.23c-0.47-2.23-0.54-4.53-0.21-6.79c0.57-8.52,4.26-16.53,10.38-22.49
	c4.04-3.97,8.24-7.77,12.35-11.66c0.92-0.88,1.77-1.83,3.16-3.27c-1.18,0.27-1.68,0.33-2.15,0.49c-4.11,1.23-8.46,1.41-12.66,0.54
	c-2.24-0.43-4.5-0.74-6.77-0.91c-3.12-0.38-5.95,1.84-6.33,4.96c0,0.03-0.01,0.06-0.01,0.08c-0.28,1.46-0.46,2.93-0.54,4.42
	c-0.09,0.96-0.09,1.94-0.15,3.06h-10.3v-26.59c1.71-0.04,3.36-0.1,5.01-0.13C340.79,484.01,342.49,484.02,344.49,484.02z"/>
<path id="Path_14425" d="M528.01,491.62c5.53-0.88,11.03-1.71,13.84-7.47h14.92c0.05,1.1,0.12,2.15,0.13,3.21
	c0.01,13.5,0.01,27.01,0,40.51c0,0.7-0.02,1.39,0,2.09c0.1,3.04,1.04,4.05,4.14,4.24c1.47,0.09,2.95,0.02,4.58,0.02
	c0.32,2.59,0.4,5.2,0.25,7.8c-2.37,0.59-32.92,0.79-37.81,0.27v-7.71c2.74-0.88,5.92,0.44,9.02-1.59c0.4-1.06,0.66-2.16,0.78-3.28
	c0.08-9.43,0.05-18.87,0.04-28.3c-0.06-0.49-0.16-0.97-0.31-1.44H528L528.01,491.62z"/>
<path id="Path_14426" d="M419.26,50.5l4.38,17.87l0.64-0.01l4.85-17.58h11.98v30.38h-7.43V59.65c-2.7,6.95-4.33,14.19-6.54,21.41
	h-6.84l-5.29-21.86l-0.63,0.02c-0.03,1.77-0.07,3.54-0.09,5.31c-0.02,1.77-0.03,3.58-0.05,5.37c-0.02,1.89,0.01,3.78-0.07,5.67
	c-0.08,1.76-0.28,3.52-0.45,5.55l-6.61-0.36c-0.65-2.17-0.63-25.68,0.01-30.26L419.26,50.5z"/>
<path id="Path_14427" d="M574.28,146.04l-6.5-5.82l2.65-19.77l-0.52-0.22l-10.94,11.98l-6.42-5.92l20.66-22.78l6.41,5.98l-2.75,19.8
	l0.49,0.27l11.07-12.08l6.52,5.84L574.28,146.04z"/>
<path id="Path_14428" d="M291.52,107.13l-9.46-12.88l7-5.25l18.25,24.68l-7.02,5.28l-19.56-6.79c3.34,5.05,6.75,9.21,9.97,13.8
	l-6.99,5.22l-18.28-24.68l7.02-5.2l18.56,6.43L291.52,107.13z"/>
<path id="Path_14429" d="M646.16,305.96c-3.5,3.95-6.63,5.89-13.87,8.53v-10.09l9.73-4.98c1.52-0.54,2.69-1.79,3.14-3.35
	c0.05-0.6,0.06-1.2,0.01-1.81h-12.12c-0.32-3.12-0.33-6.26-0.04-9.38c10.23-0.36,20.27,0.64,30.52,0.51c0,3,0.05,5.66-0.01,8.32
	c-0.08,3.28-0.26,6.55-0.41,9.82c-0.03,0.59-0.04,1.19-0.13,1.78c-0.65,4.46-3.03,7.05-6.84,7.45c-4.2,0.89-8.37-1.6-9.59-5.71
	C646.44,306.72,646.32,306.37,646.16,305.96z M655.84,303.08c1.65-2.39,1.88-4.13,1.11-8.29l-5.6-0.37
	c-0.67,1.78-0.81,3.71-0.39,5.57C651.59,303.18,652.34,303.68,655.84,303.08L655.84,303.08z"/>
<path id="Path_14430" d="M368.38,55.9c5.41-0.9,10.47-1.76,15.55-2.56c1.66-0.3,3.34-0.47,5.02-0.51c3.62-0.28,6.92,2.07,7.85,5.57
	c1.22,3.61-0.1,7.59-3.23,9.76c-0.54,0.38-1.1,0.72-1.74,1.13c4.52,2.58,6.52,4.76,10.98,11.93c-1.71,0.32-3.32,0.64-4.94,0.92
	c-1.66,0.29-3.32,0.54-5.17,0.84c-2.29-2.94-4.61-5.9-6.91-8.87c-1.03-1.79-3.26-2.5-5.14-1.63l1.86,12.15l-9.14,1.53L368.38,55.9z
	 M388.07,62.99c-0.28-2.44-1.37-3.74-3.32-3.61c-2.12-0.07-4.23,0.37-6.15,1.28l1.11,5.93C383.1,66.07,386.41,66.38,388.07,62.99
	L388.07,62.99z"/>
<path id="Path_14431" d="M331.56,76.72c0.05-10.4,9.56-14.77,17.5-14.97c9.89-0.25,14.69,8.59,14.97,17.42
	c0.3,9.8-8.19,14.63-17.74,14.95C337.15,94.43,332.02,85.81,331.56,76.72z M354.91,80.46c-0.13-3.18-1.17-6.26-2.99-8.87
	c-1.66-2.23-4.61-3.05-7.18-1.99c-2.56,0.81-4.25,3.24-4.13,5.92c0.13,3.29,1.28,6.46,3.29,9.06c1.62,2.15,4.51,2.87,6.95,1.75
	C353.44,85.6,355.14,83.14,354.91,80.46z"/>
<path id="Path_14432" d="M559.51,100.62c-0.35,6.67-4.13,12.68-9.99,15.88c-3.04,1.6-6.61,1.85-9.84,0.7
	c-3.73-1.14-7.08-3.27-9.7-6.15c-3.09-3.24-4.26-7.86-3.08-12.19c0.96-4.1,3.19-7.78,6.37-10.54c3.66-3.42,8.95-4.45,13.62-2.65
	c3.8,1.25,7.16,3.56,9.69,6.66C558.55,94.64,559.59,97.59,559.51,100.62z M550.83,99.44c0-4.32-5.02-8.55-9.22-5.94
	c-3.57,2.12-5.92,5.81-6.32,9.94c-0.44,4.36,4.77,8.07,8.55,6.07C547.56,107.38,550.13,103.68,550.83,99.44z"/>
<path id="Path_14433" d="M195.58,339.04c-7.85,0-12.87-3.75-14.59-11.02c-0.66-2.59-0.88-5.27-0.65-7.94
	c0.75-6.77,4.22-10.49,10.84-12.16c2.78-0.76,5.68-0.97,8.54-0.62c5.2,0.51,9.58,4.09,11.1,9.09c1.14,3.2,1.54,6.61,1.16,9.99
	c-0.4,4.78-3.41,8.94-7.81,10.83C201.49,338.5,198.55,339.13,195.58,339.04z M197.87,316.35c-2.69-0.07-5.36,0.54-7.75,1.78
	c-2.17,1.35-3.28,3.91-2.79,6.42c0.27,2.57,2.24,4.64,4.79,5.03c3.15,0.6,6.4,0.21,9.32-1.1c2.4-0.94,3.88-3.37,3.62-5.94
	C204.88,318.51,202.41,316.37,197.87,316.35L197.87,316.35z"/>
<path id="Path_14434" d="M663.11,273.41c-2.19,0.37-4.11,0.72-6.04,1c-4.12,0.6-8.25,1.23-12.38,1.74
	c-5.96,0.75-12.35-1.94-13.83-9.29c-0.62-2.91-0.93-5.87-0.93-8.84c-0.17-4.45,2.65-8.47,6.9-9.81c3.12-0.96,6.32-1.65,9.56-2.06
	c4.01-0.66,8.05-1.11,12.08-1.65c1.16,2.88,1.64,5.99,1.39,9.08c-4.24,0.62-8.54,1.23-12.85,1.86c-1.87,0.27-3.76,0.41-5.59,0.82
	c-2.88,0.38-4.91,3.02-4.53,5.9c0.08,0.64,0.28,1.25,0.59,1.82c0.67,1.96,2.62,3.2,4.68,2.96c2.57-0.21,5.12-0.56,7.68-0.91
	c3.24-0.44,6.48-0.96,9.72-1.4c0.73-0.05,1.46-0.05,2.2-0.01L663.11,273.41z"/>
<path id="Path_14435" d="M627.98,204.08l-6.64-13.31l-5.63,2.78l7.23,14.66l-5.86,2.99c-0.28-0.34-0.53-0.71-0.76-1.08
	c-3.58-7.21-7.14-14.42-10.9-22l27.6-13.6l11.19,22.72l-5.63,2.85l-7.2-14.28l-4.56,2.21l6.51,13.32L627.98,204.08z"/>
<path id="Path_14436" d="M620.52,169.95l-5.02-6.37c1.65-3.94,1.23-6.55-1.19-7.96c-1.34-0.78-1.94-0.56-3.53,1.44l1.33,4.03
	c0.81,2.45,1.77,4.86,2.39,7.35c1,3.13,0.05,6.55-2.41,8.73c-2.59,2.47-6.36,3.25-9.72,2.02c-1.31-0.45-2.53-1.13-3.61-2
	c-3.49-2.85-6.05-6.67-7.36-10.98c-1.24-4.12,0.39-8.57,4-10.93l5.2,6.55c-1.39,2.01-2.76,4.04-1.6,6.56
	c0.64,1.83,2.23,3.16,4.15,3.45c2.67-1.03,3.35-2.11,2.69-4.66c-0.4-1.53-1.19-2.96-1.56-4.49c-0.68-2.47-1.15-5-1.41-7.55
	c-0.36-5.08,5.09-8.51,9.64-7.28c1.07,0.24,2.08,0.67,3,1.26c4.47,3.08,7.56,7.79,8.6,13.12
	C624.62,164.91,623.42,167.31,620.52,169.95z"/>
<path id="Path_14437" d="M193.46,348.28l2.94,7.98c-2.23,1.67-3.44,3.66-2.17,6.43c0.74,1.62,1.29,1.94,3.51,1.87
	c1.6-1.23,1.16-2.97,1.14-4.64c-0.14-3.06-0.1-6.13,0.09-9.18c0.7-7.31,9.46-9.54,14.68-5.55c1.12,0.83,2.07,1.86,2.82,3.03
	c2.7,4.22,3.89,9.24,3.37,14.23c-0.48,3.96-3.23,6.11-6.87,7.81l-3.02-7.97c4.83-4.17,4.77-8.35-0.05-10.49
	c-2.65,0.78-3.16,1.3-3.25,3.82c-0.07,1.98,0.14,3.98,0.05,5.96c-0.02,1.88-0.23,3.76-0.64,5.6c-1.02,4.17-5.22,6.73-9.4,5.72
	c-0.97-0.24-1.88-0.66-2.7-1.24c-1.08-0.71-2-1.63-2.73-2.7c-2.77-4.06-4.02-8.97-3.54-13.87
	C188.12,351.89,190.37,349.22,193.46,348.28z"/>
<path id="Path_14438" d="M477.2,88l-9.34-1.8c-0.3-1.96-0.54-3.59-0.8-5.3l-10.59-2.02l-2.8,4.67l-9.11-1.8l17.03-27.94l9.99,1.9
	C473.61,66.3,475.39,76.89,477.2,88z M466.35,74.24c-0.04-3.74-0.64-7.45-1.77-11.02l-5.05,9.6L466.35,74.24z"/>
<path id="Path_14439" d="M225.48,198.99c-1.63-0.38-3.3-0.63-4.89-1.16c-3.86-1.3-7.46-3.29-10.61-5.87
	c-4.13-2.8-5.59-8.21-3.42-12.71c0.68-1.75,1.6-3.41,2.73-4.91c2.22-3.2,6.18-4.71,9.97-3.81c5.38,1.1,10.35,3.63,14.41,7.33
	c3.92,2.94,5.04,8.33,2.61,12.59c-0.84,1.79-1.89,3.47-3.13,5.01C231.25,197.73,228.44,199.03,225.48,198.99z M226.64,191.18
	c2.19,0.08,3.39-0.51,3.96-1.89c0.67-1.52,0.22-3.3-1.1-4.31c-3.73-3.28-8.16-5.66-12.96-6.97c-1.59-0.52-3.32,0.17-4.11,1.65
	c-0.73,1.24-0.6,2.8,0.33,3.89c0.28,0.41,0.62,0.77,1.01,1.08c3.44,2.68,7.29,4.8,11.39,6.28
	C225.64,191.05,226.14,191.14,226.64,191.18L226.64,191.18z"/>
<path id="Path_14440" d="M636.81,232.53v7.65c-5.01,1.29-10.22-1.16-12.43-5.84c-1.46-2.83-2.32-5.94-2.52-9.12
	c-0.46-5.11,2.16-9.99,6.67-12.43c3.48-2.17,7.53-3.27,11.64-3.15c3.43,0,6.7,1.46,8.98,4.02c3.36,3.75,5.11,8.67,4.88,13.7
	c-0.2,3.94-2.37,7.51-5.76,9.52l-4.09-7.07c0.38-0.43,0.72-0.78,1.03-1.15c2.21-2.43,2.03-6.18-0.39-8.39
	c-1.29-1.18-3.04-1.73-4.78-1.5c-2.82,0.53-5.55,1.44-8.13,2.7c-2.31,1.01-3.49,3.59-2.74,6c0.39,2.44,2.31,4.34,4.75,4.72
	C634.77,232.35,635.66,232.39,636.81,232.53z"/>
<path id="Path_14441" d="M211.96,226.26c-5.59-0.59-10.91-2.66-15.44-5.99c-3.04-2.11-4.46-5.87-3.57-9.46c0.43-2.13,1.1-4.2,2-6.17
	c1.73-3.99,5.95-6.29,10.24-5.58c5.26,0.48,10.31,2.31,14.66,5.31c4.16,2.36,5.99,7.39,4.32,11.87c-0.37,1.33-0.86,2.64-1.44,3.89
	C220.77,224.38,217.35,226.29,211.96,226.26z M214.01,218.54c2.4-0.02,3.67-0.82,4.22-2.34c0.55-1.45,0.02-3.09-1.27-3.95
	c-0.9-0.78-1.9-1.43-2.97-1.94c-2.36-1.01-4.79-1.9-7.22-2.75c-1.13-0.38-2.29-0.64-3.47-0.8c-1.82-0.34-3.64,0.63-4.37,2.33
	c-0.58,1.47-0.14,2.79,1.5,4.13c0.67,0.59,1.43,1.07,2.25,1.43c3.04,1.19,6.1,2.32,9.18,3.41c0.71,0.21,1.44,0.36,2.18,0.46
	L214.01,218.54z"/>
<path id="Path_14442" d="M189.02,276.75l-1.41,7.79c-6.05-1.24-8.75-4.51-8.6-10.53c0.06-2.48,0.41-4.94,1.05-7.34
	c1.09-4.63,5.73-7.51,10.36-6.42c1.24,0.29,2.4,0.85,3.39,1.64c2.25,1.81,4.1,4.06,5.44,6.62c1.15,1.83,2.3,3.66,3.63,5.79
	c1.44-2.24,0.79-4.37,1.11-6.33c0.33-2.04,0.46-4.11,0.72-6.55l6.66,0.36c-0.78,8.64-1.52,16.91-2.28,25.5
	c-2.94-0.61-5.63-2.08-7.74-4.22c-1.98-2.21-3.7-4.66-5.46-7.05c-1.06-1.44-1.98-2.98-2.98-4.45c-0.33-0.49-0.71-0.96-1.12-1.39
	c-1.08-1.36-2.87-1.95-4.55-1.51c-1.45,0.52-2.44,1.86-2.49,3.4c-0.06,1.75,1.02,3.34,2.67,3.92
	C187.87,276.16,188.3,276.39,189.02,276.75z"/>
<path id="Path_14443" d="M323.34,84.05l2.75,5.21l-10.54,5.7l5.74,11.12l-8.2,4.38l-14.29-27.2l20.66-10.84l3.06,5.55l-12.3,6.58
	l2.5,4.98L323.34,84.05z"/>
<path id="Path_14444" d="M624.92,387.03l-11.75-5.14l3.7-8.48l11.9,5.05l21.06-3.73l-4.11,9.33l-12.13,1.66l7.03,9.98l-4.06,9.43
	L624.92,387.03z"/>
<path id="Path_14445" d="M493.55,93.86l-8.75-2.98l7.34-21.72c-2.74-1.83-6.02-2.1-9.04-3.69l2.36-6.8l27.25,9.27l-2.36,6.93
	l-9.25-3L493.55,93.86z"/>
<path id="Path_14446" d="M626.95,342.23l22.49,5.88l2.62-9.35l7.05,1.85l-7.25,27.75l-7.15-1.74l2.4-9.43l-22.46-5.99L626.95,342.23
	z"/>
<path id="Path_14447" d="M188.7,252.6l-6.64-1.58l5.43-24.11l5.39,1.18c4.97,8.13,12.86,14.07,22.05,16.6l-1.78,7.93
	c-8.31-2.59-15.57-7.78-20.72-14.81C190.75,242.85,190.26,247.67,188.7,252.6z"/>
<path id="Path_14448" d="M233.27,156.94c-0.59,2.96-1.08,5.48-1.61,7.99c-0.17,0.51-0.4,1.01-0.67,1.48l-5.3-3.88
	c1.47-4.51,2.08-8.98-0.41-13.37l4.13-5.63l25.11,18.51l-4.94,6.82L233.27,156.94z"/>
<path id="Path_14449" d="M278.29,136.07l-6.41,6.86l-21.12-22.21l6.47-6.73L278.29,136.07z"/>
<path id="Path_14450" d="M515.67,103.42l-8.4-4.04l13.09-27.72l8.48,3.94L515.67,103.42z"/>
<path id="Path_14451" d="M224.92,372.43l3.68,8.57l-28.17,12.17l-3.69-8.56L224.92,372.43z"/>
<path id="Path_14452" d="M629.91,327.67l1.33-9.01c10.12,1.22,20.02,2.74,30.27,4.28l-1.25,9.05
	C650.03,330.73,640.09,329.27,629.91,327.67z"/>
<path id="Path_14453" d="M554.24,294.33c0.09,7.99-1.69,15.9-5.18,23.08c-4.48,8.77-12.01,15.6-21.18,19.2
	c-6.66,2.64-13.72,4.11-20.88,4.37c-8.34,0.66-16.73-0.25-24.73-2.67c-17.31-5.55-27.68-17.22-30.32-35.4
	c-1.31-8.28-0.78-16.74,1.55-24.79c3.51-12.28,12.64-22.15,24.61-26.62c10.26-3.9,21.32-5.26,32.22-3.95
	c6.26,0.42,12.4,1.91,18.16,4.39c13.65,5.63,23.18,18.23,24.88,32.9C553.83,287.98,553.96,291.17,554.24,294.33z M520.24,294.33
	c-0.28-4.25-0.42-8.53-0.89-12.76c-0.35-4.77-1.64-9.41-3.8-13.68c-2.39-4.75-7.33-7.68-12.64-7.49
	c-5.41-0.27-10.49,2.64-12.99,7.45c-1.76,3.35-2.9,6.98-3.38,10.73c-1.4,9.24-1.57,18.62-0.5,27.9c0.33,4.26,1.35,8.45,3.02,12.38
	c3.22,7.53,11.95,11.03,19.48,7.81c3.31-1.42,5.99-3.99,7.55-7.23c0.92-1.98,1.64-4.04,2.13-6.17
	C519.57,307.04,520.24,300.7,520.24,294.33L520.24,294.33z"/>
<path id="Path_14454" d="M424.39,279.9c-0.59-1.63-1.04-2.94-1.52-4.24c-3.26-8.76-9.82-13.22-18.88-14.19
	c-3.45-0.53-6.98-0.34-10.35,0.56c-2.21,0.64-4.2,1.86-5.77,3.55c-3.23,3.57-2.88,7.59,1.22,10.09c2.39,1.41,4.97,2.48,7.65,3.18
	c5.64,1.55,11.41,2.67,17.07,4.19c6.58,1.59,12.86,4.21,18.62,7.77c6.19,3.85,10.16,10.44,10.66,17.71
	c1.05,7.38-1.02,14.86-5.72,20.65c-3.57,4.19-8.21,7.33-13.43,9.08c-6.98,2.35-14.37,3.29-21.72,2.76
	c-8.65-0.47-17.12-2.66-24.92-6.44c-0.34-0.16-0.72-0.26-1.3-0.46l-3.32,4.67h-11.72v-32.41c2.02-0.31,4.08-0.39,6.12-0.25
	c1.98-0.05,3.96-0.01,6.19-0.01c0.41,1.07,0.77,2.07,1.18,3.05c4.08,9.72,10.93,16.23,21.5,18.26c3.51,0.81,7.16,0.73,10.63-0.23
	c1.9-0.56,3.67-1.46,5.24-2.67c3.03-2.16,3.74-6.37,1.59-9.4c-0.44-0.62-0.98-1.16-1.6-1.6c-2.55-1.88-5.38-3.36-8.38-4.38
	c-5.81-2.02-11.8-3.5-17.66-5.37c-4.09-1.23-8.11-2.68-12.04-4.34c-7.47-3.32-12.94-8.72-14.6-16.93
	c-2.65-13.11,2.86-24.51,14.88-30.85c5.15-2.63,10.82-4.1,16.59-4.33c10.95-0.81,21.94,1.18,31.91,5.78
	c0.36,0.17,0.74,0.29,1.39,0.54l2.43-4.06h12.34v30.25c-2.29,0.02-4.63,0.06-6.96,0.07C429.31,279.91,426.93,279.9,424.39,279.9z"/>
<path id="Path_14455" d="M350.48,326.07v12.19h-52.13v-12.19c1.61,0,3.18,0.03,4.73-0.01c1.09,0,2.18-0.09,3.26-0.27
	c1.65-0.16,2.97-1.46,3.16-3.11c0.24-1.27,0.4-2.55,0.46-3.83c0.03-16.5,0.03-33.01,0-49.51c-0.01-5.84-1.4-7.17-7.24-7.27
	c-1.38-0.02-2.77,0-4.37,0v-12.13h51.77c0.68,3.94,0.74,7.97,0.17,11.93c-0.72,0.07-1.48,0.16-2.25,0.21
	c-0.77,0.05-1.59,0-2.39,0.02c-5.32,0.19-6.58,1.33-6.58,6.58c-0.05,16.9-0.05,33.8,0,50.7c0.02,5.42,1.29,6.59,6.74,6.69
	C347.29,326.09,348.76,326.07,350.48,326.07z"/>
</svg>
