<?xml version="1.0" encoding="UTF-8" standalone="no"?>
<svg
   xmlns:dc="http://purl.org/dc/elements/1.1/"
   xmlns:cc="http://creativecommons.org/ns#"
   xmlns:rdf="http://www.w3.org/1999/02/22-rdf-syntax-ns#"
   xmlns:svg="http://www.w3.org/2000/svg"
   xmlns="http://www.w3.org/2000/svg"
   xmlns:sodipodi="http://sodipodi.sourceforge.net/DTD/sodipodi-0.dtd"
   xmlns:inkscape="http://www.inkscape.org/namespaces/inkscape"
   version="1.1"
   id="Layer_1"
   x="0px"
   y="0px"
   width="20"
   height="20"
   viewBox="0 0 20 20"
   enable-background="new 0 0 1000 1000"
   xml:space="preserve"
   sodipodi:docname="jupyter-kernel.svg"
   inkscape:version="1.0.1 (c497b03c, 2020-09-10)"><metadata
   id="metadata858"><rdf:RDF><cc:Work
       rdf:about=""><dc:format>image/svg+xml</dc:format><dc:type
         rdf:resource="http://purl.org/dc/dcmitype/StillImage" /><dc:title /></cc:Work></rdf:RDF></metadata><defs
   id="defs856" /><sodipodi:namedview
   pagecolor="#ffffff"
   bordercolor="#666666"
   borderopacity="1"
   objecttolerance="10"
   gridtolerance="10"
   guidetolerance="10"
   inkscape:pageopacity="0"
   inkscape:pageshadow="2"
   inkscape:window-width="1341"
   inkscape:window-height="860"
   id="namedview854"
   showgrid="false"
   inkscape:zoom="5.7807995"
   inkscape:cx="-9.1780002"
   inkscape:cy="25.463674"
   inkscape:window-x="409"
   inkscape:window-y="315"
   inkscape:window-maximized="0"
   inkscape:current-layer="Layer_1"
   inkscape:document-rotation="0" />
<path
   d="M 9.812947,13.519683 C 7.707111,13.519683 6,11.853384 6,9.798315 6,7.743238 7.707111,6.076932 9.812947,6.076932 c 2.106298,0 3.812946,1.666306 3.812946,3.721383 -7e-6,2.055069 -1.706656,3.721368 -3.812946,3.721368 z m 3.412354,-3.681482 c 0,-1.458379 -1.543452,-2.641118 -3.446207,-2.641118 -1.90344,0 -3.446669,1.182739 -3.446669,2.641118 0,1.458356 1.543229,2.641096 3.446669,2.641096 1.902762,-8e-6 3.446207,-1.18274 3.446207,-2.641096 z"
   id="path851"
   style="stroke-width:0.00771645;fill:#f37726;fill-opacity:1" />
<path
   d="m 2.9926999,9.8321989 c 0,-4.06628 1.4594,-7.64017 3.6146,-9.488092 -1.9389,0.717002 -3.6115,2.010752 -4.7928,3.707102 -1.1813,1.69634 -1.81450000000001,3.71391 -1.81450000000001,5.78099 0,2.0672001 0.63320000000001,4.0847001 1.81450000000001,5.7811001 1.1813,1.6963 2.8539,2.9901 4.7928,3.7071 -2.1552,-1.8434 -3.6146,-5.4037 -3.6146,-9.4882001 z"
   fill="#f37726"
   id="path2717" /><path
   d="m 17.00717,9.8321989 c 0,4.0664001 -1.45937,7.6403001 -3.61452,9.4882001 1.9388,-0.717 3.61143,-2.0108 4.79273,-3.7071 1.18131,-1.6964 1.814578,-3.7139 1.814578,-5.7811001 0,-2.06708 -0.633268,-4.08465 -1.814578,-5.78099 -1.1813,-1.69635 -2.85393,-2.9901 -4.79273,-3.707102 2.15967,1.847922 3.61452,5.403742 3.61452,9.488092 z"
   fill="#f37726"
   id="path2719" /></svg>
