<?xml version="1.0" encoding="UTF-8" standalone="no"?>
<svg
 xmlns="http://www.w3.org/2000/svg"
   xmlns:xlink="http://www.w3.org/1999/xlink"
   version="1.0"
   id="svg2"
   width="512"
   height="512">
  <defs
 id="defs4">
    <linearGradient
 id="linearGradient4328">
      <stop
 id="stop4330"
 offset="0"
         style="stop-color:#fab434;stop-opacity:1"/>
      <stop
 id="stop4332"
 offset="1"
         style="stop-color:#fb9143;stop-opacity:1"/>
    </linearGradient>
    <linearGradient
 id="linearGradient3919">
      <stop
 style="stop-color:#e4e4e4;stop-opacity:1;"
 offset="0"
         id="stop3921"/>
      <stop
 id="stop3927"
 offset="1"
         style="stop-color:#ffffff;stop-opacity:1;"/>
    </linearGradient>
    <linearGradient
 id="linearGradient4689">
      <stop
 style="stop-color:#5a9fd4;stop-opacity:1;"
 offset="0"
         id="stop4691"/>
      <stop
 style="stop-color:#306998;stop-opacity:1;"
 offset="1"
         id="stop4693"/>
    </linearGradient>
    <linearGradient
 id="linearGradient4689-6">
      <stop
 style="stop-color:#5a9fd4;stop-opacity:1"
 offset="0"
         id="stop4691-3"/>
      <stop
 style="stop-color:#306998;stop-opacity:1"
 offset="1"
         id="stop4693-8"/>
    </linearGradient>
    <filter
 id="filter3871"
 color-interpolation-filters="sRGB">
      <feGaussianBlur
 stdDeviation="2.9338986"
 id="feGaussianBlur3873"/>
    </filter>
    <filter
 id="filter3913"
 color-interpolation-filters="sRGB">
      <feGaussianBlur
 stdDeviation="0.75310748"
 id="feGaussianBlur3915"/>
    </filter>
    <linearGradient
 xlink:href="#linearGradient3919"
 id="linearGradient3925"
       x1="209.00497"
       y1="-22.631527"
       x2="200.9668"
       y2="-2.0393581"
       gradientUnits="userSpaceOnUse"
       gradientTransform="matrix(2.2092365,0,0,2.2092365,-385.60936,-205.19253)"/>
    <linearGradient
 xlink:href="#linearGradient4328"
 id="linearGradient3316"
       gradientUnits="userSpaceOnUse"
       gradientTransform="matrix(2.181239,0,0,2.181239,-398.42772,-183.31608)"
       x1="116.74316"
       y1="62.91114"
       x2="190.06432"
       y2="149.74373"/>
    <linearGradient
 xlink:href="#linearGradient4328"
 id="linearGradient3314"
       gradientUnits="userSpaceOnUse"
       gradientTransform="matrix(2.181239,0,0,2.181239,-428.64141,-183.31608)"
       x1="116.74316"
       y1="62.91114"
       x2="190.06432"
       y2="149.74373"/>
  </defs>
  <path
 style="fill:#666666;fill-opacity:0.990338;stroke:#7d7d7d;stroke-width:1.08476;stroke-linecap:round;stroke-miterlimit:4;stroke-dasharray:none;stroke-dashoffset:0;stroke-opacity:1;filter:url(#filter3871)"
 d="m 20,279.27442 h 88.35063 c 33.9881,0 77.49135,12.81451 77.49135,29.1526 V 492 H 20 Z"
     id="path3077"
     transform="matrix(2.3524197,0,0,2.3524197,20.683412,-649.92132)"/>
  <path
 id="path3875"
 d="m 172.44062,-29.205599 c 12.43851,5.333061 24.39875,11.169395 29.07043,28.60434895 8.5133,-4.59641195 30.96516,-11.88953595 31.36664,-1.19791745"
     style="fill:#ffffff;stroke:#7d7d7d;stroke-width:1.08476;stroke-linecap:round;stroke-linejoin:bevel;stroke-miterlimit:4;stroke-dasharray:none;stroke-opacity:1;filter:url(#filter3913)"
     transform="matrix(2.3524197,0,0,2.3524197,-213.9426,80.681179)"/>
  <g
 id="g191"
 transform="matrix(1.0648112,0,0,1.0648112,320.32813,299.17248)">
    <path
 id="path4338"
 d="m -237.03008,-274.38203 h 194.983307 c 61.89823,0 171.017663,39.63692 171.017663,64.41045 v 405.59051 h -366.00097 z"
       style="fill:#ffffff;fill-opacity:0.990338;stroke:#7d7d7d;stroke-width:2;stroke-linecap:round;stroke-miterlimit:4;stroke-dasharray:none;stroke-dashoffset:0;stroke-opacity:1"/>
    <path
 style="fill:url(#linearGradient3925);fill-opacity:1;stroke:#7d7d7d;stroke-width:2;stroke-linecap:round;stroke-linejoin:bevel;stroke-miterlimit:4;stroke-dasharray:none;stroke-opacity:1"
 d="m -42.043243,-274.38156 c 32.9020801,0 87.16499,12.82417 101.61943,66.7689 18.80789,-10.15456 68.409363,-26.2668 69.296323,-2.64648 0,-40.09526 -127.94367292,-64.12242 -170.915753,-64.12242 z"
       id="path4384"/>
  </g>
  <g
 id="g124"
 transform="matrix(1.0391104,0,0,1.0391104,320.69767,308.66471)">
    <path
 id="path3277"
 style="font-style:normal;font-variant:normal;font-weight:normal;font-stretch:normal;font-size:267.697px;line-height:125%;font-family:'Droid Sans';-inkscape-font-specification:'Droid Sans';letter-spacing:0px;word-spacing:0px;fill:url(#linearGradient3316);fill-opacity:1;stroke:#000000;stroke-width:1.3;stroke-miterlimit:4;stroke-dasharray:none;stroke-opacity:1"
       d="m -216.21986,-54.19249 h 38.36437 L -84.483383,121.9733 V -54.19249 h 27.64492 v 210.58088 h -38.36437 L -188.57494,-19.7774 v 176.16579 h -27.64492 V -54.19249"/>
    <path
 id="path3279"
 style="font-style:normal;font-variant:normal;font-weight:normal;font-stretch:normal;font-size:267.697px;line-height:125%;font-family:'Droid Sans';-inkscape-font-specification:'Droid Sans';letter-spacing:0px;word-spacing:0px;fill:url(#linearGradient3314);fill-opacity:1;stroke:#000000;stroke-width:1.3;stroke-miterlimit:4;stroke-dasharray:none;stroke-opacity:1"
       d="m 81.920317,77.54398 c -1.4e-4,-19.08806 -3.94941,-34.03886 -11.84782,-44.85247 -7.80464,-10.90738 -18.57109,-16.36113 -32.29942,-16.36127 -13.7285,1.4e-4 -24.54197,5.45389 -32.4404499,16.36127 -7.80458,10.81361 -11.70683,25.76441 -11.70677,44.85247 -6e-5,19.08821 3.90219,34.08603 11.70677,44.9935 7.8984799,10.81351 18.7119499,16.22025 32.4404499,16.22023 13.72833,2e-5 24.49478,-5.40672 32.29942,-16.22023 7.89841,-10.90747 11.84768,-25.90529 11.84782,-44.9935 M -6.3741429,22.39519 c 5.45369998,-9.40288 12.3179,-16.3611198 20.5926299,-20.8747198 8.36862,-4.60733 18.33583,-6.91107 29.90165,-6.91123 19.18205,1.6e-4 34.74406,7.61661 46.68605,22.8493598 12.035723,15.23304 18.053653,35.26148 18.053823,60.08538 -1.7e-4,24.82405 -6.0181,44.85249 -18.053823,60.08537 -11.94199,15.23291 -27.504,22.84936 -46.68605,22.84936 -11.56582,0 -21.53303,-2.25672 -29.90165,-6.77017 -8.2747299,-4.60748 -15.13892992,-11.61273 -20.5926299,-21.01578 v 23.69563 H -32.467563 V -63.07836 h 26.0934201 v 85.47355"/>
  </g>
  <text
 id="text4334"
 y="183.35033"
     x="84.525597"
     style="font-style:normal;font-variant:normal;font-weight:normal;font-stretch:normal;font-size:13.4679px;line-height:0%;font-family:'Myriad Pro';-inkscape-font-specification:'Myriad Pro';letter-spacing:0px;word-spacing:0px;fill:#4d4d4d;fill-opacity:1;stroke:none;stroke-width:1.12234px;stroke-linecap:butt;stroke-linejoin:miter;stroke-opacity:1"><tspan
 y="183.35033"
 x="84.525597"
       id="tspan4336"
       style="font-size:119.967px;line-height:1.25;stroke-width:1.12234px">Jupyter</tspan></text>
</svg>
