<?xml version="1.0" encoding="UTF-8" standalone="no"?>
<svg
 width="21"
 height="21"
   viewBox="0 0 21 21"
   fill="none"
   version="1.1"
   id="svg4"
   xmlns="http://www.w3.org/2000/svg">
  <path
 d="M 6.7676576,15.628376 V 4.425949 h 1.4460075 v 5.4017508 h 0.049867 C 8.5627051,9.3955595 8.8618784,8.9966608 9.1444317,8.6310038 L 12.568311,4.425949 h 1.795057 l -4.055482,4.7535403 4.371277,6.4488867 H 12.967209 L 9.2940189,10.126874 8.2136693,11.356838 v 4.271538 z"
 fill="#4e4e4e"
     id="path1"
     style="stroke-width:1.38506"/>
  <path
 d="M10.3602 17.0183C6.29388 17.0183 2.71999 15.5589 0.87207 13.4038C1.58907 15.3426 2.88282 17.0152 4.57917 18.1965C6.27551 19.3778 8.29308 20.0111 10.3602 20.0111C12.4273 20.0111 14.4449 19.3778 16.1412 18.1965C17.8376 17.0152 19.1313 15.3426 19.8483 13.4038C18.0049 15.5589 14.4446 17.0183 10.3602 17.0183Z"
 fill="#F37726"
     id="path3"/>
  <path
 d="M10.3602 3.00387C14.4265 3.00387 18.0004 4.46323 19.8483 6.61838C19.1313 4.67958 17.8376 3.00695 16.1412 1.82565C14.4449 0.644348 12.4273 0.0110779 10.3602 0.0110779C8.29308 0.0110779 6.27551 0.644348 4.57917 1.82565C2.88282 3.00695 1.58907 4.67958 0.87207 6.61838C2.71999 4.45871 6.27581 3.00387 10.3602 3.00387Z"
 fill="#F37726"
     id="path4"/>
</svg>
