<?xml version="1.0" encoding="UTF-8" standalone="no"?>
<svg
 xmlns="http://www.w3.org/2000/svg"
   width="21"
   height="21"
   viewBox="0 0 21 21"
   fill="none"
   version="1.1"
   id="svg839">
  <path
 d="M10.3948 17.3977C6.32852 17.3977 2.75463 15.9383 0.906708 13.7831C1.62371 15.722 2.91746 17.3946 4.61381 18.5759C6.31015 19.7572 8.32772 20.3904 10.3948 20.3904C12.462 20.3904 14.4795 19.7572 16.1759 18.5759C17.8722 17.3946 19.166 15.722 19.883 13.7831C18.0396 15.9383 14.4793 17.3977 10.3948 17.3977Z"
 fill="#F37726"
     id="path835"/>
  <path
 d="M10.3948 3.38323C14.4612 3.38323 18.0351 4.8426 19.883 6.99775C19.166 5.05895 17.8722 3.38632 16.1759 2.20502C14.4795 1.02371 12.462 0.390442 10.3948 0.390442C8.32772 0.390442 6.31015 1.02371 4.61381 2.20502C2.91746 3.38632 1.62371 5.05895 0.906708 6.99775C2.75463 4.83808 6.31045 3.38323 10.3948 3.38323Z"
 fill="#F37726"
     id="path837"/>
  <text
 style="font-size:16px;line-height:1.25;font-family:sans-serif;fill:#4e4e4e;fill-opacity:1"
     x="4.5552745"
     y="16.196522"
     id="text849"><tspan
 id="tspan847"
 x="4.5552745"
       y="16.196522"
       style="fill:#4e4e4e;fill-opacity:1">C</tspan></text>
</svg>
