<?xml version="1.0" encoding="UTF-8" standalone="no"?>
<svg
   xmlns:dc="http://purl.org/dc/elements/1.1/"
   xmlns:cc="http://creativecommons.org/ns#"
   xmlns:rdf="http://www.w3.org/1999/02/22-rdf-syntax-ns#"
   xmlns:svg="http://www.w3.org/2000/svg"
   xmlns="http://www.w3.org/2000/svg"
   xmlns:sodipodi="http://sodipodi.sourceforge.net/DTD/sodipodi-0.dtd"
   xmlns:inkscape="http://www.inkscape.org/namespaces/inkscape"
   version="1.1"
   id="Layer_1"
   x="0px"
   y="0px"
   width="20"
   height="20"
   viewBox="0 0 20 20"
   enable-background="new 0 0 1000 1000"
   xml:space="preserve"
   sodipodi:docname="Jupiter.svg"
   inkscape:version="1.0.1 (c497b03c, 2020-09-10)"><metadata
   id="metadata858"><rdf:RDF><cc:Work
       rdf:about=""><dc:format>image/svg+xml</dc:format><dc:type
         rdf:resource="http://purl.org/dc/dcmitype/StillImage" /><dc:title></dc:title></cc:Work></rdf:RDF></metadata><defs
   id="defs856" /><sodipodi:namedview
   pagecolor="#ffffff"
   bordercolor="#666666"
   borderopacity="1"
   objecttolerance="10"
   gridtolerance="10"
   guidetolerance="10"
   inkscape:pageopacity="0"
   inkscape:pageshadow="2"
   inkscape:window-width="1341"
   inkscape:window-height="860"
   id="namedview854"
   showgrid="false"
   inkscape:zoom="5.7807995"
   inkscape:cx="24.121892"
   inkscape:cy="25.463674"
   inkscape:window-x="409"
   inkscape:window-y="343"
   inkscape:window-maximized="0"
   inkscape:current-layer="Layer_1" />
<path
   d="M 9.812947,13.519683 C 7.707111,13.519683 6,11.853384 6,9.798315 6,7.743238 7.707111,6.076932 9.812947,6.076932 c 2.106298,0 3.812946,1.666306 3.812946,3.721383 -7e-6,2.055069 -1.706656,3.721368 -3.812946,3.721368 z m 3.412354,-3.681482 c 0,-1.458379 -1.543452,-2.641118 -3.446207,-2.641118 -1.90344,0 -3.446669,1.182739 -3.446669,2.641118 0,1.458356 1.543229,2.641096 3.446669,2.641096 1.902762,-8e-6 3.446207,-1.18274 3.446207,-2.641096 z"
   id="path851"
   style="stroke-width:0.00771645" />
<g
   id="g3417"
   transform="rotate(90,42.879801,-5.7246271)"><path
     d="m 58.436627,34.162474 c -4.06628,0 -7.64017,-1.4594 -9.488092,-3.6146 0.717002,1.9389 2.010752,3.6115 3.707102,4.7928 1.69634,1.1813 3.71391,1.8145 5.78099,1.8145 2.0672,0 4.0847,-0.6332 5.7811,-1.8145 1.6963,-1.1813 2.9901,-2.8539 3.7071,-4.7928 -1.8434,2.1552 -5.4037,3.6146 -9.4882,3.6146 z"
     fill="#f37726"
     id="path2717" /><path
     d="m 58.436627,20.148004 c 4.0664,0 7.6403,1.45937 9.4882,3.61452 -0.717,-1.9388 -2.0108,-3.61143 -3.7071,-4.79273 -1.6964,-1.18131 -3.7139,-1.814578 -5.7811,-1.814578 -2.06708,0 -4.08465,0.633268 -5.78099,1.814578 -1.69635,1.1813 -2.9901,2.85393 -3.707102,4.79273 1.847922,-2.15967 5.403742,-3.61452 9.488092,-3.61452 z"
     fill="#f37726"
     id="path2719" /></g></svg>
