<?xml version="1.0" encoding="UTF-8" standalone="no"?>
<svg
 xmlns="http://www.w3.org/2000/svg"
 version="1.1"
   id="svg869"
   width="100"
   height="100"
   viewBox="0 0 100 100">
  <g
 id="g922"
 transform="matrix(0.87082283,0,0,0.87082283,20.17436,-0.8068642)">
    <path
 id="path885"
 d="M 13.500231,114.14981 C 2.9613308,109.1246 3.2834682,92.720329 14.016047,87.88285 c 3.063826,-1.380954 3.450176,-2.03275 3.470777,-5.855391 0.02033,-3.775157 -0.338966,-4.423567 -2.936625,-5.299441 -4.047946,-1.364879 -9.6273514,-6.062732 -11.6143716,-9.779287 -2.11474134,-3.955446 -2.11474134,-13.22567 0,-17.181116 1.9870202,-3.716555 7.5664256,-8.414408 11.6143716,-9.779287 2.597659,-0.875874 2.956968,-1.524284 2.936625,-5.29944 -0.0206,-3.822638 -0.406951,-4.474439 -3.470777,-5.855396 C 3.1926781,23.955093 2.9768287,7.4359865 13.672308,2.5269754 26.006222,-3.1340551 39.175787,7.0890871 35.68804,19.617141 c -1.106616,3.974985 -7.341146,10.252304 -10.182413,10.252304 -1.141811,0 -1.56931,1.248045 -1.56931,4.581453 0,4.252435 0.250565,4.661437 3.489025,5.695201 1.918964,0.612561 4.793487,2.283675 6.387829,3.713587 l 2.898805,2.59984 3.505751,-2.062109 c 3.184949,-1.873412 3.516044,-2.542433 3.618235,-7.311156 0.180811,-8.437542 6.246013,-14.599487 14.488914,-14.72002 12.253723,-0.179179 19.507463,10.818287 14.230288,21.574678 -3.58599,7.309272 -13.763409,9.879099 -21.807206,5.506382 -3.723686,-2.024246 -4.167563,-1.443963 -7.425596,-0.728112 -4.414063,0.969852 -5.631104,-1.24405 -2.429674,7.648365 1.229581,3.415333 -0.859047,7.639469 -0.994765,8.999519 -0.153724,1.540505 1.146844,1.928379 3.653113,2.482631 3.25699,0.720271 3.473236,1.443587 7.196922,-0.580659 8.043797,-4.372717 18.221216,-1.80289 21.807206,5.506382 C 77.832339,83.531814 70.578599,94.52928 58.324876,94.350104 50.081975,94.229576 44.016773,88.067631 43.835962,79.630083 43.733773,74.861362 43.402676,74.192341 40.217727,72.318929 l -3.505751,-2.062109 -2.898805,2.59984 c -1.594342,1.429912 -4.468865,3.101026 -6.387829,3.713587 -3.23846,1.033764 -3.489025,1.442766 -3.489025,5.695199 0,3.333408 0.427499,4.581451 1.56931,4.581451 2.841267,0 9.075797,6.277327 10.182413,10.252311 1.903588,6.837722 -1.783524,14.753712 -8.051947,17.286992 -4.728637,1.91101 -9.810573,1.82602 -14.135862,-0.23639 z m 12.241396,-7.80037 c 5.185577,-4.71196 1.931287,-12.596186 -5.199194,-12.596186 -6.858592,0 -9.898334,8.590256 -4.494566,12.701576 3.61808,2.75272 6.583852,2.72048 9.69376,-0.10539 z M 64.594576,84.579649 c 6.46051,-6.707297 -3.96948,-16.643976 -10.668798,-10.164195 -2.619085,2.533256 -2.80836,7.930384 -0.369526,10.536952 2.491991,2.663384 8.302905,2.467153 11.038324,-0.372757 z M 25.345544,68.078484 c 3.940863,-1.949331 6.040506,-5.328053 6.040506,-9.720311 0,-10.11281 -11.910628,-14.344219 -18.631217,-6.618987 -4.0371702,4.640676 -3.7242891,9.502104 0.899383,13.974257 3.846676,3.720619 7.469313,4.453444 11.691328,2.365041 z M 64.299506,42.120311 c 4.919722,-4.470378 1.589518,-12.250866 -5.243618,-12.250866 -4.510658,0 -7.272215,2.618031 -7.272215,6.894261 0,6.809103 7.421683,9.985482 12.515833,5.356605 z M 26.346185,20.780755 C 30.513,17.241699 26.81653,8.1144222 21.216428,8.1144222 c -3.501781,0 -7.990632,3.8632578 -7.990632,6.8769998 0,7.411274 7.377832,10.666727 13.120389,5.789333 z"
 style="fill:#000000;stroke-width:1.05336"/>
    <path
 id="path906"
 d="m 18.825547,68.81891 c -2.915268,-0.959819 -6.603551,-4.258625 -7.888922,-7.055865 -1.0749406,-2.339298 -1.0669914,-4.791956 0.02275,-7.019307 1.168275,-2.387868 3.29318,-4.563858 5.533937,-5.66698 1.736994,-0.855119 2.11696,-0.932046 4.603622,-0.932046 2.336869,0 2.931927,0.103875 4.318179,0.753799 5.182645,2.429805 7.353744,9.150333 4.668165,14.450069 -0.879335,1.735285 -3.197053,3.871485 -5.19076,4.784234 -1.700051,0.77831 -4.742029,1.122318 -6.066971,0.686096 z"
 style="fill:#ffffff;stroke:#ffffff;stroke-width:0.284672;stroke-opacity:1"/>
    <path
 id="path908"
 d="m 18.186032,22.536912 c -2.694899,-1.03385 -4.451271,-3.478105 -4.696748,-6.53623 -0.17308,-2.156205 0.40438,-3.469044 2.290664,-5.207759 1.487441,-1.3710759 2.477492,-1.9239701 4.239821,-2.3677296 1.963682,-0.4944608 3.464224,0.025487 5.241958,1.8163736 3.097126,3.120042 3.589935,7.959538 1.050885,10.31994 -2.114325,1.96556 -5.810345,2.863986 -8.12658,1.975405 z"
 style="fill:#ffffff;stroke:#ffffff;stroke-width:0.284672;stroke-opacity:1"/>
    <path
 id="path910"
 d="m 18.025277,107.48064 c -4.984269,-2.49067 -6.110378,-7.829237 -2.428197,-11.511418 2.847592,-2.847592 7.347529,-2.809356 10.335335,0.08782 1.027258,0.996099 1.493311,1.729091 1.832463,2.88204 0.558897,1.899968 0.560553,2.122198 0.02914,3.911658 -0.834662,2.81061 -4.182446,5.502 -6.843861,5.502 -0.746603,0 -1.820338,-0.32015 -2.924882,-0.8721 z"
 style="fill:#ffffff;stroke:#ffffff;stroke-width:0.284672;stroke-opacity:1"/>
    <path
 id="path912"
 d="M 56.117518,86.297775 C 53.507397,85.4486 52.04839,83.132538 52.04839,79.838348 c 0,-6.444695 6.646201,-9.588945 11.632369,-5.503155 2.306036,1.889623 3.337559,5.434659 2.301066,7.908078 -1.416684,3.380681 -6.064051,5.290878 -9.864307,4.054504 z"
 style="fill:#ffffff;stroke:#ffffff;stroke-width:0.284672;stroke-opacity:1"/>
    <path
 id="path914"
 d="m 57.70019,43.97391 c -5.176989,-0.772705 -7.631489,-7.742056 -4.12828,-11.721912 3.300356,-3.749403 10.408104,-2.51331 12.352349,2.148169 0.543513,1.303116 0.572729,3.913022 0.05757,5.142374 -1.286861,3.07088 -4.800476,4.950959 -8.281635,4.431369 z"
 style="fill:#ffffff;stroke:#ffffff;stroke-width:0.284672;stroke-opacity:1"/>
  </g>
</svg>
