<?xml version="1.0" encoding="UTF-8" standalone="no"?>
<svg
 xmlns="http://www.w3.org/2000/svg"
   id="svg2"
   viewBox="0 0 454.99999 455.00001"
   version="1.1"
   width="455"
   height="455">
  <title
 id="title8175">Kerberos Icon</title>
  <g
 id="layer1"
 transform="translate(-104.3,-313.39)">
    <path
 id="path5289"
 style="fill:#000000"
       d="m 290.57,379.39 c 0.65687,0.1298 -40.214,0.83943 -37.479,41.384 -19.646,-3.5356 -50.598,1.1001 -72.566,18.451 -22.292,17.607 -59.911,23.325 -76.223,31.98 0,0 8.902,12.128 17.268,15.399 2.173,0.84953 4.4667,1.3321 6.8194,1.5399 l 7.2593,9.2116 0.79738,-8.9367 4.9496,6.2419 0.68748,-7.8643 c 0.26802,-0.0642 0.52883,-0.0974 0.79738,-0.16498 l 4.2622,5.3345 0.5774,-6.7094 c 11.697,-3.6348 23.598,-9.4147 33.272,-10.779 17.313,-2.4416 28.795,2.5206 24.445,32.282 -33.214,-15.729 -57.895,-12.118 -79.275,-3.0797 0,0 -5.5048,9.431 3.6022,13.419 38.001,-13.974 38.191,7.1712 66.681,8.6067 0.23914,-0.18307 0.48,-0.3644 0.71493,-0.54994 21.45,-16.942 50.037,-22.217 70.916,-19.963 0.49396,-18.471 10.33,-29.446 20.266,-34.784 8.1862,-4.3188 15.02,-6.5046 22.438,-5.967 1.6487,0.31144 2.5902,2.4445 3.5472,3.9046 10e-6,7e-5 -0.23472,0.43618 -0.30247,0.57744 l 0.30247,0.0276 c -0.41949,9.6836 -2.8535,19.104 -3.0247,27.332 -0.0375,1.7998 0.017,3.5136 0.19248,5.1695 12.057,-12.72 24.907,-23.9 37.562,-31.402 -16.632,-17.772 -34.72,-32.671 -50.898,-38.689 -17.446,-14.159 -8.3705,-33.937 -7.5893,-51.97 z m 81.008,36.242 c 0.78121,18.034 9.8571,37.811 -7.5893,51.97 -16.327,6.0734 -34.609,21.193 -51.365,39.184 1.2449,3.6427 3.5179,7.0079 7.4243,10.257 21.795,8.4946 45.14,30.492 64.812,54.418 15.988,-12.306 37.853,-18.644 65.169,-10.477 45.05,7.0177 38.389,-23.802 82.327,-7.6443 9.107,-3.9878 3.6297,-13.419 3.6297,-13.419 -21.381,-9.0378 -46.061,-12.649 -79.275,3.0797 -4.3497,-29.761 7.1322,-34.696 24.445,-32.255 9.674,1.3643 21.574,7.1167 33.272,10.752 l 0.57745,6.7094 4.2621,-5.3345 c 0.26863,0.0676 0.52941,0.10075 0.79743,0.16498 l 0.68744,7.8643 4.9495,-6.2144 0.79743,8.9367 7.2593,-9.2117 c 2.3526,-0.20774 4.6464,-0.71782 6.8194,-1.5674 8.3663,-3.2708 17.268,-15.399 17.268,-15.399 -16.312,-8.6542 -53.958,-14.345 -76.25,-31.952 -21.968,-17.351 -52.893,-22.014 -72.538,-18.478 2.7348,-40.544 -38.136,-41.254 -37.479,-41.384 z m -140.29,19.083 0.85242,3.9321 c 0,0 -8.521,3.6895 -14.684,5.4995 0.67567,0.99041 1.0639,2.1748 1.0449,3.4647 -0.0491,3.3284 -2.776,5.9885 -6.1044,5.9395 -3.3284,-0.0491 -5.9885,-2.7761 -5.9394,-6.1044 0.009,-0.56945 0.11967,-1.1298 0.27497,-1.6498 -5.2137,0.36549 -10.284,0.41246 -10.284,0.41246 l -0.85242,-3.9321 c 0,0 12.391,-0.13748 18.368,-1.4024 5.9771,-1.2649 17.323,-6.1594 17.323,-6.1594 z m 78.67,34.042 c 0.65687,0.12979 -40.241,0.83942 -37.507,41.384 -19.646,-3.5356 -50.57,1.1276 -72.538,18.478 -22.292,17.607 -59.938,23.298 -76.25,31.952 0,0 8.902,12.128 17.268,15.399 2.173,0.84954 4.4667,1.3596 6.8194,1.5674 l 7.2593,9.2116 0.82492,-8.9367 4.9496,6.2144 0.68739,-7.8643 c 0.26802,-0.0642 0.52883,-0.0974 0.79747,-0.16499 l 4.2346,5.3345 0.57741,-6.7094 c 11.697,-3.6348 23.598,-9.3872 33.272,-10.752 17.313,-2.4416 28.795,2.5206 24.445,32.282 -33.214,-15.729 -57.895,-12.145 -79.275,-3.1072 0,0 -5.4773,9.431 3.6297,13.419 43.938,-16.158 37.278,14.662 82.327,7.6443 66.196,-19.792 100.45,45.624 96.351,74.711 l 95.746,-36.462 c 7.5213,-16.878 -57.829,-113.69 -106.06,-131.63 -17.446,-14.159 -8.343,-33.937 -7.5618,-51.97 z m 120.91,2.1998 c 0,0 11.346,4.922 17.323,6.1869 5.9771,1.2649 18.341,1.4024 18.341,1.4024 l -0.82492,3.9046 c 0,0 -5.0703,-0.047 -10.284,-0.41246 0.15531,0.52003 0.23868,1.0804 0.24748,1.6498 0.0491,3.3284 -2.6111,6.0553 -5.9394,6.1044 -3.3284,0.0491 -6.0278,-2.6111 -6.077,-5.9395 -0.019,-1.2899 0.36924,-2.4743 1.0449,-3.4647 -6.1626,-1.81 -14.684,-5.4995 -14.684,-5.4995 l 0.85242,-3.9321 z m -180.22,53.125 0.85242,3.9321 c 0,0 -8.4935,3.6895 -14.656,5.4995 0.67567,0.99042 1.0639,2.1748 1.0449,3.4647 -0.0491,3.3284 -2.776,5.9885 -6.1044,5.9394 -3.3284,-0.0491 -5.9885,-2.776 -5.9394,-6.1044 0.009,-0.56944 0.0922,-1.1298 0.24747,-1.6498 -5.2137,0.3655 -10.257,0.41246 -10.257,0.41246 l -0.85242,-3.9046 c 0,0 12.391,-0.13749 18.368,-1.4024 5.9771,-1.2649 17.296,-6.1869 17.296,-6.1869 z"/>
  </g>
  </svg>
