<?xml version="1.0" encoding="UTF-8" standalone="no"?>
<svg
 xmlns="http://www.w3.org/2000/svg"
   version="1.1"
   id="svg879"
   width="392.57199"
   height="392.57199"
   viewBox="0 0 392.57199 392.572"><g
 id="g887"
 transform="matrix(1.3333333,0,0,-1.3333333,-351.03499,559.98414)"><g
 id="g878"
 transform="translate(99.976467)"><path
 d="m 347.759,361.313 c -4.284,8.177 -13.443,9.253 -28.422,10.852 -8.279,0.887 -15.856,-1.487 -21.361,-0.558 -8.128,-9.071 -5.689,-17.405 -4.709,-26.09 0.252,-2.236 0.785,-4.176 1.546,-5.876 3.494,-2.121 6.566,-5.105 9.101,-8.789 10.919,-5.261 27.337,-4.637 35.705,-11.956 6.527,3.32 16.788,22.795 8.14,42.417"
 style="fill:#78dbff;fill-opacity:1;fill-rule:nonzero;stroke:none;stroke-width:0.1"
         id="path893"/><path
 d="m 308.508,350.03 c 0.936,-8.298 8.419,-14.264 16.71,-13.326 8.297,0.933 14.261,8.417 13.329,16.714 -0.94,8.29 -8.419,14.258 -16.713,13.321 -8.297,-0.932 -14.263,-8.417 -13.326,-16.709"
 style="fill:#ff7713;fill-opacity:1;fill-rule:nonzero;stroke:none;stroke-width:0.1"
         id="path895"/><path
 d="m 325.147,337.321 c -7.935,-0.896 -15.126,4.835 -16.023,12.779 -0.892,7.94 4.841,15.126 12.776,16.02 7.94,0.897 15.134,-4.834 16.028,-12.776 0.894,-7.939 -4.841,-15.127 -12.781,-16.023 z m -3.505,31.104 c -9.209,-1.038 -15.858,-9.377 -14.818,-18.586 1.035,-9.214 9.374,-15.858 18.586,-14.821 9.212,1.042 15.858,9.378 14.82,18.588 -1.041,9.208 -9.376,15.858 -18.588,14.819"
 style="fill:#c12000;fill-opacity:1;fill-rule:nonzero;stroke:none;stroke-width:0.1"
         id="path897"/><path
 d="m 313.002,350.538 c 0.654,-5.81 5.898,-9.996 11.709,-9.342 5.815,0.658 9.993,5.904 9.335,11.713 -0.65,5.814 -5.895,9.992 -11.705,9.338 -5.813,-0.654 -9.996,-5.9 -9.339,-11.709"
 style="fill:#ffde17;fill-opacity:1;fill-rule:nonzero;stroke:none;stroke-width:0.1"
         id="path899"/><path
 d="m 318.08,351.109 c 0.338,-3.009 3.054,-5.171 6.062,-4.835 3.006,0.338 5.17,3.054 4.829,6.062 -0.337,3.01 -3.049,5.177 -6.058,4.838 -3.01,-0.34 -5.173,-3.057 -4.833,-6.065"
 style="fill:#000000;fill-opacity:1;fill-rule:nonzero;stroke:none;stroke-width:0.1"
         id="path901"/><path
 d="m 316.918,353.633 c 0.125,-1.108 1.128,-1.903 2.235,-1.777 1.104,0.12 1.903,1.12 1.78,2.225 -0.124,1.109 -1.131,1.905 -2.232,1.777 -1.107,-0.12 -1.904,-1.115 -1.783,-2.225"
 style="fill:#ffffff;fill-opacity:1;fill-rule:nonzero;stroke:none;stroke-width:0.1"
         id="path903"/><path
 d="m 319.246,349.834 c 0.057,-0.484 0.491,-0.835 0.978,-0.78 0.481,0.054 0.832,0.491 0.775,0.974 -0.052,0.489 -0.491,0.837 -0.973,0.781 -0.486,-0.055 -0.835,-0.494 -0.78,-0.975"
 style="fill:#ffffff;fill-opacity:1;fill-rule:nonzero;stroke:none;stroke-width:0.1"
         id="path905"/><path
 d="m 348.544,298.876 c 0.319,9.172 -2.415,17.121 -3.779,20.669 -1.046,-1.527 -2.59,-2.899 -4.847,-4.117 -3.503,2.775 -9.262,6.343 -16.389,7.98 10.424,-9.927 10.157,-26.554 5.384,-42.355 -5.388,-17.83 -19.027,-29.656 -32.039,-37.575 33.553,6.672 50.702,27.861 51.67,55.398"
 style="fill:#78dbff;fill-opacity:1;fill-rule:nonzero;stroke:none;stroke-width:0.1"
         id="path907"/><path
 d="m 347.759,361.313 c -9.741,22.511 -38.899,25.023 -51.823,10.663 -6.455,-7.172 -8.608,-20.233 -5.465,-29.946 l 3.069,-1.662 c 4.773,-2.538 8.822,-6.644 11.88,-11.907 7.006,-2.51 10.807,-2.643 16.193,-6.641 -9.854,12.221 -11.099,9.932 -15.032,15.477 -8.988,12.685 -4.003,26.774 11.418,27.965 8.777,0.676 19.338,-11.368 24.558,-21.67 4.841,4.971 -1.041,11.865 5.202,17.721"
 style="fill:#002c56;fill-opacity:1;fill-rule:nonzero;stroke:none;stroke-width:0.1"
         id="path909"/><path
 d="m 336.097,360.021 c 3.726,-0.945 14.979,2.291 10.296,12.346 8.941,-10.559 6.742,-19.923 -0.297,-25.003 2.948,-4.32 1.622,-15.552 -2.073,-19.291 -0.416,6.48 -2.355,14.46 -10.755,20.938 -4.025,3.101 -9.211,6.375 -14.236,9.66 -11.538,7.558 -23.734,18.944 -18.169,32.078 0.489,-11.806 24.107,-27.904 35.234,-30.728"
 style="fill:#002c56;fill-opacity:1;fill-rule:nonzero;stroke:none;stroke-width:0.1"
         id="path911"/><path
 d="m 308.47,334.911 c -2.145,1.786 -7.826,2.25 -10.939,2.837 5.349,-4.215 9.483,-10.635 11.856,-18.527 3.121,-10.405 2.868,-22.213 -0.742,-34.151 -4.1,-13.574 -13.177,-25.306 -26.983,-34.87 l -1.908,-1.325 c -0.639,-4.396 -2.171,-8.835 -5.047,-13.436 15.928,6.983 44.58,19.464 51.548,46.416 6.934,26.826 0.146,38.117 -17.785,53.056"
 style="fill:#002c56;fill-opacity:1;fill-rule:nonzero;stroke:none;stroke-width:0.1"
         id="path913"/><path
 d="m 273.739,257.858 c 0,0 -0.41,0.179 -1.203,0.525 -0.398,0.171 -0.89,0.387 -1.474,0.639 -0.586,0.255 -1.27,0.538 -2.014,0.935 -0.75,0.382 -1.591,0.809 -2.516,1.279 -0.937,0.464 -1.888,1.065 -2.958,1.666 -0.529,0.312 -1.094,0.613 -1.645,0.967 -0.556,0.36 -1.129,0.73 -1.718,1.114 -0.588,0.391 -1.202,0.781 -1.815,1.207 -0.604,0.446 -1.23,0.902 -1.866,1.373 -2.585,1.852 -5.241,4.174 -8.053,6.812 -0.674,0.689 -1.367,1.39 -2.067,2.105 -0.352,0.362 -0.702,0.726 -1.061,1.094 -0.337,0.387 -0.681,0.774 -1.019,1.167 -0.684,0.79 -1.393,1.587 -2.086,2.419 -0.669,0.854 -1.346,1.727 -2.035,2.61 -2.686,3.59 -5.291,7.636 -7.594,12.161 -2.289,4.545 -4.246,9.491 -5.827,14.941 -0.181,0.646 -0.361,1.293 -0.541,1.942 -0.088,0.333 -0.189,0.639 -0.267,0.995 l -0.232,1.067 c -0.158,0.721 -0.314,1.438 -0.476,2.164 -0.074,0.358 -0.159,0.727 -0.225,1.087 l -0.181,1.081 c -0.22,1.445 -0.519,2.898 -0.657,4.386 -0.16,1.484 -0.372,2.981 -0.436,4.502 -0.427,6.073 -0.161,12.423 0.823,18.861 0.956,6.445 2.832,12.933 5.425,19.294 1.263,3.196 2.831,6.306 4.514,9.391 1.772,3.034 3.629,6.072 5.785,8.939 2.099,2.91 4.445,5.678 6.942,8.343 1.288,1.288 2.538,2.636 3.92,3.851 0.68,0.621 1.354,1.251 2.043,1.865 0.709,0.592 1.421,1.183 2.133,1.776 5.706,4.741 12.193,8.686 19.093,11.83 0.853,0.42 1.749,0.738 2.62,1.116 0.883,0.35 1.75,0.745 2.649,1.057 1.799,0.621 3.579,1.315 5.422,1.821 l 1.374,0.409 0.685,0.203 0.344,0.102 0.175,0.048 c -0.093,-0.016 0.317,0.087 0.332,0.092 l 2.581,0.624 1.29,0.312 c 0.448,0.098 0.965,0.186 1.448,0.281 l 2.939,0.541 c 3.83,0.569 7.646,1.011 11.512,1.084 3.856,0.151 7.724,-0.039 11.57,-0.404 15.379,-1.615 30.237,-7.412 42.478,-16.36 12.271,-8.919 21.89,-20.94 27.808,-34.022 0.727,-1.643 1.46,-3.274 2.062,-4.945 0.311,-0.834 0.643,-1.657 0.933,-2.491 0.267,-0.841 0.541,-1.68 0.813,-2.519 0.579,-1.66 0.968,-3.366 1.435,-5.04 l 0.164,-0.631 0.076,-0.298 0.028,-0.15 0.066,-0.299 0.247,-1.188 c 0.159,-0.792 0.329,-1.579 0.491,-2.367 0.279,-1.72 0.59,-3.501 0.802,-5.199 0.09,-0.844 0.178,-1.684 0.265,-2.524 l 0.13,-1.257 0.077,-1.257 c 0.089,-1.673 0.206,-3.334 0.182,-4.989 0,-0.826 0,-1.65 0,-2.472 -0.04,-0.818 -0.081,-1.635 -0.119,-2.449 -0.357,-6.504 -1.401,-12.776 -3.066,-18.63 -1.691,-5.852 -3.906,-11.308 -6.525,-16.267 -5.243,-9.923 -11.907,-17.862 -18.672,-23.749 -0.421,-0.367 -0.828,-0.749 -1.252,-1.099 -0.431,-0.346 -0.858,-0.689 -1.276,-1.027 -0.849,-0.676 -1.653,-1.368 -2.518,-1.968 -0.842,-0.614 -1.669,-1.217 -2.483,-1.807 -0.843,-0.548 -1.668,-1.087 -2.474,-1.61 -0.801,-0.539 -1.616,-1.016 -2.421,-1.474 -0.799,-0.46 -1.569,-0.924 -2.339,-1.346 -0.785,-0.404 -1.551,-0.797 -2.298,-1.177 -0.372,-0.191 -0.739,-0.379 -1.101,-0.564 -0.367,-0.176 -0.742,-0.335 -1.102,-0.499 -1.454,-0.64 -2.806,-1.288 -4.134,-1.768 -1.319,-0.503 -2.542,-0.997 -3.719,-1.348 -1.17,-0.369 -2.234,-0.745 -3.237,-1.022 -1.001,-0.266 -1.904,-0.512 -2.72,-0.728 -0.809,-0.234 -1.54,-0.38 -2.168,-0.505 -0.624,-0.128 -1.153,-0.235 -1.578,-0.323 -0.846,-0.173 -1.282,-0.261 -1.282,-0.261 0,0 0.415,0.158 1.223,0.462 0.408,0.153 0.909,0.343 1.504,0.568 0.595,0.227 1.29,0.467 2.052,0.806 3.09,1.238 7.518,3.332 12.747,6.551 0.325,0.201 0.661,0.398 0.991,0.609 0.326,0.221 0.655,0.447 0.992,0.676 0.666,0.447 1.352,0.911 2.049,1.385 0.693,0.489 1.375,1.02 2.084,1.544 0.707,0.522 1.428,1.062 2.127,1.662 2.873,2.281 5.767,5 8.633,8.074 2.857,3.088 5.686,6.553 8.24,10.48 2.571,3.908 4.961,8.209 6.951,12.897 4.025,9.339 6.537,20.226 6.425,31.714 -0.007,0.716 -0.019,1.435 -0.026,2.155 -0.04,0.721 -0.086,1.441 -0.128,2.168 -0.046,1.448 -0.228,2.899 -0.384,4.357 l -0.116,1.095 -0.174,1.089 c -0.113,0.731 -0.225,1.461 -0.343,2.194 -0.257,1.444 -0.572,2.801 -0.869,4.243 -0.204,0.778 -0.41,1.558 -0.614,2.341 l -0.308,1.174 -0.076,0.293 -0.036,0.146 c 0.055,-0.235 -0.012,0.012 -0.01,-0.005 l -0.17,0.54 c -0.469,1.436 -0.859,2.905 -1.422,4.323 -0.262,0.714 -0.527,1.429 -0.792,2.15 -0.279,0.711 -0.596,1.408 -0.891,2.115 -0.573,1.424 -1.269,2.802 -1.946,4.188 -0.325,0.703 -0.702,1.378 -1.081,2.054 -0.375,0.679 -0.747,1.36 -1.125,2.04 -0.408,0.661 -0.821,1.325 -1.227,1.988 -0.407,0.668 -0.803,1.339 -1.259,1.979 -0.445,0.644 -0.882,1.293 -1.325,1.942 -0.432,0.654 -0.939,1.258 -1.404,1.892 -0.921,1.28 -1.954,2.476 -2.972,3.692 -0.491,0.62 -1.053,1.183 -1.587,1.77 -0.546,0.578 -1.057,1.184 -1.627,1.742 -1.145,1.106 -2.241,2.264 -3.463,3.302 -2.331,2.188 -4.896,4.14 -7.503,6.033 -10.573,7.369 -23.145,12.238 -36.144,13.538 -3.24,0.319 -6.505,0.508 -9.767,0.392 -3.254,-0.034 -6.517,-0.403 -9.71,-0.855 L 296.191,405 c -0.39,-0.073 -0.75,-0.12 -1.167,-0.213 l -1.293,-0.296 -2.589,-0.581 -2.184,-0.614 c -1.579,-0.395 -3.09,-0.968 -4.63,-1.464 -0.77,-0.247 -1.51,-0.576 -2.263,-0.861 -0.751,-0.306 -1.517,-0.557 -2.241,-0.906 -1.465,-0.673 -2.95,-1.29 -4.36,-2.056 -0.712,-0.372 -1.434,-0.716 -2.131,-1.108 l -2.086,-1.197 c -0.702,-0.378 -1.374,-0.809 -2.04,-1.241 l -2.02,-1.285 -1.941,-1.378 -0.975,-0.688 -0.932,-0.735 c -5.013,-3.87 -9.51,-8.311 -13.35,-13.163 -1.966,-2.395 -3.662,-4.959 -5.314,-7.526 -1.549,-2.62 -3.053,-5.25 -4.3,-7.975 -2.552,-5.419 -4.436,-11.028 -5.645,-16.637 -1.229,-5.608 -1.774,-11.214 -1.791,-16.653 -0.046,-1.36 0.05,-2.707 0.093,-4.047 0.021,-1.342 0.201,-2.658 0.303,-3.975 l 0.089,-0.984 c 0.035,-0.32 0.088,-0.631 0.128,-0.948 0.092,-0.627 0.177,-1.259 0.265,-1.881 l 0.13,-0.937 c 0.045,-0.315 0.123,-0.66 0.181,-0.987 0.128,-0.664 0.253,-1.327 0.38,-1.984 l 0.184,-0.981 0.05,-0.246 c 0.031,-0.125 -0.014,0.036 0,-0.023 l 0.029,-0.115 0.113,-0.458 c 0.15,-0.613 0.297,-1.223 0.444,-1.83 0.15,-0.609 0.298,-1.21 0.442,-1.81 0.181,-0.592 0.359,-1.18 0.537,-1.766 0.665,-2.358 1.525,-4.59 2.335,-6.786 1.713,-4.359 3.803,-8.306 5.94,-11.93 0.555,-0.891 1.105,-1.775 1.639,-2.639 0.572,-0.844 1.157,-1.658 1.717,-2.471 0.287,-0.403 0.569,-0.804 0.851,-1.2 0.295,-0.382 0.593,-0.761 0.883,-1.138 0.588,-0.753 1.162,-1.49 1.724,-2.214 2.37,-2.804 4.66,-5.312 6.901,-7.411 4.462,-4.222 8.374,-7.172 11.131,-9.018 1.37,-0.953 2.485,-1.602 3.208,-2.081 0.726,-0.462 1.103,-0.705 1.103,-0.705"
 style="fill:#002c56;fill-opacity:1;fill-rule:nonzero;stroke:none;stroke-width:0.1"
         id="path915"/><path
 d="m 291.033,336.935 c -7.195,-4.501 -12.939,-10.026 -16.106,-19.137 3.29,1.8 7.243,2.981 11.593,3.334 1.069,2.018 3.188,3.401 5.627,3.401 3.511,0 6.371,-2.858 6.371,-6.37 0,-3.511 -2.86,-6.368 -6.371,-6.368 -2.623,0 -4.88,1.596 -5.852,3.866 -5.797,-0.617 -10.68,-3.067 -13.396,-6.416 -0.317,-2.203 -0.529,-4.562 -0.619,-7.11 -0.133,-1.819 -0.131,-3.726 -0.026,-5.687 4.532,3.5 10.518,5.849 17.192,6.415 1.061,2.054 3.198,3.463 5.663,3.463 3.509,0 6.364,-2.855 6.364,-6.366 0,-3.513 -2.855,-6.37 -6.364,-6.37 -2.605,0 -4.846,1.572 -5.831,3.816 -6.814,-0.714 -12.681,-3.577 -16.338,-7.596 0.543,-3.724 1.311,-7.502 2.127,-11.126 2.106,2.059 4.822,3.508 7.862,4.017 0.769,2.651 3.218,4.602 6.117,4.602 3.512,0 6.365,-2.859 6.365,-6.37 0,-3.51 -2.853,-6.367 -6.365,-6.367 -2.187,0 -4.117,1.106 -5.266,2.788 -3.224,-0.55 -5.872,-2.761 -7.072,-5.692 1.157,-4.888 2.133,-9.14 2.325,-12.102 0.187,-1.913 0.26,-3.817 0.18,-5.723 10.689,7.408 20.74,17.726 25.201,32.479 7.144,23.641 -0.778,43.915 -13.381,50.619"
 style="fill:#002c56;fill-opacity:1;fill-rule:nonzero;stroke:none;stroke-width:0.1"
         id="path917"/><path
 d="m 292.252,280.933 c 0,1.769 -1.439,3.209 -3.206,3.209 -1.772,0 -3.211,-1.44 -3.211,-3.209 0,-1.768 1.439,-3.206 3.211,-3.206 1.767,0 3.206,1.438 3.206,3.206"
 style="fill:#002c56;fill-opacity:1;fill-rule:nonzero;stroke:none;stroke-width:0.1"
         id="path919"/><path
 d="m 298.313,299.96 c 0,1.767 -1.439,3.206 -3.204,3.206 -1.77,0 -3.21,-1.439 -3.21,-3.206 0,-1.77 1.44,-3.209 3.21,-3.209 1.765,0 3.204,1.439 3.204,3.209"
 style="fill:#002c56;fill-opacity:1;fill-rule:nonzero;stroke:none;stroke-width:0.1"
         id="path921"/><path
 d="m 295.356,318.163 c 0,1.771 -1.439,3.21 -3.209,3.21 -1.768,0 -3.208,-1.439 -3.208,-3.21 0,-1.769 1.44,-3.207 3.208,-3.207 1.77,0 3.209,1.438 3.209,3.207"
 style="fill:#002c56;fill-opacity:1;fill-rule:nonzero;stroke:none;stroke-width:0.1"
         id="path923"/></g><g
 id="g860"
 transform="translate(-178.71975,-145.84581)"><path
 d="M 517.925,272.402 H 506.92 c -5.41,0 -10.494,3.554 -12.358,8.635 l -25.989,70.818 h -7.189 V 272.29 h -19.388 v 86.833 c 0,6.682 5.436,12.115 12.119,12.115 h 18.805 c 5.409,0 10.49,-3.546 12.358,-8.621 l 25.989,-70.825 h 2.315 l 25.986,70.82 c 1.869,5.08 6.949,8.626 12.359,8.626 h 18.809 c 6.677,0 12.113,-5.433 12.113,-12.115 V 272.29 h -19.386 v 79.565 h -7.189 l -25.991,-70.818 c -1.862,-5.081 -6.946,-8.635 -12.358,-8.635"
 style="fill:#002c56;fill-opacity:1;fill-rule:nonzero;stroke:none;stroke-width:0.1"
         id="path925"/><path
 d="m 712.831,312.07 h -61.524 v 19.388 h 61.524 c 2.319,0 4.208,1.888 4.208,4.212 v 11.975 c 0,2.322 -1.889,4.21 -4.208,4.21 h -82.673 c -2.32,0 -4.21,-1.888 -4.21,-4.21 V 335.67 h -19.385 v 11.975 c 0,13.012 10.584,23.593 23.595,23.593 h 82.673 c 13.011,0 23.594,-10.581 23.594,-23.593 V 335.67 c 0,-13.013 -10.583,-23.6 -23.594,-23.6"
 style="fill:#002c56;fill-opacity:1;fill-rule:nonzero;stroke:none;stroke-width:0.1"
         id="path927"/><path
 d="m 712.831,272.29 h -82.673 c -13.011,0 -23.595,10.585 -23.595,23.594 v 11.974 h 19.385 v -11.974 c 0,-2.321 1.89,-4.21 4.21,-4.21 h 82.673 c 2.319,0 4.208,1.889 4.208,4.21 v 11.974 c 0,2.324 -1.889,4.212 -4.208,4.212 h -61.524 v 19.388 h 61.524 c 13.011,0 23.594,-10.589 23.594,-23.6 v -11.974 c 0,-13.009 -10.583,-23.594 -23.594,-23.594"
 style="fill:#002c56;fill-opacity:1;fill-rule:nonzero;stroke:none;stroke-width:0.1"
         id="path929"/></g></g></svg>
