<?xml version="1.0" encoding="UTF-8" standalone="no"?>
<svg
 xmlns="http://www.w3.org/2000/svg"
 version="1.1"
   id="svg833"
   width="529.01697"
   height="561.48846"
   viewBox="0 0 529.01697 561.48846"><g
 id="g841"
 transform="matrix(1.3333333,0,0,-1.3333333,-375.49208,900.20581)"><path
 d="m 564.987,541.265 c -9.776,18.66 -30.673,21.115 -64.855,24.763 -18.892,2.023 -36.179,-3.394 -48.743,-1.273 -18.547,-20.698 -12.982,-39.715 -10.746,-59.536 0.578,-5.099 1.792,-9.528 3.531,-13.406 7.972,-4.842 14.982,-11.65 20.765,-20.055 24.915,-12.006 62.378,-10.581 81.475,-27.283 14.891,7.576 38.31,52.016 18.573,96.79"
 style="fill:#78dbff;fill-opacity:1;fill-rule:nonzero;stroke:none;stroke-width:0.1"
 id="path847"/><path
 d="m 475.421,515.52 c 2.137,-18.935 19.212,-32.549 38.13,-30.409 18.933,2.129 32.545,19.206 30.417,38.14 -2.146,18.915 -19.212,32.533 -38.138,30.397 -18.932,-2.128 -32.546,-19.207 -30.409,-38.128"
 style="fill:#ff7713;fill-opacity:1;fill-rule:nonzero;stroke:none;stroke-width:0.1"
 id="path849"/><path
 d="m 513.393,486.52 c -18.109,-2.045 -34.521,11.032 -36.565,29.159 -2.034,18.119 11.046,34.514 29.154,36.556 18.119,2.046 34.535,-11.031 36.571,-29.154 2.043,-18.115 -11.046,-34.519 -29.16,-36.561 z m -7.999,70.973 c -21.016,-2.367 -36.188,-21.395 -33.814,-42.409 2.363,-21.025 21.39,-36.186 42.411,-33.822 21.02,2.379 36.186,21.4 33.818,42.418 -2.375,21.012 -21.396,36.185 -42.415,33.813"
 style="fill:#c12000;fill-opacity:1;fill-rule:nonzero;stroke:none;stroke-width:0.1"
 id="path851"/><path
 d="m 485.678,516.679 c 1.49,-13.259 13.46,-22.809 26.72,-21.318 13.267,1.501 22.799,13.472 21.298,26.727 -1.484,13.267 -13.451,22.802 -26.71,21.309 -13.261,-1.493 -22.807,-13.463 -21.308,-26.718"
 style="fill:#ffde17;fill-opacity:1;fill-rule:nonzero;stroke:none;stroke-width:0.1"
 id="path853"/><path
 d="m 497.266,517.981 c 0.77,-6.868 6.964,-11.799 13.83,-11.031 6.861,0.769 11.797,6.967 11.019,13.831 -0.768,6.868 -6.957,11.812 -13.822,11.039 -6.869,-0.776 -11.803,-6.974 -11.027,-13.839"
 style="fill:#000000;fill-opacity:1;fill-rule:nonzero;stroke:none;stroke-width:0.1"
 id="path855"/><path
 d="m 494.614,523.74 c 0.282,-2.527 2.572,-4.342 5.1,-4.053 2.517,0.272 4.343,2.553 4.059,5.076 -0.285,2.53 -2.579,4.348 -5.091,4.057 -2.526,-0.277 -4.345,-2.546 -4.068,-5.08"
 style="fill:#ffffff;fill-opacity:1;fill-rule:nonzero;stroke:none;stroke-width:0.1"
 id="path857"/><path
 d="m 499.927,515.072 c 0.127,-1.106 1.122,-1.905 2.229,-1.78 1.101,0.125 1.899,1.121 1.772,2.224 -0.119,1.113 -1.122,1.909 -2.223,1.78 -1.109,-0.125 -1.905,-1.125 -1.778,-2.224"
 style="fill:#ffffff;fill-opacity:1;fill-rule:nonzero;stroke:none;stroke-width:0.1"
 id="path859"/><path
 d="m 566.779,398.792 c 0.731,20.93 -5.511,39.067 -8.624,47.163 -2.388,-3.484 -5.912,-6.613 -11.058,-9.394 -7.995,6.334 -21.135,14.475 -37.4,18.21 23.788,-22.651 23.178,-60.593 12.287,-96.65 -12.293,-40.686 -43.418,-67.67 -73.111,-85.739 76.566,15.224 115.698,63.574 117.906,126.41"
 style="fill:#78dbff;fill-opacity:1;fill-rule:nonzero;stroke:none;stroke-width:0.1"
 id="path861"/><path
 d="m 564.987,541.265 c -22.229,51.368 -88.762,57.1 -118.253,24.332 -14.728,-16.366 -19.643,-46.168 -12.47,-68.333 l 7.004,-3.792 c 10.89,-5.792 20.129,-15.161 27.11,-27.17 15.985,-5.728 24.655,-6.03 36.948,-15.153 -22.486,27.885 -25.328,22.662 -34.301,35.314 -20.511,28.947 -9.135,61.098 26.053,63.813 20.029,1.542 44.13,-25.942 56.037,-49.448 11.05,11.342 -2.375,27.075 11.872,40.437"
 style="fill:#002c56;fill-opacity:1;fill-rule:nonzero;stroke:none;stroke-width:0.1"
 id="path863"/><path
 d="m 538.376,538.317 c 8.503,-2.156 34.18,5.228 23.495,28.173 20.402,-24.096 15.383,-45.463 -0.677,-57.054 6.726,-9.858 3.702,-35.489 -4.731,-44.02 -0.947,14.785 -5.372,32.996 -24.542,47.777 -9.183,7.077 -21.016,14.547 -32.484,22.044 -26.329,17.244 -54.159,43.228 -41.459,73.197 1.113,-26.938 55.008,-63.673 80.398,-70.117"
 style="fill:#002c56;fill-opacity:1;fill-rule:nonzero;stroke:none;stroke-width:0.1"
 id="path865"/><path
 d="m 475.335,481.02 c -4.895,4.076 -17.856,5.132 -24.961,6.474 12.205,-9.618 21.64,-24.267 27.053,-42.277 7.123,-23.741 6.545,-50.687 -1.695,-77.929 -9.351,-30.973 -30.066,-57.744 -61.57,-79.568 l -4.353,-3.023 c -1.457,-10.032 -4.954,-20.161 -11.516,-30.659 36.346,15.934 101.727,44.414 117.626,105.916 15.823,61.211 0.332,86.976 -40.584,121.066"
 style="fill:#002c56;fill-opacity:1;fill-rule:nonzero;stroke:none;stroke-width:0.1"
 id="path867"/><path
 d="m 396.085,305.195 c 0,0 -0.937,0.41 -2.748,1.197 -0.908,0.39 -2.027,0.882 -3.36,1.459 -1.339,0.584 -2.9,1.227 -4.598,2.132 -1.712,0.872 -3.629,1.845 -5.739,2.921 -2.141,1.057 -4.31,2.429 -6.75,3.8 -1.21,0.712 -2.497,1.399 -3.755,2.208 -1.27,0.818 -2.575,1.663 -3.92,2.542 -1.342,0.891 -2.742,1.781 -4.143,2.755 -1.378,1.015 -2.806,2.057 -4.257,3.133 -5.899,4.223 -11.96,9.523 -18.374,15.543 -1.54,1.572 -3.119,3.171 -4.718,4.803 -0.802,0.827 -1.604,1.656 -2.422,2.497 -0.769,0.882 -1.55,1.765 -2.325,2.663 -1.561,1.803 -3.178,3.621 -4.759,5.519 -1.526,1.947 -3.072,3.94 -4.645,5.955 -6.129,8.195 -12.071,17.426 -17.324,27.749 -5.227,10.372 -9.693,21.658 -13.301,34.095 -0.412,1.474 -0.822,2.95 -1.234,4.433 -0.198,0.756 -0.43,1.458 -0.609,2.268 l -0.531,2.436 c -0.358,1.644 -0.716,3.281 -1.083,4.936 -0.17,0.819 -0.364,1.659 -0.516,2.481 l -0.412,2.467 c -0.504,3.299 -1.185,6.614 -1.499,10.008 -0.365,3.387 -0.849,6.804 -0.995,10.274 -0.976,13.857 -0.365,28.347 1.876,43.038 2.185,14.706 6.464,29.511 12.379,44.027 2.886,7.293 6.46,14.388 10.302,21.427 4.042,6.925 8.28,13.857 13.201,20.399 4.788,6.642 10.143,12.956 15.841,19.037 2.938,2.939 5.79,6.015 8.942,8.789 1.554,1.417 3.092,2.856 4.664,4.253 1.617,1.353 3.243,2.702 4.869,4.054 13.02,10.82 27.819,19.82 43.567,26.995 1.943,0.958 3.99,1.686 5.979,2.546 2.016,0.8 3.993,1.7 6.041,2.413 4.107,1.417 8.169,3 12.373,4.156 l 3.137,0.931 1.567,0.463 0.781,0.234 0.397,0.11 c -0.211,-0.037 0.725,0.198 0.759,0.209 l 5.892,1.424 2.942,0.713 c 1.023,0.223 2.202,0.423 3.304,0.64 l 6.707,1.235 c 8.736,1.299 17.447,2.306 26.268,2.473 8.797,0.345 17.626,-0.087 26.401,-0.92 35.093,-3.686 68.995,-16.915 96.931,-37.334 27.999,-20.35 49.949,-47.78 63.456,-77.633 1.657,-3.75 3.33,-7.47 4.702,-11.284 0.709,-1.902 1.466,-3.781 2.131,-5.683 0.608,-1.921 1.234,-3.834 1.857,-5.747 1.32,-3.787 2.208,-7.682 3.27,-11.5 l 0.377,-1.44 0.173,-0.682 0.066,-0.341 0.147,-0.682 0.564,-2.713 c 0.363,-1.806 0.751,-3.602 1.122,-5.401 0.635,-3.925 1.344,-7.989 1.829,-11.862 0.207,-1.928 0.405,-3.844 0.604,-5.761 l 0.298,-2.868 0.174,-2.868 c 0.203,-3.818 0.47,-7.607 0.417,-11.383 0,-1.887 0,-3.766 0,-5.641 -0.091,-1.867 -0.187,-3.731 -0.273,-5.588 -0.815,-14.843 -3.197,-29.154 -6.997,-42.512 -3.855,-13.353 -8.912,-25.806 -14.886,-37.121 -11.965,-22.643 -27.172,-40.758 -42.608,-54.191 -0.962,-0.838 -1.89,-1.708 -2.856,-2.508 -0.984,-0.788 -1.96,-1.572 -2.914,-2.345 -1.936,-1.542 -3.773,-3.122 -5.745,-4.489 -1.922,-1.401 -3.809,-2.777 -5.666,-4.121 -1.923,-1.255 -3.806,-2.482 -5.645,-3.675 -1.829,-1.231 -3.689,-2.319 -5.526,-3.364 -1.823,-1.05 -3.58,-2.11 -5.337,-3.072 -1.793,-0.921 -3.54,-1.819 -5.244,-2.686 -0.849,-0.435 -1.684,-0.864 -2.512,-1.284 -0.836,-0.405 -1.693,-0.766 -2.516,-1.141 -3.315,-1.462 -6.402,-2.939 -9.432,-4.035 -3.012,-1.147 -5.797,-2.276 -8.486,-3.075 -2.671,-0.842 -5.099,-1.701 -7.387,-2.334 -2.284,-0.606 -4.345,-1.167 -6.202,-1.659 -1.85,-0.534 -3.518,-0.868 -4.951,-1.152 -1.422,-0.292 -2.632,-0.538 -3.602,-0.739 -1.928,-0.393 -2.924,-0.595 -2.924,-0.595 0,0 0.949,0.361 2.792,1.054 0.929,0.349 2.071,0.784 3.433,1.295 1.357,0.52 2.942,1.068 4.681,1.842 7.05,2.821 17.153,7.602 29.086,14.948 0.744,0.459 1.508,0.905 2.264,1.39 0.742,0.504 1.493,1.019 2.262,1.542 1.519,1.019 3.086,2.08 4.675,3.16 1.581,1.117 3.137,2.325 4.757,3.522 1.613,1.194 3.257,2.425 4.852,3.792 6.559,5.205 13.16,11.411 19.699,18.427 6.521,7.046 12.974,14.952 18.806,23.911 5.864,8.917 11.318,18.734 15.856,29.432 9.187,21.309 14.917,46.152 14.663,72.367 -0.018,1.632 -0.045,3.273 -0.057,4.916 -0.092,1.645 -0.199,3.288 -0.291,4.948 -0.107,3.303 -0.525,6.615 -0.878,9.94 l -0.264,2.501 -0.398,2.485 c -0.258,1.666 -0.517,3.333 -0.784,5.004 -0.588,3.296 -1.304,6.395 -1.982,9.683 -0.464,1.777 -0.936,3.557 -1.4,5.341 l -0.702,2.678 -0.174,0.671 -0.084,0.334 c 0.125,-0.538 -0.027,0.026 -0.023,-0.012 l -0.39,1.231 c -1.068,3.277 -1.958,6.63 -3.244,9.865 -0.598,1.629 -1.202,3.262 -1.804,4.905 -0.64,1.622 -1.36,3.213 -2.037,4.827 -1.308,3.25 -2.892,6.395 -4.439,9.558 -0.744,1.603 -1.603,3.144 -2.467,4.686 -0.856,1.549 -1.705,3.102 -2.568,4.655 -0.928,1.508 -1.869,3.023 -2.797,4.535 -0.932,1.527 -1.832,3.057 -2.873,4.516 -1.018,1.469 -2.016,2.951 -3.025,4.432 -0.989,1.493 -2.143,2.871 -3.205,4.319 -2.102,2.921 -4.458,5.648 -6.781,8.424 -1.12,1.414 -2.399,2.698 -3.621,4.039 -1.247,1.318 -2.413,2.701 -3.712,3.974 -2.614,2.523 -5.113,5.167 -7.902,7.534 -5.319,4.994 -11.171,9.449 -17.119,13.767 -24.127,16.816 -52.816,27.928 -82.477,30.894 -7.395,0.727 -14.844,1.159 -22.289,0.894 -7.422,-0.08 -14.872,-0.921 -22.157,-1.951 l -5.232,-0.929 c -0.889,-0.166 -1.712,-0.272 -2.661,-0.484 l -2.952,-0.675 -5.91,-1.325 -4.98,-1.402 c -3.604,-0.902 -7.052,-2.209 -10.567,-3.341 -1.758,-0.565 -3.443,-1.315 -5.163,-1.967 -1.71,-0.696 -3.464,-1.269 -5.114,-2.065 -3.342,-1.538 -6.732,-2.943 -9.949,-4.693 -1.624,-0.849 -3.273,-1.633 -4.864,-2.526 l -4.756,-2.732 c -1.605,-0.864 -3.138,-1.849 -4.658,-2.834 l -4.609,-2.932 -4.43,-3.144 -2.223,-1.568 -2.129,-1.679 c -11.437,-8.83 -21.699,-18.963 -30.461,-30.037 -4.487,-5.462 -8.358,-11.316 -12.126,-17.172 -3.535,-5.978 -6.966,-11.979 -9.813,-18.198 -5.821,-12.365 -10.121,-25.166 -12.879,-37.963 -2.806,-12.797 -4.048,-25.589 -4.089,-38 -0.104,-3.103 0.116,-6.178 0.214,-9.235 0.045,-3.061 0.457,-6.065 0.689,-9.07 l 0.205,-2.246 c 0.08,-0.731 0.201,-1.439 0.293,-2.163 0.207,-1.433 0.404,-2.872 0.605,-4.292 l 0.297,-2.137 c 0.101,-0.719 0.277,-1.508 0.41,-2.254 0.291,-1.515 0.578,-3.026 0.87,-4.527 l 0.418,-2.238 0.115,-0.562 c 0.072,-0.283 -0.035,0.084 0,-0.053 l 0.063,-0.261 0.259,-1.045 c 0.347,-1.399 0.677,-2.792 1.015,-4.175 0.34,-1.391 0.678,-2.762 1.009,-4.133 0.412,-1.348 0.816,-2.69 1.222,-4.026 1.52,-5.384 3.481,-10.475 5.331,-15.487 3.908,-9.949 8.678,-18.953 13.554,-27.223 1.267,-2.034 2.518,-4.05 3.74,-6.023 1.307,-1.924 2.642,-3.781 3.921,-5.637 0.65,-0.921 1.294,-1.834 1.937,-2.74 0.675,-0.871 1.354,-1.734 2.016,-2.594 1.341,-1.72 2.653,-3.402 3.936,-5.054 5.406,-6.398 10.63,-12.122 15.747,-16.91 10.182,-9.634 19.104,-16.365 25.397,-20.578 3.125,-2.174 5.674,-3.655 7.318,-4.746 1.66,-1.058 2.521,-1.611 2.521,-1.611"
 style="fill:#002c56;fill-opacity:1;fill-rule:nonzero;stroke:none;stroke-width:0.1"
 id="path869"/><path
 d="m 435.547,485.638 c -16.416,-10.271 -29.526,-22.878 -36.753,-43.668 7.507,4.107 16.526,6.804 26.453,7.607 2.439,4.607 7.277,7.762 12.843,7.762 8.011,0 14.533,-6.523 14.533,-14.535 0,-8.012 -6.522,-14.532 -14.533,-14.532 -5.986,0 -11.139,3.64 -13.356,8.823 -13.225,-1.409 -24.37,-7.001 -30.566,-14.642 -0.725,-5.027 -1.206,-10.41 -1.413,-16.224 -0.304,-4.149 -0.3,-8.501 -0.06,-12.976 10.341,7.986 24.001,13.347 39.231,14.639 2.422,4.685 7.298,7.901 12.92,7.901 8.009,0 14.524,-6.516 14.524,-14.527 0,-8.016 -6.515,-14.536 -14.524,-14.536 -5.94,0 -11.056,3.587 -13.304,8.708 -15.551,-1.627 -28.937,-8.163 -37.28,-17.333 1.238,-8.498 2.992,-17.12 4.855,-25.39 4.801,4.702 10.999,8.009 17.937,9.168 1.759,6.05 7.344,10.501 13.958,10.501 8.012,0 14.527,-6.524 14.527,-14.535 0,-8.009 -6.515,-14.529 -14.527,-14.529 -4.99,0 -9.394,2.523 -12.015,6.361 -7.356,-1.254 -13.399,-6.3 -16.14,-12.987 2.642,-11.152 4.869,-20.858 5.307,-27.616 0.425,-4.364 0.593,-8.71 0.412,-13.057 24.392,16.903 47.324,40.447 57.505,74.113 16.3,53.944 -1.778,100.207 -30.534,115.504"
 style="fill:#002c56;fill-opacity:1;fill-rule:nonzero;stroke:none;stroke-width:0.1"
 id="path871"/><path
 d="m 438.327,357.849 c 0,4.038 -3.284,7.322 -7.315,7.322 -4.042,0 -7.325,-3.284 -7.325,-7.322 0,-4.036 3.283,-7.316 7.325,-7.316 4.031,0 7.315,3.28 7.315,7.316"
 style="fill:#002c56;fill-opacity:1;fill-rule:nonzero;stroke:none;stroke-width:0.1"
 id="path873"/><path
 d="m 452.158,401.266 c 0,4.03 -3.285,7.315 -7.312,7.315 -4.037,0 -7.323,-3.285 -7.323,-7.315 0,-4.039 3.286,-7.324 7.323,-7.324 4.027,0 7.312,3.285 7.312,7.324"
 style="fill:#002c56;fill-opacity:1;fill-rule:nonzero;stroke:none;stroke-width:0.1"
 id="path875"/><path
 d="m 445.412,442.804 c 0,4.039 -3.283,7.323 -7.322,7.323 -4.035,0 -7.319,-3.284 -7.319,-7.323 0,-4.038 3.284,-7.319 7.319,-7.319 4.039,0 7.322,3.281 7.322,7.319"
 style="fill:#002c56;fill-opacity:1;fill-rule:nonzero;stroke:none;stroke-width:0.1"
 id="path877"/></g></svg>
