<?xml version="1.0" encoding="UTF-8" standalone="no"?>
<svg
 xmlns="http://www.w3.org/2000/svg"
 width="289"
   height="289"
   viewBox="0 0 289 289"
   version="1.1"
   preserveAspectRatio="xMidYMid"
   id="svg837">
  <g
 id="g835"
 transform="translate(18)">
    <path
 d="m 128,288.46377 c -3.97516,0 -7.6853,-1.06004 -11.13044,-2.91511 L 81.623188,264.61284 c -5.300208,-2.91512 -2.650103,-3.97516 -1.060042,-4.50518 7.15528,-2.38509 8.480331,-2.91511 15.900623,-7.15528 0.795029,-0.53002 1.855071,-0.26501 2.650103,0.26501 l 27.031058,16.16563 c 1.06004,0.53002 2.38509,0.53002 3.18012,0 l 105.73913,-61.21739 c 1.06004,-0.53002 1.59006,-1.59006 1.59006,-2.91511 V 83.080747 c 0,-1.325054 -0.53002,-2.385094 -1.59006,-2.915115 L 129.32505,19.213251 c -1.06004,-0.530021 -2.38509,-0.530021 -3.18012,0 L 20.405795,80.165632 c -1.06004,0.530021 -1.59006,1.855072 -1.59006,2.915115 V 205.25052 c 0,1.06004 0.53002,2.38509 1.59006,2.91511 l 28.88613,16.69566 c 15.635611,7.9503 25.440995,-1.32506 25.440995,-10.60042 V 93.681159 c 0,-1.590061 1.325051,-3.180123 3.180123,-3.180123 h 13.515529 c 1.590062,0 3.180123,1.325051 3.180123,3.180123 V 214.26087 c 0,20.93582 -11.395444,33.12629 -31.271221,33.12629 -6.095238,0 -10.865424,0 -24.380953,-6.62525 L 11.130435,224.86129 C 4.2401658,220.88613 0,213.46584 0,205.51553 V 83.345756 C 0,75.395447 4.2401658,67.975155 11.130435,64.000001 L 116.86956,2.7826075 c 6.62526,-3.71014334 15.63562,-3.71014334 22.26088,0 L 244.86956,64.000001 C 251.75983,67.975155 256,75.395447 256,83.345756 V 205.51553 c 0,7.95031 -4.24017,15.3706 -11.13044,19.34576 l -105.73912,61.21739 c -3.44514,1.59006 -7.4203,2.38509 -11.13044,2.38509 z m 32.59627,-84.00828 c -46.37681,0 -55.91718,-21.20083 -55.91718,-39.22154 0,-1.59006 1.32505,-3.18012 3.18012,-3.18012 h 13.78054 c 1.59006,0 2.91511,1.06004 2.91511,2.6501 2.12009,14.04555 8.21533,20.93582 36.30642,20.93582 22.26087,0 31.80125,-5.03519 31.80125,-16.96066 0,-6.89027 -2.65011,-11.92547 -37.36647,-15.3706 -28.88612,-2.91512 -46.90682,-9.27536 -46.90682,-32.33126 0,-21.465843 18.0207,-34.18634 48.23188,-34.18634 33.92132,0 50.61697,11.660457 52.73706,37.10145 0,0.79503 -0.26501,1.59006 -0.79503,2.38509 -0.53002,0.53002 -1.32506,1.06004 -2.12009,1.06004 h -13.78053 c -1.32506,0 -2.65011,-1.06004 -2.91512,-2.38509 -3.18012,-14.57557 -11.39544,-19.34576 -33.12629,-19.34576 -24.38096,0 -27.29607,8.48034 -27.29607,14.84058 0,7.68531 3.44514,10.0704 36.30642,14.31057 32.59627,4.24016 47.96687,10.3354 47.96687,33.12629 -0.26501,23.32091 -19.34575,36.57143 -53.00207,36.57143 z"
 fill="#539e43"
 id="path833"/>
  </g>
</svg>
