<?xml version="1.0" encoding="utf-8"?>
<!-- Generator: Adobe Illustrator 25.2.0, SVG Export Plug-In . SVG Version: 6.00 Build 0) -->
<svg version="1.1" id="Layer_1" xmlns="http://www.w3.org/2000/svg" xmlns:xlink="http://www.w3.org/1999/xlink" x="0px" y="0px"
	 viewBox="0 0 512 512" style="enable-background:new 0 0 512 512;">
<style type="text/css">
	.st0{fill:#FFFFFF;}
</style>
<desc>
	This is a symbol for atheists created by decoy (http://www.helsinki.fi/~ssyreeni/front) and turned into an SVG image by alexjohnc3 (http://asolis.net/). Feel free to do whatever you wish with it. See also: http://me.asolis.net/archives/7
	</desc>
<g>
	<g>
		<circle class="st0" cx="256" cy="256" r="184.5"/>
		<path d="M432.9,79.1c-97.5-97.5-256.2-97.5-353.7,0c-97.5,97.5-97.5,256.2,0,353.7s256.2,97.5,353.7,0
			C530.4,335.3,530.4,176.7,432.9,79.1z M382.1,382.1c-69.5,69.5-182.6,69.5-252.1,0c-69.5-69.5-69.5-182.6,0-252.1
			c69.5-69.5,182.6-69.5,252.1,0C451.6,199.4,451.6,312.6,382.1,382.1z"/>
	</g>
	<rect x="-16.3" y="219" transform="matrix(0.7071 -0.7071 0.7071 0.7071 -106.0389 256.0002)" width="544.6" height="74"/>
</g>
</svg>
