<?xml version="1.0" encoding="iso-8859-1"?>
<svg fill="#000000" height="800px" width="800px" version="1.1" id="Layer_1" xmlns="http://www.w3.org/2000/svg" xmlns:xlink="http://www.w3.org/1999/xlink"
	 viewBox="0 0 512.001 512.001">
<g>
	<g>
		<path d="M256.001,172.523c-22.352,0-43.334,8.669-59.073,24.402c-28.522,28.527-32.058,72.724-10.621,105.142l115.761-115.761
			C288.536,177.347,272.653,172.523,256.001,172.523z"/>
	</g>
</g>
<g>
	<g>
		<path d="M325.695,209.929L209.934,325.69c13.531,8.959,29.414,13.783,46.067,13.783c22.352,0,43.334-8.669,59.073-24.402
			C343.596,286.544,347.134,242.348,325.695,209.929z"/>
	</g>
</g>
<g>
	<g>
		<path d="M437.108,74.898c-99.869-99.858-262.345-99.858-362.214,0c-99.858,99.858-99.858,262.339,0,362.203
			c49.934,49.929,115.521,74.896,181.107,74.896s131.173-24.967,181.107-74.896C536.965,337.243,536.965,174.761,437.108,74.898z
			 M385.949,149.677l-36.381,36.381c34.244,45.773,30.709,111.06-10.868,152.639c-22.048,22.048-51.416,34.192-82.698,34.192
			c-25.615,0-49.871-8.261-69.95-23.315l-36.372,36.372c-3.263,3.263-7.538,4.895-11.812,4.895s-8.55-1.632-11.812-4.895
			c-6.526-6.52-6.526-17.104,0-23.625l36.381-36.381c-34.244-45.773-30.709-111.06,10.869-152.639
			c22.048-22.048,51.416-34.192,82.698-34.192c25.615,0,49.871,8.261,69.95,23.315l36.372-36.372c6.526-6.526,17.099-6.526,23.625,0
			C392.474,132.572,392.474,143.155,385.949,149.677z"/>
	</g>
</g>
</svg>
