<?xml version="1.0" encoding="UTF-8" standalone="no"?>
<svg
   id="Artwork"
   viewBox="0 0 500.4288 216"
   version="1.1"
   sodipodi:docname="nvidia-inception-bw.svg"
   inkscape:version="1.1.2 (0a00cf5339, 2022-02-04)"
   xmlns:inkscape="http://www.inkscape.org/namespaces/inkscape"
   xmlns:sodipodi="http://sodipodi.sourceforge.net/DTD/sodipodi-0.dtd"
   xmlns="http://www.w3.org/2000/svg"
   xmlns:svg="http://www.w3.org/2000/svg">
  <sodipodi:namedview
     id="namedview12"
     pagecolor="#ffffff"
     bordercolor="#000000"
     borderopacity="0.25"
     inkscape:pageshadow="2"
     inkscape:pageopacity="0.0"
     inkscape:pagecheckerboard="0"
     showgrid="false"
     inkscape:zoom="1.3028826"
     inkscape:cx="244.07417"
     inkscape:cy="177.68293"
     inkscape:window-width="1920"
     inkscape:window-height="1136"
     inkscape:window-x="0"
     inkscape:window-y="0"
     inkscape:window-maximized="1"
     inkscape:current-layer="Artwork" />
  <defs
     id="defs4">
    <style
       id="style2">
      .cls-1 {
        fill: #fff;
      }
    </style>
  </defs>
  <path
     d="M 25.49926,25.4052 V 190.5948 H 474.9307 V 25.4052 Z M 470.93802,186.60211 H 29.49194 V 29.39789 H 470.93802 Z M 223.14163,174.39157 h -1.99634 V 41.60843 h 1.99634 z m 35.00214,-75.22801 h -4.0974 V 74.23129 h 4.0974 z m 17.94932,-10.72088 c 0,-1.49593 -0.31892,-2.64204 -0.9606,-3.43832 -0.64163,-0.79437 -1.61574,-1.19253 -2.92035,-1.19253 h -0.24933 c -0.76149,0 -1.48435,0.18945 -2.17433,0.57017 -0.68806,0.38077 -1.2466,0.96055 -1.67375,1.74526 -0.42715,0.78278 -0.63971,1.78005 -0.63971,2.99186 v 10.04445 h -3.91959 V 80.92628 h 3.45572 v 2.74253 c 0.57012,-0.99727 1.34709,-1.78582 2.33278,-2.36757 0.98574,-0.58175 2.15501,-0.87361 3.50791,-0.87361 h 0.35756 c 2.0661,0 3.71471,0.64168 4.94973,1.92308 1.23502,1.28332 1.85353,3.13488 1.85353,5.55662 v 11.25625 h -3.91959 V 88.4427 Z m 9.84919,8.84999 c -1.55389,-1.55394 -2.33283,-3.78046 -2.33283,-6.67759 v -1.17514 c 0,-1.89986 0.36145,-3.5195 1.08623,-4.86274 0.72478,-1.34132 1.73944,-2.36762 3.04597,-3.08077 1.30653,-0.71127 2.81409,-1.06883 4.52455,-1.06883 h 0.35564 c 1.68533,0 3.11556,0.40393 4.29257,1.21185 1.17509,0.80787 2.02357,1.87665 2.54544,3.20447 l -3.13296,1.38962 c -0.35756,-0.73444 -0.83882,-1.32393 -1.44378,-1.76266 -0.60492,-0.43873 -1.35872,-0.65908 -2.26127,-0.65908 H 292.301 c -1.40125,0 -2.54736,0.46386 -3.4364,1.38967 -0.89101,0.92576 -1.33556,2.31538 -1.33556,4.16694 v 1.31816 c 0,1.92303 0.43296,3.33586 1.29884,4.23846 0.8678,0.90259 2.02357,1.35291 3.47312,1.35291 h 0.32084 c 0.94897,0 1.74526,-0.2068 2.38689,-0.62231 0.63976,-0.41557 1.13837,-0.97992 1.49593,-1.69307 l 3.06342,1.60416 c -0.52379,1.18667 -1.38967,2.16078 -2.60147,2.92035 -1.20988,0.75957 -2.65943,1.14034 -4.34476,1.14034 h -0.35564 c -2.6614,0 -4.76807,-0.77889 -6.32392,-2.33475 z m 24.59596,2.33475 h 0.53345 c 1.6873,0 3.14651,-0.31507 4.38153,-0.94513 1.23502,-0.62813 2.17236,-1.49016 2.81404,-2.58216 l -2.84883,-1.85152 c -0.42715,0.73636 -0.9915,1.28716 -1.69307,1.65635 -0.69969,0.36722 -1.58484,0.5508 -2.65367,0.5508 h -0.53345 c -1.4012,0 -2.49901,-0.43873 -3.2953,-1.31619 -0.79432,-0.87938 -1.22728,-2.20912 -1.29879,-3.9911 h 12.92808 v -2.17241 c 0,-2.61109 -0.71704,-4.68882 -2.15501,-6.23304 -1.43605,-1.54231 -3.3881,-2.31543 -5.85814,-2.31543 h -0.32084 c -2.58792,0 -4.64239,0.8021 -6.16153,2.40434 -1.52106,1.60416 -2.28063,3.81712 -2.28063,6.64279 v 1.17509 c 0,2.87402 0.74217,5.08891 2.22652,6.64284 1.48435,1.55586 3.55621,2.33475 6.21565,2.33475 z m -3.15228,-14.78349 c 0.79629,-0.80595 1.84575,-1.20993 3.15228,-1.20993 h 0.28412 c 1.32974,0 2.36954,0.38659 3.11753,1.15774 0.74794,0.77115 1.1229,1.89405 1.1229,3.36489 v 0.24933 h -9.08385 c 0.14302,-1.56744 0.61073,-2.75416 1.40702,-3.56203 z m 24.84336,14.78349 c 1.49593,0 2.82567,-0.34598 3.98917,-1.03403 1.1635,-0.68805 2.0835,-1.70273 2.75993,-3.04597 0.67648,-1.34132 1.01472,-2.97254 1.01472,-4.89758 v -1.17509 c 0,-1.94624 -0.33824,-3.59101 -1.01472,-4.93233 -0.67643,-1.34132 -1.59642,-2.36373 -2.75993,-3.06337 -1.16351,-0.69964 -2.49325,-1.05143 -3.98917,-1.05143 h -0.21453 c -1.4012,0 -2.60532,0.28028 -3.61422,0.8369 -1.01082,0.55854 -1.79937,1.33551 -2.36949,2.33278 v -2.67102 h -3.45572 v 25.36134 h 3.91954 v -9.26167 c 0.59338,0.83108 1.35872,1.47272 2.29611,1.92308 0.93739,0.45223 2.01198,0.6784 3.22379,0.6784 h 0.21453 z m -1.17701,-3.34946 c -0.78278,0 -1.53072,-0.19522 -2.24392,-0.58752 -0.71122,-0.39235 -1.28721,-1.0089 -1.72594,-1.85156 -0.44065,-0.84266 -0.65908,-1.92889 -0.65908,-3.25858 v -1.10555 c 0,-1.35291 0.21843,-2.4449 0.65908,-3.27598 0.43873,-0.83108 1.0089,-1.436 1.70854,-1.81677 0.69964,-0.38072 1.45537,-0.57017 2.26131,-0.57017 h 0.28605 c 1.35291,0 2.48162,0.45228 3.38421,1.35295 0.90062,0.90255 1.35291,2.32893 1.35291,4.27517 v 1.20988 c 0,1.94821 -0.45228,3.37263 -1.35291,4.27522 -0.90259,0.90259 -2.0313,1.35291 -3.38421,1.35291 h -0.28605 z m 13.99878,-12.1105 h -3.84807 v -3.24119 h 3.84807 v -5.3788 h 3.91766 v 5.3788 h 5.94892 l -0.46382,3.24119 h -5.4851 v 9.01234 c 0,1.02048 0.2377,1.75107 0.71315,2.1898 0.47352,0.44065 1.18672,0.65903 2.13569,0.65903 h 3.10009 v 3.31275 h -3.49052 c -2.3038,0 -3.94275,-0.51606 -4.91686,-1.55009 -0.97411,-1.03206 -1.45921,-2.5106 -1.45921,-4.43367 v -9.19015 z m 13.32038,-10.57785 h 4.06069 v 4.09548 h -4.06069 z m 0.0715,7.33667 h 3.91959 v 18.23729 h -3.91959 z M 370.39311,98.576 c 1.2949,0.69964 2.75993,1.05143 4.39888,1.05143 h 0.32084 c 1.63895,0 3.10979,-0.35179 4.41632,-1.05143 1.30648,-0.69964 2.33278,-1.72786 3.08077,-3.08077 0.74794,-1.35488 1.1229,-2.98028 1.1229,-4.88014 v -1.17514 c 0,-1.89986 -0.37496,-3.5195 -1.1229,-4.86274 -0.74799,-1.34132 -1.77429,-2.36762 -3.08077,-3.08077 -1.30653,-0.71127 -2.77737,-1.06883 -4.41632,-1.06883 h -0.32084 c -1.63895,0 -3.10398,0.35756 -4.39888,1.06883 -1.29495,0.71315 -2.32124,1.73944 -3.08081,3.08077 -0.75952,1.34325 -1.14029,2.97446 -1.14029,4.89754 v 1.14034 c 0,1.89986 0.38077,3.52526 1.14029,4.88014 0.75957,1.35291 1.78587,2.38113 3.08081,3.08077 z m -0.30152,-9.20755 c 0,-1.87473 0.45031,-3.27017 1.35291,-4.18434 0.9026,-0.91417 2.0178,-1.37227 3.34749,-1.37227 h 0.28605 c 1.35291,0 2.47969,0.4581 3.38229,1.37227 0.90259,0.91418 1.35483,2.30961 1.35483,4.18434 v 1.31816 c 0,1.87665 -0.45223,3.27598 -1.35483,4.20174 -0.90259,0.92773 -2.02938,1.38962 -3.38229,1.38962 h -0.28605 c -1.32969,0 -2.4449,-0.46189 -3.34749,-1.38962 -0.90259,-0.92576 -1.35291,-2.32509 -1.35291,-4.20174 z m 33.94461,-1.46113 v 11.25625 h -3.91959 V 88.44269 c 0,-1.49593 -0.31892,-2.64204 -0.96055,-3.43832 -0.64168,-0.79437 -1.61579,-1.19253 -2.92039,-1.19253 h -0.24933 c -0.76149,0 -1.4843,0.18945 -2.17433,0.57017 -0.68801,0.38077 -1.2466,0.96055 -1.67375,1.74526 -0.4271,0.78278 -0.63971,1.78005 -0.63971,2.99186 v 10.04445 h -3.91959 V 80.92629 h 3.45572 v 2.74253 c 0.57017,-0.99727 1.34714,-1.78582 2.33283,-2.36757 0.98569,-0.58175 2.15501,-0.87361 3.50791,-0.87361 h 0.35756 c 2.0661,0 3.71471,0.64168 4.94973,1.92308 1.23502,1.28332 1.85349,3.13488 1.85349,5.55662 z M 269.86192,111.9022 c -1.63895,-1.36449 -3.87124,-2.04678 -6.69691,-2.04678 h -9.11864 v 24.93227 h 4.0974 v -8.76301 h 5.02124 c 2.82567,0 5.05796,-0.67066 6.69691,-2.01198 1.63895,-1.34128 2.45653,-3.24695 2.45653,-5.71699 v -0.74799 c 0,-2.39852 -0.81758,-4.27907 -2.45653,-5.64552 z m -1.63895,6.50174 c 0,1.42442 -0.46963,2.47003 -1.40702,3.13296 -0.93739,0.66485 -2.1898,0.99727 -3.75724,0.99727 h -4.91493 v -9.15344 h 4.91493 c 1.56744,0 2.81985,0.33247 3.75724,0.99732 0.93739,0.66485 1.40702,1.69888 1.40702,3.09816 z m 16.13447,-2.0661 h 1.85349 v 3.63162 h -1.81677 c -0.85622,0 -1.65635,0.19132 -2.40434,0.57012 -0.74794,0.38077 -1.35483,0.97992 -1.81677,1.79937 -0.46382,0.8195 -0.69383,1.90568 -0.69383,3.25858 v 9.19015 h -3.91959 v -18.23724 h 3.45572 v 3.45572 c 0.45031,-1.11521 1.08618,-2.00617 1.90568,-2.67106 0.8195,-0.66485 1.96364,-0.99727 3.4364,-0.99727 z m 16.70656,0.78273 c -1.30653,-0.71122 -2.77737,-1.06878 -4.41632,-1.06878 h -0.32079 c -1.639,0 -3.10398,0.35756 -4.39892,1.06878 -1.29495,0.71319 -2.3212,1.73949 -3.08077,3.08081 -0.75957,1.34325 -1.14034,2.97446 -1.14034,4.89754 v 1.14029 c 0,1.89986 0.38077,3.52531 1.14034,4.88014 0.75957,1.35295 1.78582,2.38117 3.08077,3.08081 1.29495,0.69964 2.75993,1.05138 4.39892,1.05138 h 0.32079 c 1.63895,0 3.10979,-0.35174 4.41632,-1.05138 1.30653,-0.69964 2.33283,-1.72786 3.08077,-3.08081 0.74799,-1.35483 1.12294,-2.98028 1.12294,-4.88014 v -1.17509 c 0,-1.89986 -0.37496,-3.5195 -1.12294,-4.86274 -0.74794,-1.34132 -1.77424,-2.36762 -3.08077,-3.08081 z m 0.28605,9.19015 c 0,1.8767 -0.45228,3.27598 -1.35488,4.20179 -0.90255,0.92768 -2.02933,1.38962 -3.38229,1.38962 h -0.286 c -1.32974,0 -2.44495,-0.46194 -3.34754,-1.38962 -0.90255,-0.92581 -1.35291,-2.32509 -1.35291,-4.20179 v -1.31811 c 0,-1.87478 0.45036,-3.27021 1.35291,-4.18439 0.90259,-0.91418 2.0178,-1.37223 3.34754,-1.37223 h 0.286 c 1.35295,0 2.47974,0.45805 3.38229,1.37223 0.90259,0.91418 1.35488,2.30961 1.35488,4.18439 z m 20.72856,-7.05254 c -1.18864,-2.13761 -3.18323,-3.20639 -5.98568,-3.20639 h -0.24933 c -1.54231,0 -2.89713,0.36914 -4.05872,1.1055 -1.16543,0.73641 -2.0661,1.76847 -2.70778,3.09821 -0.64163,1.32969 -0.96248,2.87397 -0.96248,4.63081 v 0.96055 c 0,1.75881 0.32084,3.30112 0.96248,4.63086 0.64168,1.32969 1.54235,2.36373 2.70778,3.09816 1.16158,0.73636 2.51641,1.1055 4.05872,1.1055 h 0.24933 c 2.42366,0 4.25201,-0.86775 5.48703,-2.60143 v 1.88828 c 0,3.44217 -1.52106,5.16426 -4.5593,5.16426 h -0.46386 c -1.16351,0 -2.09508,-0.172 -2.79669,-0.51606 -0.69964,-0.34401 -1.28716,-0.90836 -1.76261,-1.69114 l -2.81409,2.10089 c 0.66485,1.11521 1.58484,1.95979 2.75993,2.52996 1.17706,0.5682 2.66525,0.85425 4.47044,0.85425 h 0.74799 c 2.68457,0 4.7487,-0.74217 6.19825,-2.22652 1.44763,-1.48435 2.17241,-3.59101 2.17241,-6.32195 v -17.31148 h -3.4538 v 2.70773 z m -0.42907,6.55388 c 0,1.66216 -0.42133,2.99767 -1.264,4.00657 -0.84267,1.0089 -1.96561,1.51333 -3.36489,1.51333 h -0.32084 c -1.44955,0 -2.58984,-0.49092 -3.419,-1.47661 -0.833,-0.98569 -1.2466,-2.3212 -1.2466,-4.00849 v -0.99727 c 0,-1.68533 0.41359,-3.00925 1.2466,-3.97178 0.82916,-0.96055 1.96945,-1.44181 3.419,-1.44181 h 0.32084 c 1.39928,0 2.52223,0.49284 3.36489,1.47853 0.84266,0.98569 1.264,2.32124 1.264,4.00657 z m 17.4893,-9.47423 h 1.85349 v 3.63162 h -1.81677 c -0.85617,0 -1.65635,0.19132 -2.40429,0.57012 -0.74799,0.38077 -1.35488,0.97992 -1.81677,1.79937 -0.46386,0.8195 -0.69387,1.90568 -0.69387,3.25858 v 9.19015 h -3.91959 v -18.23724 h 3.45572 v 3.45572 c 0.45036,-1.11521 1.08623,-2.00617 1.90568,-2.67106 0.8195,-0.66485 1.96369,-0.99727 3.4364,-0.99727 z m 11.6834,-0.28605 h -0.53538 c -1.78005,0 -3.29338,0.36333 -4.53998,1.08618 -1.24665,0.72478 -2.14343,1.71628 -2.69038,2.97451 l 3.02857,1.56744 c 0.42715,-0.87746 0.978,-1.50174 1.6564,-1.86896 0.67643,-0.36914 1.52491,-0.55277 2.54539,-0.55277 h 0.39235 c 2.42169,0 3.63354,1.35291 3.63354,4.06069 v 0.14302 l -6.44763,0.85425 c -1.80514,0.23775 -3.17544,0.83108 -4.11283,1.78005 -0.93931,0.95089 -1.40702,2.17241 -1.40702,3.66833 0,1.73368 0.53341,3.08274 1.60223,4.04329 1.06878,0.96248 2.57634,1.44374 4.52258,1.44374 h 0.24933 c 1.35483,0 2.56471,-0.29181 3.63354,-0.87357 1.06878,-0.58175 1.8767,-1.37035 2.42169,-2.36762 v 2.77732 h 3.45577 v -11.54033 c 0,-2.35022 -0.6301,-4.13801 -1.88828,-5.3614 -1.25823,-1.22151 -3.09821,-1.83417 -5.5199,-1.83417 z m 3.49052,11.291 c 0,1.44955 -0.41557,2.60729 -1.2466,3.47317 -0.83108,0.8678 -1.94821,1.30071 -3.34946,1.30071 h -0.35559 c -1.02048,0 -1.811,-0.23193 -2.36762,-0.6958 -0.55854,-0.46189 -0.8369,-1.09776 -0.8369,-1.90568 0,-0.80595 0.24159,-1.39928 0.72867,-1.78005 0.48703,-0.3788 1.34709,-0.65326 2.58211,-0.81945 l 4.84539,-0.71127 z m 34.21133,-9.36792 c 1.15188,1.28332 1.72786,3.13488 1.72786,5.55662 v 11.25621 h -3.91766 v -10.72088 c 0,-1.49593 -0.28023,-2.64204 -0.8369,-3.43832 -0.55854,-0.79437 -1.44374,-1.19248 -2.65362,-1.19248 h -0.28605 c -0.66485,0 -1.31234,0.1894 -1.94047,0.57017 -0.63005,0.38072 -1.14029,0.96055 -1.53265,1.74526 -0.39043,0.78273 -0.58757,1.78005 -0.58757,2.99186 v 10.0444 h -3.91766 v -10.72088 c 0,-1.49593 -0.28023,-2.64204 -0.83685,-3.43832 -0.55859,-0.79437 -1.44374,-1.19248 -2.65367,-1.19248 h -0.28605 c -0.66485,0 -1.3123,0.1894 -1.94043,0.57017 -0.6301,0.38072 -1.14034,0.96055 -1.53072,1.74526 -0.39235,0.78273 -0.58757,1.78005 -0.58757,2.99186 v 10.0444 h -3.91959 v -18.23724 h 3.45572 v 2.70773 c 0.54504,-0.99727 1.27563,-1.78198 2.1898,-2.35018 0.91418,-0.57017 1.98877,-0.85622 3.22379,-0.85622 h 0.32084 c 2.75416,0 4.65402,1.12871 5.69964,3.38421 0.57012,-1.04369 1.34709,-1.87088 2.33278,-2.47585 0.98574,-0.60492 2.12987,-0.90836 3.4364,-0.90836 h 0.32084 c 1.99459,0 3.56784,0.64168 4.71977,1.92308 z m -277.31196,17.07119 0.003,25.32423 h 7.15184 v -25.32379 l -7.15438,-4.4e-4 z m -56.26238,-0.0344 v 25.35864 h 7.21566 v -19.25515 l 5.58985,0.002 c 1.85174,0 3.17049,0.46076 4.06279,1.41286 1.13129,1.20553 1.59301,3.14883 1.59301,6.7053 v 11.13508 l 6.99005,-0.001 0.0013,-14.00922 c 0,-9.99965 -6.37412,-11.34814 -12.60976,-11.34814 H 54.94974 m 67.77813,0.0353 v 25.32338 h 11.60028 c 6.1806,0 8.19782,-1.02794 10.37946,-3.33257 1.54224,-1.61785 2.53851,-5.16945 2.53851,-9.05074 0,-3.55943 -0.84333,-6.73504 -2.31483,-8.71253 -2.6496,-3.53629 -6.46696,-4.22754 -12.16576,-4.22754 z m 7.09446,5.51402 h 3.07511 c 4.46121,0 7.34642,2.0034 7.34642,7.20152 0,5.19941 -2.88521,7.20281 -7.34642,7.20281 h -3.07511 z m -28.92212,-5.51402 -5.96891,20.07024 -5.71954,-20.06896 -7.72048,-0.001 8.16828,25.32338 h 10.30808 l 8.23245,-25.32338 h -7.29989 z m 49.67402,25.32338 h 7.1531 v -25.3221 l -7.1548,-0.001 z m 20.04943,-25.31424 -9.98691,25.30552 h 7.05221 l 1.58003,-4.47267 h 11.81909 l 1.49571,4.47267 h 7.65676 l -10.06315,-25.30763 -9.55375,0.002 z m 4.6426,4.61672 4.33248,11.8552 h -8.80176 z M 101.75652,75.72685 v -6.08396 c 0.59032,-0.04183 1.18704,-0.07339 1.79512,-0.0926 16.6393,-0.52289 27.55588,14.29748 27.55588,14.29748 0,0 -11.7904,16.37599 -24.43202,16.37599 -1.82072,0 -3.45015,-0.29347 -4.91897,-0.78662 V 80.9888 c 6.47757,0.78249 7.77997,3.6439 11.67548,10.13539 l 8.66145,-7.30287 c 0,0 -6.32252,-8.29246 -16.98078,-8.29246 -1.15976,0 -2.26811,0.08179 -3.35615,0.19799 m 0,-20.09711 v 9.08748 c 0.59713,-0.04738 1.195,-0.08507 1.79512,-0.10696 23.1395,-0.77951 38.21468,18.97706 38.21468,18.97706 0,0 -17.31598,21.05601 -35.35497,21.05601 -1.65301,0 -3.20066,-0.15264 -4.65483,-0.4101 v 5.61725 c 1.24366,0.15803 2.53181,0.2512 3.87617,0.2512 16.78779,0 28.92806,-8.57255 40.68406,-18.71962 1.94754,1.56071 9.92761,5.35714 11.56863,7.02108 -11.17841,9.35704 -37.22689,16.89877 -51.99438,16.89877 -1.42317,0 -2.79184,-0.0858 -4.13448,-0.21498 v 7.89447 h 63.80581 V 55.62972 h -63.80581 z m 0,43.8074 v 4.79609 C 86.22961,101.46499 81.92028,85.32499 81.92028,85.32499 c 0,0 7.45464,-8.25975 19.83625,-9.59814 v 5.26195 c -0.01,0 -0.0159,-0.0024 -0.0243,-0.0024 -6.49689,-0.78035 -11.57361,5.29053 -11.57361,5.29053 0,0 2.8442,10.21918 11.59795,13.16025 M 74.17929,84.62558 c 0,0 9.20229,-13.57875 27.57724,-14.98269 V 64.71722 C 81.4045,66.35048 63.78017,83.58733 63.78017,83.58733 c 0,0 9.98138,28.85786 37.97636,31.49961 v -5.23645 C 81.21332,107.26577 74.17929,84.62559 74.17929,84.62559 Z"
     id="path8" />
</svg>
