<?xml version="1.0" encoding="UTF-8"?>
<svg id="Artwork" xmlns="http://www.w3.org/2000/svg" viewBox="0 0 500.4288 216">
  <defs>
    <style>
      .cls-1 {
        fill: #fff;
      }

      .cls-2 {
        fill: #76b900;
      }
    </style>
  </defs>
  <g id="Inception_Program" data-name="Inception Program">
    <rect class="cls-1" x="29.49194" y="29.39789" width="441.44607" height="157.20423"/>
    <path d="M25.49926,25.4052V190.5948H474.9307V25.4052H25.49926ZM470.93802,186.60211H29.49194V29.39789H470.93802V186.60211Zm-247.79639-12.21054h-1.99634V41.60843h1.99634V174.39157Zm35.00214-75.22801h-4.0974v-24.93227h4.0974v24.93227Zm17.94932-10.72088c0-1.49593-.31892-2.64204-.9606-3.43832-.64163-.79437-1.61574-1.19253-2.92035-1.19253h-.24933c-.76149,0-1.48435,.18945-2.17433,.57017-.68806,.38077-1.2466,.96055-1.67375,1.74526-.42715,.78278-.63971,1.78005-.63971,2.99186v10.04445h-3.91959v-18.23729h3.45572v2.74253c.57012-.99727,1.34709-1.78582,2.33278-2.36757,.98574-.58175,2.15501-.87361,3.50791-.87361h.35756c2.0661,0,3.71471,.64168,4.94973,1.92308,1.23502,1.28332,1.85353,3.13488,1.85353,5.55662v11.25625h-3.91959v-10.72088Zm9.84919,8.84999c-1.55389-1.55394-2.33283-3.78046-2.33283-6.67759v-1.17514c0-1.89986,.36145-3.5195,1.08623-4.86274,.72478-1.34132,1.73944-2.36762,3.04597-3.08077,1.30653-.71127,2.81409-1.06883,4.52455-1.06883h.35564c1.68533,0,3.11556,.40393,4.29257,1.21185,1.17509,.80787,2.02357,1.87665,2.54544,3.20447l-3.13296,1.38962c-.35756-.73444-.83882-1.32393-1.44378-1.76266-.60492-.43873-1.35872-.65908-2.26127-.65908h-.32084c-1.40125,0-2.54736,.46386-3.4364,1.38967-.89101,.92576-1.33556,2.31538-1.33556,4.16694v1.31816c0,1.92303,.43296,3.33586,1.29884,4.23846,.8678,.90259,2.02357,1.35291,3.47312,1.35291h.32084c.94897,0,1.74526-.2068,2.38689-.62231,.63976-.41557,1.13837-.97992,1.49593-1.69307l3.06342,1.60416c-.52379,1.18667-1.38967,2.16078-2.60147,2.92035-1.20988,.75957-2.65943,1.14034-4.34476,1.14034h-.35564c-2.6614,0-4.76807-.77889-6.32392-2.33475Zm24.59596,2.33475h.53345c1.6873,0,3.14651-.31507,4.38153-.94513,1.23502-.62813,2.17236-1.49016,2.81404-2.58216l-2.84883-1.85152c-.42715,.73636-.9915,1.28716-1.69307,1.65635-.69969,.36722-1.58484,.5508-2.65367,.5508h-.53345c-1.4012,0-2.49901-.43873-3.2953-1.31619-.79432-.87938-1.22728-2.20912-1.29879-3.9911h12.92808v-2.17241c0-2.61109-.71704-4.68882-2.15501-6.23304-1.43605-1.54231-3.3881-2.31543-5.85814-2.31543h-.32084c-2.58792,0-4.64239,.8021-6.16153,2.40434-1.52106,1.60416-2.28063,3.81712-2.28063,6.64279v1.17509c0,2.87402,.74217,5.08891,2.22652,6.64284,1.48435,1.55586,3.55621,2.33475,6.21565,2.33475Zm-3.15228-14.78349c.79629-.80595,1.84575-1.20993,3.15228-1.20993h.28412c1.32974,0,2.36954,.38659,3.11753,1.15774,.74794,.77115,1.1229,1.89405,1.1229,3.36489v.24933h-9.08385c.14302-1.56744,.61073-2.75416,1.40702-3.56203Zm24.84336,14.78349c1.49593,0,2.82567-.34598,3.98917-1.03403s2.0835-1.70273,2.75993-3.04597c.67648-1.34132,1.01472-2.97254,1.01472-4.89758v-1.17509c0-1.94624-.33824-3.59101-1.01472-4.93233-.67643-1.34132-1.59642-2.36373-2.75993-3.06337s-2.49325-1.05143-3.98917-1.05143h-.21453c-1.4012,0-2.60532,.28028-3.61422,.8369-1.01082,.55854-1.79937,1.33551-2.36949,2.33278v-2.67102h-3.45572v25.36134h3.91954v-9.26167c.59338,.83108,1.35872,1.47272,2.29611,1.92308,.93739,.45223,2.01198,.6784,3.22379,.6784h.21453Zm-1.17701-3.34946c-.78278,0-1.53072-.19522-2.24392-.58752-.71122-.39235-1.28721-1.0089-1.72594-1.85156-.44065-.84266-.65908-1.92889-.65908-3.25858v-1.10555c0-1.35291,.21843-2.4449,.65908-3.27598,.43873-.83108,1.0089-1.436,1.70854-1.81677,.69964-.38072,1.45537-.57017,2.26131-.57017h.28605c1.35291,0,2.48162,.45228,3.38421,1.35295,.90062,.90255,1.35291,2.32893,1.35291,4.27517v1.20988c0,1.94821-.45228,3.37263-1.35291,4.27522-.90259,.90259-2.0313,1.35291-3.38421,1.35291h-.28605Zm13.99878-12.1105h-3.84807v-3.24119h3.84807v-5.3788h3.91766v5.3788h5.94892l-.46382,3.24119h-5.4851v9.01234c0,1.02048,.2377,1.75107,.71315,2.1898,.47352,.44065,1.18672,.65903,2.13569,.65903h3.10009v3.31275h-3.49052c-2.3038,0-3.94275-.51606-4.91686-1.55009-.97411-1.03206-1.45921-2.5106-1.45921-4.43367v-9.19015Zm13.32038-10.57785h4.06069v4.09548h-4.06069v-4.09548Zm.07151,7.33667h3.91959v18.23729h-3.91959v-18.23729Zm11.95013,17.64972c1.2949,.69964,2.75993,1.05143,4.39888,1.05143h.32084c1.63895,0,3.10979-.35179,4.41632-1.05143,1.30648-.69964,2.33278-1.72786,3.08077-3.08077,.74794-1.35488,1.1229-2.98028,1.1229-4.88014v-1.17514c0-1.89986-.37496-3.5195-1.1229-4.86274-.74799-1.34132-1.77429-2.36762-3.08077-3.08077-1.30653-.71127-2.77737-1.06883-4.41632-1.06883h-.32084c-1.63895,0-3.10398,.35756-4.39888,1.06883-1.29495,.71315-2.32124,1.73944-3.08081,3.08077-.75952,1.34325-1.14029,2.97446-1.14029,4.89754v1.14034c0,1.89986,.38077,3.52526,1.14029,4.88014,.75957,1.35291,1.78587,2.38113,3.08081,3.08077Zm-.30152-9.20755c0-1.87473,.45031-3.27017,1.35291-4.18434s2.0178-1.37227,3.34749-1.37227h.28605c1.35291,0,2.47969,.4581,3.38229,1.37227,.90259,.91418,1.35483,2.30961,1.35483,4.18434v1.31816c0,1.87665-.45223,3.27598-1.35483,4.20174-.90259,.92773-2.02938,1.38962-3.38229,1.38962h-.28605c-1.32969,0-2.4449-.46189-3.34749-1.38962-.90259-.92576-1.35291-2.32509-1.35291-4.20174v-1.31816Zm33.94461-1.46113v11.25625h-3.91959v-10.72088c0-1.49593-.31892-2.64204-.96055-3.43832-.64168-.79437-1.61579-1.19253-2.92039-1.19253h-.24933c-.76149,0-1.4843,.18945-2.17433,.57017-.68801,.38077-1.2466,.96055-1.67375,1.74526-.4271,.78278-.63971,1.78005-.63971,2.99186v10.04445h-3.91959v-18.23729h3.45572v2.74253c.57017-.99727,1.34714-1.78582,2.33283-2.36757s2.15501-.87361,3.50791-.87361h.35756c2.0661,0,3.71471,.64168,4.94973,1.92308,1.23502,1.28332,1.85349,3.13488,1.85349,5.55662Zm-134.17428,23.99488c-1.63895-1.36449-3.87124-2.04678-6.69691-2.04678h-9.11864v24.93227h4.0974v-8.76301h5.02124c2.82567,0,5.05796-.67066,6.69691-2.01198,1.63895-1.34128,2.45653-3.24695,2.45653-5.71699v-.74799c0-2.39852-.81758-4.27907-2.45653-5.64552Zm-1.63895,6.50174c0,1.42442-.46963,2.47003-1.40702,3.13296-.93739,.66485-2.1898,.99727-3.75724,.99727h-4.91493v-9.15344h4.91493c1.56744,0,2.81985,.33247,3.75724,.99732s1.40702,1.69888,1.40702,3.09816v.92773Zm16.13447-2.0661h1.85349v3.63162h-1.81677c-.85622,0-1.65635,.19132-2.40434,.57012-.74794,.38077-1.35483,.97992-1.81677,1.79937-.46382,.8195-.69383,1.90568-.69383,3.25858v9.19015h-3.91959v-18.23724h3.45572v3.45572c.45031-1.11521,1.08618-2.00617,1.90568-2.67106,.8195-.66485,1.96364-.99727,3.4364-.99727Zm16.70656,.78273c-1.30653-.71122-2.77737-1.06878-4.41632-1.06878h-.32079c-1.639,0-3.10398,.35756-4.39892,1.06878-1.29495,.71319-2.3212,1.73949-3.08077,3.08081-.75957,1.34325-1.14034,2.97446-1.14034,4.89754v1.14029c0,1.89986,.38077,3.52531,1.14034,4.88014,.75957,1.35295,1.78582,2.38117,3.08077,3.08081s2.75993,1.05138,4.39892,1.05138h.32079c1.63895,0,3.10979-.35174,4.41632-1.05138s2.33283-1.72786,3.08077-3.08081c.74799-1.35483,1.12294-2.98028,1.12294-4.88014v-1.17509c0-1.89986-.37496-3.5195-1.12294-4.86274-.74794-1.34132-1.77424-2.36762-3.08077-3.08081Zm.28605,9.19015c0,1.8767-.45228,3.27598-1.35488,4.20179-.90255,.92768-2.02933,1.38962-3.38229,1.38962h-.286c-1.32974,0-2.44495-.46194-3.34754-1.38962-.90255-.92581-1.35291-2.32509-1.35291-4.20179v-1.31811c0-1.87478,.45036-3.27021,1.35291-4.18439,.90259-.91418,2.0178-1.37223,3.34754-1.37223h.286c1.35295,0,2.47974,.45805,3.38229,1.37223,.90259,.91418,1.35488,2.30961,1.35488,4.18439v1.31811Zm20.72856-7.05254c-1.18864-2.13761-3.18323-3.20639-5.98568-3.20639h-.24933c-1.54231,0-2.89713,.36914-4.05872,1.1055-1.16543,.73641-2.0661,1.76847-2.70778,3.09821-.64163,1.32969-.96248,2.87397-.96248,4.63081v.96055c0,1.75881,.32084,3.30112,.96248,4.63086,.64168,1.32969,1.54235,2.36373,2.70778,3.09816,1.16158,.73636,2.51641,1.1055,4.05872,1.1055h.24933c2.42366,0,4.25201-.86775,5.48703-2.60143v1.88828c0,3.44217-1.52106,5.16426-4.5593,5.16426h-.46386c-1.16351,0-2.09508-.172-2.79669-.51606-.69964-.34401-1.28716-.90836-1.76261-1.69114l-2.81409,2.10089c.66485,1.11521,1.58484,1.95979,2.75993,2.52996,1.17706,.5682,2.66525,.85425,4.47044,.85425h.74799c2.68457,0,4.7487-.74217,6.19825-2.22652,1.44763-1.48435,2.17241-3.59101,2.17241-6.32195v-17.31148h-3.4538v2.70773Zm-.42907,6.55388c0,1.66216-.42133,2.99767-1.264,4.00657s-1.96561,1.51333-3.36489,1.51333h-.32084c-1.44955,0-2.58984-.49092-3.419-1.47661-.833-.98569-1.2466-2.3212-1.2466-4.00849v-.99727c0-1.68533,.41359-3.00925,1.2466-3.97178,.82916-.96055,1.96945-1.44181,3.419-1.44181h.32084c1.39928,0,2.52223,.49284,3.36489,1.47853s1.264,2.32124,1.264,4.00657v.89096Zm17.4893-9.47423h1.85349v3.63162h-1.81677c-.85617,0-1.65635,.19132-2.40429,.57012-.74799,.38077-1.35488,.97992-1.81677,1.79937-.46386,.8195-.69387,1.90568-.69387,3.25858v9.19015h-3.91959v-18.23724h3.45572v3.45572c.45036-1.11521,1.08623-2.00617,1.90568-2.67106,.8195-.66485,1.96369-.99727,3.4364-.99727Zm11.6834-.28605h-.53538c-1.78005,0-3.29338,.36333-4.53998,1.08618-1.24665,.72478-2.14343,1.71628-2.69038,2.97451l3.02857,1.56744c.42715-.87746,.978-1.50174,1.6564-1.86896,.67643-.36914,1.52491-.55277,2.54539-.55277h.39235c2.42169,0,3.63354,1.35291,3.63354,4.06069v.14302l-6.44763,.85425c-1.80514,.23775-3.17544,.83108-4.11283,1.78005-.93931,.95089-1.40702,2.17241-1.40702,3.66833,0,1.73368,.53341,3.08274,1.60223,4.04329,1.06878,.96248,2.57634,1.44374,4.52258,1.44374h.24933c1.35483,0,2.56471-.29181,3.63354-.87357,1.06878-.58175,1.8767-1.37035,2.42169-2.36762v2.77732h3.45577v-11.54033c0-2.35022-.6301-4.13801-1.88828-5.3614-1.25823-1.22151-3.09821-1.83417-5.5199-1.83417Zm3.49052,11.291c0,1.44955-.41557,2.60729-1.2466,3.47317-.83108,.8678-1.94821,1.30071-3.34946,1.30071h-.35559c-1.02048,0-1.811-.23193-2.36762-.6958-.55854-.46189-.8369-1.09776-.8369-1.90568,0-.80595,.24159-1.39928,.72867-1.78005,.48703-.3788,1.34709-.65326,2.58211-.81945l4.84539-.71127v1.13837Zm34.21133-9.36792c1.15188,1.28332,1.72786,3.13488,1.72786,5.55662v11.25621h-3.91766v-10.72088c0-1.49593-.28023-2.64204-.8369-3.43832-.55854-.79437-1.44374-1.19248-2.65362-1.19248h-.28605c-.66485,0-1.31234,.1894-1.94047,.57017-.63005,.38072-1.14029,.96055-1.53265,1.74526-.39043,.78273-.58757,1.78005-.58757,2.99186v10.0444h-3.91766v-10.72088c0-1.49593-.28023-2.64204-.83685-3.43832-.55859-.79437-1.44374-1.19248-2.65367-1.19248h-.28605c-.66485,0-1.3123,.1894-1.94043,.57017-.6301,.38072-1.14034,.96055-1.53072,1.74526-.39235,.78273-.58757,1.78005-.58757,2.99186v10.0444h-3.91959v-18.23724h3.45572v2.70773c.54504-.99727,1.27563-1.78198,2.1898-2.35018,.91418-.57017,1.98877-.85622,3.22379-.85622h.32084c2.75416,0,4.65402,1.12871,5.69964,3.38421,.57012-1.04369,1.34709-1.87088,2.33278-2.47585,.98574-.60492,2.12987-.90836,3.4364-.90836h.32084c1.99459,0,3.56784,.64168,4.71977,1.92308Z"/>
    <g id="NVIDIA_Logo" data-name="NVIDIA Logo">
      <path id="NVIDIA" d="M111.21211,135.04605l.00255,25.32423h7.15184v-25.32379l-7.15438-.00044Zm-56.26238-.03441v25.35864h7.21566v-19.25515l5.58985,.00191c1.85174,0,3.17049,.46076,4.06279,1.41286,1.13129,1.20553,1.59301,3.14883,1.59301,6.7053v11.13508l6.99005-.00127,.00127-14.00922c0-9.99965-6.37412-11.34814-12.60976-11.34814h-12.84288m67.77813,.03526v25.32338h11.60028c6.1806,0,8.19782-1.02794,10.37946-3.33257,1.54224-1.61785,2.53851-5.16945,2.53851-9.05074,0-3.55943-.84333-6.73504-2.31483-8.71253-2.6496-3.53629-6.46696-4.22754-12.16576-4.22754h-10.03766Zm7.09446,5.51402h3.07511c4.46121,0,7.34642,2.0034,7.34642,7.20152,0,5.19941-2.88521,7.20281-7.34642,7.20281h-3.07511v-14.40433Zm-28.92212-5.51402l-5.96891,20.07024-5.71954-20.06896-7.72048-.00128,8.16828,25.32338h10.30808l8.23245-25.32338h-7.29989Zm49.67402,25.32338h7.1531v-25.3221l-7.1548-.00128,.0017,25.32338Zm20.04943-25.31424l-9.98691,25.30552h7.05221l1.58003-4.47267h11.81909l1.49571,4.47267h7.65676l-10.06315-25.30763-9.55375,.00211Zm4.6426,4.61672l4.33248,11.8552h-8.80176l4.46928-11.8552Z"/>
      <path id="Eye_Mark" data-name="Eye Mark" class="cls-2" d="M101.75652,75.72683v-6.08396c.59032-.04183,1.18704-.07339,1.79512-.0926,16.6393-.52289,27.55588,14.29748,27.55588,14.29748,0,0-11.7904,16.37599-24.43202,16.37599-1.82072,0-3.45015-.29347-4.91897-.78662v-18.44834c6.47757,.78249,7.77997,3.6439,11.67548,10.13539l8.66145-7.30287s-6.32252-8.29246-16.98078-8.29246c-1.15976,0-2.26811,.08179-3.35615,.19799m0-20.09711v9.08748c.59713-.04738,1.195-.08507,1.79512-.10696,23.1395-.77951,38.21468,18.97706,38.21468,18.97706,0,0-17.31598,21.05601-35.35497,21.05601-1.65301,0-3.20066-.15264-4.65483-.4101v5.61725c1.24366,.15803,2.53181,.2512,3.87617,.2512,16.78779,0,28.92806-8.57255,40.68406-18.71962,1.94754,1.56071,9.92761,5.35714,11.56863,7.02108-11.17841,9.35704-37.22689,16.89877-51.99438,16.89877-1.42317,0-2.79184-.08581-4.13448-.21498v7.89447h63.80581V55.62972h-63.80581Zm0,43.8074v4.79609c-15.52692-2.76824-19.83625-18.90824-19.83625-18.90824,0,0,7.45464-8.25975,19.83625-9.59814v5.26195c-.00968,0-.01594-.00244-.02434-.00244-6.49689-.78035-11.57361,5.29053-11.57361,5.29053,0,0,2.8442,10.21918,11.59795,13.16025m-27.57724-14.81156s9.20229-13.57875,27.57724-14.98269v-4.92567c-20.35203,1.63326-37.97636,18.87011-37.97636,18.87011,0,0,9.98138,28.85786,37.97636,31.49961v-5.23645c-20.54321-2.58472-27.57724-25.2249-27.57724-25.2249Z"/>
    </g>
  </g>
</svg>