<?xml version="1.0" encoding="UTF-8" standalone="no"?>
<!-- Created with Inkscape (http://www.inkscape.org/) -->

<svg
   width="193.76286mm"
   height="194.12375mm"
   viewBox="0 0 193.76286 194.12375"
   version="1.1"
   id="svg1"
   inkscape:export-filename="open-teams-bw.png"
   inkscape:export-xdpi="96"
   inkscape:export-ydpi="96"
   sodipodi:docname="open-teams.svg"
   xmlns:inkscape="http://www.inkscape.org/namespaces/inkscape"
   xmlns:sodipodi="http://sodipodi.sourceforge.net/DTD/sodipodi-0.dtd"
   xmlns="http://www.w3.org/2000/svg"
   xmlns:svg="http://www.w3.org/2000/svg">
  <sodipodi:namedview
     id="namedview1"
     pagecolor="#ffffff"
     bordercolor="#000000"
     borderopacity="0.25"
     inkscape:showpageshadow="2"
     inkscape:pageopacity="0.0"
     inkscape:pagecheckerboard="0"
     inkscape:deskcolor="#d1d1d1"
     inkscape:document-units="mm" />
  <defs
     id="defs1">
    <filter
       style="color-interpolation-filters:sRGB"
       inkscape:label="Greyscale"
       id="filter1"
       x="0"
       y="0"
       width="1"
       height="1">
      <feColorMatrix
         values="0.33 0.59 0.11 0 0 0.33 0.59 0.11 0 0 0.33 0.59 0.11 0 0 0 0 0 1 0 "
         id="feColorMatrix1"
         result="fbSourceGraphic" />
      <feColorMatrix
         result="fbSourceGraphicAlpha"
         in="fbSourceGraphic"
         values="0 0 0 -1 0 0 0 0 -1 0 0 0 0 -1 0 0 0 0 1 0"
         id="feColorMatrix2" />
      <feColorMatrix
         id="feColorMatrix3"
         values="0.33 0.59 0.11 0 0 0.33 0.59 0.11 0 0 0.33 0.59 0.11 0 0 0 0 0 1 0 "
         in="fbSourceGraphic"
         result="fbSourceGraphic" />
      <feColorMatrix
         result="fbSourceGraphicAlpha"
         in="fbSourceGraphic"
         values="0 0 0 -1 0 0 0 0 -1 0 0 0 0 -1 0 0 0 0 1 0"
         id="feColorMatrix4" />
      <feColorMatrix
         id="feColorMatrix5"
         values="0.33 0.59 0.11 0 0 0.33 0.59 0.11 0 0 0.33 0.59 0.11 0 0 0 0 0 1 0 "
         in="fbSourceGraphic" />
    </filter>
  </defs>
  <g
     inkscape:label="Layer 1"
     inkscape:groupmode="layer"
     id="layer1"
     transform="translate(-3.1138767,-3.4408996)">
    <g
       id="g1"
       transform="matrix(2.2359521,0,0,2.2359521,-474.30383,-121.97738)"
       style="filter:url(#filter1)">
      <path
         class="cls-4"
         d="m 269.93134,91.504276 c 9.06198,7.0485 19.6506,4.897438 27.79448,-2.481791 1.47902,-1.341438 3.32581,-2.428875 1.83092,-4.193646 -0.71967,-0.849312 -5.4663,-5.648854 -6.1013,-5.640917 -0.70908,0.01058 -4.40531,3.15648 -5.54037,3.825875 -4.10633,2.423584 -8.72331,2.661709 -12.53331,-0.552979 -5.55625,-4.691062 -3.77296,-10.490729 -0.72496,-15.980833 1.02394,-1.8415 3.08769,-3.140604 1.46844,-5.085291 -0.71967,-0.862542 -4.55348,-4.804834 -5.28373,-5.199063 -1.66952,-0.899583 -4.91596,4.299479 -5.70442,5.561542 -6.66485,10.646833 -5.36575,21.841354 4.7969,29.747103 z"
         id="path10"
         inkscape:export-filename="open-teams.svg"
         inkscape:export-xdpi="96"
         inkscape:export-ydpi="96"
         style="fill:#022791;stroke-width:0.264583" />
      <path
         class="cls-4"
         d="m 276.38453,78.653464 c 6.53256,8.569854 16.93069,-2.759604 9.17046,-8.807979 -5.9399,-4.627562 -13.77421,2.764896 -9.17046,8.807979 z"
         id="path11"
         style="fill:#022791;stroke-width:0.264583" />
      <path
         class="cls-1"
         d="m 243.72701,107.49834 c -9.06198,-7.0485 -19.65061,-4.89744 -27.79448,2.48179 -1.47902,1.34144 -3.32581,2.42888 -1.83092,4.19365 0.71967,0.84931 5.46629,5.64885 6.10129,5.64091 0.70909,-0.0106 4.40532,-3.15648 5.54038,-3.82587 4.10633,-2.42359 8.72331,-2.66171 12.53331,0.55298 5.55625,4.69106 3.77296,10.49073 0.72496,15.98083 -1.02394,1.8415 -3.08769,3.1406 -1.46844,5.08529 0.71967,0.86254 4.55348,4.80483 5.28373,5.19906 1.66952,0.89959 4.91596,-4.29947 5.70442,-5.56154 6.66485,-10.64683 5.36575,-21.84135 -4.7969,-29.7471 z"
         id="path12"
         style="fill:#ff8a69;stroke-width:0.264583" />
      <path
         class="cls-1"
         d="m 237.27647,120.3518 c -6.53257,-8.56986 -16.93069,2.7596 -9.17046,8.80798 5.93989,4.62756 13.77421,-2.7649 9.17046,-8.80798 z"
         id="path13"
         style="fill:#ff8a69;stroke-width:0.264583" />
      <path
         class="cls-3"
         d="m 264.76403,112.57305 c -7.0485,9.06198 -4.89744,19.6506 2.48179,27.79448 1.34144,1.47902 2.42887,3.32581 4.19365,1.83091 0.84931,-0.71966 5.64885,-5.46629 5.64091,-6.10129 -0.0106,-0.70908 -3.15648,-4.40531 -3.82587,-5.54037 -2.42359,-4.10634 -2.66171,-8.72332 0.55298,-12.53332 4.69106,-5.55625 10.49073,-3.77295 15.98083,-0.72495 1.8415,1.02393 3.1406,3.08768 5.08529,1.46843 0.86254,-0.71966 4.80483,-4.55348 5.19906,-5.28373 0.89959,-1.66952 -4.29948,-4.91595 -5.56154,-5.70441 -10.64683,-6.66486 -21.84135,-5.36575 -29.7471,4.79689 z"
         id="path14"
         style="fill:#4d75fe;stroke-width:0.264583" />
      <path
         class="cls-3"
         d="m 277.61749,119.02359 c -8.56986,6.53256 2.7596,16.93069 8.80798,9.17046 4.62756,-5.9399 -2.7649,-13.77421 -8.80798,-9.17046 z"
         id="path15"
         style="fill:#4d75fe;stroke-width:0.264583" />
      <path
         class="cls-2"
         d="m 248.93136,86.527464 c 7.0485,-9.061979 4.89744,-19.650604 -2.48179,-27.794479 -1.34144,-1.479021 -2.42887,-3.325812 -4.19365,-1.830916 -0.84931,0.719666 -5.64885,5.466291 -5.64091,6.101291 0.0106,0.709083 3.15648,4.405313 3.82587,5.540375 2.42359,4.106333 2.66171,8.723312 -0.55298,12.533312 -4.69106,5.55625 -10.49073,3.772959 -15.98083,0.724959 -1.8415,-1.023938 -3.1406,-3.087688 -5.08529,-1.468438 -0.86254,0.719667 -4.80483,4.553479 -5.19906,5.283729 -0.89959,1.669521 4.29948,4.915959 5.56154,5.704417 10.64683,6.664854 21.84135,5.36575 29.7471,-4.796896 z"
         id="path16"
         style="fill:#faa944;stroke-width:0.264583" />
      <path
         class="cls-2"
         d="m 236.0779,80.074277 c 8.56986,-6.532563 -2.7596,-16.930688 -8.80798,-9.170459 -4.62756,5.939896 2.7649,13.774209 8.80798,9.170459 z"
         id="path17"
         style="fill:#faa944;stroke-width:0.264583" />
    </g>
  </g>
</svg>
