<?xml version="1.0" encoding="UTF-8" standalone="no"?>
<svg
   xmlns:dc="http://purl.org/dc/elements/1.1/"
   xmlns:cc="http://creativecommons.org/ns#"
   xmlns:rdf="http://www.w3.org/1999/02/22-rdf-syntax-ns#"
   xmlns:svg="http://www.w3.org/2000/svg"
   xmlns="http://www.w3.org/2000/svg"
   xmlns:sodipodi="http://sodipodi.sourceforge.net/DTD/sodipodi-0.dtd"
   xmlns:inkscape="http://www.inkscape.org/namespaces/inkscape"
   version="1.1"
   viewBox="0 0 350 350"
   id="svg847"
   sodipodi:docname="opensearch-name.svg"
   width="350"
   height="350"
   inkscape:version="1.0.1 (c497b03c, 2020-09-10)">
  <metadata
     id="metadata853">
    <rdf:RDF>
      <cc:Work
         rdf:about="">
        <dc:format>image/svg+xml</dc:format>
        <dc:type
           rdf:resource="http://purl.org/dc/dcmitype/StillImage" />
        <dc:title>OpenSearch logo</dc:title>
      </cc:Work>
    </rdf:RDF>
  </metadata>
  <defs
     id="defs851" />
  <sodipodi:namedview
     pagecolor="#ffffff"
     bordercolor="#666666"
     borderopacity="1"
     objecttolerance="10"
     gridtolerance="10"
     guidetolerance="10"
     inkscape:pageopacity="0"
     inkscape:pageshadow="2"
     inkscape:window-width="1487"
     inkscape:window-height="795"
     id="namedview849"
     showgrid="false"
     inkscape:zoom="1.2216361"
     inkscape:cx="212.38569"
     inkscape:cy="160.5907"
     inkscape:window-x="0"
     inkscape:window-y="25"
     inkscape:window-maximized="0"
     inkscape:current-layer="svg847"
     inkscape:document-rotation="0" />
  <title
     id="title833">OpenSearch logo</title>
  <desc
     id="desc835">Search engine software fork of Elasticsearch</desc>
  <g
     id="g862"
     transform="matrix(3.1954568,0,0,3.1954568,73.882915,15.897094)">
    <path
       d="m 61.7374,26.5 c -1.2496,0 -2.2626,1.013 -2.2626,2.2626 0,18.6188 -15.0934,33.7122 -33.7122,33.7122 -1.2496,0 -2.2626,1.013 -2.2626,2.2626 C 23.5,65.987 24.513,67 25.7626,67 46.8805,67 64,49.8805 64,28.7626 64,27.513 62.987,26.5 61.7374,26.5 Z"
       fill="#00a3e0"
       id="path837" />
    <path
       d="M 48.0814,41 C 50.2572,37.4505 52.3615,32.7178 51.9475,26.0921 51.0899,12.3673 38.6589,1.95537 26.9206,3.08373 22.3253,3.52547 17.6068,7.2712 18.026,13.9805 c 0.1822,2.9156 1.6092,4.6364 3.9284,5.9594 2.2074,1.2593 5.0434,2.057 8.2584,2.9612 3.8834,1.0923 8.3881,2.3192 11.8503,4.8706 4.1494,3.0579 6.986,6.6026 6.0183,13.2283 z"
       fill="#b9d9eb"
       id="path839" />
    <path
       d="m 3.91861,17 c -2.17585,3.5495 -4.280116,8.2822 -3.866117,14.9079 0.8575789,13.7248 13.28861,24.1367 25.02691,23.0084 4.5953,-0.4418 9.3138,-4.1875 8.8946,-10.8968 -0.1822,-2.9156 -1.6093,-4.6364 -3.9284,-5.9594 -2.2074,-1.2593 -5.0434,-2.057 -8.2584,-2.9612 -3.8834,-1.0923 -8.3881,-2.3192 -11.85025,-4.8706 C 5.787473,27.1704 2.950923,23.6257 3.918613,17 Z"
       fill="#00a3e0"
       id="path841" />
  </g>
  <g
     id="g857"
     transform="matrix(1.1104263,0,0,1.1104263,-72.320352,246.17422)">
    <path
       d="m 362.5,31 v 23 h 9 V 29 c 0,-4.6073 -0.9,-8.0879 -2.701,-10.4489 C 366.998,16.1672 364.282,15 360.75,15 c -3.832,0 -6.903,2.2408 -8.75,6 h -0.5 c 0.136,-1.9409 0.26,-3.0528 0.35,-3.8647 C 351.943,16.298 352,15.7797 352,15 V 0.5 h -9 V 54 h 9.5 V 35.5 c 0,-4.1489 0.139,-7.2185 0.993,-9.419 0.854,-2.2235 2.343,-3.3352 4.467,-3.3352 2.839,0 4.54,2.6383 4.54,8.2542 z M 231.852,51.2289 c 2.432,-2.5141 3.648,-6.1353 3.648,-10.8636 0,-2.9524 -0.666,-5.5818 -1.999,-7.8883 -1.31,-2.3065 -3.636,-4.5668 -6.98,-6.7811 -2.479,-1.6145 -4.221,-3.0561 -5.227,-4.3246 -0.982,-1.2686 -1.473,-2.7563 -1.473,-4.4631 0,-1.7299 0.409,-3.0907 1.228,-4.0825 0.842,-1.0149 2.034,-1.5223 3.578,-1.5223 1.403,0 2.712,0.2537 3.928,0.7611 1.239,0.5075 2.42,1.0841 3.543,1.7299 l 3.156,-7.54224 C 231.63,4.08405 227.854,3 223.925,3 c -4.116,0 -7.401,1.26857 -9.856,3.80572 -2.432,2.53715 -3.648,5.97388 -3.648,10.31008 0,2.2603 0.304,4.2439 0.912,5.9507 0.631,1.7068 1.508,3.2522 2.631,4.6361 1.145,1.3608 2.817,2.7909 5.015,4.2901 2.526,1.7068 4.338,3.2637 5.437,4.6706 1.099,1.3839 1.649,2.9178 1.649,4.6015 0,1.7068 -0.468,3.0561 -1.403,4.0479 -0.912,0.9918 -2.28,1.4877 -4.104,1.4877 -3.204,0 -6.723,-1.234 -10.558,-3.7019 v 9.3067 c 3.133,1.7299 6.933,2.5948 11.4,2.5948 4.559,0 8.044,-1.257 10.452,-3.7711 z m 9.822,-1.3544 c 2.806,3.417 6.632,5.1255 11.478,5.1255 4.151,0 7.71,-0.8889 10.678,-2.6667 v -7.5844 c -3.153,1.8701 -6.237,2.8052 -9.252,2.8052 -2.365,0 -4.22,-0.8312 -5.565,-2.4935 C 247.668,43.3752 247.07,40.9401 247,37.5 h 18.5 v -5.0455 c 0,-5.518 -1.217,-9.8008 -3.652,-12.8484 C 259.413,16.5354 256.086,15 251.865,15 c -4.522,0 -8.046,1.7893 -10.574,5.368 -2.527,3.5786 -3.791,8.5541 -3.791,14.9264 0,6.2799 1.391,11.1399 4.174,14.5801 z m 6.852,-25.6624 c 0.858,-1.4083 1.948,-2.1125 3.27,-2.1125 1.414,0 2.527,0.7272 3.339,2.1818 0.811,1.4545 1.319,3.9019 1.365,6.7186 H 247 c 0.139,-2.9322 0.668,-5.4026 1.526,-6.7879 z M 288,54 286.5,49 H 286 c -1.378,2.2587 -2.705,3.868 -4.176,4.7208 -1.472,0.8528 -3.33,1.2792 -5.572,1.2792 -2.874,0 -5.14,-1.0602 -6.799,-3.1806 C 267.818,49.6989 267,46.7488 267,42.9689 c 0,-4.0565 1.121,-7.0643 3.364,-9.0234 2.266,-1.9821 5.642,-3.0769 10.128,-3.2843 l 5.186,-0.2074 V 27.688 c 0,-3.5955 -1.577,-5.3933 -4.731,-5.3933 -2.336,0 -5.023,0.8989 -8.06,2.6967 l -3.224,-6.3613 C 273.541,16.21 277.694,15 282.25,15 c 4.135,0 7.342,1.1755 9.491,3.5264 2.173,2.3278 3.259,5.6352 3.259,9.9222 V 54 Z m -7.929,-6.191 c 1.706,0 3.061,-0.7491 4.065,-2.2472 1.028,-1.5212 1.542,-3.5379 1.542,-6.0501 v -3.2498 l -2.873,0.1383 c -2.126,0.1152 -3.692,0.7145 -4.696,1.7977 -0.981,1.0833 -1.472,2.6967 -1.472,4.8401 0,3.1807 1.145,4.771 3.434,4.771 z M 318,15.75 C 316.93,15.405 315.337,15 314.222,15 c -1.571,0 -2.949,0.5174 -4.133,1.5523 -1.184,1.0349 -2.087,2.033 -3.089,4.4477 h -0.5 L 305,16 h -7 v 38 h 9.463 V 34 c 0,-3.3576 0.213,-5.5237 1.397,-7.2715 1.184,-1.7708 2.88,-2.6562 5.088,-2.6562 1.025,0 1.915,0.1977 2.552,0.4277 z M 332,55 c -4.557,0 -8.046,-1.522 -10.427,-4.8698 C 319.191,46.7824 318,41.8647 318,35.377 318,28.5891 319.122,23.5213 321.366,20.1735 323.634,16.8257 327.017,15 331.735,15 c 1.419,0 3.017,0.3596 4.574,0.7752 1.557,0.4156 3.454,0.9398 4.691,1.7248 l -3.111,7.2449 c -1.9,-1.1313 -3.584,-1.6969 -5.049,-1.6969 -1.947,0 -3.355,1.0274 -4.226,3.0822 -0.847,2.0318 -1.27,5.0909 -1.27,9.1775 0,3.9942 0.423,6.9841 1.27,8.9697 0.848,1.9625 2.233,2.9437 4.157,2.9437 2.29,0 4.683,-0.8081 7.179,-2.4242 v 8.1039 C 337.546,54.4015 334.908,55 332,55 Z"
       clip-rule="evenodd"
       fill="#b9d9eb"
       fill-rule="evenodd"
       id="path843" />
    <path
       d="m 107.777,48.2625 c 3.149,-4.4917 4.723,-10.9183 4.723,-19.2798 0,-8.3614 -1.563,-14.7765 -4.688,-19.24516 C 104.686,5.24585 100.194,3 94.3368,3 88.4098,3 83.8719,5.23433 80.7231,9.70299 77.5744,14.1486 76,20.5522 76,28.9136 76,37.3442 77.5744,43.8053 80.7231,48.297 83.8719,52.7657 88.3866,55 94.2674,55 100.125,55 104.628,52.7542 107.777,48.2625 Z M 87.8425,42.1468 c -1.4586,-3.0175 -2.1879,-7.4055 -2.1879,-13.1641 0,-5.7816 0.7293,-10.1696 2.1879,-13.1641 1.4586,-3.0175 3.6234,-4.5262 6.4943,-4.5262 5.6492,0 8.4742,5.8967 8.4742,17.6903 0,11.7936 -2.8481,17.6904 -8.5436,17.6904 -2.8246,0 -4.9663,-1.5088 -6.4249,-4.5263 z M 128.186,53.9979 C 129.469,54.7387 130.85,55 132.5,55 c 3.53,0 6.4,-1.6735 8.44,-5.2388 C 142.98,46.196 144,41.2764 144,35.0025 144,28.6359 143.014,23.7164 141.043,20.2437 139.072,16.7479 136.345,15 132.861,15 c -3.621,0 -6.459,2.1569 -8.361,6 H 124 l -1.5,-5 h -7 v 55.5 h 9 V 55 c 0,-0.6482 -0.133,-2.8515 -0.5,-6 h 0.5 c 0.75,2.25 2.425,4.2339 3.686,4.9979 z m -2.304,-28.6147 c 0.803,-1.69 2.097,-2.535 3.885,-2.535 1.673,0 2.899,0.9955 3.679,2.9865 0.802,1.991 1.203,5.0006 1.203,9.0289 0,8.1954 -1.604,12.2931 -4.813,12.2931 -1.857,0 -3.186,-0.9723 -3.988,-2.917 -0.802,-1.9447 -1.203,-5.0469 -1.203,-9.3067 v -1.2154 c 0.046,-3.8894 0.458,-6.6675 1.237,-8.3344 z M 161.652,55 C 156.806,55 152.98,53.2915 150.174,49.8745 147.391,46.4343 146,41.5743 146,35.2944 c 0,-6.3723 1.264,-11.3478 3.791,-14.9264 2.528,-3.5787 6.052,-5.368 10.574,-5.368 4.22,0 7.548,1.5354 9.983,4.6061 2.435,3.0476 3.652,7.3304 3.652,12.8484 V 37.5 h -18.5 c 0.07,3.4401 0.668,5.8752 2.013,7.5606 1.345,1.6623 3.2,2.4935 5.565,2.4935 3.015,0 6.099,-0.9351 9.252,-2.8052 v 7.5844 C 169.362,54.1111 165.803,55 161.652,55 Z m -1.356,-32.9004 c -1.322,0 -2.412,0.7042 -3.27,2.1125 -0.858,1.3853 -1.387,3.8557 -1.526,6.7879 h 9.5 c -0.046,-2.8167 -0.554,-5.2641 -1.365,-6.7186 -0.812,-1.4546 -1.925,-2.1818 -3.339,-2.1818 z M 196.5,31 v 23 h 9 V 29.1991 c 0,-4.6402 -0.877,-8.1668 -2.632,-10.5797 C 201.137,16.2065 198.516,15 195.007,15 c -2.077,0 -3.89,0.5104 -5.437,1.5313 -1.546,0.9976 -2.739,2.6822 -3.57,4.4687 h -0.5 l -1.25,-5 H 177 v 38 h 9.5 V 35.75 c 0,-4.7098 0.173,-7.9198 1.097,-9.8918 0.923,-1.9954 2.377,-2.993 4.363,-2.993 1.5,0 2.586,0.7192 3.255,2.1577 0.67,1.4385 1.285,3.1698 1.285,5.9771 z"
       clip-rule="evenodd"
       fill="#00a3e0"
       fill-rule="evenodd"
       id="path845" />
  </g>
</svg>
