<?xml version="1.0" encoding="UTF-8" standalone="no"?>
<svg
 xmlns="http://www.w3.org/2000/svg"
 viewBox="0 0 99.999998 99.999996"
   version="1.1"
   id="svg855"
   width="100"
   height="100">
  <defs
 id="defs835">
    <style
 id="style833">.cls-1{fill:#188fff;}.cls-2{fill:#464e56;}</style>
  </defs>
  <title
 id="title837">Asset 2</title>
  <path
 class="cls-1"
 d="M 100,22.508197 H 75.557377 C 68.95082,9.8360656 61.967213,0 52.459016,0 40.081967,0 34.262295,10.803279 28.639344,21.311475 l -0.491803,0.918033 H 0 v 6.245902 h 16.393443 c 5.786885,0 6.967213,1.95082 6.967213,1.95082 -4.540984,7.04918 -10,14.016393 -19.0983609,14.016393 H 0 V 51 H 4.295082 C 21.934426,51 29.639344,36.688525 35.819672,25.196721 41.491803,14.606557 45.442623,8.1967213 52.459016,8.1967213 c 7.278689,0 14.934427,15.8360657 21.672132,29.8196717 0.983606,2.032787 1.983606,4.114755 3,6.180328 C 51.295082,45.016393 38.983607,51.065574 28.967213,56 21.639344,59.606557 15.852459,64.081967 6.3278689,64.081967 H 0 v 6.557377 h 6.2786885 c 11.4754095,0 18.6229505,-3.540983 26.2295085,-7.295082 C 43.04918,58.163934 55,52.295082 83.163934,52.295082 H 99.442623 V 45.737705 H 90.245902 A 4.9180328,4.9180328 0 0 1 86.196721,44.098361 C 84.590164,40.983607 83.016393,37.704918 81.47541,34.42623 l -2.131148,-4.360656 c 0,0 1.52459,-1.639344 5.754099,-1.639344 H 100 Z"
 id="path839"
     style="stroke-width:1.63934"/>
  <g
 id="g882"
 transform="matrix(0.64922418,0,0,0.64922418,-45.082127,72.718333)">
    <path
 class="cls-2"
 d="M 79.83,13.7 H 69.44 v 3.74 H 79.6 c 4.2,0 6.61,1.91 6.61,5.33 0,3.24 -2.66,5.33 -6.77,5.33 h -10 v 13 h 4 v -9.3 h 5.93 c 5.42,0 10.88,-2.83 10.88,-9.22 -0.03,-5.4 -4.11,-8.88 -10.42,-8.88 z"
 id="path841"/>
    <path
 class="cls-2"
 d="m 113.31,29.57 c 0,5.31 -2.66,8.24 -7.48,8.24 -4.82,0 -7.6,-3.07 -7.6,-8.43 V 13.7 h -4 v 15.87 c 0,7.39 4.4,12 11.49,12 7.09,0 11.56,-4.57 11.56,-12.23 V 13.7 h -4 z"
 id="path843"/>
    <polygon
 class="cls-2"
 points="127.33,37.39 127.33,13.7 123.36,13.7 123.36,41.14 142.22,41.14 142.22,37.39 "
 id="polygon845"/>
    <path
 class="cls-2"
 d="M 156.69,25.5 C 150.95,24.27 149.9,22.97 149.9,20.76 149.9,18.55 152,17 155,17 a 11.12,11.12 0 0 1 7.32,2.76 l 0.4,0.32 2.36,-3.08 -0.37,-0.3 a 14.22,14.22 0 0 0 -9.61,-3.36 c -5.32,0 -9.18,3.24 -9.18,7.79 0,5.06 3.71,6.91 9.27,8.12 5.56,1.21 6.49,2.44 6.49,4.62 0,2.36 -2.22,4 -5.41,4 -3.37,0 -5.9,-1 -8.74,-3.62 l -0.38,-0.34 -2.49,2.95 0.36,0.32 a 15.91,15.91 0 0 0 11.14,4.36 c 5.61,0 9.52,-3.28 9.52,-8 0.01,-4.28 -2.68,-6.67 -8.99,-8.04 z"
 id="path847"/>
    <path
 class="cls-2"
 d="m 180.19,13.51 -12.5,27.63 h 4.14 l 3.14,-7 h 13.76 l 3.1,7 h 4.29 l -12.5,-27.63 z m -3.61,17 5.29,-11.8 5.26,11.8 z"
 id="path849"/>
    <path
 class="cls-2"
 d="m 215.18,30.15 c 4.29,-1 6.82,-4 6.82,-8.11 a 7.77,7.77 0 0 0 -2.18,-5.56 11,11 0 0 0 -7.87,-2.79 h -11.87 v 27.45 h 4 V 30.85 h 6.82 l 7.67,10.28 h 4.9 z m -11.14,-3 v -9.71 h 7.67 c 4,0 6.28,1.72 6.28,4.8 0,3.08 -2.48,5 -6.31,5 z"
 id="path851"/>
  </g>
</svg>
