<?xml version="1.0" encoding="UTF-8" standalone="no"?>
<svg
   xmlns:dc="http://purl.org/dc/elements/1.1/"
   xmlns:cc="http://creativecommons.org/ns#"
   xmlns:rdf="http://www.w3.org/1999/02/22-rdf-syntax-ns#"
   xmlns:svg="http://www.w3.org/2000/svg"
   xmlns="http://www.w3.org/2000/svg"
   xmlns:sodipodi="http://sodipodi.sourceforge.net/DTD/sodipodi-0.dtd"
   xmlns:inkscape="http://www.inkscape.org/namespaces/inkscape"
   viewBox="0 0 49.999999 49.999998"
   version="1.1"
   id="svg855"
   sodipodi:docname="pulsar.svg"
   width="50"
   height="50"
   inkscape:version="1.0.1 (c497b03c, 2020-09-10)">
  <metadata
     id="metadata859">
    <rdf:RDF>
      <cc:Work
         rdf:about="">
        <dc:format>image/svg+xml</dc:format>
        <dc:type
           rdf:resource="http://purl.org/dc/dcmitype/StillImage" />
        <dc:title>Asset 2</dc:title>
      </cc:Work>
    </rdf:RDF>
  </metadata>
  <sodipodi:namedview
     pagecolor="#ffffff"
     bordercolor="#666666"
     borderopacity="1"
     objecttolerance="10"
     gridtolerance="10"
     guidetolerance="10"
     inkscape:pageopacity="0"
     inkscape:pageshadow="2"
     inkscape:window-width="1791"
     inkscape:window-height="886"
     id="namedview857"
     showgrid="false"
     inkscape:zoom="3.2670963"
     inkscape:cx="111.72"
     inkscape:cy="21.54"
     inkscape:window-x="0"
     inkscape:window-y="25"
     inkscape:window-maximized="0"
     inkscape:current-layer="svg855" />
  <defs
     id="defs835">
    <style
       id="style833">.cls-1{fill:#188fff;}.cls-2{fill:#464e56;}</style>
  </defs>
  <title
     id="title837">Asset 2</title>
  <path
     class="cls-1"
     d="M 50,19.254098 H 37.778689 C 34.47541,12.918033 30.983607,8 26.229508,8 20.040984,8 17.131148,13.401639 14.319672,18.655738 L 14.07377,19.114754 H 0 v 3.122951 h 8.1967213 c 2.8934427,0 3.4836067,0.97541 3.4836067,0.97541 -2.2704919,3.52459 -5.0000001,7.008196 -9.5491805,7.008196 H 0 V 33.5 h 2.147541 c 8.819672,0 12.672131,-7.155738 15.762295,-12.901639 2.836066,-5.295082 4.811475,-8.5 8.319672,-8.5 3.639344,0 7.467213,7.918032 10.836066,14.909836 0.491803,1.016393 0.991803,2.057377 1.5,3.090164 C 25.647541,30.508197 19.491803,33.532787 14.483607,36 10.819672,37.803279 7.9262295,40.040984 3.1639344,40.040984 H 0 v 3.278688 h 3.1393443 c 5.7377049,0 9.3114757,-1.770492 13.1147537,-3.647541 C 21.52459,37.081967 27.5,34.147541 41.581967,34.147541 h 8.139344 v -3.278689 h -4.59836 a 2.4590164,2.4590164 0 0 1 -2.02459,-0.819672 c -0.803279,-1.557377 -1.590164,-3.196721 -2.360656,-4.836065 l -1.065574,-2.180328 c 0,0 0.762295,-0.819672 2.877049,-0.819672 H 50 Z"
     id="path839"
     style="stroke-width:0.819672" />
</svg>
