<svg role="img" viewBox="0 0 24 24" xmlns="http://www.w3.org/2000/svg" id="Pydantic--Streamline-Simple-Icons" height="24" width="24">
  <desc>
    Pydantic Streamline Icon: https://streamlinehq.com
  </desc>
  <title>Pydantic</title>
  <path d="m23.826 17.316 -4.23 -5.866 -6.847 -9.496c-0.348 -0.48 -1.151 -0.48 -1.497 0l-6.845 9.494 -4.233 5.868a0.925 0.925 0 0 0 0.46 1.417l11.078 3.626h0.002a0.92 0.92 0 0 0 0.572 0h0.002l11.077 -3.626c0.28 -0.092 0.5 -0.31 0.59 -0.592a0.916 0.916 0 0 0 -0.13 -0.825h0.002ZM12.001 4.07l4.44 6.158 -4.152 -1.36c-0.032 -0.01 -0.066 -0.008 -0.098 -0.016a0.8 0.8 0 0 0 -0.096 -0.016c-0.032 -0.004 -0.062 -0.016 -0.094 -0.016s-0.062 0.012 -0.094 0.016a0.74 0.74 0 0 0 -0.096 0.016c-0.032 0.006 -0.066 0.006 -0.096 0.016L7.59 10.221l-0.026 0.008 4.44 -6.158h-0.002Zm-6.273 8.7 4.834 -1.583 0.516 -0.168v9.19L2.41 17.372l3.317 -4.6Zm7.197 7.437V11.02l5.35 1.752 3.316 4.598 -8.666 2.838Z" fill="#000000" stroke-width="1"></path>
</svg>