<?xml version="1.0" encoding="UTF-8" standalone="no"?>
<svg
 xmlns="http://www.w3.org/2000/svg"
   viewBox="0 0 60 60"
   fill="none"
   version="1.1"
   id="svg14"
   width="60"
   height="60">
  <path
 d="m 18.261672,59.999992 h 2.043157 l -3.678586,-5.342599 c 2.26282,-0.744744 3.518354,-2.481729 3.518354,-5.080059 0,-3.342322 -2.262819,-5.254583 -6.174608,-5.254583 H 8 v 15.677241 h 1.795661 v -4.948411 h 4.160035 c 0.364849,0 0.714653,-0.03008 1.050918,-0.04439 z M 9.794909,53.313845 v -7.269156 h 4.160035 c 2.845825,0 4.451915,1.21115 4.451915,3.575524 0,2.437346 -1.60609,3.693632 -4.451915,3.693632 z m 24.536689,2.714932 1.752029,3.955418 h 1.94085 L 31.018614,44.306952 h -1.854339 l -7.035198,15.677243 h 1.897216 l 1.752031,-3.955418 z M 33.57256,54.306084 h -7.035199 l 3.503307,-7.955221 z m 11.663147,0.306173 5.956448,-10.3038 h -1.839292 l -5.021381,8.174133 -5.079307,-8.174885 h -1.854338 l 6.072299,10.363981 v 5.313261 h 1.766323 v -5.371185 z"
 fill="#2a2a2a"
     id="path10"
     style="stroke-width:0.752267"/>
  <path
 d="m 24.038572,19.703205 a 5.8483254,5.8483254 0 0 1 1.509496,-2.66107 5.7189678,5.7189678 0 0 1 4.057744,-1.679703 c 1.585361,0 3.018993,0.641924 4.057743,1.679703 a 5.8463802,5.8463802 0 0 1 1.509497,2.66107 h 4.226979 a 5.5886376,5.5886376 0 0 1 0.641925,-1.5484 l -7.492043,-7.492043 a 5.7909413,5.7909413 0 0 1 -2.944101,0.812133 5.7189678,5.7189678 0 0 1 -4.057744,-1.6797037 5.7189678,5.7189678 0 0 1 -1.679703,-4.057744 c 0,-1.5853602 0.641925,-3.0199651 1.679703,-4.0577439 A 5.7189678,5.7189678 0 0 1 29.605812,-2.0673022e-7 c 1.585361,0 3.018993,0.64192496673022 4.057743,1.67970360673022 a 5.7189678,5.7189678 0 0 1 1.679705,4.0577439 5.7384201,5.7384201 0 0 1 -0.812133,2.9441013 l 7.492043,7.4920424 a 5.7909413,5.7909413 0 0 1 2.945074,-0.811159 c 1.585359,0 3.018992,0.641924 4.05677,1.679703 a 5.7189678,5.7189678 0 0 1 1.679704,4.056771 5.7189678,5.7189678 0 0 1 -1.679704,4.057744 5.7189678,5.7189678 0 0 1 -4.057743,1.679704 5.7384201,5.7384201 0 0 1 -2.943128,-0.81116 l -7.493016,7.511495 c 0.509649,0.867571 0.812133,1.867418 0.812133,2.943128 a 5.7189678,5.7189678 0 0 1 -1.679705,4.057744 5.7189678,5.7189678 0 0 1 -4.057743,1.679703 5.7189678,5.7189678 0 0 1 -4.057744,-1.679703 5.7189678,5.7189678 0 0 1 -1.679703,-4.057744 c 0,-1.58536 0.641925,-3.018993 1.679703,-4.056771 a 5.7189678,5.7189678 0 0 1 4.057744,-1.679704 5.7384201,5.7384201 0 0 1 2.944101,0.81116 l 7.492043,-7.492043 a 5.5886376,5.5886376 0 0 1 -0.641925,-1.547427 h -4.226979 a 5.8463802,5.8463802 0 0 1 -1.509497,2.661071 5.7189678,5.7189678 0 0 1 -4.057743,1.679703 5.7189678,5.7189678 0 0 1 -4.057744,-1.679703 5.8483254,5.8483254 0 0 1 -1.509496,-2.661071 H 19.81062 a 5.8483254,5.8483254 0 0 1 -1.509496,2.661071 5.7189678,5.7189678 0 0 1 -4.057743,1.679703 5.7189678,5.7189678 0 0 1 -4.057744,-1.679703 5.6576932,5.6576932 0 0 1 -1.698183,-4.057745 c 0,-1.585359 0.641925,-3.019965 1.679704,-4.057743 a 5.7189678,5.7189678 0 0 1 4.057743,-1.679704 c 1.58536,0 3.018992,0.641925 4.057744,1.679704 a 5.8492981,5.8492981 0 0 1 1.509496,2.66107 h 4.246431 v -0.01945 z m 3.491683,18.853143 c 0.528129,0.528128 1.264397,0.86757 2.075557,0.86757 0.81116,0 1.546456,-0.320962 2.075557,-0.86757 0.52813,-0.52813 0.868544,-1.264398 0.868544,-2.076531 0,-0.811159 -0.320962,-1.546456 -0.868544,-2.075557 a 2.9392382,2.9392382 0 0 0 -2.075557,-0.867571 c -0.812133,0 -1.547428,0.320962 -2.07653,0.867571 a 2.9392382,2.9392382 0 0 0 -0.867571,2.07653 c 0,0.81116 0.320962,1.546455 0.867571,2.075558 z M 47.043801,23.193916 c 0.528129,-0.528129 0.867571,-1.264398 0.867571,-2.075558 0,-0.812132 -0.320962,-1.547427 -0.867571,-2.07653 a 2.9392382,2.9392382 0 0 0 -2.07653,-0.867571 c -0.81116,0 -1.546456,0.320963 -2.075557,0.867571 a 2.9392382,2.9392382 0 0 0 -0.867571,2.07653 c 0,0.81116 0.320962,1.546456 0.867571,2.075558 0.528128,0.528129 1.264397,0.868543 2.07653,0.868543 a 3.0209377,3.0209377 0 0 0 2.075557,-0.868543 z M 31.681369,3.6609173 A 2.9392382,2.9392382 0 0 0 29.605812,2.793346 c -0.812133,0 -1.547428,0.3209625 -2.07653,0.8675713 a 2.9392382,2.9392382 0 0 0 -0.867571,2.07653 c 0,0.8111597 0.320962,1.5464556 0.867571,2.0755574 0.529102,0.5281291 1.264397,0.8685439 2.07653,0.8685439 0.81116,0 1.546456,-0.3209625 2.075557,-0.8685439 0.52813,-0.5281292 0.868544,-1.2643977 0.868544,-2.0755574 a 3.0209377,3.0209377 0 0 0 -0.868544,-2.07653 z M 12.148372,19.041828 a 2.9392382,2.9392382 0 0 0 -0.867572,2.07653 c 0,0.81116 0.320963,1.546456 0.867572,2.075558 0.529101,0.528129 1.264397,0.868543 2.076529,0.868543 0.811159,0 1.546455,-0.320962 2.075557,-0.868543 0.528129,-0.547581 0.868544,-1.264398 0.868544,-2.075558 0,-0.812132 -0.320962,-1.547427 -0.868544,-2.07653 -0.547581,-0.528128 -1.264398,-0.867571 -2.075557,-0.867571 -0.812132,0 -1.547428,0.320963 -2.076529,0.867571 z m 15.38091,0 a 2.9392382,2.9392382 0 0 0 -0.867571,2.07653 c 0,0.81116 0.320962,1.546456 0.867571,2.075558 0.529102,0.528129 1.264397,0.868543 2.07653,0.868543 0.81116,0 1.546456,-0.320962 2.075557,-0.868543 0.52813,-0.528129 0.868544,-1.264398 0.868544,-2.075558 0,-0.812132 -0.320962,-1.547427 -0.868544,-2.07653 a 2.9392382,2.9392382 0 0 0 -2.075557,-0.867571 c -0.812133,0 -1.547428,0.320963 -2.07653,0.867571 z"
 fill="#028cf0"
     id="path12"
     style="stroke-width:0.972613"/>
</svg>
