<?xml version="1.0" encoding="UTF-8" standalone="no"?>
<svg
 xmlns="http://www.w3.org/2000/svg"
   viewBox="0 0 1600 1600"
   fill="none"
   version="1.1"
   id="svg14"
   width="40"
   height="40">
  <path
 d="M 589.37519,746.73519 A 221.64661,221.64661 0 0 1 646.58383,645.88285 216.74407,216.74407 0 0 1 800.3689,582.22349 c 60.08382,0 114.41728,24.32842 153.78508,63.65936 a 221.57289,221.57289 0 0 1 57.20862,100.85234 h 160.1989 A 211.80466,211.80466 0 0 1 1195.89,688.0521 L 911.94786,404.11 A 219.4718,219.4718 0 0 1 800.3689,434.88913 216.74407,216.74407 0 0 1 646.58383,371.22978 216.74407,216.74407 0 0 1 582.92447,217.4447 c 0,-60.08381 24.32842,-114.45414 63.65936,-153.785075 A 216.74407,216.74407 0 0 1 800.3689,2.707232e-4 c 60.08382,0 114.41728,24.3284162768 153.78508,63.6593542768 A 216.74407,216.74407 0 0 1 1017.8133,217.4447 217.48129,217.48129 0 0 1 987.0342,329.02366 l 283.9421,283.94211 a 219.4718,219.4718 0 0 1 111.6158,-30.74228 c 60.0838,0 114.4173,24.32842 153.7482,63.65936 a 216.74407,216.74407 0 0 1 63.6594,153.74822 216.74407,216.74407 0 0 1 -63.6594,153.78507 216.74407,216.74407 0 0 1 -153.785,63.65936 217.48129,217.48129 0 0 1 -111.5421,-30.74227 l -283.979,284.67937 c 19.3153,32.8802 30.7791,70.7735 30.7791,111.5421 a 216.74407,216.74407 0 0 1 -63.65932,153.785 216.74407,216.74407 0 0 1 -153.78508,63.6594 216.74407,216.74407 0 0 1 -153.78507,-63.6594 216.74407,216.74407 0 0 1 -63.65936,-153.785 c 0,-60.0839 24.32842,-114.4173 63.65936,-153.7483 a 216.74407,216.74407 0 0 1 153.78507,-63.6593 217.48129,217.48129 0 0 1 111.57896,30.7423 L 1195.89,911.94725 a 211.80466,211.80466 0 0 1 -24.3285,-58.64622 H 1011.3626 A 221.57289,221.57289 0 0 1 954.15398,954.15337 216.74407,216.74407 0 0 1 800.3689,1017.8127 216.74407,216.74407 0 0 1 646.58383,954.15337 221.64661,221.64661 0 0 1 589.37519,853.30103 H 429.13939 A 221.64661,221.64661 0 0 1 371.93076,954.15337 216.74407,216.74407 0 0 1 218.14568,1017.8127 216.74407,216.74407 0 0 1 64.360601,954.15337 214.42181,214.42181 0 0 1 8.8298459e-4,800.36829 C 8.8298459e-4,740.28448 24.329299,685.91415 63.660238,646.58321 A 216.74407,216.74407 0 0 1 217.44531,582.92386 c 60.08382,0 114.41728,24.32841 153.78508,63.65935 a 221.68347,221.68347 0 0 1 57.20864,100.85235 h 160.93616 v -0.73723 z m 132.33183,714.51821 c 20.01566,20.0156 47.91961,32.8802 78.66188,32.8802 30.74227,0 58.60937,-12.1642 78.66188,-32.8802 20.01565,-20.0157 32.91708,-47.9196 32.91708,-78.6987 0,-30.7423 -12.1642,-58.6094 -32.91708,-78.6619 a 111.39466,111.39466 0 0 0 -78.66188,-32.8802 c -30.77913,0 -58.64622,12.1642 -78.69874,32.8802 a 111.39466,111.39466 0 0 0 -32.88022,78.6987 c 0,30.7423 12.16421,58.6094 32.88022,78.6619 z M 1461.254,879.03017 c 20.0157,-20.01565 32.8802,-47.91961 32.8802,-78.66188 0,-30.77913 -12.1642,-58.64623 -32.8802,-78.69874 a 111.39466,111.39466 0 0 0 -78.6987,-32.88022 c -30.7423,0 -58.6094,12.16421 -78.6619,32.88022 a 111.39466,111.39466 0 0 0 -32.8802,78.69874 c 0,30.74227 12.1642,58.60937 32.8802,78.66188 20.0156,20.01565 47.9196,32.91708 78.6987,32.91708 a 114.491,114.491 0 0 0 78.6619,-32.91708 z M 879.03078,138.74596 A 111.39466,111.39466 0 0 0 800.3689,105.86574 c -30.77913,0 -58.64622,12.16421 -78.69874,32.88022 a 111.39466,111.39466 0 0 0 -32.88022,78.69874 c 0,30.74227 12.16421,58.60937 32.88022,78.66188 20.05252,20.01565 47.91961,32.91708 78.69874,32.91708 30.74227,0 58.60937,-12.1642 78.66188,-32.91708 20.01565,-20.01565 32.91708,-47.91961 32.91708,-78.66188 a 114.491,114.491 0 0 0 -32.91708,-78.69874 z m -740.2842,582.92359 a 111.39466,111.39466 0 0 0 -32.88023,78.69874 c 0,30.74227 12.16421,58.60937 32.88023,78.66188 20.05251,20.01565 47.9196,32.91708 78.69873,32.91708 30.74228,0 58.60937,-12.16421 78.66188,-32.91708 20.01565,-20.75288 32.91709,-47.91961 32.91709,-78.66188 0,-30.77913 -12.16421,-58.64623 -32.91709,-78.69874 -20.75287,-20.01565 -47.9196,-32.88022 -78.66188,-32.88022 -30.77913,0 -58.64622,12.16421 -78.69873,32.88022 z m 582.92358,0 a 111.39466,111.39466 0 0 0 -32.88022,78.69874 c 0,30.74227 12.16421,58.60937 32.88022,78.66188 20.05252,20.01565 47.91961,32.91708 78.69874,32.91708 30.74227,0 58.60937,-12.16421 78.66188,-32.91708 20.01565,-20.01565 32.91708,-47.91961 32.91708,-78.66188 0,-30.77913 -12.1642,-58.64623 -32.91708,-78.69874 A 111.39466,111.39466 0 0 0 800.3689,688.78933 c -30.77913,0 -58.64622,12.16421 -78.69874,32.88022 z"
 fill="#028cf0"
     id="path12"
     style="stroke-width:36.8612"/>
</svg>
