<svg width="20" height="20" viewBox="0 0 20 20" fill="currentColor" xmlns="http://www.w3.org/2000/svg">
<path d="M10 0C10.2925 0.000408042 10.5849 0.0133365 10.8763 0.03875C11.805 0.11875 12.4875 0.80625 12.7 1.6125L13.06 2.99625C13.0825 3.07875 13.1588 3.19375 13.325 3.27625C13.6138 3.41875 13.8925 3.58 14.16 3.75875C14.3138 3.86125 14.4513 3.87125 14.5338 3.8475L15.9125 3.46875C16.7175 3.24875 17.6525 3.495 18.1875 4.25625C18.525 4.7375 18.82 5.24625 19.0675 5.77875C19.4613 6.6225 19.2063 7.55625 18.6125 8.1425L17.595 9.15C17.5338 9.21 17.4725 9.33375 17.485 9.5175C17.505 9.83875 17.505 10.1612 17.485 10.4825C17.4725 10.6662 17.5325 10.79 17.595 10.85L18.6125 11.8575C19.2063 12.4438 19.4613 13.3775 19.0675 14.2212C18.8195 14.7532 18.5251 15.2623 18.1875 15.7425C17.6525 16.505 16.7175 16.7512 15.9125 16.53L14.535 16.1525C14.4513 16.1287 14.3138 16.1388 14.16 16.2413C13.8925 16.4201 13.6136 16.5813 13.325 16.7237C13.1588 16.8062 13.0825 16.9212 13.0613 17.0037L12.6988 18.3862C12.4888 19.1937 11.805 19.8812 10.8763 19.9612C10.2932 20.0125 9.70681 20.0125 9.12377 19.9612C8.19502 19.8812 7.51252 19.1937 7.30127 18.3862L6.94002 17.0037C6.91752 16.9212 6.84127 16.8062 6.67502 16.7237C6.38618 16.5818 6.10721 16.4206 5.84002 16.2413C5.68627 16.1388 5.54877 16.1287 5.46627 16.1525L4.08752 16.5313C3.28252 16.7513 2.34752 16.505 1.81252 15.7438C1.47569 15.2627 1.18126 14.7533 0.932521 14.2212C0.538771 13.3775 0.793771 12.4438 1.38627 11.8575L2.40502 10.85C2.46752 10.79 2.52752 10.6662 2.51502 10.4825C2.49502 10.1611 2.49502 9.83886 2.51502 9.5175C2.52752 9.33375 2.46752 9.21 2.40502 9.15L1.38627 8.1425C0.793771 7.55625 0.538771 6.6225 0.932521 5.77875C1.18018 5.24658 1.47467 4.73749 1.81252 4.2575C2.34752 3.495 3.28252 3.24875 4.08752 3.47L5.46502 3.8475C5.54877 3.87125 5.68627 3.86125 5.84002 3.75875C6.10752 3.58 6.38627 3.41875 6.67502 3.27625C6.84127 3.19375 6.91752 3.07875 6.93877 2.99625L7.30127 1.61375C7.51127 0.80625 8.19502 0.11875 9.12377 0.0375C9.41252 0.0125 9.70502 0 10 0ZM9.28627 1.90625C9.24127 1.91 9.15127 1.95125 9.11502 2.08875L8.75377 3.47C8.57002 4.17125 8.06752 4.67875 7.50627 4.95625C7.29002 5.06375 7.08127 5.185 6.88127 5.31875C6.36002 5.66625 5.66877 5.8475 4.97002 5.65625L3.59127 5.2775C3.45502 5.24 3.37252 5.2975 3.34752 5.33375C3.07252 5.72375 2.83252 6.13875 2.63127 6.57125C2.61377 6.61 2.60502 6.70875 2.70502 6.80875L3.72377 7.81625C4.23752 8.32375 4.42627 9.0125 4.38627 9.63625C4.37127 9.87852 4.37127 10.1215 4.38627 10.3638C4.42627 10.9875 4.23752 11.6762 3.72377 12.1837L2.70502 13.1913C2.60377 13.2913 2.61377 13.39 2.63127 13.4288C2.83377 13.8613 3.07252 14.275 3.34752 14.665C3.37252 14.7025 3.45377 14.76 3.59127 14.7225L4.96877 14.3438C5.66877 14.1525 6.36002 14.3337 6.88127 14.6812C7.08252 14.815 7.29127 14.9362 7.50752 15.0437C8.06627 15.3212 8.57002 15.83 8.75377 16.53L9.11502 17.9113C9.15127 18.0475 9.24127 18.09 9.28627 18.0938C9.76121 18.135 10.2388 18.135 10.7138 18.0938C10.7588 18.09 10.8488 18.0488 10.885 17.9113L11.2463 16.53C11.43 15.8287 11.9325 15.3212 12.4938 15.0437C12.71 14.9362 12.9188 14.815 13.1188 14.6812C13.64 14.3337 14.3313 14.1525 15.03 14.3438L16.4088 14.7225C16.545 14.7587 16.6275 14.7025 16.6525 14.6662C16.9275 14.275 17.1663 13.8613 17.3688 13.4288C17.3863 13.39 17.395 13.2913 17.295 13.1913L16.2763 12.1837C15.7625 11.6762 15.5738 10.9875 15.6138 10.3638C15.6288 10.1215 15.6288 9.87852 15.6138 9.63625C15.5738 9.0125 15.7625 8.32375 16.2763 7.81625L17.295 6.80875C17.3963 6.70875 17.3863 6.61 17.3688 6.57125C17.167 6.13883 16.9273 5.72513 16.6525 5.335C16.6275 5.2975 16.5463 5.24 16.4088 5.2775L15.0313 5.65625C14.3313 5.8475 13.64 5.66625 13.1188 5.31875C12.9181 5.18442 12.7089 5.06333 12.4925 4.95625C11.9338 4.67875 11.43 4.17 11.2463 3.47L10.885 2.08875C10.8488 1.95125 10.7588 1.91 10.7138 1.90625C10.2388 1.86501 9.76121 1.86501 9.28627 1.90625ZM13.75 10C13.75 10.9946 13.3549 11.9484 12.6517 12.6517C11.9484 13.3549 10.9946 13.75 10 13.75C9.00546 13.75 8.05163 13.3549 7.34837 12.6517C6.64511 11.9484 6.25002 10.9946 6.25002 10C6.25002 9.00544 6.64511 8.05161 7.34837 7.34835C8.05163 6.64509 9.00546 6.25 10 6.25C10.9946 6.25 11.9484 6.64509 12.6517 7.34835C13.3549 8.05161 13.75 9.00544 13.75 10ZM11.875 10C11.8749 9.50255 11.6771 9.02555 11.3252 8.67392C10.9734 8.32229 10.4962 8.12483 9.99877 8.125C9.50132 8.12517 9.02432 8.32293 8.67269 8.6748C8.32106 9.02666 8.12361 9.5038 8.12377 10.0013C8.12394 10.4987 8.32171 10.9757 8.67357 11.3273C8.8478 11.5014 9.05461 11.6395 9.2822 11.7337C9.5098 11.8279 9.75371 11.8763 10 11.8763C10.2463 11.8762 10.4902 11.8276 10.7177 11.7332C10.9453 11.6389 11.152 11.5007 11.3261 11.3265C11.5002 11.1522 11.6383 10.9454 11.7325 10.7178C11.8267 10.4902 11.8751 10.2463 11.875 10Z"/>
</svg>
