<?xml version="1.0" encoding="UTF-8" standalone="no"?>
<svg
 xmlns="http://www.w3.org/2000/svg"
 version="1.1"
   id="svg10"
   width="258.66666"
   height="258.66666"
   viewBox="0 0 258.66666 258.66666"><g
 id="g18"
 transform="matrix(1.3333333,0,0,-1.3333333,0,258.66667)"><g
 id="g20"
 transform="scale(0.1)"><path
 d="M 2.59766,1933.23 H 1930.16 V 5.66797 H 2.59766 V 1933.23"
 style="fill:#231f20;fill-opacity:1;fill-rule:evenodd;stroke:none"
 id="path22"/><path
 d="M 704.348,1263.37 580.727,1140.41 V 792.156 l 117.3,-116.633 129.989,129.989 -58.727,57.523 -76.816,-76.824 -31.496,30.594 v 368.255 l 108.339,-109.84 61.543,60.32 -126.511,127.83"
 style="fill:#e22739;fill-opacity:1;fill-rule:evenodd;stroke:none"
 id="path24"/><path
 d="m 980.672,982.793 59.918,162.837 H 948.957 L 842.758,901.84 h 85.187 L 854.129,689.449 1064.61,982.793 h -83.938"
 style="fill:#e22739;fill-opacity:1;fill-rule:evenodd;stroke:none"
 id="path26"/><path
 d="m 1391.12,1157.37 -106.05,107.4 h -120.54 l -67.3,-67.95 37.4,-37.41 V 778.801 l -36.76,-36.77 66.72,-69.289 h 120.48 l 106.05,107.399 z M 1214.88,735.371 v 466.669 l 95.99,-91.89 V 828.07 l -95.99,-92.699"
 style="fill:#e22739;fill-opacity:1;fill-rule:evenodd;stroke:none"
 id="path28"/><path
 d="M 520.012,786.555 V 1140.43 L 397.758,1262.69 264.234,1129.84 V 786.555 l -35.285,-35.293 75.086,-75.703 75.723,75.722 -35.266,35.274 v 87.797 h 95.274 v -87.797 l -35.289,-35.293 75.086,-75.703 75.722,75.722 z M 344.492,958.129 V 1184.9 l 95.274,-95.27 V 958.129 h -95.274"
 style="fill:#e22739;fill-opacity:1;fill-rule:evenodd;stroke:none"
 id="path30"/><path
 d="m 419.504,978.379 20.262,-20.25 h -95.274 l 20.258,20.25 h 54.754"
 style="fill:#fde6b8;fill-opacity:1;fill-rule:evenodd;stroke:none"
 id="path32"/><path
 d="m 419.504,978.379 20.262,-20.25 v 131.501 l -20.262,-8.4 V 978.379"
 style="fill:#f89f76;fill-opacity:1;fill-rule:evenodd;stroke:none"
 id="path34"/><path
 d="m 419.504,1081.23 20.262,8.4 -95.274,95.27 20.258,-48.9 54.754,-54.77"
 style="fill:#6e3407;fill-opacity:1;fill-rule:evenodd;stroke:none"
 id="path36"/><path
 d="m 364.75,978.379 -20.258,-20.25 V 1184.9 L 364.75,1136 V 978.379"
 style="fill:#f89f76;fill-opacity:1;fill-rule:evenodd;stroke:none"
 id="path38"/><path
 d="m 583.934,751.281 h -28.649 l -35.273,35.274 20.261,8.386 43.661,-43.66"
 style="fill:#fde6b8;fill-opacity:1;fill-rule:evenodd;stroke:none"
 id="path40"/><path
 d="M 583.934,751.281 H 555.285 L 479.563,675.559 479.5,646.848 583.934,751.281"
 style="fill:#ed1b29;fill-opacity:1;fill-rule:evenodd;stroke:none"
 id="path42"/><path
 d="m 419.504,794.941 20.262,-8.386 v 87.797 l -20.262,-20.258 v -59.153"
 style="fill:#f89f76;fill-opacity:1;fill-rule:evenodd;stroke:none"
 id="path44"/><path
 d="m 419.504,854.094 20.262,20.258 h -95.274 l 20.258,-20.258 h 54.754"
 style="fill:#6e3407;fill-opacity:1;fill-rule:evenodd;stroke:none"
 id="path46"/><path
 d="m 364.75,794.941 -20.258,-8.386 v 87.797 l 20.258,-20.258 v -59.153"
 style="fill:#f89f76;fill-opacity:1;fill-rule:evenodd;stroke:none"
 id="path48"/><path
 d="m 303.973,646.848 0.062,28.711 -75.086,75.703 -28.59,0.058 103.614,-104.472"
 style="fill:#6e3407;fill-opacity:1;fill-rule:evenodd;stroke:none"
 id="path50"/><path
 d="m 200.359,751.32 28.59,-0.058 35.285,35.293 -20.254,8.386 -43.621,-43.621"
 style="fill:#f89f76;fill-opacity:1;fill-rule:evenodd;stroke:none"
 id="path52"/><path
 d="m 243.98,794.941 20.254,-8.386 v 343.285 l -20.254,8.42 V 794.941"
 style="fill:#f89f76;fill-opacity:1;fill-rule:evenodd;stroke:none"
 id="path54"/><path
 d="m 520.012,786.555 20.261,8.386 v 353.869 l -20.261,-8.38 V 786.555"
 style="fill:#f89f76;fill-opacity:1;fill-rule:evenodd;stroke:none"
 id="path56"/><path
 d="m 1235.14,783.102 -20.26,-47.731 95.99,92.699 -20.26,8.606 -55.47,-53.574"
 style="fill:#f89f76;fill-opacity:1;fill-rule:evenodd;stroke:none"
 id="path58"/><path
 d="m 1290.61,836.676 20.26,-8.606 v 282.08 l -20.26,-8.65 V 836.676"
 style="fill:#f89f76;fill-opacity:1;fill-rule:evenodd;stroke:none"
 id="path60"/><path
 d="m 1290.61,1101.5 20.26,8.65 -95.99,91.89 20.26,-47.44 55.47,-53.1"
 style="fill:#6e3407;fill-opacity:1;fill-rule:evenodd;stroke:none"
 id="path62"/><path
 d="m 1235.14,783.102 -20.26,-47.731 v 466.669 l 20.26,-47.44 V 783.102"
 style="fill:#f89f76;fill-opacity:1;fill-rule:evenodd;stroke:none"
 id="path64"/><path
 d="m 1411.37,771.82 -20.25,8.321 v 377.229 l 20.25,8.32 V 771.82"
 style="fill:#f89f76;fill-opacity:1;fill-rule:evenodd;stroke:none"
 id="path66"/><path
 d="m 1293.54,652.48 -8.47,20.262 106.05,107.399 20.25,-8.321 -117.83,-119.34"
 style="fill:#ed1b29;fill-opacity:1;fill-rule:evenodd;stroke:none"
 id="path68"/><path
 d="m 1155.97,652.48 8.62,20.262 h 120.48 l 8.47,-20.262 h -137.57"
 style="fill:#6e3407;fill-opacity:1;fill-rule:evenodd;stroke:none"
 id="path70"/><path
 d="m 1155.97,652.48 8.62,20.262 -66.72,69.289 -28.39,0.262 86.49,-89.813"
 style="fill:#6e3407;fill-opacity:1;fill-rule:evenodd;stroke:none"
 id="path72"/><path
 d="m 1114.38,787.191 20.25,-8.39 -36.76,-36.77 -28.39,0.262 44.9,44.898"
 style="fill:#f89f76;fill-opacity:1;fill-rule:evenodd;stroke:none"
 id="path74"/><path
 d="m 1114.38,787.191 20.25,-8.39 v 380.609 l -20.25,-8.39 V 787.191"
 style="fill:#f89f76;fill-opacity:1;fill-rule:evenodd;stroke:none"
 id="path76"/><path
 d="m 1114.38,1151.02 20.25,8.39 -37.4,37.41 -28.59,-0.07 45.74,-45.73"
 style="fill:#6e3407;fill-opacity:1;fill-rule:evenodd;stroke:none"
 id="path78"/><path
 d="m 1068.64,1196.75 28.59,0.07 67.3,67.95 -8.44,20.25 -87.45,-88.27"
 style="fill:#f89f76;fill-opacity:1;fill-rule:evenodd;stroke:none"
 id="path80"/><path
 d="m 1293.54,1285.02 -8.47,-20.25 h -120.54 l -8.44,20.25 h 137.45"
 style="fill:#fde6b8;fill-opacity:1;fill-rule:evenodd;stroke:none"
 id="path82"/><path
 d="m 1411.37,1165.69 -20.25,-8.32 -106.05,107.4 8.47,20.25 117.83,-119.33"
 style="fill:#fde6b8;fill-opacity:1;fill-rule:evenodd;stroke:none"
 id="path84"/><path
 d="m 1103.19,1003.05 -38.58,-20.257 h -83.938 l 29.038,20.257 h 93.48"
 style="fill:#fde6b8;fill-opacity:1;fill-rule:evenodd;stroke:none"
 id="path86"/><path
 d="m 899.457,881.582 28.488,20.258 h -85.187 l -30.922,-20.258 h 87.621"
 style="fill:#6e3407;fill-opacity:1;fill-rule:evenodd;stroke:none"
 id="path88"/><path
 d="m 1069.63,1165.89 -29.04,-20.26 h -91.633 l -13.273,20.26 h 133.946"
 style="fill:#fde6b8;fill-opacity:1;fill-rule:evenodd;stroke:none"
 id="path90"/><path
 d="m 1009.71,1003.05 -29.038,-20.257 59.918,162.837 29.04,20.26 -59.92,-162.84"
 style="fill:#ed1b29;fill-opacity:1;fill-rule:evenodd;stroke:none"
 id="path92"/><path
 d="m 859.578,1135.32 -28.719,0.22 -126.511,127.83 0.113,28.68 155.117,-156.73"
 style="fill:#fde6b8;fill-opacity:1;fill-rule:evenodd;stroke:none"
 id="path94"/><path
 d="m 859.578,1135.32 -28.719,0.22 -61.543,-60.32 -0.238,-28.61 90.5,88.71"
 style="fill:#ed1b29;fill-opacity:1;fill-rule:evenodd;stroke:none"
 id="path96"/><path
 d="m 769.078,1046.61 0.238,28.61 -108.339,109.84 20.257,-49.38 87.844,-89.07"
 style="fill:#6e3407;fill-opacity:1;fill-rule:evenodd;stroke:none"
 id="path98"/><path
 d="m 681.234,825.371 -20.257,-8.566 v 368.255 l 20.257,-49.38 V 825.371"
 style="fill:#f89f76;fill-opacity:1;fill-rule:evenodd;stroke:none"
 id="path100"/><path
 d="m 692.262,814.656 0.211,-28.445 -31.496,30.594 20.257,8.566 11.028,-10.715"
 style="fill:#fde6b8;fill-opacity:1;fill-rule:evenodd;stroke:none"
 id="path102"/><path
 d="m 692.262,814.656 0.211,-28.445 76.816,76.824 -0.152,28.496 -76.875,-76.875"
 style="fill:#f89f76;fill-opacity:1;fill-rule:evenodd;stroke:none"
 id="path104"/><path
 d="m 856.816,805.66 -28.8,-0.148 -58.727,57.523 -0.152,28.496 87.679,-85.871"
 style="fill:#fde6b8;fill-opacity:1;fill-rule:evenodd;stroke:none"
 id="path106"/><path
 d="m 856.816,805.66 -28.8,-0.148 -129.989,-129.989 0.039,-28.609 158.75,158.746"
 style="fill:#ed1b29;fill-opacity:1;fill-rule:evenodd;stroke:none"
 id="path108"/><path
 d="m 698.066,646.914 -0.039,28.609 -117.3,116.633 -20.254,-8.422 137.593,-136.82"
 style="fill:#6e3407;fill-opacity:1;fill-rule:evenodd;stroke:none"
 id="path110"/><path
 d="m 560.473,783.734 20.254,8.422 v 348.254 l -20.254,8.43 V 783.734"
 style="fill:#f89f76;fill-opacity:1;fill-rule:evenodd;stroke:none"
 id="path112"/><path
 d="m 704.461,1292.05 -0.113,-28.68 -123.621,-122.96 -20.254,8.43 143.988,143.21"
 style="fill:#f89f76;fill-opacity:1;fill-rule:evenodd;stroke:none"
 id="path114"/><path
 d="M 1577.16,1263.37 1453.54,1140.41 V 792.156 l 117.31,-116.633 129.99,129.989 -58.73,57.523 -76.82,-76.824 -31.5,30.594 v 368.255 l 108.35,-109.84 61.54,60.32 -126.52,127.83"
 style="fill:#e22739;fill-opacity:1;fill-rule:evenodd;stroke:none"
 id="path116"/><path
 d="m 1732.4,1135.32 -28.72,0.22 -126.52,127.83 0.12,28.68 155.12,-156.73"
 style="fill:#fde6b8;fill-opacity:1;fill-rule:evenodd;stroke:none"
 id="path118"/><path
 d="m 1732.4,1135.32 -28.72,0.22 -61.54,-60.32 -0.25,-28.61 90.51,88.71"
 style="fill:#ed1b29;fill-opacity:1;fill-rule:evenodd;stroke:none"
 id="path120"/><path
 d="m 1641.89,1046.61 0.25,28.61 -108.35,109.84 20.26,-49.38 87.84,-89.07"
 style="fill:#6e3407;fill-opacity:1;fill-rule:evenodd;stroke:none"
 id="path122"/><path
 d="m 1554.05,825.371 -20.26,-8.566 v 368.255 l 20.26,-49.38 V 825.371"
 style="fill:#f89f76;fill-opacity:1;fill-rule:evenodd;stroke:none"
 id="path124"/><path
 d="m 1565.08,814.656 0.21,-28.445 -31.5,30.594 20.26,8.566 11.03,-10.715"
 style="fill:#fde6b8;fill-opacity:1;fill-rule:evenodd;stroke:none"
 id="path126"/><path
 d="m 1565.08,814.656 0.21,-28.445 76.82,76.824 -0.16,28.496 -76.87,-76.875"
 style="fill:#f89f76;fill-opacity:1;fill-rule:evenodd;stroke:none"
 id="path128"/><path
 d="m 1729.63,805.66 -28.79,-0.148 -58.73,57.523 -0.16,28.496 87.68,-85.871"
 style="fill:#fde6b8;fill-opacity:1;fill-rule:evenodd;stroke:none"
 id="path130"/><path
 d="m 1729.63,805.66 -28.79,-0.148 -129.99,-129.989 0.03,-28.609 158.75,158.746"
 style="fill:#ed1b29;fill-opacity:1;fill-rule:evenodd;stroke:none"
 id="path132"/><path
 d="m 1570.88,646.914 -0.03,28.609 -117.31,116.633 -20.25,-8.422 137.59,-136.82"
 style="fill:#6e3407;fill-opacity:1;fill-rule:evenodd;stroke:none"
 id="path134"/><path
 d="m 1433.29,783.734 20.25,8.422 v 348.254 l -20.25,8.43 V 783.734"
 style="fill:#f89f76;fill-opacity:1;fill-rule:evenodd;stroke:none"
 id="path136"/><path
 d="m 1577.28,1292.05 -0.12,-28.68 -123.62,-122.96 -20.25,8.43 143.99,143.21"
 style="fill:#f89f76;fill-opacity:1;fill-rule:evenodd;stroke:none"
 id="path138"/><path
 d="m 264.234,1129.84 -20.254,8.42 153.809,153.03 -0.031,-28.6 -133.524,-132.85"
 style="fill:#f89f76;fill-opacity:1;fill-rule:evenodd;stroke:none"
 id="path140"/><path
 d="m 520.012,1140.43 20.261,8.38 -142.484,142.48 -0.031,-28.6 122.254,-122.26"
 style="fill:#fde6b8;fill-opacity:1;fill-rule:evenodd;stroke:none"
 id="path142"/><path
 d="m 854.129,689.449 7.984,-23.621 241.077,337.222 -38.58,-20.257 -210.481,-293.344"
 style="fill:#ed1b29;fill-opacity:1;fill-rule:evenodd;stroke:none"
 id="path144"/><path
 d="m 854.129,689.449 -29.66,-23.621 74.988,215.754 28.488,20.258 -73.816,-212.391"
 style="fill:#f89f76;fill-opacity:1;fill-rule:evenodd;stroke:none"
 id="path146"/><path
 d="M 842.758,901.84 811.836,881.582 935.684,1165.89 948.957,1145.63 842.758,901.84"
 style="fill:#f89f76;fill-opacity:1;fill-rule:evenodd;stroke:none"
 id="path148"/><path
 d="m 824.469,665.828 h 37.644 l -7.984,23.621 z"
 style="fill:#6e3407;fill-opacity:1;fill-rule:evenodd;stroke:none"
 id="path150"/><path
 d="m 404.461,751.281 0.016,-0.019 35.289,35.293 -20.262,8.386 -27.375,-27.378 v -16.301 l 12.332,0.019"
 style="fill:#f89f76;fill-opacity:1;fill-rule:evenodd;stroke:none"
 id="path152"/><path
 d="m 379.758,751.281 -35.266,35.274 20.258,8.386 27.379,-27.378 v -16.301 l -12.371,0.019"
 style="fill:#fde6b8;fill-opacity:1;fill-rule:evenodd;stroke:none"
 id="path154"/><path
 d="m 404.457,751.273 -12.359,-0.011 v -16.289 l 87.402,-88.125 0.063,28.711 -75.106,75.714"
 style="fill:#6e3407;fill-opacity:1;fill-rule:evenodd;stroke:none"
 id="path156"/><path
 d="m 304.035,675.559 -0.062,-28.711 88.125,88.125 v 16.289 l -12.34,0.019 -75.723,-75.722"
 style="fill:#ed1b29;fill-opacity:1;fill-rule:evenodd;stroke:none"
 id="path158"/></g></g></svg>
