<?xml version="1.0" standalone="no"?>
<!DOCTYPE svg PUBLIC "-//W3C//DTD SVG 20010904//EN"
 "http://www.w3.org/TR/2001/REC-SVG-20010904/DTD/svg10.dtd">
<svg version="1.0" xmlns="http://www.w3.org/2000/svg"
 width="1280.000000pt" height="960.000000pt" viewBox="0 0 1280.000000 960.000000"
 preserveAspectRatio="xMidYMid meet">
<metadata>
Created by potrace 1.15, written by Peter Selinger 2001-2017
</metadata>
<g transform="translate(0.000000,960.000000) scale(0.100000,-0.100000)"
fill="#000000" stroke="none">
<path d="M6175 9594 c-239 -19 -386 -42 -591 -94 -410 -104 -756 -298 -962
-541 -121 -142 -185 -268 -251 -494 -18 -60 -62 -188 -98 -284 -75 -201 -98
-300 -114 -501 -17 -210 3 -797 32 -964 16 -88 47 -164 87 -208 60 -66 115
-84 161 -52 51 36 54 62 62 449 8 408 16 465 99 681 86 220 121 334 140 450
l19 119 -2 -135 -3 -135 -71 -155 c-150 -329 -165 -440 -139 -1016 l9 -201
-25 -54 c-30 -66 -69 -107 -142 -148 -72 -40 -90 -74 -84 -155 12 -147 179
-392 304 -448 63 -28 113 -21 259 36 125 49 217 76 259 76 37 0 99 -33 130
-71 37 -44 51 -82 76 -206 44 -218 79 -301 166 -391 l54 -56 -46 -69 c-26 -38
-56 -96 -67 -128 -19 -56 -19 -62 -5 -93 20 -41 70 -66 133 -66 59 0 99 21
115 61 13 31 12 48 -17 216 l-5 31 44 -5 c23 -3 44 -7 46 -8 2 -2 -8 -40 -22
-85 -34 -107 -35 -178 -1 -218 37 -44 73 -55 169 -50 95 5 130 21 151 71 l14
32 1 -27 c0 -32 29 -65 64 -74 14 -3 71 -4 126 -2 98 3 103 4 127 32 23 27 25
36 20 85 -4 31 -15 88 -25 127 l-18 72 46 5 c25 3 46 4 47 4 1 -1 -5 -27 -13
-57 -8 -30 -17 -91 -21 -136 -6 -79 -5 -81 22 -102 40 -32 101 -45 172 -39 74
7 120 28 135 63 14 29 0 150 -26 224 -8 24 -14 45 -13 46 1 1 35 5 76 9 l74 7
-7 -38 c-12 -75 -19 -182 -12 -208 15 -60 105 -81 210 -51 121 35 144 111 81
265 -19 46 -35 95 -35 108 0 17 33 58 111 141 154 160 177 197 206 329 28 128
56 174 128 211 70 37 142 34 266 -7 167 -58 289 -46 379 35 140 126 218 398
150 523 -22 40 -36 51 -127 95 -157 78 -180 107 -188 242 l-4 78 12 -65 c29
-142 99 -201 187 -155 62 32 126 154 184 350 59 199 70 284 70 515 0 227 -9
285 -79 515 -20 66 -54 181 -75 255 -62 215 -136 377 -257 560 -90 135 -137
194 -248 309 -326 339 -620 492 -1060 551 -83 11 -482 21 -570 14z m-1378
-1256 c-3 -8 -6 -5 -6 6 -1 11 2 17 5 13 3 -3 4 -12 1 -19z m-20 -90 c-3 -8
-6 -5 -6 6 -1 11 2 17 5 13 3 -3 4 -12 1 -19z m-10 -80 c-3 -7 -5 -2 -5 12 0
14 2 19 5 13 2 -7 2 -19 0 -25z m646 -818 c248 -24 411 -85 467 -176 47 -75
46 -274 -2 -402 -17 -47 -38 -74 -117 -152 -54 -52 -138 -124 -189 -160 -186
-131 -265 -154 -362 -105 -61 31 -144 111 -182 176 -62 106 -102 321 -96 517
3 119 5 130 33 181 62 112 186 146 448 121z m1957 -38 c136 -44 233 -139 246
-239 16 -127 -29 -504 -67 -574 -14 -24 -40 -47 -73 -66 -47 -26 -59 -28 -161
-28 -103 0 -114 2 -178 32 -205 97 -449 331 -498 478 -19 59 -16 182 6 228 41
87 177 157 375 191 14 2 84 3 155 2 99 -3 145 -8 195 -24z m652 -122 c4 -80 4
-185 0 -235 l-6 -90 -7 120 c-5 96 -12 135 -34 195 -40 108 -42 134 -13 148
50 24 52 18 60 -138z m-1729 -537 c50 -68 224 -383 264 -478 19 -44 41 -107
49 -140 17 -73 18 -190 2 -236 -18 -53 -66 -117 -101 -135 l-31 -17 -32 37
c-18 21 -58 81 -90 134 -67 114 -99 152 -130 152 -37 0 -80 -46 -121 -126 -43
-87 -65 -105 -95 -77 -18 16 -20 26 -15 98 4 50 21 133 47 220 22 77 52 194
66 260 14 66 38 152 54 192 31 80 76 163 90 163 4 0 24 -21 43 -47z m-214
-1653 c18 0 22 -4 16 -17 -4 -10 -11 -45 -17 -78 l-11 -60 -12 50 c-6 28 -19
65 -29 84 l-18 34 24 -6 c12 -4 34 -7 47 -7z"/>
<path d="M35 8196 c-32 -32 -39 -101 -32 -305 12 -331 104 -613 355 -1086 516
-971 1279 -1839 2427 -2760 187 -150 564 -432 750 -562 750 -522 1659 -1004
2805 -1486 565 -237 1439 -539 2275 -785 l100 -29 7 36 c11 56 9 194 -3 253
-19 97 -48 154 -103 206 -84 80 -92 83 -688 292 -185 65 -437 151 -560 190
-622 200 -1027 367 -1668 687 -835 416 -1513 818 -2003 1186 -198 149 -264
204 -414 343 -189 177 -197 203 -13 50 420 -351 915 -696 1551 -1081 289 -176
467 -273 744 -410 548 -270 1081 -481 1890 -748 160 -53 382 -128 495 -167
261 -91 459 -147 569 -161 106 -14 171 0 306 66 122 59 195 133 195 197 0 24
-6 29 -43 38 -368 95 -893 260 -1342 422 -272 97 -486 180 -482 185 2 2 46
-13 98 -32 52 -20 172 -63 267 -96 l173 -60 202 104 c706 364 1327 761 1969
1259 1263 979 2112 1939 2643 2988 139 276 231 521 271 726 19 94 27 451 11
506 -4 15 -18 35 -32 44 -22 14 -26 14 -54 -2 -16 -10 -49 -49 -73 -87 -150
-240 -278 -416 -537 -740 -507 -634 -927 -1098 -1376 -1521 -768 -721 -1774
-1460 -2680 -1968 -438 -245 -969 -508 -1470 -728 -66 -29 -123 -56 -128 -59
-8 -8 242 -131 431 -211 144 -62 100 -70 392 76 255 128 378 197 694 386 642
385 1173 751 1554 1071 52 43 96 77 98 74 9 -9 -236 -231 -396 -358 -456 -362
-1102 -757 -1937 -1186 l-263 -135 -102 42 c-1008 414 -1859 826 -2494 1211
-684 413 -1568 1073 -2154 1608 -547 499 -937 923 -1511 1641 -274 343 -458
595 -557 766 -39 67 -100 134 -123 134 -5 0 -21 -11 -34 -24z m12045 -1566
c-6 -11 -13 -20 -16 -20 -2 0 0 9 6 20 6 11 13 20 16 20 2 0 0 -9 -6 -20z
m-56 -87 c-168 -265 -486 -673 -773 -993 -115 -129 -360 -378 -446 -453 -38
-34 18 28 125 138 449 461 785 864 1048 1258 76 112 109 148 46 50z m-4894
-3763 c8 -5 11 -10 5 -10 -5 0 -17 5 -25 10 -8 5 -10 10 -5 10 6 0 17 -5 25
-10z"/>
<path d="M7675 5672 c-46 -22 -85 -63 -153 -165 -64 -94 -85 -137 -116 -233
-35 -109 -41 -141 -76 -384 -16 -117 -35 -231 -41 -254 -28 -102 -83 -172
-193 -241 l-59 -37 7 26 c3 14 9 51 12 83 5 49 3 62 -15 84 -38 49 -155 63
-227 28 -50 -24 -111 -87 -120 -126 -6 -24 10 -105 31 -155 6 -16 1 -18 -39
-18 -25 0 -46 2 -46 5 0 2 7 30 15 62 8 31 15 82 15 113 0 64 -21 93 -81 110
-81 24 -212 7 -251 -32 -19 -19 -20 -29 -15 -112 3 -50 10 -103 16 -118 10
-26 9 -26 -40 -30 -27 -1 -49 -3 -49 -3 0 1 10 28 21 60 14 39 22 86 23 133 1
66 -1 75 -23 91 -48 37 -269 34 -310 -3 -28 -25 -28 -120 -1 -208 11 -34 20
-64 20 -65 0 -7 -100 -2 -104 5 -3 5 2 27 10 51 8 23 17 76 21 116 5 61 3 79
-11 100 -24 37 -74 55 -148 55 -80 0 -129 -14 -157 -44 -21 -22 -22 -32 -19
-115 2 -50 0 -91 -4 -91 -25 0 -110 48 -146 83 -78 75 -101 140 -122 349 -15
153 -126 520 -200 668 -72 143 -172 199 -278 155 -109 -46 -138 -137 -86 -272
122 -318 127 -354 114 -763 -5 -142 -4 -146 23 -205 37 -79 74 -116 242 -243
103 -77 191 -157 330 -298 139 -142 202 -199 235 -213 71 -31 157 -35 345 -16
194 19 373 22 490 6 180 -25 266 -30 326 -20 118 19 173 62 335 261 85 104
127 145 232 227 140 109 216 184 237 235 8 18 19 96 24 173 14 178 28 254 97
505 70 252 113 457 121 568 5 79 4 86 -16 105 -32 28 -142 32 -196 7z"/>
<path d="M2503 2886 c-217 -55 -333 -208 -333 -440 0 -260 141 -438 360 -454
143 -10 237 44 285 163 13 33 29 61 35 63 70 24 337 -438 460 -794 41 -119
109 -357 170 -594 113 -445 153 -536 292 -666 127 -119 291 -172 493 -161 322
19 460 149 442 416 -15 231 -114 356 -289 369 -117 8 -182 -31 -233 -141 l-22
-47 -45 47 c-134 145 -171 257 -187 579 -13 269 5 340 118 469 33 39 61 77 61
86 0 23 -36 37 -129 49 -149 20 -240 67 -295 153 -18 29 -59 102 -89 164 -118
235 -206 361 -341 491 -127 122 -238 189 -386 234 -83 25 -291 34 -367 14z"/>
<path d="M9910 2886 c-87 -20 -130 -35 -208 -77 -100 -53 -172 -110 -272 -216
-107 -112 -168 -200 -265 -383 -127 -240 -156 -269 -360 -365 -62 -29 -118
-61 -123 -71 -13 -24 -2 -52 48 -118 58 -77 81 -150 88 -277 5 -113 -9 -287
-34 -409 -25 -119 -85 -236 -173 -333 l-34 -38 -32 60 c-52 97 -105 131 -206
131 -199 0 -322 -175 -307 -440 10 -173 93 -273 267 -322 96 -27 277 -34 370
-14 195 41 350 165 441 349 33 67 70 193 150 502 129 499 184 662 312 920 116
234 254 435 298 435 5 0 26 -34 45 -75 53 -111 120 -154 241 -155 170 -1 301
92 365 259 28 71 38 257 19 329 -42 158 -152 263 -317 306 -72 19 -232 20
-313 2z"/>
<path d="M4645 2439 c-209 -70 -500 -164 -647 -210 -204 -62 -268 -86 -268
-98 0 -34 49 -118 92 -157 117 -108 329 -122 638 -43 205 53 1107 346 1132
368 4 3 -43 28 -105 55 -62 26 -183 86 -270 132 -87 46 -165 83 -175 82 -9 0
-188 -59 -397 -129z"/>
<path d="M5080 2065 c-768 -264 -808 -279 -895 -335 -117 -77 -157 -148 -174
-307 -10 -97 -2 -239 14 -236 113 17 1199 367 1650 531 208 76 625 236 652
251 7 4 -42 30 -115 60 -70 30 -216 96 -325 148 -110 51 -202 93 -205 92 -4 0
-275 -92 -602 -204z"/>
<path d="M2314 1851 c-56 -26 -74 -54 -74 -116 1 -59 47 -199 84 -256 15 -21
23 -39 19 -39 -22 0 -60 77 -127 261 -18 50 -62 101 -110 127 -24 13 -58 17
-146 17 -103 0 -119 -2 -152 -23 -74 -46 -84 -137 -36 -332 51 -212 123 -343
239 -438 87 -71 126 -81 358 -92 185 -9 659 0 819 17 107 10 146 63 145 193
-2 144 -62 312 -176 495 -65 106 -117 161 -172 186 -108 49 -225 -6 -225 -106
0 -50 24 -133 51 -180 12 -19 18 -35 15 -35 -13 0 -66 95 -92 164 -36 94 -49
112 -102 143 -41 24 -57 27 -161 30 -98 3 -122 1 -157 -16z"/>
<path d="M9755 1858 c-82 -30 -163 -134 -260 -332 -66 -134 -98 -251 -99 -361
-1 -131 37 -178 151 -189 309 -29 937 -25 1045 8 58 17 155 92 207 160 92 118
170 361 173 535 1 57 -2 77 -18 98 -38 50 -68 65 -142 71 -200 14 -276 -38
-337 -228 -19 -60 -64 -154 -70 -148 -2 2 12 44 32 93 26 62 38 110 41 156 4
58 1 68 -21 95 -33 39 -84 54 -190 54 -155 0 -228 -42 -268 -156 -21 -59 -69
-157 -75 -151 -2 2 5 25 15 53 41 110 33 192 -22 229 -32 21 -123 28 -162 13z"/>
<path d="M1248 1840 c-270 -46 -419 -246 -421 -567 0 -131 13 -192 65 -303 57
-120 162 -224 279 -279 236 -111 430 -64 644 153 118 120 154 212 93 235 -33
12 -48 5 -126 -58 -38 -32 -89 -66 -111 -75 -81 -32 -235 -13 -249 31 -2 7 36
31 91 57 170 81 238 188 239 373 0 102 -12 156 -54 236 -82 154 -255 230 -450
197z"/>
<path d="M11265 1835 c-77 -20 -130 -52 -189 -114 -144 -155 -152 -439 -17
-594 37 -41 123 -96 194 -122 56 -21 51 -36 -19 -55 -110 -31 -236 -9 -289 50
-34 39 -97 80 -121 80 -34 0 -58 -41 -51 -87 23 -140 186 -291 363 -337 156
-40 286 -29 412 35 238 119 365 373 333 664 -35 305 -197 471 -480 490 -50 3
-96 -1 -136 -10z"/>
</g>
</svg>
