<?xml version="1.0" encoding="utf-8"?>
<!-- Svg Vector Icons : http://www.onlinewebfonts.com/icon -->
<!DOCTYPE svg PUBLIC "-//W3C//DTD SVG 1.1//EN" "http://www.w3.org/Graphics/SVG/1.1/DTD/svg11.dtd">
<svg version="1.1" xmlns="http://www.w3.org/2000/svg" xmlns:xlink="http://www.w3.org/1999/xlink" x="0px" y="0px" viewBox="0 0 1000 1000" enable-background="new 0 0 1000 1000">
<g><g><path d="M899.3,766.6V590.1h-86.4v177.2h-90.1v87.6H513.6v-88.3h209.2v-88.2H277.9v88.2l179,0.6v88.2H277.2v-87.6h-90.1V589.5h-86.4V766H10V498.8h88.9V413h88.2v-90.7h90.7v-88.9h88.9v89.1l266.6,0.7v-89.8h88.9v90.1h90.7v88.3h87.6V500H990v266.6H899.3z M366.7,411.1h-88.9V500h88.9V411.1z M722.2,411.1h-88.9V500h88.9V411.1z M187.1,144.5h90.7v88.9h-90.7V144.5z M812.9,144.5v88.9h-90.7v-88.9H812.9z"/></g></g>
</svg>
