<?xml version="1.0" encoding="UTF-8" standalone="no"?>
<!-- Created with Inkscape (http://www.inkscape.org/) -->
<svg xmlns:dc="http://purl.org/dc/elements/1.1/" xmlns:cc="http://creativecommons.org/ns#" xmlns:rdf="http://www.w3.org/1999/02/22-rdf-syntax-ns#" xmlns:svg="http://www.w3.org/2000/svg" xmlns="http://www.w3.org/2000/svg" xmlns:xlink="http://www.w3.org/1999/xlink" xmlns:sodipodi="http://sodipodi.sourceforge.net/DTD/sodipodi-0.dtd" xmlns:inkscape="http://www.inkscape.org/namespaces/inkscape" id="svg2" sodipodi:version="0.32" inkscape:version="0.47 r22583" width="32.000008" height="32.000008" sodipodi:docname="space-invaders2727.svg" inkscape:output_extension="org.inkscape.output.svg.inkscape" version="1.0" inkscape:export-filename="/home/fzap/space-invaders.png" inkscape:export-xdpi="75.940002" inkscape:export-ydpi="75.940002">
  <metadata id="metadata7">
    <rdf:RDF>
      <cc:Work rdf:about="">
        <dc:format>image/svg+xml</dc:format>
        <dc:type rdf:resource="http://purl.org/dc/dcmitype/StillImage"/>
      </cc:Work>
    </rdf:RDF>
  </metadata>
  <defs id="defs5">
    <inkscape:perspective sodipodi:type="inkscape:persp3d" inkscape:vp_x="0 : 526.18109 : 1" inkscape:vp_y="0 : 1000 : 0" inkscape:vp_z="744.09448 : 526.18109 : 1" inkscape:persp3d-origin="372.04724 : 350.78739 : 1" id="perspective13"/>
    <linearGradient id="linearGradient4938">
      <stop style="stop-color:#020612;stop-opacity:1;" offset="0" id="stop4940"/>
      <stop style="stop-color:#204c7d;stop-opacity:1;" offset="1" id="stop4942"/>
    </linearGradient>
    <linearGradient inkscape:collect="always" xlink:href="#linearGradient4938" id="linearGradient4944" x1="83.007179" y1="167.41592" x2="83.007179" y2="353.13223" gradientUnits="userSpaceOnUse" gradientTransform="matrix(0.9984794,0,0,0.931914,17.559537,-143.09053)"/>
  </defs>
  <sodipodi:namedview guidetolerance="10.0" gridtolerance="10.0" objecttolerance="10.0" inkscape:window-height="969" inkscape:window-width="1280" inkscape:pageshadow="2" inkscape:pageopacity="0" borderopacity="1.0" bordercolor="#666666" pagecolor="#ffffff" id="base" showguides="true" inkscape:guide-bbox="true" fill="#ef2929" inkscape:zoom="16" inkscape:cx="14.885705" inkscape:cy="13.461103" inkscape:window-x="50" inkscape:window-y="26" inkscape:current-layer="svg2" showgrid="false" inkscape:window-maximized="0"/>
  <path style="fill:#204a87;fill-opacity:1;fill-rule:nonzero;stroke:none;stroke-width:2.20000005;marker:none;visibility:visible;display:inline;overflow:visible" d="m 12.344635,6.2426427 0,2.4677267 -5.4067802,0 0,2.3844596 -1.7796614,0 0,7.327485 21.6836206,0 0,-7.327485 -1.847458,0 0,-2.3844596 -5.338984,0 0,-2.4677267 -7.310737,0 z m -1.779661,7.4107493 3.559323,0 0,2.384461 -3.559323,0 0,-2.384461 z m 7.310736,0 3.559323,0 0,2.384461 -3.559323,0 0,-2.384461 z m -7.316386,4.651492 0,2.592726 -1.8418078,0 0,2.384459 -3.5593228,0 0,2.475296 3.6214697,0 0,-2.392029 3.5593229,0 0,-2.467726 1.847458,0 0,-2.592726 -3.62712,0 z m 3.62712,2.592726 0,2.467726 3.62147,0 0,-2.467726 -3.62147,0 z m 3.62147,0 1.785311,0 0,2.384459 3.621469,0 0,-2.467727 -1.779661,0 0,-2.509458 -3.627119,0 0,2.592726 z m 5.40678,2.384459 0,2.475296 3.62712,0 0,-2.475296 -3.62712,0 z" id="rect1389" sodipodi:nodetypes="ccccccccccccccccccccccccccccccccccccccccccccccccccccccc"/>
</svg>