<?xml version="1.0" encoding="UTF-8" standalone="no"?>
<!-- Created with Inkscape (http://www.inkscape.org/) -->

<svg
 xmlns="http://www.w3.org/2000/svg"
 width="937.42157"
   height="286.88333"
   id="svg2"
   version="1.1">
  <g
 id="layer1"
 transform="translate(1794.876,475.67474)">
    <rect
 style="fill:#304c2e;fill-opacity:1;stroke:none"
 id="rect3975"
 width="937.42157"
       height="286.88333"
       x="-593.96967"
       y="-765.29974"
       transform="translate(-1200.9063,289.625)"/>
    <path
 style="fill:#00d700;fill-opacity:1;stroke:none"
 d="m -1675.5206,-412.23308 0,20 20,0 0,-20 -20,0 z m 20,20 0,20 -20,0 0,20 -20,0 0,20 -20,0 0,60 20,0 0,-40 20,0 0,40 20,0 0,-20 100,0 0,20 20,0 0,-40 20,0 0,40 20,0 0,-60 -20,0 0,-20 -20,0 0,-20 -20,0 0,-20 -20,0 0,20 -60,0 0,-20 -20,0 z m 100,0 20,0 0,-20 -20,0 0,20 z m 0,120 -40,0 0,20 40,0 0,-20 z m -100,0 0,20 40,0 0,-20 -40,0 z m 0,-80 20,0 0,20 -20,0 0,-20 z m 80,0 20,0 0,20 -20,0 0,-20 z"
 id="rect3076"/>
    <path
 style="fill:#00d700;fill-opacity:1;stroke:none"
 d="m -1336.1652,-412.23308 0,20 -60,0 0,20 -20,0 0,20 0,20 0,20 60,0 0,20 -20,0 0,20 40,0 0,-20 20,0 0,-20 40,0 0,20 20,0 0,20 40.0001,0 0,-20 -20,0 0,-20 60,0 0,-20 0,-20 0,-20 -20,0 0,-20 -60.0001,0 0,-20 -80,0 z m 120.0001,140 0,20 40,0 0,-20 -40,0 z m -60.0001,-20 -40,0 0,20 40,0 0,-20 z m -100,20 -40,0 0,20 40,0 0,-20 z m 20,-80 40,0 0,20 -40,0 0,-20 z m 80,0 40.0001,0 0,20 -40.0001,0 0,-20 z"
 id="rect3876"/>
    <path
 style="fill:#00d700;fill-opacity:1;stroke:none"
 d="m -1036.8098,-412.23308 0,20 -20,0 0,20 -20,0 0,20 -20,0 0,20 0,20 40,0 0,20 20,0 0,-20 40.00002,0 0,20 20,0 0,-20 40,0 0,-20 0,-20 -20,0 0,-20 -20,0 0,-20 -20,0 0,-20 -40.00002,0 z m 60.00002,120 0,20 20,0 0,-20 -20,0 z m 20,20 0,20 20,0 0,-20 -20,0 z m -20,0 -20,0 0,20 20,0 0,-20 z m -20,0 0,-20 -40.00002,0 0,20 40.00002,0 z m -40.00002,0 -20,0 0,20 20,0 0,-20 z m -20,0 0,-20 -20,0 0,20 20,0 z m -20,0 -20,0 0,20 20,0 0,-20 z m 20,-80 20,0 0,20 -20,0 0,-20 z m 60.00002,0 20,0 0,20 -20,0 0,-20 z"
 id="rect3936"/>
  </g>
</svg>
