<?xml version="1.0" encoding="UTF-8" standalone="no"?>
<!-- Created with Inkscape (http://www.inkscape.org/) -->
<svg xmlns="http://www.w3.org/2000/svg" xmlns:xlink="http://www.w3.org/1999/xlink" id="svg2" width="32.000008" height="32.000008" version="1.0">
  <defs id="defs5">
    <inkscape:perspective id="perspective13"/>
    <linearGradient id="linearGradient4938">
      <stop style="stop-color:#020612;stop-opacity:1;" offset="0" id="stop4940"/>
      <stop style="stop-color:#204c7d;stop-opacity:1;" offset="1" id="stop4942"/>
    </linearGradient>
    <linearGradient xlink:href="#linearGradient4938" id="linearGradient4944" x1="83.007179" y1="167.41592" x2="83.007179" y2="353.13223" gradientUnits="userSpaceOnUse" gradientTransform="matrix(0.9984794,0,0,0.931914,17.559537,-143.09053)"/>
  </defs>
  <path style="fill:#204a87;fill-opacity:1;fill-rule:nonzero;stroke:none;stroke-width:2.20000005;marker:none;visibility:visible;display:inline;overflow:visible" d="m 12.344635,6.2426427 0,2.4677267 -5.4067802,0 0,2.3844596 -1.7796614,0 0,7.327485 21.6836206,0 0,-7.327485 -1.847458,0 0,-2.3844596 -5.338984,0 0,-2.4677267 -7.310737,0 z m -1.779661,7.4107493 3.559323,0 0,2.384461 -3.559323,0 0,-2.384461 z m 7.310736,0 3.559323,0 0,2.384461 -3.559323,0 0,-2.384461 z m -7.316386,4.651492 0,2.592726 -1.8418078,0 0,2.384459 -3.5593228,0 0,2.475296 3.6214697,0 0,-2.392029 3.5593229,0 0,-2.467726 1.847458,0 0,-2.592726 -3.62712,0 z m 3.62712,2.592726 0,2.467726 3.62147,0 0,-2.467726 -3.62147,0 z m 3.62147,0 1.785311,0 0,2.384459 3.621469,0 0,-2.467727 -1.779661,0 0,-2.509458 -3.627119,0 0,2.592726 z m 5.40678,2.384459 0,2.475296 3.62712,0 0,-2.475296 -3.62712,0 z" id="rect1389"/>
</svg>
