<?xml version="1.0" encoding="UTF-8" standalone="no"?>
<svg
 xmlns="http://www.w3.org/2000/svg"
   width="2500"
   height="2500"
   viewBox="0 0 634.105 634.03038"
   version="1.1"
   id="svg12">
  <path
 fill="#ffc500"
 d="m 120.64807,326.04538 8.67,25.461 c 4.691,13.769 8.879,24.778 9.425,24.778 a 0.037,0.037 0 0 0 0.024,-0.01 c 0.6,-0.53 17.57,-49.812 17.57,-49.812 h 32.89 l -39.68,115.619 h -22.86 c 0,0 -24.4,-70.472 -24.3,-70.739 l -25.470002,69.852 h -22.63 l -39.18,-115.149 32.73,0.021 c 0,0 17.929,50.82 18.168,50.82 l 0.002,-0.002 17.89,-50.841 36.751002,0.002 m -116.7150016,-8.008 3.601,10.584 39.1799996,115.149 1.845,5.424 h 33.957 l 1.918,-5.26 17.685002,-48.5 c 1.524,4.434 3.171,9.213 4.818,13.987 a 35089.138,35089.138 0 0 0 12.191,35.276 l 1.864,5.384 h 34.268 l 1.854,-5.402 39.68,-115.618 3.637,-10.599 h -49.8 l -1.858,5.396 a 6877.534,6877.534 0 0 1 -10.296,29.676 743.773,743.773 0 0 1 -1.587,-4.61 l -8.669,-25.46 -1.846,-5.421 H 78.232068 l -1.881,5.346 -10.453,29.706 a 13093.65,13093.65 0 0 1 -10.516,-29.691 l -1.882,-5.334 -5.657,-0.004 -32.73,-0.021 z m 623.2540016,7.56 -0.074,30.305 c 0,0 -32.643,-0.108 -49.238,-0.108 -5.521,0 -9.268,0.014 -9.445,0.045 -2.857,0.521 -4.68,6.603 -3.869,9.271 0.398,1.351 3.393,5.76 6.631,9.811 3.229,4.052 8.541,10.682 11.779,14.729 8.318,10.381 9.459,12.43 10.23,18.391 1.25,9.683 -3.328,20.16 -11.828,27.07 -8.521,6.93 -8.146,6.979 -71.383,6.979 h -2.777 c -38.461,-0.011 -58.801,-0.329 -61.762,-0.988 -5.26,-1.19 -13.643,-8.03 -35.791,-29.28 -7.967,-7.636 -15.311,-14.322 -15.688,-14.324 -0.01,0 -0.014,0.007 -0.014,0.018 l -0.262,44.578 -35.898,-0.158 -0.222,-114.98 h 80.062 c 24.129,0.871 40.459,24.91 37.209,40.24 -0.736,3.479 -2.617,8.521 -4.18,11.2 -3.211,5.5 -11.381,12.56 -18.012,15.591 -2.449,1.107 -4.449,2.397 -4.449,2.857 0,1.71 8.061,9.648 11.08,10.909 2.58,1.079 10.09,1.319 43.211,1.319 l 10.607,0.002 c 33.293,0 31.617,-0.24 34.189,-5.741 1.801,-3.829 0.432,-6.119 -12.238,-20.39 -16.051,-15.971 -14.371,-23.621 -14.48,-29.271 -0.229,-6.771 5.102,-28.068 32.812,-28.068 l 73.8,-0.007 m -215.069,53.119 c 15.37,0 18.491,-0.238 21.761,-1.659 11.041,-4.801 11.631,-18.979 1.041,-25.271 -2.32,-1.381 -5.301,-1.608 -21.961,-1.699 l -19.279,-0.102 c 0.16,0.149 -0.061,27.57 -0.061,27.57 0,0 4.829,1.161 18.499,1.161 m 223.089,-61.119 h -81.82 c -16.033,0 -25.516,6.327 -30.645,11.637 -8.35,8.633 -10.312,19.504 -10.162,24.629 0.008,0.427 0.004,0.865 -0.002,1.322 -0.072,8.329 1.152,17.758 16.66,33.246 3.062,3.451 8.189,9.238 10.131,12.114 -4.238,0.521 -14.98,0.521 -26.266,0.521 h -4.791 l -5.814,-0.002 c -19.904,0 -36.689,-0.058 -40.127,-0.736 -0.482,-0.312 -1.156,-0.854 -1.898,-1.498 6.877,-4.233 13.83,-10.799 17.104,-16.411 1.986,-3.413 4.178,-9.243 5.098,-13.567 2.041,-9.625 -1.324,-21.236 -9,-31.068 -8.957,-11.471 -21.986,-18.334 -35.746,-18.83 l -0.145,-0.006 h -88.223 l 0.017,8.018 0.222,114.979 0.016,7.949 7.949,0.035 35.898,0.158 7.986,0.034 0.049,-7.987 0.154,-26.705 c 0.732,0.695 1.49,1.419 2.27,2.164 24.229,23.24 32.357,29.68 39.562,31.309 1.98,0.44 5.254,1.172 63.523,1.188 h 2.777 c 31.549,0 47.383,0 56.801,-0.909 10.789,-1.043 14.26,-3.49 19.461,-7.727 l 0.174,-0.141 c 10.684,-8.688 16.322,-21.83 14.715,-34.3 -1.049,-8.11 -3.195,-11.479 -11.922,-22.368 l -2.594,-3.24 a 12555.88,12555.88 0 0 1 -9.178,-11.475 c -1.984,-2.484 -3.547,-4.689 -4.484,-6.134 1.234,-0.003 2.84,-0.005 4.918,-0.005 16.395,0 48.887,0.107 49.213,0.109 l 8.008,0.025 0.02,-8.008 0.076,-30.307 z m -233.537,52.827 0.037,-6.558 c 0.01,-2 0.02,-4.004 0.021,-5.84 l 11.188,0.059 c 6.43,0.034 16.104,0.088 17.99,0.623 2.406,1.461 3.75,3.721 3.604,6.061 -0.08,1.264 -0.682,3.588 -3.822,4.95 -1.75,0.761 -4.539,0.997 -18.568,0.997 -4.452,0 -7.885,-0.129 -10.45,-0.292 z m -116.832,-45.299 40.291,115.92 -32.831,0.149 -5.45,-17.41 -58.7,-0.471 -5.18,17.431 -32.5,-0.341 39.78,-115.229 54.59,-0.049 m -26.401,16.995 c -0.083,0.333 -5.144,14.22 -10.222,28.104 -5.12,14 -10.257,28 -10.328,28.108 v 0 c 0.136,-0.04 18.316,-0.08 29.968,-0.08 5.453,0 9.475,0.01 9.55,0.028 l 10e-4,0.005 v -0.003 l -10e-4,-0.002 c -0.204,-0.526 -18.909,-55.483 -18.968,-56.16 l 10e-4,-0.006 -10e-4,0.006 m 32.088,-25.001 -5.693,0.006 -54.59,0.051 -5.696,0.006 -1.859,5.386 -39.78,115.229 -3.623,10.493 11.102,0.115 32.5,0.341 6.033,0.063 1.719,-5.782 3.466,-11.662 46.854,0.375 3.708,11.849 1.765,5.639 5.907,-0.026 32.83,-0.149 11.194,-0.053 -3.677,-10.573 -40.291,-115.92 z m -41.123,73.144 c 1.515,-4.13 3.556,-9.71 6.327,-17.289 l 2.393,-6.545 2.169,6.396 c 0.646,1.906 3.485,10.271 5.92,17.429 -7.24,0 -12.69,10e-4 -16.809,0.009 z m 49.016,-203.49698 v 28.6 h -57.28 v 87.47098 h -34.15 V 215.2974 l -66.86,0.189 c -8.06,0 -9.14,6.42 -9.14,8.88 0,3.021 1.97,6.04 12.79,19.74 7.02,8.899 13.47,17.78 14.32,19.72 4.64,10.681 -1.36,27.31998 -12.29,34.07998 -7.79,4.813 -6.459,4.932 -64.308002,4.932 H 9.8380684 V 270.7074 H 107.73807 l 2.89,-2.01 c 1.95,-1.359 3.08,-3.229 3.51,-5.79 0.6,-3.68 0.29,-4.16 -11.8,-17.779 -14.290002,-16.101 -15.800002,-19.04 -15.060002,-29.319 0.84,-11.73 11.3,-28.771 29.580002,-28.771 l 181.56,-0.272 m 8,-8.012 -8.013,0.013 -181.56,0.27 c -10.458,0 -20.171002,4.52 -27.342002,12.723 -5.814,6.651 -9.63,15.43 -10.206,23.478 -0.973,13.511 2.137,18.394 17.056,35.202 4.330002,4.877 8.447002,9.516 9.821002,11.485 a 1.286,1.286 0 0 1 -0.054,0.159 c -0.015,0.013 -0.038,0.029 -0.07,0.052 l -0.822,0.571 H 1.8380684 v 48.13098 H 81.500068 c 28.522002,0 42.600002,-0.026 50.894002,-0.636 9.49,-0.694 12.518,-2.322 17.054,-5.14 l 0.566,-0.352 c 14.262,-8.82 21.612,-29.82698 15.422,-44.07298 -1.91,-4.358 -14.003,-19.746 -15.376,-21.486 -3.796,-4.808 -10.062,-12.74 -11.054,-15.036 0.024,-0.192 0.071,-0.393 0.121,-0.531 0.165,-0.042 0.481,-0.099 1.001,-0.099 l 58.86,-0.167 v 87.51798 h 50.15 V 223.3654 h 57.28 z m 85.06,8.941 40.18,116.21998 -32.77,-0.18 -5.32,-17.41 -58.439,-0.26 -5.221,16.771 h -33.369 l 39.739,-115.14098 h 55.2 m -46.811,73.621 39.802,-0.05 v 0.001 c 0.137,0 -19.342,-57.201 -19.472,-57.241 -0.142,-0.005 -20.778,57.29 -20.33,57.29 m 52.511,-81.621 h -66.599 l -1.859,5.391 -39.741,115.14198 -3.662,10.609 h 50.485 l 1.75,-5.623 3.461,-11.121 46.633,0.207 3.599,11.773 1.722,5.629 5.887,0.033 32.771,0.181 11.297,0.062 -3.691,-10.676 -40.18,-116.22198 z m -41.397,73.608 a 4094.323,4094.323 0 0 1 9.014,-25.312 9890.777,9890.777 0 0 1 8.588,25.29 z m 148.545,-65.608 c 25.922,0 43.91,0.37 47.371,0.97 8,1.392 15.229,5.66 20.648,12.222 5.67,6.858 6.971,10.14 7.711,19.539 1.061,13.271 -5.25,24.721 -17.701,32.149 -3.629,2.17 -7.357,4.28 -8.289,4.7 -1.43,0.649 -1.238,1.271 1.32,4.271 1.648,1.931 4.51,4.681 6.35,6.109 l 3.359,2.61 62.08,0.89 0.609,31.68098 h -38.062 c -29.438,0 -38.857,-0.271 -41.621,-1.199 -4.129,-1.4 -14.066,-9.82 -34.27,-29.03998 l -14.42,-13.721 0.152,43.95998 h -37.045 V 187.6954 h 41.808 m -5.457,51.77 h 19.67 c 19.141,0 19.74,-0.061 22.471,-2.109 4.881,-3.66 6.609,-7.431 6.09,-13.221 -0.527,-5.971 -2.83,-9.079 -8.6,-11.579 -3.25,-1.421 -6.381,-1.65 -21.721,-1.65 h -17.91 v 28.559 m 5.457,-59.77 h -49.799 v 131.14098 h 53.07 l -0.027,-8.027 -0.09,-25.21699 0.842,0.79999 c 24.984,23.771 32.355,29.173 37.217,30.82 3.732,1.26 9.982,1.624 44.188,1.624 h 46.216 l -0.156,-8.153 -0.609,-31.68098 -0.146,-7.733 -7.734,-0.111 -59.402,-0.851 -1.244,-0.968 c -0.396,-0.31 -0.877,-0.718 -1.389,-1.18 l 1.207,-0.717 c 15.002,-8.953 22.865,-23.407 21.568,-39.653 -0.863,-10.959 -2.82,-15.896 -9.521,-24 -6.584,-7.969 -15.621,-13.298 -25.447,-15.005 -5.463,-0.947 -32.883,-1.089 -48.744,-1.089 z m 2.543,39.21 h 9.91 c 14.025,0 16.805,0.233 18.518,0.981 3.25,1.407 3.58,2.091 3.834,4.956 0.256,2.849 -0.096,3.994 -2.922,6.111 l -0.223,0.166 c -1.865,0.346 -8.785,0.346 -17.447,0.346 h -11.67 z"
     id="path10"/>
</svg>
