<svg width="16" height="16" viewBox="0 0 16 16" fill="currentColor" xmlns="http://www.w3.org/2000/svg">
  <path d="M12.771 13.155C12.9114 13.0144 12.9903 12.8238 12.9903 12.625C12.9903 12.4263 12.9114 12.2356 12.771 12.095L8.52096 7.845C8.38033 7.70455 8.18971 7.62566 7.99096 7.62566C7.7922 7.62566 7.60158 7.70455 7.46096 7.845L3.21096 12.095C3.07855 12.2373 3.00644 12.4253 3.0098 12.6196C3.01316 12.814 3.09171 12.9994 3.22896 13.137C3.36656 13.2742 3.55201 13.3528 3.74633 13.3562C3.94064 13.3595 4.12869 13.2874 4.27096 13.155L7.99096 9.435L11.711 13.155C11.8516 13.2955 12.0422 13.3743 12.241 13.3743C12.4397 13.3743 12.6303 13.2955 12.771 13.155Z" />
  <path d="M12.771 8.155C12.9114 8.01438 12.9903 7.82375 12.9903 7.625C12.9903 7.42625 12.9114 7.23563 12.771 7.095L8.52096 2.845C8.38033 2.70455 8.18971 2.62566 7.99096 2.62566C7.7922 2.62566 7.60158 2.70455 7.46096 2.845L3.21096 7.095C3.07855 7.23726 3.00644 7.42532 3.0098 7.61963C3.01316 7.81395 3.09171 7.9994 3.22896 8.137C3.36656 8.27425 3.55201 8.3528 3.74633 8.35616C3.94064 8.35952 4.12869 8.28741 4.27096 8.155L7.99096 4.435L11.711 8.155C11.8516 8.29545 12.0422 8.37434 12.241 8.37434C12.4397 8.37434 12.6303 8.29545 12.771 8.155Z" />
</svg>