<svg width="16" height="16" viewBox="0 0 16 16" fill="currentColor" xmlns="http://www.w3.org/2000/svg">
  <path d="M2.84501 3.22904C2.98564 3.08859 3.17626 3.0097 3.37501 3.0097C3.57376 3.0097 3.76439 3.08859 3.90501 3.22904L8.15501 7.47904C8.29546 7.61967 8.37435 7.81029 8.37435 8.00904C8.37435 8.2078 8.29546 8.39842 8.15501 8.53904L3.90501 12.789C3.76275 12.9215 3.5747 12.9936 3.38038 12.9902C3.18606 12.9868 3.00061 12.9083 2.86301 12.771C2.72577 12.6334 2.64721 12.448 2.64386 12.2537C2.6405 12.0594 2.7126 11.8713 2.84501 11.729L6.56501 8.00904L2.84501 4.28904C2.70456 4.14842 2.62567 3.9578 2.62567 3.75904C2.62567 3.56029 2.70456 3.36967 2.84501 3.22904Z" />
  <path d="M7.84501 3.22904C7.98564 3.08859 8.17626 3.0097 8.37501 3.0097C8.57376 3.0097 8.76439 3.08859 8.90501 3.22904L13.155 7.47904C13.2955 7.61967 13.3744 7.81029 13.3744 8.00904C13.3744 8.2078 13.2955 8.39842 13.155 8.53904L8.90501 12.789C8.76275 12.9215 8.5747 12.9936 8.38038 12.9902C8.18606 12.9868 8.00061 12.9083 7.86301 12.771C7.72577 12.6334 7.64721 12.448 7.64386 12.2537C7.6405 12.0594 7.7126 11.8713 7.84501 11.729L11.565 8.00904L7.84501 4.28904C7.70456 4.14842 7.62567 3.9578 7.62567 3.75904C7.62567 3.56029 7.70456 3.36967 7.84501 3.22904Z" />
</svg>