<svg width="20" height="20" viewBox="0 0 20 20" fill="currentColor" xmlns="http://www.w3.org/2000/svg">
<path d="M0.649963 3.4375C0.649963 2.23 1.62996 1.25 2.83746 1.25H6.89996C7.58746 1.25 8.23746 1.575 8.64996 2.125L9.77496 3.625C9.80407 3.66381 9.84182 3.69531 9.88521 3.71701C9.9286 3.7387 9.97645 3.75 10.025 3.75H18.4625C19.67 3.75 20.65 4.73 20.65 5.9375V16.5625C20.65 17.1427 20.4195 17.6991 20.0093 18.1093C19.599 18.5195 19.0426 18.75 18.4625 18.75H2.83746C2.2573 18.75 1.7009 18.5195 1.29067 18.1093C0.880431 17.6991 0.649963 17.1427 0.649963 16.5625L0.649963 3.4375ZM2.83746 3.125C2.75458 3.125 2.6751 3.15792 2.61649 3.21653C2.55789 3.27513 2.52496 3.35462 2.52496 3.4375V16.5625C2.52496 16.735 2.66496 16.875 2.83746 16.875H18.4625C18.5453 16.875 18.6248 16.8421 18.6834 16.7835C18.742 16.7249 18.775 16.6454 18.775 16.5625V5.9375C18.775 5.85462 18.742 5.77513 18.6834 5.71653C18.6248 5.65792 18.5453 5.625 18.4625 5.625H10.025C9.33746 5.625 8.68746 5.3 8.27496 4.75L7.14996 3.25C7.12085 3.21119 7.08311 3.17969 7.03972 3.15799C6.99633 3.1363 6.94848 3.125 6.89996 3.125H2.83746Z"/>
</svg>
