<svg width="20" height="20" viewBox="0 0 20 20" fill="currentColor" xmlns="http://www.w3.org/2000/svg">
<path d="M1.875 4.0625C1.875 2.855 2.855 1.875 4.0625 1.875H7.1875C8.395 1.875 9.375 2.855 9.375 4.0625V7.1875C9.375 7.76766 9.14453 8.32406 8.7343 8.7343C8.32406 9.14453 7.76766 9.375 7.1875 9.375H4.0625C3.48234 9.375 2.92594 9.14453 2.5157 8.7343C2.10547 8.32406 1.875 7.76766 1.875 7.1875V4.0625ZM10.625 4.0625C10.625 2.855 11.605 1.875 12.8125 1.875H15.9375C17.145 1.875 18.125 2.855 18.125 4.0625V7.1875C18.125 7.76766 17.8945 8.32406 17.4843 8.7343C17.0741 9.14453 16.5177 9.375 15.9375 9.375H12.8125C12.2323 9.375 11.6759 9.14453 11.2657 8.7343C10.8555 8.32406 10.625 7.76766 10.625 7.1875V4.0625ZM1.875 12.8125C1.875 11.605 2.855 10.625 4.0625 10.625H7.1875C8.395 10.625 9.375 11.605 9.375 12.8125V15.9375C9.375 16.5177 9.14453 17.0741 8.7343 17.4843C8.32406 17.8945 7.76766 18.125 7.1875 18.125H4.0625C3.48234 18.125 2.92594 17.8945 2.5157 17.4843C2.10547 17.0741 1.875 16.5177 1.875 15.9375V12.8125ZM10.625 12.8125C10.625 11.605 11.605 10.625 12.8125 10.625H15.9375C17.145 10.625 18.125 11.605 18.125 12.8125V15.9375C18.125 16.5177 17.8945 17.0741 17.4843 17.4843C17.0741 17.8945 16.5177 18.125 15.9375 18.125H12.8125C12.2323 18.125 11.6759 17.8945 11.2657 17.4843C10.8555 17.0741 10.625 16.5177 10.625 15.9375V12.8125ZM4.0625 3.75C3.97962 3.75 3.90013 3.78292 3.84153 3.84153C3.78292 3.90013 3.75 3.97962 3.75 4.0625V7.1875C3.75 7.36 3.89 7.5 4.0625 7.5H7.1875C7.27038 7.5 7.34987 7.46708 7.40847 7.40847C7.46708 7.34987 7.5 7.27038 7.5 7.1875V4.0625C7.5 3.97962 7.46708 3.90013 7.40847 3.84153C7.34987 3.78292 7.27038 3.75 7.1875 3.75H4.0625ZM12.8125 3.75C12.7296 3.75 12.6501 3.78292 12.5915 3.84153C12.5329 3.90013 12.5 3.97962 12.5 4.0625V7.1875C12.5 7.36 12.64 7.5 12.8125 7.5H15.9375C16.0204 7.5 16.0999 7.46708 16.1585 7.40847C16.2171 7.34987 16.25 7.27038 16.25 7.1875V4.0625C16.25 3.97962 16.2171 3.90013 16.1585 3.84153C16.0999 3.78292 16.0204 3.75 15.9375 3.75H12.8125ZM4.0625 12.5C3.97962 12.5 3.90013 12.5329 3.84153 12.5915C3.78292 12.6501 3.75 12.7296 3.75 12.8125V15.9375C3.75 16.11 3.89 16.25 4.0625 16.25H7.1875C7.27038 16.25 7.34987 16.2171 7.40847 16.1585C7.46708 16.0999 7.5 16.0204 7.5 15.9375V12.8125C7.5 12.7296 7.46708 12.6501 7.40847 12.5915C7.34987 12.5329 7.27038 12.5 7.1875 12.5H4.0625ZM12.8125 12.5C12.7296 12.5 12.6501 12.5329 12.5915 12.5915C12.5329 12.6501 12.5 12.7296 12.5 12.8125V15.9375C12.5 16.11 12.64 16.25 12.8125 16.25H15.9375C16.0204 16.25 16.0999 16.2171 16.1585 16.1585C16.2171 16.0999 16.25 16.0204 16.25 15.9375V12.8125C16.25 12.7296 16.2171 12.6501 16.1585 12.5915C16.0999 12.5329 16.0204 12.5 15.9375 12.5H12.8125Z"/>
</svg>
