<svg width="20" height="20" viewBox="0 0 20 20" fill="currentColor" xmlns="http://www.w3.org/2000/svg">
<path fill-rule="evenodd" clip-rule="evenodd" d="M18 3.53363H2C1.72386 3.53363 1.5 3.75749 1.5 4.03363V16.0336C1.5 16.3098 1.72386 16.5336 2 16.5336H18C18.2761 16.5336 18.5 16.3098 18.5 16.0336V4.03363C18.5 3.75749 18.2761 3.53363 18 3.53363ZM2 2.03363C0.895431 2.03363 0 2.92906 0 4.03363V16.0336C0 17.1382 0.895431 18.0336 2 18.0336H18C19.1046 18.0336 20 17.1382 20 16.0336V4.03363C20 2.92906 19.1046 2.03363 18 2.03363H2Z"/>
<path fill-rule="evenodd" clip-rule="evenodd" d="M3.5 10C3.5 9.72386 3.72386 9.5 4 9.5L10 9.50001C10.2761 9.50001 10.5 9.72387 10.5 10C10.5 10.2762 10.2761 10.5 10 10.5L4 10.5C3.72386 10.5 3.5 10.2761 3.5 10ZM11.5 10C11.5 9.72386 11.7239 9.5 12 9.5H14.0457C14.3219 9.5 14.5457 9.72386 14.5457 10C14.5457 10.2761 14.3219 10.5 14.0457 10.5H12C11.7239 10.5 11.5 10.2761 11.5 10ZM3.5 12C3.5 11.7239 3.72386 11.5 4 11.5H7.5195C7.79565 11.5 8.0195 11.7239 8.0195 12C8.0195 12.2761 7.79565 12.5 7.5195 12.5H4C3.72386 12.5 3.5 12.2761 3.5 12ZM8.77886 12C8.77886 11.7239 9.00272 11.5 9.27886 11.5H15.8628C16.139 11.5 16.3628 11.7239 16.3628 12C16.3628 12.2761 16.139 12.5 15.8628 12.5H9.27886C9.00272 12.5 8.77886 12.2761 8.77886 12ZM3.5 14C3.5 13.7239 3.72386 13.5 4 13.5H13.0259C13.302 13.5 13.5259 13.7239 13.5259 14C13.5259 14.2761 13.302 14.5 13.0259 14.5H4C3.72386 14.5 3.5 14.2761 3.5 14Z"/>
<path fill-rule="evenodd" clip-rule="evenodd" d="M1.5 6.25H18.5V7.75H1.5V6.25Z"/>
</svg>
